<?xml version="1.0" encoding="UTF-8"?><svg id="Layer_2" xmlns="http://www.w3.org/2000/svg" viewBox="0 0 500 500"><defs><style>.cls-1{fill:#dedede;}.cls-2{fill:#c6c6c6;}.cls-3{fill:#254266;}.cls-4{fill:#152e51;}.cls-5{fill:#352b1c;}</style></defs><g id="Token"><path class="cls-5" d="m472.99,159.74h-5.15v-36.21c0-14.92-12.1-27.02-27.02-27.02h-5.15v-5.14c0-14.93-12.09-27.03-27.02-27.03h-5.15v-5.15c0-14.93-12.1-27.03-27.03-27.03h-36.21v-5.14c0-14.93-12.1-27.02-27.02-27.02h-126.47c-14.92,0-27.02,12.09-27.02,27.02v5.14h-36.21c-14.93,0-27.02,12.1-27.02,27.03v5.14h-5.15c-14.92,0-27.02,12.1-27.02,27.02v5.16h-5.16c-14.92,0-27.02,12.1-27.02,27.02v36.21h-5.15c-14.92,0-27.02,12.1-27.02,27.03v126.46c0,14.93,12.1,27.03,27.02,27.03h5.15v36.21c0,10.31,5.78,19.27,14.27,23.83,3.8,2.04,8.14,3.19,12.75,3.19h5.15v5.29c0,14.92,12.09,27.02,27.02,27.02h5.16v5.15c0,14.92,12.09,27.02,27.02,27.02h36.21v5c0,14.93,12.1,27.03,27.02,27.03h126.47c14.92,0,27.02-12.1,27.02-27.03v-5h36.21c14.93,0,27.03-12.1,27.03-27.02v-5.14h5.14c14.93,0,27.02-12.1,27.02-27.02v-5.3h5.15c14.92,0,27.02-12.1,27.02-27.02v-36.21h5.15c14.92,0,27.02-12.1,27.02-27.03v-126.46c0-14.92-12.09-27.02-27.01-27.03Z"/></g><g id="BrandColor"><polygon class="cls-1" points="27.02 186.77 27.02 313.25 59.19 313.25 59.19 376.48 91.36 376.48 91.36 408.79 123.53 408.79 123.53 440.96 186.77 440.96 186.77 472.98 313.24 472.98 313.24 440.96 376.48 440.96 376.48 408.79 408.65 408.79 408.65 376.62 440.82 376.62 440.82 313.25 472.99 313.25 472.99 186.77 440.82 186.77 440.82 123.52 408.65 123.52 408.65 91.35 376.48 91.35 376.48 59.19 313.24 59.19 313.24 27.02 186.77 27.02 186.77 59.19 123.53 59.19 123.53 91.35 91.36 91.35 91.36 123.52 59.19 123.52 59.19 186.76 27.02 186.77"/></g><g id="DecoFrame"><polygon class="cls-4" points="136.72 59.19 136.72 332.9 136.72 399.62 172.89 399.62 172.89 332.9 172.89 59.19 136.72 59.19"/><path class="cls-4" d="m156.1,330.58c-23.82,0-46.02,6.87-64.74,18.75v27.15h32.17v32.17h63.24v32.17h89.92c-5.47-61.79-57.38-110.24-120.59-110.24Z"/><rect class="cls-2" x="186.77" y="27.02" width="126.47" height="32.17"/><rect class="cls-2" x="313.24" y="59.19" width="63.24" height="32.17"/><rect class="cls-2" x="123.53" y="59.19" width="63.24" height="32.17"/><polygon class="cls-2" points="91.36 123.52 59.19 123.52 59.19 186.76 91.36 186.76 91.36 123.52 123.53 123.52 123.53 91.35 91.36 91.35 91.36 123.52"/><rect class="cls-2" x="27.02" y="186.76" width="32.17" height="126.49"/><rect class="cls-2" x="408.65" y="123.52" width="32.17" height="63.23"/><rect class="cls-2" x="440.82" y="186.76" width="32.17" height="126.49"/><rect class="cls-2" x="376.48" y="91.35" width="32.17" height="32.17"/><path class="cls-2" d="m277.18,451.66c0,7.27-.65,14.4-1.88,21.32h37.94v-32.16h-36.55c.33,3.57.49,7.19.49,10.84Z"/><path class="cls-3" d="m276.69,440.82h-89.92v32.16h88.53c1.23-6.92,1.88-14.05,1.88-21.32,0-3.65-.16-7.27-.49-10.84Z"/><rect class="cls-2" x="313.24" y="408.65" width="63.24" height="32.17"/><rect class="cls-3" x="123.53" y="408.65" width="63.24" height="32.17"/><path class="cls-2" d="m91.36,349.33v-36.08h-32.17v63.23h2.01c8.44-10.65,18.64-19.85,30.16-27.15Z"/><path class="cls-3" d="m61.2,376.48h30.16v-27.15c-11.52,7.3-21.72,16.5-30.16,27.15Z"/><rect class="cls-3" x="91.36" y="376.48" width="32.17" height="32.17"/><rect class="cls-2" x="408.65" y="313.25" width="32.17" height="63.23"/><rect class="cls-2" x="376.48" y="376.48" width="32.17" height="32.17"/><polygon class="cls-2" points="415.6 119.68 415.6 119.64 413.09 119.64 413.09 119.68 415.6 119.68"/><rect class="cls-2" x="54.34" y="315.07" width="0" height="0"/><rect class="cls-2" x="84.4" y="380.31" width="2.51" height="0"/><rect class="cls-3" x="136.72" y="59.19" width="36.17" height="32.17"/></g></svg>