<?xml version="1.0" encoding="UTF-8"?><svg xmlns="http://www.w3.org/2000/svg" viewBox="0 0 500 500"><defs><style>.i{fill:#e88935;}.j{fill:#2f1c0f;}.k{fill:#352b1c;}.l{mix-blend-mode:multiply;}.m{opacity:.3;}.n{isolation:isolate;}</style></defs><g class="n"><g id="a"><g id="b"><path class="k" d="M472.99,159.76h-5.15v-36.21c0-14.92-12.1-27.02-27.02-27.02h-5.15v-5.15c0-14.92-12.1-27.02-27.02-27.02h-5.16v-5.16c0-14.92-12.1-27.02-27.02-27.02h-36.21v-5.15C340.26,12.11,328.16,0,313.24,0h-126.47c-14.92,0-27.02,12.1-27.02,27.02v5.15h-36.21c-14.92,0-27.02,12.1-27.02,27.02v5.15h-5.15c-14.92,0-27.02,12.1-27.02,27.02h0v5.16h-5.16c-14.92,0-27.02,12.1-27.02,27.02v36.21h-5.15C12.1,159.76,0,171.86,0,186.78H0v126.47C0,328.17,12.1,340.27,27.02,340.27h5.15v36.21c0,14.92,12.1,27.02,27.02,27.02h5.15v5.29c0,14.92,12.1,27.02,27.02,27.02h5.16v5.15c0,14.92,12.1,27.02,27.02,27.02h36.21v5c0,14.92,12.1,27.02,27.02,27.02h126.47c14.92,0,27.02-12.1,27.02-27.02v-5h36.21c14.92,0,27.02-12.1,27.02-27.02v-5.13h5.15c14.92,0,27.02-12.1,27.02-27.02h0v-5.3h5.15c14.92,0,27.02-12.1,27.02-27.02h0v-36.21h5.15c14.92,0,27.02-12.1,27.02-27.02h0v-126.47c0-14.92-12.09-27.02-27.01-27.02h0Z"/></g></g><g id="c"><g id="d"><polygon class="j" points="27.02 186.77 27.02 313.25 59.19 313.25 59.19 376.48 91.36 376.48 91.36 408.79 123.53 408.79 123.53 440.95 186.77 440.95 186.77 472.98 313.23 472.98 313.23 440.95 376.48 440.95 376.48 408.79 408.64 408.79 408.64 376.61 440.82 376.61 440.82 313.25 472.98 313.25 472.98 186.77 440.82 186.77 440.82 123.53 408.64 123.53 408.64 91.36 376.48 91.36 376.48 59.19 313.23 59.19 313.23 27.02 186.77 27.02 186.77 59.19 123.53 59.19 123.53 91.36 91.36 91.36 91.36 123.53 59.19 123.53 59.19 186.75 27.02 186.77"/></g></g><g id="e"><g id="f" class="l"><g class="m"><rect x="186.77" y="27.02" width="126.47" height="32.17"/><rect x="313.23" y="59.19" width="63.24" height="32.17"/><rect x="123.53" y="59.19" width="63.24" height="32.17"/><polygon points="91.36 123.53 59.19 123.53 59.19 186.75 91.36 186.75 91.36 123.53 123.53 123.53 123.53 91.36 91.36 91.36 91.36 123.53"/><rect x="27.02" y="186.75" width="32.17" height="126.49"/><rect x="408.64" y="123.53" width="32.17" height="63.23"/><rect x="440.82" y="186.75" width="32.17" height="126.49"/><rect x="376.48" y="91.36" width="32.17" height="32.17"/><rect x="186.77" y="440.82" width="126.47" height="32.17"/><rect x="313.23" y="408.64" width="63.24" height="32.17"/><rect x="123.53" y="408.64" width="63.24" height="32.17"/><polygon points="91.36 376.48 91.36 408.64 123.53 408.64 123.53 376.48 91.36 376.48 91.36 313.25 59.19 313.25 59.19 376.48 91.36 376.48"/><rect x="408.64" y="313.25" width="32.17" height="63.23"/><rect x="376.48" y="376.48" width="32.17" height="32.17"/><polygon points="415.6 119.69 415.6 119.64 413.09 119.64 413.09 119.69 415.6 119.69"/></g></g><g><path class="i" d="M408.83,274.77c-.56-.3-1.16-.54-1.77-.72-1.48-.42-2.98-.73-4.5-.94-3.93-.41-7.89-.86-11.84-1-5.97-.2-11.97-.22-17.97-.23-3.13,0-6.23,.42-9.38,.22-6.18-.38-12.38-.89-18.14-3.51-.75-.33-1.42-.81-1.96-1.42-1.28-1.49-2.46-3.07-3.54-4.7-3.95-6.22-6.92-12.97-10.06-19.57-5.48-11.53-10.92-23.09-16.32-34.67-3.8-8.14-8.45-15.87-11.88-24.18-2.14-5.15-4.46-10.2-6.8-15.24-.45-.97-1.15-1.81-2.03-2.43-2.6-1.83-5.41-1.7-8.2-.42-2.03,.94-3.69,2.51-4.72,4.47-.67-.19-1.16-.29-1.68-.48-4.19-1.58-8.6-2.53-13.07-2.82-2.57-.18-5.19-.54-7.78-.94-7.52-1.17-15.16-1.42-22.74-.76-8.21,.8-16.32,2.32-24.26,4.52-11.35,3.12-22.07,8.12-31.7,14.78-4.97,3.42-9.34,7.62-12.93,12.44-.25,.36-.47,.75-.65,1.15-1.87,3.88-3.44,7.86-3.63,12.24-.02,.88-.11,1.76-.29,2.63-1.24,5.51-1.18,11.13-1.53,16.72-.16,2.51-.18,5.03-.29,7.55-.05,1.26-.12,2.51-.25,3.77-.32,4.77-.62,9.55-.96,14.32-.1,.57-.24,1.12-.43,1.66-.88-.1-1.56-.17-2.26-.25-1.51-.25-3-.64-4.52-.81-4.45-.47-8.94-.49-13.39-.07-6.97,.52-13.75,2.41-19.96,5.55-6.67,3.33-12.56,8-17.29,13.7-2.37,2.8-4.49,5.84-6.69,8.73-2.24,2.84-3.82,6.15-4.59,9.67-.78,3.52-.75,7.18,.09,10.69,3.09,13.51,11.8,22.15,24.87,26.76,4.08,1.42,8.28,1.74,12.43,2.46,6.96,1.04,14,1.48,21.03,1.31,13.4-.05,26.1-3.25,38.3-8.32,5.01-2.06,9.92-4.36,14.88-6.48,3.76-1.62,7.56-3.43,11.5-4.68,8.36-2.65,16.78-5.01,25.16-7.45,12.42-3.78,25.46-5.23,38.44-4.28,8.87,.72,17.72,1.38,26.6,1.7,5.82,.21,11.62,.65,17.42,.62,6.45,.02,12.9-.38,19.3-1.2,9.61-1.35,19.09-3.49,28.34-6.4,6.05-1.84,12.13-3.51,18.27-5.01,6.22-1.42,12.28-3.45,18.1-6.05,2.73-1.26,5.11-3.15,6.95-5.5,2.21-2.78,1.57-5.52-1.64-7.16Zm-2.51,8.43c-2.88,2.37-5.93,4.35-9.81,4.75-2.6,.31-5.23,.35-7.83,.1-2.16-.22-4.34-.19-6.5-.41-2.16-.21-4.28-.71-6.44-.94-6.49-.69-12.99-1.4-19.41,.35-1.96,.53-3.85,1.38-5.8,1.97-3.84,1.15-7.72,2.19-11.58,3.34-9.97,2.98-20.23,4.19-30.57,4.89-4.32,.3-8.69,.06-13.03-.05-6.06-.14-12.13-.41-18.2-.59-9.59-.14-19.16-.93-28.64-2.37-7.62-1.31-15.11-3.28-22.39-5.87-8.92-3.12-17.89-6.11-26.85-9.12-4.35-1.47-8.66-3.16-13.12-4.21-4.07-.81-8.18-1.36-12.32-1.65-2.41-.24-4.85-.2-7.28-.23-4.15-.06-8.3-.16-12.45-.11-9.79,.16-19.52,1.37-29.04,3.59-7.12,1.63-14,3.96-20.1,8.1-3.37,2.17-6.2,5.07-8.26,8.48-2.98,5.17-3.04,10.56-1.17,16.07,1.43,3.79,3.5,7.32,6.12,10.44,.87,1.01,1.62,2.12,2.24,3.29-.25-.14-.49-.31-.72-.49-3.45-2.83-6.39-6.22-8.68-10.02-2.73-4.65-3.53-10.15-2.23-15.35,1.61-7.38,5.45-14.1,11.02-19.28,2.44-2.22,5.09-4.21,7.91-5.93,3.62-2.25,7.38-4.27,11.25-6.07,6.53-3.08,13.66-4.76,20.92-4.93,3.07-.04,6.13,.33,9.1,1.09,7.93,2.05,15.79,4.29,23.62,6.64,10.16,3.02,20.29,6.17,30.37,9.44,7.9,2.55,15.73,5.3,23.57,8.07,4.58,1.61,9.27,2.87,14.05,3.76,4.21,.79,8.41,1.66,12.66,2.13,4.82,.51,9.68,.6,14.54,.8,4.35,.13,8.69,.14,13.02,.38,7.79,.43,15.54,1.12,23.36,1.01,5.24,.07,10.48-.4,15.62-1.42,4.1-.95,8.29-1.53,12.38-2.48,3.04-.7,6-1.74,9-2.6,5.03-1.44,9.86-3.5,15.05-4.37,2.2-.43,4.45-.51,6.68-.24,4.49,.64,8.86,1.26,13.48,1.85,4.62,.59,9.24,1.44,13.92,1.17,2.41-.22,4.8-.65,7.13-1.31,1.84-.45,3.6-1.18,5.4-1.8l-.03,.14Zm-242.84-24.49c1.95,.48,3.94,.9,5.87,1.46,4.72,1.37,9.4,2.8,14.1,4.22,.81,.21,1.57,.58,2.23,1.09l-.92-.16c-6.29-1.88-12.58-3.76-18.86-5.66-.83-.24-1.62-.62-2.43-.95Zm245.03,21.84c-.53,.45-1.16,.78-1.83,.97-1.53,.44-3.1,.72-4.69,.82-3.73,.04-7.42-.05-11.11-.26-3.96-.22-7.91-.57-11.84-1-1.91-.19-3.78-.56-5.68-.84-1.46-.21-2.91-.5-4.37-.58-5.7-.37-11.41-1-16.99,.48-3.26,.88-6.43,2.03-9.71,2.9-3.58,.96-7.16,1.94-10.8,2.58-10.65,1.78-21.42,2.73-32.23,2.87-6.9,.1-13.8,.16-20.7-.37-2.8-.2-5.59-.35-8.41-.57-3.44-.26-6.89-.47-10.32-.85-4.82-.53-9.65-1.12-14.43-1.93-2.95-.5-5.82-1.45-8.72-2.23-8.07-2.19-16.13-4.48-24.25-6.5-5.92-1.6-11.75-3.53-17.45-5.78-.71-.26-1.39-.63-2-1.07,2.98-.38,5.7,.57,8.7,.87,3.01,.3,6.02,.44,8.98,.71,2.97,.27,5.92,.64,8.9,.82-4.73-1.43-9.58-2.46-14.48-3.07l.04-.39c.36-.05,.71-.13,1.08-.17l32.87-4.21c6.72-.81,13.42-1.81,20.16-2.47,3.63-.26,7.28-.33,10.92-.21,6.07,.05,12.16-.05,18.2,.33,7.65,.49,15.32,1.14,22.91,2.16,7.68,.93,15.25,2.67,22.56,5.18,1.42,.5,2.88,.89,4.25,1.31,.64-.92,.1-1.44-.18-1.96l-7.83-14.55c-1.74-3.24-3.52-6.45-5.19-9.71-.61-1.2-1.63-2.15-2.88-2.68-3.52-1.51-7.18-2.7-10.92-3.54-8.17-1.89-16.49-3.04-24.86-3.42-10.85-.62-21.73-.55-32.57,.21-12.63,.8-25.2,2.36-37.63,4.68-16.35,2.95-32.3,7.78-47.5,14.4-.98,.47-1.99,.84-2.98,1.29-2.28,1.01-2.5,1.46-2.12,3.93h0c-.67-.6-.54-1.37-.25-2.14,.13-1.88,.34-3.77,.54-5.64,.37-4.58,.75-9.14,1.07-13.75,.33-4.62,.6-9.29,.88-13.94,.54-8.77,1.99-17.38,5.78-25.44,1.35-2.74,3.38-5.08,5.92-6.81,4.19-3.1,8.64-5.85,13.31-8.21,14.32-7.03,29.3-11.81,45.41-12.61,4.9-.2,9.84-.08,14.75-.17,4.47-.13,8.95,.14,13.37,.83,4.28,.7,8.59,1.34,12.85,2.18,2.51,.47,4.91,1.43,7.39,2.05,1.05,.26,2.13,.4,3.21,.42,.65-.11,1.28-.31,1.87-.61-2.04-2.16-4.8-1.81-6.78-3.07,1.58-2.03,5.44-2.99,8.02-1.97,.34,3.21,1.94,6.03,3.25,8.97,3.97,8.86,7.98,17.64,12.09,26.44,2.89,6.11,5.97,12.15,9.04,18.19,4.07,8.02,8.13,16.03,12.31,23.98,3.71,7.07,7.61,14.04,11.39,21.06,.48,.9,1.28,1.58,2.24,1.93,4.3,1.74,8.77,3.05,13.33,3.91,3.71,.66,7.46,1.08,11.19,1.65,4.04,.62,8.19,1.4,12.11,1.91,3.92,.51,7.87,.79,11.82,1.15,1.21,.11,2.43,.18,3.64,.24,.42,.03,.85-.02,1.27-.04l.11-.37c-.59-.26-1.2-.47-1.82-.65-3-.62-6-1.23-9.01-1.81-3.25-.63-6.52-1.23-9.77-2.06,1.67,.05,3.33,.14,4.99,.14,2.55,0,5.11-.07,7.67-.1,5.69-.02,11.37,.39,17,1.24,1.58,.24,3.11,.71,4.55,1.39,1.8,.85,1.89,2.32,.34,3.58Z"/><path class="i" d="M233.22,179.71c-.63-.09-1.27-.09-1.9,.02-3.05,.58-6.13,1.29-9.15,2-5.01,1.28-9.82,3.25-14.27,5.86-.47,.2-.89,.49-1.25,.85-.35,.46-.76,1.15-.62,1.6,.14,.45,.89,.74,1.34,1.09,1.36-.28,2.54-.49,3.69-.8,1.94-.41,3.72-1.36,5.14-2.72,1.54-1.53,3.46-2.63,5.58-3.19,3.15-.83,6.29-1.67,9.43-2.51,.75-.17,1.49-.41,2.2-.72,.14-.11,.26-.25,.34-.4s.12-.33,.12-.51c-.05-.14-.14-.27-.25-.37-.11-.1-.25-.17-.39-.21Z"/><path class="i" d="M301.29,205.62c-2.91-3.44-5.88-6.83-8.76-10.27-1.32-1.55-2.46-3.25-3.7-4.85-.34-.45-.79-.81-1.3-1.05-.2-.07-.41-.1-.63-.07-.21,.03-.41,.1-.59,.22-.13,.16-.23,.35-.27,.55s-.05,.41,0,.62c.18,.6,.45,1.18,.8,1.7,2.92,4.96,6.44,9.54,10.49,13.66,1.17,1.17,2.43,2.24,3.77,3.21,.98,.9,2.26,1.41,3.59,1.44-.11-.48-.27-.96-.48-1.41-.94-1.28-1.89-2.54-2.9-3.75Z"/><path class="i" d="M148.83,262.85c-.6-.12-1.2-.18-1.81-.2l-.2,.78c8.38,2.57,16.65,5.55,25.53,6.33-.26-.26-.58-.44-.93-.54-7.53-2.14-15.06-4.26-22.59-6.37Z"/></g></g><g id="g"/><g id="h"/></g></svg>