<?xml version="1.0" encoding="UTF-8"?><svg xmlns="http://www.w3.org/2000/svg" viewBox="0 0 500 500"><defs><style>.f{fill:#fff;}.g{fill:#1a1a1a;}.h{fill:#352b1c;}</style></defs><g id="a"><path class="h" d="M472.99,159.75h-5.15v-36.21c0-14.92-12.1-27.02-27.02-27.02h-5.15v-5.15c0-14.92-12.1-27.02-27.02-27.02h-5.16v-5.16c0-14.92-12.1-27.02-27.02-27.02h-36.21v-5.15c0-14.92-12.1-27.02-27.02-27.02h-126.47c-14.92,0-27.02,12.1-27.02,27.02v5.15h-36.21c-14.92,0-27.02,12.1-27.02,27.02v5.15h-5.15c-14.92,0-27.02,12.1-27.02,27.02h0v5.16h-5.16c-14.92,0-27.02,12.1-27.02,27.02v36.21h-5.15c-14.92,0-27.02,12.1-27.02,27.02H0v126.47c0,14.92,12.1,27.02,27.02,27.02h5.15v36.21c0,14.92,12.1,27.02,27.02,27.02h5.15v5.29c0,14.92,12.1,27.02,27.02,27.02h5.16v5.15c0,14.92,12.1,27.02,27.02,27.02h36.21v5c0,14.92,12.1,27.02,27.02,27.02h126.47c14.92,0,27.02-12.1,27.02-27.02v-5h36.21c14.92,0,27.02-12.1,27.02-27.02v-5.13h5.15c14.92,0,27.02-12.1,27.02-27.02h0v-5.3h5.15c14.92,0,27.02-12.1,27.02-27.02h0v-36.21h5.15c14.92,0,27.02-12.1,27.02-27.02h0v-126.47c0-14.92-12.09-27.02-27.01-27.02Z"/></g><g id="b"><polygon points="27.02 186.77 27.02 313.25 59.19 313.25 59.19 376.48 91.36 376.48 91.36 408.79 123.53 408.79 123.53 440.96 186.77 440.96 186.77 472.99 313.24 472.99 313.24 440.96 376.48 440.96 376.48 408.79 408.65 408.79 408.65 376.62 440.82 376.62 440.82 313.25 472.99 313.25 472.99 186.77 440.82 186.77 440.82 123.53 408.65 123.53 408.65 91.36 376.48 91.36 376.48 59.19 313.24 59.19 313.24 27.02 186.77 27.02 186.77 59.19 123.53 59.19 123.53 91.36 91.36 91.36 91.36 123.53 59.19 123.53 59.19 186.76 27.02 186.77"/></g><g id="c"><g><rect class="g" x="186.77" y="27.02" width="126.47" height="32.17"/><rect class="g" x="313.24" y="59.19" width="63.24" height="32.17"/><rect class="g" x="123.53" y="59.19" width="63.24" height="32.17"/><polygon class="g" points="91.36 123.53 59.19 123.53 59.19 186.76 91.36 186.76 91.36 123.53 123.53 123.53 123.53 91.36 91.36 91.36 91.36 123.53"/><rect class="g" x="27.02" y="186.76" width="32.17" height="126.49"/><rect class="g" x="408.65" y="123.53" width="32.17" height="63.23"/><rect class="g" x="440.82" y="186.76" width="32.17" height="126.49"/><rect class="g" x="376.48" y="91.36" width="32.17" height="32.17"/><rect class="g" x="186.77" y="440.82" width="126.47" height="32.17"/><rect class="g" x="313.24" y="408.65" width="63.24" height="32.17"/><rect class="g" x="123.53" y="408.65" width="63.24" height="32.17"/><polygon class="g" points="91.36 376.48 91.36 408.65 123.53 408.65 123.53 376.48 91.36 376.48 91.36 313.25 59.19 313.25 59.19 376.48 91.36 376.48"/><rect class="g" x="408.65" y="313.25" width="32.17" height="63.23"/><rect class="g" x="376.48" y="376.48" width="32.17" height="32.17"/><polygon class="g" points="415.6 119.69 415.6 119.64 413.09 119.64 413.09 119.69 415.6 119.69"/><rect class="g" x="54.34" y="315.08" width="0" height="0"/><rect class="g" x="84.4" y="380.31" width="2.51" height="0"/></g></g><g id="d"><path class="f" d="M335.23,302.58c20.9-33.11,20.81-75.32-.24-108.34l34.84-34.68-30.3-29.56-34.27,34.12c-33.44-21.96-76.68-22.13-110.3-.44l-33.25-32.93-29.78,30.07,33.06,32.74c-21.74,33.5-21.72,76.67,.06,110.15l-36.89,36.73,30.32,29.56,36.61-36.43c33.74,21.72,77.13,21.42,110.57-.74l36.45,36.09,29.78-30.07-36.66-36.27Zm-85.45,5.97c-33.11,0-59.96-26.83-59.96-59.94,0-33.11,26.83-59.96,59.94-59.96,33.11,0,59.96,26.83,59.96,59.94,0,23.22-13.4,44.35-34.4,54.25-7.99,3.77-16.71,5.72-25.54,5.72Z"/></g><g id="e"/></svg>