<?xml version="1.0" encoding="utf-8"?>
<!-- Generator: Adobe Illustrator 28.0.0, SVG Export Plug-In . SVG Version: 6.00 Build 0)  -->
<svg version="1.1" id="Layer_1" xmlns="http://www.w3.org/2000/svg" xmlns:xlink="http://www.w3.org/1999/xlink" x="0px" y="0px"
	 viewBox="0 0 500 500" style="enable-background:new 0 0 500 500;" xml:space="preserve">
<style type="text/css">
	.st0{fill:#352C1D;}
	.st1{opacity:0.3;}
	.st2{fill:#AB9884;}
	.st3{fill:#010101;}
	.st4{fill:none;stroke:#FFFFFF;stroke-width:4.3337;stroke-miterlimit:10;}
	.st5{fill-rule:evenodd;clip-rule:evenodd;fill:#F7F8F8;}
</style>
<g>
	<g>
		<g>
			<g>
				<g id="Token_00000134935515381000099470000016019893390649451415_">
					<g id="Token-2_00000134251415062439024770000009448265677874750358_">
						<path class="st0" d="M472.99,159.76h-5.15v-36.21c0-14.92-12.1-27.02-27.02-27.02h-5.15v-5.15c0-14.92-12.1-27.02-27.02-27.02
							h-5.16V59.2c0-14.92-12.1-27.02-27.02-27.02h-36.21v-5.15C340.26,12.1,328.16,0,313.24,0H186.77
							c-14.92,0-27.02,12.1-27.02,27.02v5.15h-36.21c-14.92,0-27.02,12.1-27.02,27.02v5.15h-5.15c-14.92,0-27.02,12.1-27.02,27.02
							l0,0v5.16h-5.16c-14.92,0-27.02,12.1-27.02,27.02v36.21h-5.15C12.1,159.76,0,171.86,0,186.78l0,0v126.47
							c0,14.92,12.1,27.02,27.02,27.02h5.15v36.21c0,14.92,12.1,27.02,27.02,27.02h5.15v5.29c0,14.92,12.1,27.02,27.02,27.02h5.16
							v5.15c0,14.92,12.1,27.02,27.02,27.02h36.21v5c0,14.92,12.1,27.02,27.02,27.02h126.47c14.92,0,27.02-12.1,27.02-27.02v-5
							h36.21c14.92,0,27.02-12.1,27.02-27.02v-5.13h5.15c14.92,0,27.02-12.1,27.02-27.02l0,0v-5.3h5.15
							c14.92,0,27.02-12.1,27.02-27.02l0,0v-36.21h5.15c14.92,0,27.02-12.1,27.02-27.02l0,0V186.79
							C500,171.87,487.91,159.77,472.99,159.76L472.99,159.76L472.99,159.76z"/>
					</g>
				</g>
				<g id="DecoFrame_00000165939560793308210720000010706289718211173251_">
					<g id="DecoFrame-2_00000172419176726425859420000004907612364430678691_">
						<g class="st1">
							<rect x="186.76" y="27.01" class="st2" width="126.47" height="32.17"/>
							<rect x="313.23" y="59.19" class="st2" width="63.24" height="32.17"/>
							<rect x="123.52" y="59.19" class="st2" width="63.24" height="32.17"/>
							<polygon class="st2" points="91.35,123.53 59.18,123.53 59.18,186.76 91.35,186.76 91.35,123.53 123.52,123.53 123.52,91.36 
								91.35,91.36 							"/>
							<rect x="27.01" y="186.76" class="st2" width="32.17" height="126.49"/>
							<rect x="408.64" y="123.53" class="st2" width="32.17" height="63.23"/>
							<rect x="440.81" y="186.76" class="st2" width="32.17" height="126.49"/>
							<rect x="376.47" y="91.36" class="st2" width="32.17" height="32.17"/>
							<rect x="186.76" y="440.82" class="st2" width="126.47" height="32.17"/>
							<rect x="313.23" y="408.65" class="st2" width="63.24" height="32.17"/>
							<rect x="123.52" y="408.65" class="st2" width="63.24" height="32.17"/>
							<polygon class="st2" points="91.35,376.48 91.35,408.65 123.52,408.65 123.52,376.48 91.35,376.48 91.35,313.25 
								59.18,313.25 59.18,376.48 							"/>
							<rect x="408.64" y="313.25" class="st2" width="32.17" height="63.23"/>
							<rect x="376.47" y="376.48" class="st2" width="32.17" height="32.17"/>
							<polygon class="st2" points="415.59,119.69 415.59,119.64 413.08,119.64 413.08,119.69 							"/>
						</g>
					</g>
				</g>
				<g id="BrandColor_00000141443166258925022620000002872479311445758609_">
					<g id="BrandColor-2_00000124865219317026270620000006396624167473593001_">
						<polygon class="st3" points="27.01,186.77 27.01,313.25 59.18,313.25 59.18,376.48 91.35,376.48 91.35,408.79 123.52,408.79 
							123.52,440.96 186.76,440.96 186.76,472.99 313.23,472.99 313.23,440.96 376.47,440.96 376.47,408.79 408.64,408.79 
							408.64,376.62 440.81,376.62 440.81,313.25 472.98,313.25 472.98,186.77 440.81,186.77 440.81,123.53 408.64,123.53 
							408.64,91.36 376.47,91.36 376.47,59.19 313.23,59.19 313.23,27.01 186.76,27.01 186.76,59.19 123.52,59.19 123.52,91.36 
							91.35,91.36 91.35,123.53 59.18,123.53 59.18,186.76 						"/>
					</g>
				</g>
				<polygon class="st4" points="186.76,92.5 186.76,59.19 313.23,59.19 313.23,91.36 376.47,91.36 376.47,124.2 408.64,124.2 
					408.64,186.76 440.81,186.76 440.81,313.46 407.59,313.46 407.59,376.62 376.47,376.62 376.47,408.79 313.23,408.79 
					313.23,440.82 186.76,440.82 186.76,407.54 123.52,407.54 123.52,375.45 91.35,375.45 91.35,313.25 59.18,313.25 59.18,186.76 
					92.66,186.76 92.66,123.53 123.52,123.53 123.52,91.98 				"/>
			</g>
		</g>
	</g>
	<g>
		<path class="st5" d="M343.2,284.95c-0.03,12.35-4.96,24.18-13.69,32.92c-8.73,8.73-20.56,13.66-32.91,13.7h-34.97v34.81h-23.26
			v-34.81H203.4c-12.35-0.04-24.18-4.96-32.91-13.69c-8.73-8.73-13.65-20.57-13.69-32.92h23.3c0.02,6.17,2.48,12.09,6.85,16.46
			c4.37,4.37,10.28,6.83,16.46,6.85h93.21c6.18,0,12.11-2.46,16.48-6.83c4.37-4.37,6.83-10.3,6.83-16.48
			c0-6.18-2.46-12.11-6.83-16.48c-4.37-4.37-10.3-6.83-16.48-6.83H203.4c-12.3-0.1-24.06-5.05-32.72-13.78
			c-8.66-8.73-13.52-20.53-13.52-32.83c0-12.3,4.86-24.1,13.52-32.83c8.66-8.73,20.42-13.69,32.72-13.78h34.97v-34.79h23.26v34.81
			h34.97c12.35,0.04,24.18,4.96,32.91,13.69c8.73,8.73,13.65,20.56,13.69,32.91h-23.3c-0.02-6.17-2.48-12.09-6.84-16.46
			c-4.37-4.37-10.28-6.83-16.46-6.85H203.4c-6.14,0.07-12,2.56-16.31,6.92c-4.31,4.36-6.73,10.25-6.73,16.39
			c0,6.14,2.42,12.02,6.73,16.39c4.31,4.36,10.17,6.85,16.31,6.92h93.21c12.35,0.04,24.18,4.96,32.91,13.69
			C338.25,260.77,343.17,272.6,343.2,284.95z"/>
	</g>
</g>
</svg>
