<?xml version="1.0" encoding="UTF-8"?><svg id="Layer_2" xmlns="http://www.w3.org/2000/svg" viewBox="0 0 500 500"><defs><style>.cls-1{fill:#fefefe;}.cls-2{fill:#db3737;}.cls-3{fill:#2a1b5b;}.cls-4{fill:#352b1c;}.cls-5{opacity:.3;}</style></defs><g id="Token"><path class="cls-4" d="m472.99,159.75h-5.15v-36.21c0-14.92-12.1-27.02-27.02-27.02h-5.15v-5.15c0-14.92-12.1-27.02-27.02-27.02h-5.16v-5.16c0-14.92-12.1-27.02-27.02-27.02h-36.21v-5.15c0-14.92-12.1-27.02-27.02-27.02h-126.47c-14.92,0-27.02,12.1-27.02,27.02v5.15h-36.21c-14.92,0-27.02,12.1-27.02,27.02v5.15h-5.15c-14.92,0-27.02,12.1-27.02,27.02h0v5.16h-5.16c-14.92,0-27.02,12.1-27.02,27.02v36.21h-5.15c-14.92,0-27.02,12.1-27.02,27.02h0v126.47c0,14.92,12.1,27.02,27.02,27.02h5.15v36.21c0,14.92,12.1,27.02,27.02,27.02h5.15v5.29c0,14.92,12.1,27.02,27.02,27.02h5.16v5.15c0,14.92,12.1,27.02,27.02,27.02h36.21v5c0,14.92,12.1,27.02,27.02,27.02h126.47c14.92,0,27.02-12.1,27.02-27.02v-5h36.21c14.92,0,27.02-12.1,27.02-27.02v-5.13h5.15c14.92,0,27.02-12.1,27.02-27.02h0v-5.3h5.15c14.92,0,27.02-12.1,27.02-27.02h0v-36.21h5.15c14.92,0,27.02-12.1,27.02-27.02h0v-126.47c0-14.92-12.09-27.02-27.01-27.02Z"/></g><g id="BrandColor"><polygon class="cls-2" points="27.02 186.77 27.02 313.25 59.19 313.25 59.19 376.48 91.36 376.48 91.36 408.79 123.53 408.79 123.53 440.96 186.77 440.96 186.77 472.99 313.24 472.99 313.24 440.96 376.48 440.96 376.48 408.79 408.65 408.79 408.65 376.62 440.82 376.62 440.82 313.25 472.99 313.25 472.99 186.77 440.82 186.77 440.82 123.53 408.65 123.53 408.65 91.36 376.48 91.36 376.48 59.19 313.24 59.19 313.24 27.02 186.77 27.02 186.77 59.19 123.53 59.19 123.53 91.36 91.36 91.36 91.36 123.53 59.19 123.53 59.19 186.76 27.02 186.77"/></g><g id="DecoFrame"><g class="cls-5"><rect class="cls-3" x="186.77" y="27.02" width="126.47" height="32.17"/><rect class="cls-3" x="313.24" y="59.19" width="63.24" height="32.17"/><rect class="cls-3" x="123.53" y="59.19" width="63.24" height="32.17"/><polygon class="cls-3" points="91.36 123.53 59.19 123.53 59.19 186.76 91.36 186.76 91.36 123.53 123.53 123.53 123.53 91.36 91.36 91.36 91.36 123.53"/><rect class="cls-3" x="27.02" y="186.76" width="32.17" height="126.49"/><rect class="cls-3" x="408.65" y="123.53" width="32.17" height="63.23"/><rect class="cls-3" x="440.82" y="186.76" width="32.17" height="126.49"/><rect class="cls-3" x="376.48" y="91.36" width="32.17" height="32.17"/><rect class="cls-3" x="186.77" y="440.82" width="126.47" height="32.17"/><rect class="cls-3" x="313.24" y="408.65" width="63.24" height="32.17"/><rect class="cls-3" x="123.53" y="408.65" width="63.24" height="32.17"/><polygon class="cls-3" points="91.36 376.48 91.36 408.65 123.53 408.65 123.53 376.48 91.36 376.48 91.36 313.25 59.19 313.25 59.19 376.48 91.36 376.48"/><rect class="cls-3" x="408.65" y="313.25" width="32.17" height="63.23"/><rect class="cls-3" x="376.48" y="376.48" width="32.17" height="32.17"/><polygon class="cls-3" points="415.6 119.69 415.6 119.64 413.09 119.64 413.09 119.69 415.6 119.69"/><rect class="cls-3" x="54.34" y="315.08" width="0" height="0"/><rect class="cls-3" x="84.4" y="380.31" width="2.51" height="0"/></g></g><g id="Logo"><path class="cls-1" d="m344.42,185.28c0,10.11.06,20.22-.05,30.33-.02,1.88.65,2.14,2.27,2.12,8.07-.07,16.15,0,24.22-.08,1.57-.01,2.09.43,1.93,2.02-.33,3.14-.34,6.3-.03,9.44.16,1.67-.44,2-1.94,1.99-8.01-.06-16.02.07-24.03-.09-2.24-.05-2.57.79-2.55,2.68.1,10.63.12,21.27.15,31.9.01,4.75,0,4.75,4.66,4.74,7.29,0,14.57.02,21.86-.03,1.47-.01,1.86.43,1.81,1.93-.12,3.21-.03,6.43.07,9.64.04,1.37-.39,1.82-1.79,1.8-8.4-.07-16.8-.03-25.2-.08-1.27,0-1.55.52-1.55,1.65.08,20.02.13,40.04.22,60.06,0,1.18-.15,1.82-1.54,1.8-6.89-.08-13.78-.11-20.67-.09-1.41,0-1.81-.36-1.8-1.89.09-19.89.06-39.78.11-59.67,0-1.38-.45-1.88-1.79-1.87-11.09.05-22.19.07-33.28.07-1.27,0-1.67.52-2.1,1.73-2.3,6.48-4.84,12.88-7.19,19.34-4.85,13.3-9.67,26.61-14.42,39.94-.59,1.66-1.34,2.41-3.2,2.37-5.51-.1-11.03-.09-16.54.05-2.07.05-3.09-.59-3.82-2.63-7.12-19.73-14.38-39.41-21.54-59.13-.47-1.28-1.05-1.72-2.38-1.71-10.96.05-21.93.04-32.89.02-1.46,0-1.95.4-1.94,2.04.08,19.89.05,39.78.08,59.67,0,1.21-.4,1.6-1.57,1.6-7.02,0-14.05.04-21.07.09-1.01,0-1.32-.34-1.32-1.4.07-19.82.07-39.65.19-59.47.01-2.09-.5-2.62-2.63-2.58-8.14.16-16.28.06-24.42.09-1.08,0-1.52-.33-1.49-1.47.08-3.54.13-7.09.05-10.63-.04-1.55.92-1.3,1.8-1.3,6.89,0,13.79.02,20.68.04,1.38,0,2.76-.07,4.13.02,1.44.1,1.77-.56,1.77-1.88-.02-11.55-.02-23.11.08-34.66.02-2.12-.44-2.86-2.78-2.81-7.94.18-15.89.04-23.83.1-1.49.01-2.04-.26-1.93-1.96.22-3.27.2-6.56.09-9.84-.05-1.34.26-1.67,1.58-1.66,8.21.06,16.41.01,24.62.07,1.52.01,2.19-.26,2.19-2.02-.05-19.69,0-39.39,0-59.08,0-3.65-.01-3.7,3.55-3.71,9.52-.02,19.04.05,28.55,0,1.82,0,2.57.55,3.18,2.44,2.02,6.23,4.43,12.33,6.68,18.47,5.14,14.02,10.3,28.04,15.38,42.09.53,1.46,1.3,1.81,2.74,1.81,22.78-.04,45.56-.05,68.34,0,1.68,0,2.28-.58,2.85-2.14,4.88-13.49,9.92-26.93,14.86-40.4,2.59-7.07,5.13-14.16,7.6-21.28.39-1.13,1.14-.95,1.84-.95,4.99-.06,9.98-.08,14.96-.08,5.51,0,11.03.06,16.54.03,1.37,0,1.76.46,1.75,1.85-.06,10.17-.03,20.35-.03,30.52-.02,0-.04,0-.06,0Zm-94.43,45.8c-9.25,0-18.51,0-27.76,0-3.66,0-3.71.02-2.45,3.45,4,10.95,8.15,21.85,11.98,32.86.88,2.54,2.18,3.06,4.57,3.03,8.99-.12,17.98-.06,26.97-.07,3.43,0,3.61-.14,4.63-3.3.22-.69.44-1.38.71-2.04,4.38-10.46,7.41-21.43,11.98-31.81.76-1.72.42-2.17-1.49-2.15-9.71.09-19.43.04-29.14.04Zm70.49,19.6s.02,0,.02,0c0-5.97-.01-11.95.01-17.92,0-1.04-.08-1.72-1.44-1.71-4.92.07-9.85.03-14.77.02-.8,0-1.31.2-1.59,1.08-3.46,10.94-8.06,21.47-11.68,32.34-.48,1.43-1.05,2.83-1.54,4.25-.41,1.17-.24,1.85,1.29,1.72,1.83-.15,3.67-.13,5.51-.13,7.22-.02,14.44-.06,21.66,0,1.86.01,2.65-.4,2.59-2.53-.17-5.71-.06-11.42-.06-17.13Zm-140.98-.08h-.18c0,5.91.01,11.81-.01,17.72,0,1.31.08,2.22,1.86,2.2,9.38-.1,18.77-.1,28.15-.09,1.42,0,1.74-.5,1.27-1.78-1.99-5.41-3.93-10.84-5.94-16.25-2.51-6.75-5.26-13.42-7.37-20.32-.3-.99-.87-.99-1.6-.99-4.92,0-9.84.02-14.77-.02-1.06,0-1.45.22-1.44,1.42.08,6.04.04,12.08.04,18.11Zm70.37,33.1s0,.02,0,.04c-3.28,0-6.55.06-9.83-.02-1.86-.05-2.04.52-1.41,2.18,3.57,9.41,7.03,18.87,10.53,28.31.17.46.16,1.25.69,1.23.67-.02.68-.85.88-1.38,3.53-9.5,7.01-19.03,10.61-28.5.6-1.58.07-1.86-1.25-1.86-3.41,0-6.81,0-10.22,0Zm-70.33-81.34h-.13c0,4.59.06,9.18-.04,13.77-.02,1.26.39,1.64,1.54,1.61,1.97-.05,3.94-.06,5.9-.05,5.21.03,5.16.05,3.32-4.79-3.11-8.2-6.15-16.43-9.25-24.64-.2-.54.11-1.66-.77-1.53-.84.12-.55,1.2-.56,1.84-.05,4.59-.02,9.18-.02,13.77Zm140.96-1.35c.23-3.52-.52-8.23-.08-12.95.04-.48.17-1.21-.48-1.31-.73-.12-.62.65-.77,1.11-.28.87-.53,1.75-.85,2.61-3.21,8.57-6.41,17.14-9.66,25.69-.44,1.16-.18,1.56,1.02,1.55,3.01-.02,6.03-.07,9.04.02,1.5.04,1.85-.52,1.82-1.97-.1-4.52-.04-9.04-.04-14.75Z"/></g></svg>