<?xml version="1.0" encoding="UTF-8"?><svg xmlns="http://www.w3.org/2000/svg" viewBox="0 0 500 500"><defs><style>.cls-1{fill:#fff;}.cls-2{fill:#9dcced;}.cls-3{fill:#213147;}.cls-4{fill:#12aaff;}.cls-5{fill:#0a1621;}.cls-6{fill:#352b1c;}.cls-7{opacity:.3;}</style></defs><g id="Token"><g id="Token-2"><path class="cls-6" d="M472.99,159.76h-5.15v-36.21c0-14.92-12.1-27.02-27.02-27.02h-5.15v-5.15c0-14.92-12.1-27.02-27.02-27.02h-5.16v-5.16c0-14.92-12.1-27.02-27.02-27.02h-36.21v-5.15C340.26,12.11,328.16,0,313.24,0h-126.47c-14.92,0-27.02,12.1-27.02,27.02v5.15h-36.21c-14.92,0-27.02,12.1-27.02,27.02v5.15h-5.15c-14.92,0-27.02,12.1-27.02,27.02h0v5.16h-5.16c-14.92,0-27.02,12.1-27.02,27.02v36.21h-5.15C12.1,159.76,0,171.86,0,186.78H0v126.47C0,328.17,12.1,340.27,27.02,340.27h5.15v36.21c0,14.92,12.1,27.02,27.02,27.02h5.15v5.29c0,14.92,12.1,27.02,27.02,27.02h5.16v5.15c0,14.92,12.1,27.02,27.02,27.02h36.21v5c0,14.92,12.1,27.02,27.02,27.02h126.47c14.92,0,27.02-12.1,27.02-27.02v-5h36.21c14.92,0,27.02-12.1,27.02-27.02v-5.13h5.15c14.92,0,27.02-12.1,27.02-27.02h0v-5.3h5.15c14.92,0,27.02-12.1,27.02-27.02h0v-36.21h5.15c14.92,0,27.02-12.1,27.02-27.02h0v-126.47c0-14.92-12.09-27.02-27.01-27.02h0Z"/></g></g><g id="BrandColor"><g id="BrandColor-2"><polygon class="cls-3" points="27.02 186.77 27.02 313.25 59.19 313.25 59.19 376.48 91.36 376.48 91.36 408.79 123.53 408.79 123.53 440.95 186.77 440.95 186.77 472.98 313.23 472.98 313.23 440.95 376.48 440.95 376.48 408.79 408.64 408.79 408.64 376.61 440.82 376.61 440.82 313.25 472.98 313.25 472.98 186.77 440.82 186.77 440.82 123.53 408.64 123.53 408.64 91.36 376.48 91.36 376.48 59.19 313.23 59.19 313.23 27.02 186.77 27.02 186.77 59.19 123.53 59.19 123.53 91.36 91.36 91.36 91.36 123.53 59.19 123.53 59.19 186.75 27.02 186.77"/></g></g><g id="DecoFrame"><g id="DecoFrame-2"><g class="cls-7"><rect class="cls-5" x="186.77" y="27.02" width="126.47" height="32.17"/><rect class="cls-5" x="313.23" y="59.19" width="63.24" height="32.17"/><rect class="cls-5" x="123.53" y="59.19" width="63.24" height="32.17"/><polygon class="cls-5" points="91.36 123.53 59.19 123.53 59.19 186.75 91.36 186.75 91.36 123.53 123.53 123.53 123.53 91.36 91.36 91.36 91.36 123.53"/><rect class="cls-5" x="27.02" y="186.75" width="32.17" height="126.49"/><rect class="cls-5" x="408.64" y="123.53" width="32.17" height="63.23"/><rect class="cls-5" x="440.82" y="186.75" width="32.17" height="126.49"/><rect class="cls-5" x="376.48" y="91.36" width="32.17" height="32.17"/><rect class="cls-5" x="186.77" y="440.82" width="126.47" height="32.17"/><rect class="cls-5" x="313.23" y="408.64" width="63.24" height="32.17"/><rect class="cls-5" x="123.53" y="408.64" width="63.24" height="32.17"/><polygon class="cls-5" points="91.36 376.48 91.36 408.64 123.53 408.64 123.53 376.48 91.36 376.48 91.36 313.25 59.19 313.25 59.19 376.48 91.36 376.48"/><rect class="cls-5" x="408.64" y="313.25" width="32.17" height="63.23"/><rect class="cls-5" x="376.48" y="376.48" width="32.17" height="32.17"/><polygon class="cls-5" points="415.6 119.69 415.6 119.64 413.09 119.64 413.09 119.69 415.6 119.69"/></g></g></g><g id="Logo"><g><path class="cls-3" d="M133.13,198.5v111.86c0,7.14,3.82,13.75,10,17.31l96.88,55.94c6.18,3.56,13.79,3.56,19.97,0l96.88-55.94c6.18-3.56,10-10.16,10-17.31v-111.86c0-7.14-3.82-13.75-10-17.31l-96.88-55.94c-6.18-3.56-13.79-3.56-19.97,0l-96.9,55.94c-6.18,3.56-9.98,10.16-9.98,17.31Z"/><g><path class="cls-4" d="M271.12,276.12l-13.82,37.89c-.37,1.05-.37,2.2,0,3.25l23.77,65.19,27.49-15.88-32.99-90.46c-.75-2.08-3.7-2.08-4.45,0Z"/><path class="cls-4" d="M298.82,212.41c-.75-2.08-3.7-2.08-4.45,0l-13.82,37.89c-.37,1.05-.37,2.2,0,3.25l38.94,106.73,27.49-15.88-48.17-132Z"/></g><path class="cls-2" d="M249.98,129.44c.68,0,1.36,.19,1.97,.52l104.84,60.53c1.22,.7,1.97,2.01,1.97,3.4v121.04c0,1.41-.75,2.69-1.97,3.4l-104.84,60.53c-.59,.35-1.29,.52-1.97,.52s-1.36-.19-1.97-.52l-104.84-60.49c-1.22-.7-1.97-2.01-1.97-3.4v-121.07c0-1.41,.75-2.69,1.97-3.4l104.84-60.53c.61-.35,1.29-.54,1.97-.54m0-17.68c-3.72,0-7.47,.96-10.82,2.9l-104.81,60.51c-6.7,3.86-10.82,11.01-10.82,18.73v121.04c0,7.73,4.12,14.87,10.82,18.73l104.84,60.53c3.35,1.92,7.07,2.9,10.82,2.9s7.47-.96,10.82-2.9l104.84-60.53c6.7-3.86,10.82-11.01,10.82-18.73v-121.04c0-7.73-4.12-14.87-10.82-18.73l-104.86-60.51c-3.35-1.94-7.1-2.9-10.82-2.9h0Z"/><polygon class="cls-3" points="180.64 360.43 190.29 334.01 209.7 350.15 191.55 366.72 180.64 360.43"/><g><path class="cls-1" d="M241.15,185.24h-26.58c-1.99,0-3.77,1.24-4.45,3.11l-56.97,156.19,27.49,15.88,62.73-172c.59-1.55-.56-3.18-2.22-3.18Z"/><path class="cls-1" d="M287.65,185.24h-26.58c-1.99,0-3.77,1.24-4.45,3.11l-65.05,178.34,27.49,15.88,70.81-194.15c.56-1.55-.59-3.18-2.22-3.18Z"/></g></g></g></svg>