<?xml version="1.0" encoding="UTF-8"?><svg xmlns="http://www.w3.org/2000/svg" viewBox="0 0 500 500"><defs><style>.g{fill:#fff;}.h{fill:#1a1a1a;}.i{fill:#352b1c;}</style></defs><g id="a"><path class="i" d="M472.99,159.75h-5.15v-36.21c0-14.92-12.1-27.02-27.02-27.02h-5.15v-5.15c0-14.92-12.1-27.02-27.02-27.02h-5.16v-5.16c0-14.92-12.1-27.02-27.02-27.02h-36.21v-5.15c0-14.92-12.1-27.02-27.02-27.02h-126.47c-14.92,0-27.02,12.1-27.02,27.02v5.15h-36.21c-14.92,0-27.02,12.1-27.02,27.02v5.15h-5.15c-14.92,0-27.02,12.1-27.02,27.02h0v5.16h-5.16c-14.92,0-27.02,12.1-27.02,27.02v36.21h-5.15c-14.92,0-27.02,12.1-27.02,27.02H0v126.47c0,14.92,12.1,27.02,27.02,27.02h5.15v36.21c0,14.92,12.1,27.02,27.02,27.02h5.15v5.29c0,14.92,12.1,27.02,27.02,27.02h5.16v5.15c0,14.92,12.1,27.02,27.02,27.02h36.21v5c0,14.92,12.1,27.02,27.02,27.02h126.47c14.92,0,27.02-12.1,27.02-27.02v-5h36.21c14.92,0,27.02-12.1,27.02-27.02v-5.13h5.15c14.92,0,27.02-12.1,27.02-27.02h0v-5.3h5.15c14.92,0,27.02-12.1,27.02-27.02h0v-36.21h5.15c14.92,0,27.02-12.1,27.02-27.02h0v-126.47c0-14.92-12.09-27.02-27.01-27.02Z"/></g><g id="b"><polygon points="27.02 186.77 27.02 313.24 59.19 313.24 59.19 376.48 91.35 376.48 91.35 408.79 123.52 408.79 123.52 440.95 186.77 440.95 186.77 472.98 313.23 472.98 313.23 440.95 376.48 440.95 376.48 408.79 408.65 408.79 408.65 376.62 440.81 376.62 440.81 313.24 472.98 313.24 472.98 186.77 440.81 186.77 440.81 123.52 408.65 123.52 408.65 91.35 376.48 91.35 376.48 59.19 313.23 59.19 313.23 27.02 186.77 27.02 186.77 59.19 123.52 59.19 123.52 91.35 91.35 91.35 91.35 123.52 59.19 123.52 59.19 186.76 27.02 186.77"/></g><g id="c"><g><rect class="h" x="186.77" y="27.02" width="126.47" height="32.17"/><rect class="h" x="313.23" y="59.19" width="63.24" height="32.17"/><rect class="h" x="123.52" y="59.19" width="63.24" height="32.17"/><polygon class="h" points="91.35 123.52 59.19 123.52 59.19 186.76 91.35 186.76 91.35 123.52 123.52 123.52 123.52 91.35 91.35 91.35 91.35 123.52"/><rect class="h" x="27.02" y="186.76" width="32.17" height="126.49"/><rect class="h" x="408.65" y="123.52" width="32.17" height="63.23"/><rect class="h" x="440.81" y="186.76" width="32.17" height="126.49"/><rect class="h" x="376.48" y="91.35" width="32.17" height="32.17"/><rect class="h" x="186.77" y="440.81" width="126.47" height="32.17"/><rect class="h" x="313.23" y="408.65" width="63.24" height="32.17"/><rect class="h" x="123.52" y="408.65" width="63.24" height="32.17"/><polygon class="h" points="91.35 376.48 91.35 408.65 123.52 408.65 123.52 376.48 91.35 376.48 91.35 313.24 59.19 313.24 59.19 376.48 91.35 376.48"/><rect class="h" x="408.65" y="313.24" width="32.17" height="63.23"/><rect class="h" x="376.48" y="376.48" width="32.17" height="32.17"/><polygon class="h" points="415.6 119.68 415.6 119.64 413.08 119.64 413.08 119.68 415.6 119.68"/><rect class="h" x="54.33" y="315.07" width="0" height="0"/><rect class="h" x="84.39" y="380.31" width="2.51" height="0"/></g></g><g id="d"><path id="e" class="g" d="M156.09,129.25l-14.21,14.21,17.97,17.97,18.01,17.97-1.49,4.4c-1.92,5.77-2.71,10.6-2.71,16.99,0,20.84,10.91,38.58,30.22,49.13,7.77,4.24,21.11,9.03,35.91,12.83,28.88,7.42,33.32,8.71,39.01,11.38,7.77,3.69,11.62,7.69,13.23,13.74,.71,2.63,.67,8.52-.04,11.34-1.81,6.87-7.65,13.77-14.91,17.54-9.81,5.14-26.88,6.55-39.75,3.26-4.79-1.18-11.58-4.51-14.99-7.3-6.95-5.73-12.36-15.62-14.76-27.04-.39-1.81-.71-3.34-.75-3.41-.12-.16-40.3,3.77-40.5,4-.16,.12-.04,1.77,.24,3.65,1.26,9.07,4.43,19.86,8.08,27.35l2.12,4.36-17.46,17.46-17.42,17.46,14.25,14.25,14.21,14.21,18.01-18.01,17.97-17.97,3.1,1.3c16.4,6.91,41.01,9.07,64.87,5.61,5.73-.82,14.01-2.79,18.37-4.4l2.59-.94,17.23,17.23,17.19,17.19,14.21-14.21,14.25-14.25-15.97-15.97-15.93-15.93,2-4.08c4.16-8.36,5.89-15.46,6.24-25.23,.63-18.64-4.2-32.69-15.19-44.27-11.46-12.05-24.37-17.78-60.83-26.96-25.7-6.44-36.77-10.87-41.17-16.44-4.36-5.49-4.75-13.19-.94-18.8,2.2-3.26,7.61-6.75,13.5-8.71,6.63-2.24,17.78-3.26,26.06-2.39,17.46,1.84,26.25,9.3,30.1,25.63,.47,2,.9,3.69,.94,3.77,.08,.12,28.49-.9,37.01-1.33l4.87-.24-.27-3.41c-.55-6.95-1.92-13.15-4.43-19.62l-1.37-3.65,17.7-17.74,17.7-17.7-14.21-14.25-14.25-14.21-17.9,17.9-17.93,17.93-4.36-1.65c-10.71-4-21.07-5.77-36.34-6.2-16.68-.43-31.32,1.73-42.54,6.28l-4.16,1.69-18.05-17.97-18.05-17.97-14.25,14.25Z"/></g><g id="f"/></svg>