<?xml version="1.0" encoding="UTF-8"?><svg id="Layer_2" xmlns="http://www.w3.org/2000/svg" xmlns:xlink="http://www.w3.org/1999/xlink" viewBox="0 0 500 500"><defs><style>.cls-1{fill:url(#linear-gradient);}.cls-2{stroke:#054f80;stroke-miterlimit:10;stroke-width:.31px;}.cls-2,.cls-3{fill:#fff;}.cls-4{fill:#10ddd3;}.cls-5{fill:#254266;}.cls-6{fill:#2ff;}.cls-7{fill:#1270a3;}.cls-8{fill:#0f1a2b;}.cls-9{fill:#385181;}.cls-10{fill:#352b1c;}.cls-11{fill:url(#linear-gradient-3);}.cls-12{fill:url(#linear-gradient-4);}.cls-13{fill:url(#linear-gradient-2);}.cls-14{fill:url(#linear-gradient-5);}</style><linearGradient id="linear-gradient" x1="220.82" y1="-6023.01" x2="350.61" y2="-6117.9" gradientTransform="translate(0 -5818.34) scale(1 -1)" gradientUnits="userSpaceOnUse"><stop offset="0" stop-color="#6aa9dc"/><stop offset=".17" stop-color="#2173b8"/><stop offset=".21" stop-color="#1061a0"/><stop offset=".26" stop-color="#0a4c80"/><stop offset=".31" stop-color="#123d68"/><stop offset=".36" stop-color="#143659"/><stop offset=".4" stop-color="#163354"/><stop offset=".48" stop-color="#123656"/><stop offset=".55" stop-color="#173e5f"/><stop offset=".63" stop-color="#2c506e"/><stop offset=".71" stop-color="#486680"/><stop offset=".78" stop-color="#6b8093"/><stop offset=".86" stop-color="#92a4b3"/><stop offset=".93" stop-color="#c4cdd5"/><stop offset="1" stop-color="#fff"/></linearGradient><linearGradient id="linear-gradient-2" x1="396.44" y1="-6023.01" x2="266.65" y2="-6117.91" xlink:href="#linear-gradient"/><linearGradient id="linear-gradient-3" x1="241.87" y1="-6083.75" x2="374.84" y2="-6083.75" gradientTransform="translate(0 -5818.34) scale(1 -1)" gradientUnits="userSpaceOnUse"><stop offset="0" stop-color="#103757"/><stop offset=".13" stop-color="#8ebee7"/><stop offset=".14" stop-color="#a5caea"/><stop offset=".17" stop-color="#c0d9ef"/><stop offset=".2" stop-color="#d5e6f4"/><stop offset=".23" stop-color="#e6eff8"/><stop offset=".27" stop-color="#f3f7fa"/><stop offset=".33" stop-color="#fafafb"/><stop offset=".5" stop-color="#fff"/><stop offset=".66" stop-color="#fafafb"/><stop offset=".72" stop-color="#f3f7fa"/><stop offset=".77" stop-color="#e6eff8"/><stop offset=".8" stop-color="#d5e6f4"/><stop offset=".83" stop-color="#c0d9ef"/><stop offset=".85" stop-color="#a5caea"/><stop offset=".88" stop-color="#83b8e4"/><stop offset=".9" stop-color="#63a2d8"/><stop offset=".92" stop-color="#408ac9"/><stop offset=".93" stop-color="#2878bb"/><stop offset="1" stop-color="#103757"/></linearGradient><linearGradient id="linear-gradient-4" x1="308.56" y1="-5969.26" x2="308.56" y2="-6119.9" gradientTransform="translate(0 -5818.34) scale(1 -1)" gradientUnits="userSpaceOnUse"><stop offset="0" stop-color="#081019"/><stop offset=".41" stop-color="#0f1a2b"/><stop offset=".52" stop-color="#101c2e"/><stop offset=".62" stop-color="#142137"/><stop offset=".7" stop-color="#162b47"/><stop offset=".78" stop-color="#12395e"/><stop offset=".85" stop-color="#104b7f"/><stop offset=".93" stop-color="#1061a0"/><stop offset="1" stop-color="#2878bb"/></linearGradient><linearGradient id="linear-gradient-5" x1="308.12" y1="-6046.63" x2="308.12" y2="-6066.16" gradientTransform="translate(0 -5818.34) scale(1 -1)" gradientUnits="userSpaceOnUse"><stop offset="0" stop-color="#dcdddd"/><stop offset="1" stop-color="#8c8685"/></linearGradient></defs><g id="Token"><path class="cls-10" d="m472.99,159.74h-5.15v-36.21c0-14.92-12.1-27.02-27.02-27.02h-5.15v-5.14c0-14.93-12.09-27.03-27.02-27.03h-5.15v-5.15c0-14.93-12.1-27.03-27.03-27.03h-36.21v-5.14c0-14.93-12.1-27.02-27.02-27.02h-126.47c-14.92,0-27.02,12.09-27.02,27.02v5.14h-36.21c-14.93,0-27.02,12.1-27.02,27.03v5.14h-5.15c-14.92,0-27.02,12.1-27.02,27.02v5.16h-5.16c-14.92,0-27.02,12.1-27.02,27.02v36.21h-5.15c-14.92,0-27.02,12.1-27.02,27.03v126.46c0,14.93,12.1,27.03,27.02,27.03h5.15v36.21c0,10.31,5.78,19.27,14.27,23.83,3.8,2.04,8.14,3.19,12.75,3.19h5.15v5.29c0,14.92,12.09,27.02,27.02,27.02h5.16v5.15c0,14.92,12.09,27.02,27.02,27.02h36.21v5c0,14.93,12.1,27.03,27.02,27.03h126.47c14.92,0,27.02-12.1,27.02-27.03v-5h36.21c14.93,0,27.03-12.1,27.03-27.02v-5.14h5.14c14.93,0,27.02-12.1,27.02-27.02v-5.3h5.15c14.92,0,27.02-12.1,27.02-27.02v-36.21h5.15c14.92,0,27.02-12.1,27.02-27.03v-126.46c0-14.92-12.09-27.02-27.01-27.03Z"/></g><g id="BrandColor"><polygon class="cls-9" points="27.02 186.77 27.02 313.25 59.19 313.25 59.19 376.48 91.36 376.48 91.36 408.79 123.53 408.79 123.53 440.96 186.77 440.96 186.77 472.98 313.24 472.98 313.24 440.96 376.48 440.96 376.48 408.79 408.65 408.79 408.65 376.62 440.82 376.62 440.82 313.25 472.99 313.25 472.99 186.77 440.82 186.77 440.82 123.52 408.65 123.52 408.65 91.35 376.48 91.35 376.48 59.19 313.24 59.19 313.24 27.02 186.77 27.02 186.77 59.19 123.53 59.19 123.53 91.35 91.36 91.35 91.36 123.52 59.19 123.52 59.19 186.76 27.02 186.77"/><polygon class="cls-6" points="136.72 79.85 136.72 332.9 136.72 399.62 172.89 399.62 172.89 332.9 172.89 60.64 136.72 79.85"/><path class="cls-1" d="m206.69,198.29c-.46,8.02.15,16.12,1.88,24.11l10.72,10.63-8.83-3.42c1.05,3.43,2.32,6.82,3.81,10.15l12.53,9.53-9.34-3.11c.98,1.8,2.02,3.57,3.13,5.33,26.55,41.62,81.77,53.81,123.35,27.23,9.27-5.93,17.08-13.28,23.32-21.6-58.9,8.17-119.65-13.04-160.56-58.85Z"/><path class="cls-13" d="m410.57,198.29c.46,8.02-.15,16.12-1.88,24.11l-10.72,10.63,8.83-3.42c-1.05,3.43-2.32,6.82-3.81,10.15l-12.53,9.53,9.34-3.11c-.98,1.8-2.02,3.57-3.13,5.33-26.55,41.62-81.77,53.81-123.35,27.23-9.27-5.93-17.08-13.28-23.32-21.6,58.93,8.18,119.66-13.03,160.57-58.84h-.01Z"/><path class="cls-11" d="m308.56,281.32c-31.7,0-59.2-17.95-72.92-44.25,8.29,32.58,37.8,56.67,72.92,56.67s64.64-24.09,72.92-56.67c-13.73,26.3-41.23,44.25-72.92,44.25h0Z"/><path class="cls-12" d="m308.56,281.32c31.7,0,59.2-17.95,72.92-44.25,1.52-5.97,2.33-12.21,2.33-18.65,0-41.6-33.69-75.32-75.25-75.32s-75.25,33.73-75.25,75.32c0,6.44.81,12.69,2.33,18.65,13.73,26.3,41.23,44.25,72.92,44.25Z"/><path class="cls-2" d="m274.28,244.14c16.85,0,30.5-13.67,30.5-30.53s-13.66-30.53-30.5-30.53-30.5,13.67-30.5,30.53,13.66,30.53,30.5,30.53Z"/><path class="cls-7" d="m281.63,232.61c9.13,0,16.54-7.41,16.54-16.55s-7.4-16.55-16.54-16.55-16.54,7.41-16.54,16.55,7.4,16.55,16.54,16.55Z"/><path class="cls-8" d="m281.63,226.73c5.89,0,10.66-4.78,10.66-10.67s-4.77-10.67-10.66-10.67-10.66,4.78-10.66,10.67,4.77,10.67,10.66,10.67Z"/><path class="cls-3" d="m275.6,211.07c1.87,0,3.38-1.52,3.38-3.38s-1.51-3.38-3.38-3.38-3.38,1.52-3.38,3.38,1.51,3.38,3.38,3.38Z"/><path class="cls-2" d="m341.95,244.14c16.85,0,30.5-13.67,30.5-30.53s-13.66-30.53-30.5-30.53-30.5,13.67-30.5,30.53,13.66,30.53,30.5,30.53Z"/><path class="cls-7" d="m334.6,232.61c9.13,0,16.54-7.41,16.54-16.55s-7.4-16.55-16.54-16.55-16.54,7.41-16.54,16.55,7.4,16.55,16.54,16.55Z"/><path class="cls-8" d="m334.6,226.73c5.89,0,10.66-4.78,10.66-10.67s-4.77-10.67-10.66-10.67-10.66,4.78-10.66,10.67,4.77,10.67,10.66,10.67Z"/><path class="cls-3" d="m328.57,211.07c1.87,0,3.38-1.52,3.38-3.38s-1.51-3.38-3.38-3.38-3.38,1.52-3.38,3.38,1.51,3.38,3.38,3.38Z"/><path class="cls-14" d="m315.89,239.4l-7.28-10.85c-.24-.36-.76-.36-1,0l-7.28,10.85-.17.25.22.23,7.29,7.75c.24.25.64.25.87,0l7.29-7.75.22-.23-.17-.25Z"/></g><g id="DecoFrame"><rect class="cls-9" x="186.77" y="27.02" width="126.47" height="32.17"/><rect class="cls-9" x="313.24" y="59.19" width="63.24" height="32.17"/><rect class="cls-9" x="123.53" y="59.19" width="63.24" height="32.17"/><rect class="cls-6" x="136.72" y="59.19" width="36.17" height="32.17"/><polygon class="cls-9" points="91.36 123.52 59.19 123.52 59.19 186.76 91.36 186.76 91.36 123.52 123.53 123.52 123.53 91.36 91.36 91.36 91.36 123.52"/><rect class="cls-9" x="27.02" y="186.76" width="32.17" height="126.49"/><rect class="cls-9" x="408.65" y="123.52" width="32.17" height="63.23"/><rect class="cls-9" x="440.82" y="186.76" width="32.17" height="126.49"/><rect class="cls-9" x="376.48" y="91.36" width="32.17" height="32.17"/><rect class="cls-9" x="186.77" y="440.82" width="126.47" height="32.16"/><rect class="cls-9" x="313.24" y="408.65" width="63.24" height="32.17"/><rect class="cls-6" x="123.53" y="408.65" width="63.24" height="32.17"/><rect class="cls-9" x="59.19" y="313.25" width="32.17" height="63.23"/><rect class="cls-9" x="91.36" y="376.48" width="32.17" height="32.17"/><rect class="cls-9" x="408.65" y="313.25" width="32.17" height="63.23"/><rect class="cls-9" x="376.48" y="376.48" width="32.17" height="32.17"/><polygon class="cls-9" points="415.6 119.68 415.6 119.64 413.09 119.64 413.09 119.68 415.6 119.68"/><rect class="cls-9" x="54.34" y="315.07" width="0" height="0"/><rect class="cls-9" x="84.4" y="380.31" width="2.51" height="0"/><path class="cls-6" d="m277.18,451.66c0,7.27-.65,14.4-1.88,21.32h-88.53v-32.16h-63.24v-32.17h-32.17v-32.17h-30.16c8.44-10.65,18.64-19.85,30.16-27.15,18.72-11.88,40.92-18.75,64.74-18.75,63.21,0,115.12,48.45,120.59,110.24.33,3.57.49,7.19.49,10.84Z"/><path class="cls-6" d="m156.09,330.58c-23.82,0-46.02,6.87-64.74,18.75v27.15h32.17v32.17h63.24v32.17h89.92c-5.47-61.79-57.38-110.24-120.59-110.24Z"/><rect class="cls-5" x="186.77" y="27.02" width="126.47" height="32.17"/><rect class="cls-5" x="313.23" y="59.19" width="63.24" height="32.17"/><rect class="cls-5" x="123.52" y="59.19" width="63.24" height="32.17"/><polygon class="cls-5" points="91.35 123.52 59.19 123.52 59.19 186.76 91.35 186.76 91.35 123.52 123.52 123.52 123.52 91.35 91.35 91.35 91.35 123.52"/><rect class="cls-5" x="27.02" y="186.76" width="32.17" height="126.49"/><rect class="cls-5" x="408.65" y="123.52" width="32.17" height="63.23"/><rect class="cls-5" x="440.81" y="186.76" width="32.17" height="126.49"/><rect class="cls-5" x="376.48" y="91.35" width="32.17" height="32.17"/><path class="cls-5" d="m277.17,451.66c0,7.27-.65,14.4-1.88,21.32h37.94v-32.16h-36.55c.33,3.57.49,7.19.49,10.84Z"/><path class="cls-4" d="m276.68,440.82h-89.92v32.16h88.53c1.23-6.92,1.88-14.05,1.88-21.32,0-3.65-.16-7.27-.49-10.84Z"/><rect class="cls-5" x="313.23" y="408.65" width="63.24" height="32.17"/><rect class="cls-4" x="123.52" y="408.65" width="63.24" height="32.17"/><path class="cls-5" d="m91.35,349.33v-36.08h-32.17v63.23h2.01c8.44-10.65,18.64-19.85,30.16-27.15Z"/><path class="cls-4" d="m61.19,376.48h30.16v-27.15c-11.52,7.3-21.72,16.5-30.16,27.15Z"/><rect class="cls-4" x="91.35" y="376.48" width="32.17" height="32.17"/><rect class="cls-5" x="408.65" y="313.25" width="32.17" height="63.23"/><rect class="cls-5" x="376.48" y="376.48" width="32.17" height="32.17"/><polygon class="cls-5" points="415.6 119.68 415.6 119.64 413.08 119.64 413.08 119.68 415.6 119.68"/><rect class="cls-5" x="54.33" y="315.07" width="0" height="0"/><rect class="cls-5" x="84.39" y="380.31" width="2.51" height="0"/><rect class="cls-4" x="136.71" y="59.19" width="36.17" height="32.17"/></g></svg>