<?xml version="1.0" encoding="UTF-8"?><svg id="Layer_2" xmlns="http://www.w3.org/2000/svg" viewBox="0 0 500 500"><defs><style>.cls-1{fill:#fe656c;}.cls-2{fill:#2a1b5b;}.cls-3{fill:#352b1c;}.cls-4{opacity:.3;}</style></defs><g id="Token"><path class="cls-3" d="m472.99,159.75h-5.15v-36.21c0-14.92-12.1-27.02-27.02-27.02h-5.15v-5.15c0-14.92-12.1-27.02-27.02-27.02h-5.16v-5.16c0-14.92-12.1-27.02-27.02-27.02h-36.21v-5.15c0-14.92-12.1-27.02-27.02-27.02h-126.47c-14.92,0-27.02,12.1-27.02,27.02v5.15h-36.21c-14.92,0-27.02,12.1-27.02,27.02v5.15h-5.15c-14.92,0-27.02,12.1-27.02,27.02h0v5.16h-5.16c-14.92,0-27.02,12.1-27.02,27.02v36.21h-5.15c-14.92,0-27.02,12.1-27.02,27.02h0v126.47c0,14.92,12.1,27.02,27.02,27.02h5.15v36.21c0,14.92,12.1,27.02,27.02,27.02h5.15v5.29c0,14.92,12.1,27.02,27.02,27.02h5.16v5.15c0,14.92,12.1,27.02,27.02,27.02h36.21v5c0,14.92,12.1,27.02,27.02,27.02h126.47c14.92,0,27.02-12.1,27.02-27.02v-5h36.21c14.92,0,27.02-12.1,27.02-27.02v-5.13h5.15c14.92,0,27.02-12.1,27.02-27.02h0v-5.3h5.15c14.92,0,27.02-12.1,27.02-27.02h0v-36.21h5.15c14.92,0,27.02-12.1,27.02-27.02h0v-126.47c0-14.92-12.09-27.02-27.01-27.02Z"/></g><g id="BrandColor"><polygon class="cls-1" points="27.02 186.77 27.02 313.25 59.19 313.25 59.19 376.48 91.36 376.48 91.36 408.79 123.53 408.79 123.53 440.96 186.77 440.96 186.77 472.99 313.24 472.99 313.24 440.96 376.48 440.96 376.48 408.79 408.65 408.79 408.65 376.62 440.82 376.62 440.82 313.25 472.99 313.25 472.99 186.77 440.82 186.77 440.82 123.53 408.65 123.53 408.65 91.36 376.48 91.36 376.48 59.19 313.24 59.19 313.24 27.02 186.77 27.02 186.77 59.19 123.53 59.19 123.53 91.36 91.36 91.36 91.36 123.53 59.19 123.53 59.19 186.76 27.02 186.77"/></g><g id="DecoFrame"><g class="cls-4"><rect class="cls-2" x="186.77" y="27.02" width="126.47" height="32.17"/><rect class="cls-2" x="313.24" y="59.19" width="63.24" height="32.17"/><rect class="cls-2" x="123.53" y="59.19" width="63.24" height="32.17"/><polygon class="cls-2" points="91.36 123.53 59.19 123.53 59.19 186.76 91.36 186.76 91.36 123.53 123.53 123.53 123.53 91.36 91.36 91.36 91.36 123.53"/><rect class="cls-2" x="27.02" y="186.76" width="32.17" height="126.49"/><rect class="cls-2" x="408.65" y="123.53" width="32.17" height="63.23"/><rect class="cls-2" x="440.82" y="186.76" width="32.17" height="126.49"/><rect class="cls-2" x="376.48" y="91.36" width="32.17" height="32.17"/><rect class="cls-2" x="186.77" y="440.82" width="126.47" height="32.17"/><rect class="cls-2" x="313.24" y="408.65" width="63.24" height="32.17"/><rect class="cls-2" x="123.53" y="408.65" width="63.24" height="32.17"/><polygon class="cls-2" points="91.36 376.48 91.36 408.65 123.53 408.65 123.53 376.48 91.36 376.48 91.36 313.25 59.19 313.25 59.19 376.48 91.36 376.48"/><rect class="cls-2" x="408.65" y="313.25" width="32.17" height="63.23"/><rect class="cls-2" x="376.48" y="376.48" width="32.17" height="32.17"/><polygon class="cls-2" points="415.6 119.69 415.6 119.64 413.09 119.64 413.09 119.69 415.6 119.69"/><rect class="cls-2" x="54.34" y="315.08" width="0" height="0"/><rect class="cls-2" x="84.4" y="380.31" width="2.51" height="0"/></g></g><g id="Logo"><path d="m151.58,198.24c4.57-22.62,16.07-41.53,31.67-58.11,13.49-14.34,29.9-23.05,49.82-24.52.31-.02.62-.03.93-.05,3.41-.2,6.81-.41,10.22-.61.16,0,.32,0,.48.01.52.03,1.04.06,1.57.1.57.07,1.14.13,1.72.2,32.76,1.06,52.73,19.11,64.17,48.31,2.77,7.08,6.62,13.3,12.32,18.4,4.72,4.23,7.26,9.68,8.32,15.86-.02.06-.06.12-.05.16.03.11.08.21.12.31.26,3.67.51,7.34.77,11.01l.06.51c.06.36.12.71.17,1.07-.03.06-.1.13-.09.18.03.13.1.24.15.37.17,3.4.35,6.8.52,10.2.02.17.04.33.06.5,1.16,9.06,5.89,16.27,11.82,22.9.81.91,1.14,2.24,1.69,3.37-1.22.15-2.45.3-3.67.45-.16-.02-.33-.04-.49-.05-1.89-.54-4.22-.56-5.58-1.71-3.47-2.92-3.55.14-4.08,2.04-4.12,14.73,1.19,27.83,7.14,40.83.7,1.53,2.59,3.29,1.31,4.74-1.38,1.56-3.5.1-5.16-.57-5.4-2.18-9.74-5.53-11.91-11.17-.12-.32-.53-.52-.81-.78-.21.3-.56.58-.62.91-2.91,15.45-3.25,30.86,1.44,46.05.98,3.18,2.42,6.58,6.67,6.94.18-.06.36-.13.54-.19,4.71-2.66,5.89-7.65,7.86-12.07,1.3-2.92,2.53-3.05,4.18-.4,3.06,4.92,5.63,10.08,5.59,16.01-.06,8.27-7.5,13.06-16.42,10.79l-1.27-.37c-12.29-3.37-18.65-13.38-25.35-22.85-7.93-11.21-13.82-23.58-19.37-36.09-1.99-4.48-4.25-5.34-7.64-1.18-6.49,7.96-13.17,15.76-19.68,23.71-2.86,3.49-4.13,7.67-4.53,12.12-.04.43-.08.86-.11,1.29.87,12.82,7.9,22.66,15.62,32.17.71.88,1.38,1.81,2.06,2.71-1.07.51-2.09,1.22-3.22,1.49-3.51.85-7.06.72-10.6.11-.18-.04-.36-.08-.53-.12-3.93-1.27-7.86-2.55-11.79-3.82-.24-.04-.48-.08-.72-.12.08.41.16.82.24,1.23,2.72,7.79,7.25,14.15,14.44,18.48,1,.6,1.71,1.68,2.55,2.54-1.63,1.56-3.75,1.7-5.82,1.99-.16.03-.32.06-.48.09-.25.07-.49.13-.74.2-.16.02-.31.04-.47.06-2.6.29-5.19.58-7.79.88-.43.02-.86.04-1.3.06-2.02.05-4.05.11-6.07.16-.17.02-.34.03-.52.05-4.36-.31-8.72-.62-13.07-.93-.3-.05-.6-.09-.9-.14-14.83-2.08-26.31-9.35-34.3-22.04-.29-.46-.75-.82-1.13-1.22-.11.51-.3,1.01-.31,1.52-.22,6.24-.41,12.49-.6,18.73-.51.05-1.02.1-1.52.15-6.89-6.47-11.19-14.75-15.63-22.86-8.12-14.83-13.9-30.51-16.15-47.36.02-.06.07-.14.05-.19-.04-.12-.12-.23-.18-.34-.08-.79-.15-1.58-.23-2.38-.05-.3-.1-.6-.14-.9-.08-.67-.15-1.33-.23-2-.01-.28-.02-.57-.03-.85,0-2.17-.01-4.34-.02-6.51.02-.56.03-1.13.05-1.69.46-4.77.93-9.54,1.39-14.31.02-.17.03-.35.05-.52-.03-2.43-.06-4.86-.1-7.3.04-.05.12-.11.11-.15-.03-.11-.09-.22-.14-.33-.62-6.34-2.9-12.17-5.31-17.99-4.77-11.53-3.7-22.67,2.57-33.42,1.09-1.86,1.69-4.01,2.51-6.02-.07-1.25-.14-2.5-.22-3.75-1.94-3.14-3.88-6.27-5.82-9.41-.11-.56-.22-1.13-.34-1.69.06-.66.12-1.32.18-1.98.05-.3.1-.6.15-.9Zm25.7,86.32c.06.25.12.49.18.74-.03.05-.1.11-.09.15.03.11.09.22.14.32.22,3.01.65,6.46,3.89,7.18,3.61.8,4.62-2.85,6.01-5.37.52-.95.9-1.99,1.45-2.92,3.6-6.11,9.55-6.24,13.51-.38,2.65,3.93,4.24,8.93,9.75,10.15.18.04.36.08.54.11.22.05.44.1.66.14.17.02.34.04.51.06l1.19.03c.15,0,.3-.02.45-.02,5.96-.9,11.35-2.4,10.66-10.22-.01-.15-.02-.31-.03-.46-.08-.37-.16-.73-.25-1.1.03-.06.08-.13.07-.18-.04-.12-.11-.23-.16-.34-1.53-6.76-5.05-11.66-12.41-12.67-6.25-.86-12.52-1.25-18.8-.19-.18.03-.36.06-.54.09-12.77,1.46-14.95,3.23-16.69,13.56-.01.44-.02.88-.03,1.32Zm28.65-125.78c.44-.05.88-.11,1.32-.16.25-.03.49-.06.74-.1.16-.01.32-.02.49-.04,1.71-.02,3.42-.12,5.13-.04,2.64.12,7.03-.78,7.22,1.82.2,2.85-4.02,3.77-7.01,4.34-.43.09-.86.18-1.3.26-5.64.32-11.29.64-16.93.98-2.2.13-3.97.89-3.96,3.44.02,2.49,1.88,2.32,3.65,2.3,5.05-.07,10.11-.08,15.16-.11.18,0,.36-.01.54-.02,2.57-.19,5.14-.39,7.71-.58.43-.03.86-.05,1.3-.08,1.21-.11,2.43-.22,3.64-.32.16-.02.33-.05.49-.07,1.35-.11,2.69-.22,4.04-.33.3-.03.6-.06.9-.09,1.16-.02,2.35-.17,3.49-.02,1.91.25,4.92-1.12,5.42,1.35.54,2.68-2.6,3.34-4.64,4-11.45,3.7-23.31,2.69-35.06,2.81-4.05.04-6.82,1.76-8.01,5.69-1.88,6.23-1.19,12.58-.87,18.92-.04.05-.12.11-.11.15.03.12.09.23.14.34,0,1.48,0,2.96,0,4.44l-.06.54c-.06.36-.12.72-.18,1.08-.02.16-.05.33-.07.49-1.32,10.29-6.17,19.47-9.11,29.24-2.92,9.69.32,14.87,8.23,14.65.3-.03.59-.06.89-.08,5.95-.08,11.91-.09,17.85-.3,2.26-.08,4.7-.52,5.19-3.35.52-2.94-1.6-4.05-3.9-4.93-2.92-1.12-6.01-1.95-8.25-4.36.05-.44.1-.89.15-1.33.99-.55,1.91-1.35,2.98-1.62,9.48-2.41,23.34,4.6,28.69,14.76,6.1,11.58,7.49,24.63,11.13,36.98,3.56,12.07,5.66,12.84,15.2,4.12,14.25-13.01,21.16-30.03,26.49-48.02,2.24-7.55.75-13.59-4.58-19.12-2.19-2.28-4.69-4.52-4.98-8.03,0-1.24,0-2.47-.01-3.71.19-1.76.37-3.52.56-5.28.05-.18.09-.36.14-.55.6-12.87,6.5-22.39,17.96-28.45,1.62-.86,3.22-1.87,3.7-3.87,0-.57,0-1.15-.01-1.72-.08-.78-.16-1.56-.24-2.34-.04-.18-.08-.37-.12-.55-2.96-26.3-15.72-39.24-42.12-42.71-.16-.02-.32-.04-.47-.06l-.73-.15c-.17-.03-.34-.06-.51-.09-2.03-.15-4.07-.29-6.1-.44-.15-.01-.29-.03-.44-.04-4.5.05-9.01.09-13.51.14l-.55.06c-6.18.42-12.22,1.6-17.96,3.89-7.58,3.02-14.97,6.4-19.3,13.95-.34.72-.37,1.28.68,1.26,1.77.01,3.59-.22,5.3.1,2.08.39,5.73-1.71,5.91,1.75.17,3.34-3.71,3.23-6.25,3.9-.39.1-.81.05-1.22.07-.84.1-1.69.21-2.53.31-.61.02-1.23.05-1.84.07-2.18.09-4.25.81-4.14,3.24.12,2.4,2.45,1.61,3.94,1.64,3.55.07,7.1-.02,10.65-.04Z"/><path d="m220.83,190.15c9.16.44,17.9,2.31,25.55,7.71,3.06,2.16,5.65,4.76,6.61,8.58.02.46.04.91.06,1.37-1.09,2.57-3.3,2.25-5.26,1.72-6.02-1.65-12.06-3.12-18.32-3.51-.16-.01-.33-.03-.49-.04-5.59-.43-11.22-.58-16.76-1.39-3.88-.57-6.71-2.94-6.64-7.34.07-4.22,3.41-5.34,6.63-6.12,2.64-.64,5.42-.68,8.14-.99.16.01.32.02.48.03Z"/><path d="m223.22,219.51c-.24-.03-.48-.07-.73-.1-.18-.03-.35-.07-.53-.1-.79-.05-1.59-.11-2.38-.16-.7-.11-1.4-.21-2.1-.32-.13,0-.26-.02-.39-.05-.56-.11-1.13-.23-1.69-.34-1.79-.42-4.59.12-4.94-1.92-.31-1.8,2.44-2.25,3.97-2.91,7.97-3.44,15.7-2.96,22.92,2.07.78.54,1.56,1.73,1.55,2.61-.01,1.31-1.46.91-2.32.94-4.16.16-8.32.25-12.48.36-.29-.03-.59-.06-.88-.09Z"/></g></svg>