<?xml version="1.0" encoding="UTF-8"?><svg xmlns="http://www.w3.org/2000/svg" viewBox="0 0 500 500"><defs><style>.f,.g{fill:#ffe81c;}.h{fill:#352b1c;}.g{mix-blend-mode:multiply;}.i{opacity:.8;}.i,.j,.k,.l{isolation:isolate;}.k{opacity:.45;}.l{opacity:.6;}</style></defs><g class="j"><g id="a"><path class="h" d="M443.01,128.68v-5.15c0-14.92-12.1-27.02-27.02-27.02h-5.15v-5.15c0-14.92-12.1-27.02-27.02-27.02h-37.31v-5.15c0-14.92-12.1-27.02-27.02-27.02h-19.06v-5.15c0-14.92-12.1-27.02-27.02-27.02h-46.81c-14.92,0-27.02,12.1-27.02,27.02v5.15h-19.06c-14.92,0-27.02,12.1-27.02,27.02v5.15h-37.31c-14.92,0-27.02,12.1-27.02,27.02v5.15h-5.15c-14.92,0-27.02,12.1-27.02,27.02v5.15h-5.15c-14.92,0-27.02,12.1-27.02,27.02v188.6c0,14.92,12.1,27.02,27.02,27.02h5.15v5.15c0,14.92,12.1,27.02,27.02,27.02h5.15v5.15c0,14.92,12.1,27.02,27.02,27.02h37.31v5.15c0,14.92,12.1,27.02,27.02,27.02h19.06v5.15c0,14.92,12.1,27.02,27.02,27.02h46.81c14.92,0,27.02-12.1,27.02-27.02v-5.15h19.06c14.92,0,27.02-12.1,27.02-27.02v-5.15h37.31c14.92,0,27.02-12.1,27.02-27.02v-5.15h5.15c14.92,0,27.02-12.1,27.02-27.02v-5.15h5.15c14.92,0,27.02-12.1,27.02-27.02V155.7c0-14.92-12.1-27.02-27.02-27.02h-5.15Zm-64.34,242.65v32.17h-64.34v32.17h-48.19v32.17h-32.17v-32.17h-48.31v-32.17H121.32v-32.17h-32.17v-32.26H56.99V160.84h32.17v-32.17h32.17v-32.17h64.34v-32.17h48.31V32.17h32.17v32.17h48.19v32.17h64.34v32.17h32.17v32.17h32.17v178.31h-32.17v32.17h-32.17Z"/></g><g id="b"><polygon class="f" points="233.97 64.34 233.97 32.17 266.14 32.17 266.14 64.34 314.34 64.34 314.34 96.51 378.68 96.51 378.68 128.68 410.84 128.68 410.84 160.84 443.01 160.84 443.01 339.16 410.84 339.16 410.84 371.32 378.68 371.32 378.68 403.49 314.34 403.49 314.34 435.66 266.14 435.66 266.14 467.83 233.97 467.83 233.97 435.66 185.66 435.66 185.66 403.49 121.32 403.49 121.32 371.32 89.16 371.32 89.16 339.07 56.99 339.07 56.99 160.84 89.16 160.84 89.16 128.68 121.32 128.68 121.32 96.51 185.66 96.51 185.66 64.34 233.97 64.34"/></g><g id="c"><path class="g" d="M410.84,160.84v-32.17h-32.17v-32.17h-64.34v-32.17h-48.19V32.17h-32.17v32.17h-48.31v32.17H121.32v32.17h-32.17v32.17H56.99v178.22h32.17v32.26h32.17v32.17h64.34v32.17h48.31v32.17h32.17v-32.17h48.19v-32.17h64.34v-32.17h32.17v-32.17h32.17V160.84h-32.17Zm7.17,153.31h-32.17v32.17h-32.17v32.17h-64.34v32.17h-78.68v-32.17h-64.34v-32.17h-32.17v-32.26h-32.17V185.84h32.17v-32.17h32.17v-32.17h64.34v-32.17h78.67v32.17h64.34v32.17h32.17v32.17h32.17v128.31Z"/></g><g id="d"><g><path class="i" d="M249.95,302.4l82.49-49.86L249.95,112.6v189.79Z"/><path class="l" d="M249.95,302.4l82.49-49.86-82.49-38.28-82.39,38.28,82.39,49.86Z"/><path class="k" d="M249.95,214.25V112.6l-82.39,139.94,82.39,49.86v-88.14Z"/><path class="k" d="M249.95,318.34l-82.39-49.76,82.39,118.81v-69.05Z"/><path class="i" d="M332.44,268.58l-82.49,49.76v69.05l82.49-118.81Z"/></g></g><g id="e"/></g></svg>