<?xml version="1.0" encoding="UTF-8"?><svg xmlns="http://www.w3.org/2000/svg" viewBox="0 0 500 500"><defs><style>.f{fill:#f98003;}.g{fill:#02252f;}.h{fill:#fff;}.i{fill:#1f72b8;}.j{fill:#215881;}.k{fill:#0b2a31;}.l{fill:#352b1c;}</style></defs><g id="a"><path class="l" d="M424.94,233.06h-4.04v-28.41c0-11.71-9.49-21.2-21.2-21.2h-4.04v-4.04c0-11.71-9.49-21.2-21.2-21.2h-4.05v-4.05c0-11.71-9.49-21.2-21.2-21.2h-28.41v-4.04c0-11.71-9.49-21.2-21.2-21.2h-99.22c-11.71,0-21.2,9.49-21.2,21.2v4.04h-28.41c-11.71,0-21.2,9.49-21.2,21.2v4.04h-4.04c-11.71,0-21.2,9.49-21.2,21.2h0v4.05h-4.05c-11.71,0-21.2,9.49-21.2,21.2v28.41h-4.04c-11.71,0-21.2,9.49-21.2,21.2h0v99.22c0,11.71,9.49,21.2,21.2,21.2h4.04v28.41c0,11.71,9.49,21.2,21.2,21.2h4.04v4.15c0,11.71,9.49,21.2,21.2,21.2h4.05v4.04c0,11.71,9.49,21.2,21.2,21.2h28.41v3.93c0,11.71,9.49,21.2,21.2,21.2h99.22c11.71,0,21.2-9.49,21.2-21.2v-3.93h28.41c11.71,0,21.2-9.49,21.2-21.2v-4.03h4.04c11.71,0,21.2-9.49,21.2-21.2h0v-4.16h4.04c11.71,0,21.2-9.49,21.2-21.2h0v-28.41h4.04c11.71,0,21.2-9.49,21.2-21.2h0v-99.22c0-11.71-9.49-21.2-21.19-21.2Z"/></g><g id="b"><polygon class="i" points="75.06 254.26 75.06 353.48 100.3 353.48 100.3 403.09 125.54 403.09 125.54 428.44 150.77 428.44 150.77 453.68 200.39 453.68 200.39 478.8 299.61 478.8 299.61 453.68 349.23 453.68 349.23 428.44 374.46 428.44 374.46 403.2 399.7 403.2 399.7 353.48 424.94 353.48 424.94 254.26 399.7 254.26 399.7 204.64 374.46 204.64 374.46 179.4 349.23 179.4 349.23 154.17 299.61 154.17 299.61 128.93 200.39 128.93 200.39 154.17 150.77 154.17 150.77 179.4 125.54 179.4 125.54 204.64 100.3 204.64 100.3 254.25 75.06 254.26"/></g><g id="c"><g><rect class="j" x="200.39" y="128.93" width="99.22" height="25.24"/><rect class="j" x="299.61" y="154.17" width="49.62" height="25.24"/><rect class="j" x="150.77" y="154.17" width="49.62" height="25.24"/><polygon class="j" points="125.54 204.64 100.3 204.64 100.3 254.25 125.54 254.25 125.54 204.64 150.77 204.64 150.77 179.4 125.54 179.4 125.54 204.64"/><rect class="j" x="75.06" y="254.25" width="25.24" height="99.23"/><rect class="j" x="374.46" y="204.64" width="25.24" height="49.61"/><rect class="j" x="399.7" y="254.25" width="25.24" height="99.23"/><rect class="j" x="349.23" y="179.4" width="25.24" height="25.24"/><rect class="j" x="200.39" y="453.57" width="99.22" height="25.24"/><rect class="j" x="299.61" y="428.33" width="49.62" height="25.24"/><rect class="j" x="150.77" y="428.33" width="49.62" height="25.24"/><polygon class="j" points="125.54 403.09 125.54 428.33 150.77 428.33 150.77 403.09 125.54 403.09 125.54 353.48 100.3 353.48 100.3 403.09 125.54 403.09"/><rect class="j" x="374.46" y="353.48" width="25.24" height="49.61"/><rect class="j" x="349.23" y="403.09" width="25.24" height="25.24"/><polygon class="j" points="379.92 201.63 379.92 201.59 377.94 201.59 377.94 201.63 379.92 201.63"/><rect class="j" x="96.49" y="354.92" width="0" height="0"/><rect class="j" x="120.08" y="406.1" width="1.97" height="0"/></g></g><g id="d"><g><path class="h" d="M222.29,405.11c0,3.46-2.77,5.43-6,4.39-44.79-14.32-77.12-56.11-77.12-105.63s32.33-91.32,77.12-105.63c3.35-1.04,6,.92,6,4.39v8.66c0,2.31-1.73,4.96-3.93,5.77-35.44,13.05-60.73,47.1-60.73,86.82s25.28,73.77,60.73,86.7c2.19,.81,3.93,3.46,3.93,5.77v8.77Z"/><path class="h" d="M259.24,373.13c0,2.54-2.08,4.62-4.62,4.62h-9.24c-2.54,0-4.62-2.08-4.62-4.62v-14.55c-20.2-2.77-30.02-13.97-32.67-29.44-.46-2.66,1.62-4.96,4.27-4.96h10.51c2.19,0,4.04,1.62,4.5,3.69,1.96,9.12,7.27,16.16,23.44,16.16,11.89,0,20.43-6.7,20.43-16.62s-4.96-13.74-22.51-16.62c-25.86-3.46-38.1-11.31-38.1-31.52,0-15.59,11.89-27.82,30.13-30.36v-14.32c0-2.54,2.08-4.62,4.62-4.62h9.24c2.54,0,4.62,2.08,4.62,4.62v14.66c14.89,2.66,24.36,11.08,27.48,25.17,.58,2.66-1.5,5.08-4.27,5.08h-9.7c-2.08,0-3.81-1.39-4.39-3.35-2.66-8.89-9.01-12.81-20.09-12.81-12.24,0-18.59,5.89-18.59,14.2,0,8.77,3.58,13.16,22.4,15.82,25.4,3.46,38.56,10.74,38.56,32.33,0,16.39-12.24,29.67-31.29,32.67v14.78h-.12Z"/><path class="h" d="M283.71,409.5c-3.35,1.04-6-.92-6-4.39v-8.66c0-2.54,1.5-4.96,3.93-5.77,35.33-12.93,60.73-46.99,60.73-86.7s-25.28-73.77-60.73-86.7c-2.19-.81-3.93-3.46-3.93-5.77v-8.66c0-3.46,2.77-5.43,6-4.39,44.79,14.08,77.12,55.99,77.12,105.4s-32.33,91.32-77.12,105.63Z"/></g></g><g id="e"><g><path class="f" d="M470.93,138.05c-3.55-1.86-7.46-2.3-11.41-2.41-11.03-.31-21.94,1.05-32.88,2.11-10.92,1.05-21.7,3.45-32.79,2.82-9.67-.54-17.88-3.34-23.18-12.13-2.22-3.69-5.03-7.03-7.23-10.74-22.25-37.44-46-73.99-67.68-111.77-1.13-1.96-2.41-3.69-4.49-4.77-5.14-2.68-11.63-.59-15.59,5.17-.96,1.41-1.58,2.99-3.87,2.33-8.43-2.45-17.1-1.69-25.71-2.01-41.31-1.51-77.8,11.12-109.61,37.27-11.24,9.24-20.43,20.22-21.51,35.6-.67,9.52-.85,19.09-.04,28.64,1.06,12.64,1.7,25.32,2.02,38.01,.13,5.3,.12,5.1-5.09,4.85-26.78-1.24-49.86,6.76-67.25,27.91-8.26,10.06-14.78,21.28-18.76,33.81v9.43c2.11,1.91,1.66,4.75,2.51,7.12,4.95,13.74,13.65,23.16,25.51,28.96v-3.97c0-11.7,9.49-21.19,21.2-21.19h4.03v-28.41c0-11.71,9.49-21.2,21.19-21.2h4.05v-4.05c0-1.45,.15-2.86,.41-4.21-12.45,1.92-24.35,5.91-36.09,10.51-8.35,3.28-16.03,7.7-22.67,13.81-11.8,10.85-14.1,25.24-6.16,39.09,1.75,3.05,4.86,5.05,6.52,8.23,.31,.6,.75,1.04-.02,1.57-.61,.41-.92-.13-1.3-.4-10.42-7.15-15.38-21.81-12.69-34.86,3.8-18.49,15.81-30.43,30.61-40.48,11.32-7.7,23.44-13.17,37.24-14.47,5.84-.55,11.48,.65,17.14,1.57,36.68,5.92,73.03,13.48,109.21,21.93,12.37,2.89,25.15,3.75,37.85,3.19,17.9-.8,35.75-2.57,53.65-3.32,22.86-.95,44.29-7.16,65.05-16.3,2.28-1,4.61-1.92,6.78-3.09,10.45-5.69,21.55-7.62,33.35-6.5,5.59,.54,11.25,.28,16.87,.52,7.73,.34,15.1-1.1,22.19-4.11,.84-.36,1.67-.77,2.63-.53,2.53-1.79,5.42-3.12,7.49-5.54,2.75-3.23,2.26-6.01-1.48-7.97Zm-346.23,9.92c-.15-.21-.38-.41-.39-.62-.62-18.83-1.49-37.66-1.7-56.49-.12-9.95,1.33-19.83,5.66-29.04,1.37-2.9,3.25-5.37,5.62-7.48,26.11-23.2,56.4-36.81,91.29-40.5,14.79-1.56,29.48-2.06,44.24-.69,4.82,.45,9.58,1.27,14.39,1.78,1.21,.13,3.17,.47,3.36-1.06,.2-1.52-1.8-1.57-2.98-1.93-1.7-.52-3.61-.37-5.33-1.69,2.15-2.96,5.12-3.86,8.48-3.97,1.22-.04,1.77,.68,2.31,1.72,11.34,22.14,24.44,43.25,37.7,64.25,6.21,9.85,12.62,19.56,18.94,29.34,.32,.52,.53,1.12,1.12,2.4-8.3-3.22-16.4-4.21-24.53-5.11-18.36-2.03-36.62-.38-54.79,1.84-28.77,3.51-56.9,10.03-84.3,19.51-20.45,7.07-40.08,15.97-58.36,27.66-.18,.11-.47,.06-.71,.08Zm345.03-1.92c-2.58,1.63-5.47,2.63-8.47,2.89-13.16,1.13-26.32,2.02-39.56,1.29-12.89-.71-25.43,.59-37.47,6.35-20.51,9.82-42.67,13.84-65.03,16.9-24.98,3.42-50.08,4.01-75.19,2.96-11.76-.5-23.24-3.61-34.89-5.25-12.44-1.75-24.85-3.61-36.95-7.11-.96-.28-1.92-.61-2.87-.91l.03-.94c10.56,.28,21.1,.16,31.65-.72-4.86-1.52-9.91-1.37-14.87-1.67-.15-1,.52-1.14,1.15-1.29,26.26-5.95,52.01-14.37,78.67-18.27,30.85-4.52,61.96-6.31,93.05-1.38,2.7,.43,5.38,1.75,8.02,1.67,9.03-.3,17.27,3.93,26.18,4.2,9.16,.27,18.3,.76,27.45,1.17,9.16,.4,18.31,.16,27.47-.1,.48-.01,.96-.17,1.49-.59-7.73-2.45-15.95-1.61-24.78-3.43,13.46-2.02,25.92-3.52,38.55-2.88,1.96,.1,3.9,.4,5.74,1.14,1.21,.48,2.58,.87,2.76,2.45,.19,1.66-.89,2.72-2.13,3.5Z"/><path class="k" d="M180.79,176.22c-16.4-5.17-33.15-6.1-50.15-4.09-6.2,.73-12.4,1.45-18.59,2.17-15.12,1.28-29.38,5.9-43.39,11.41-8.35,3.28-16.02,7.7-22.66,13.8-11.81,10.86-14.1,25.24-6.16,39.1,1.75,3.05,4.86,5.05,6.51,8.22,.32,.61,.75,1.04-.02,1.57-.61,.42-.92-.14-1.3-.4-10.42-7.15-15.37-21.82-12.69-34.85,3.81-18.49,15.82-30.43,30.61-40.49,11.32-7.7,23.44-13.17,37.25-14.46,5.84-.55,11.47,.64,17.14,1.56,36.68,5.93,73.02,13.49,109.2,21.94,12.38,2.89,25.15,3.76,37.85,3.2,17.9-.79,35.76-2.57,53.66-3.32,22.86-.96,44.29-7.17,65.05-16.3,2.27-1,4.6-1.91,6.77-3.1,10.45-5.69,21.55-7.62,33.36-6.5,5.59,.53,11.25,.28,16.87,.52,7.73,.33,15.1-1.1,22.19-4.12,.85-.36,1.67-.77,2.63-.53-2.7,4.05-7,5.32-11.37,6.06-7.9,1.35-15.89,1.37-23.88,1.07-9.19-.35-18.33-.13-27.26,2.37-2.51,.7-5.03,1.49-6.95,3.44-6.13,2.48-12.33,4.83-18.38,7.49-10.76,4.73-22.13,7.44-33.38,10.54-13.17,2.46-26.49,3.66-39.84,4.52-15.21,.98-30.39,2.4-45.66,2.27-13.76-.12-27.24-2.15-40.66-4.86-12.13-3.26-24.38-5.96-36.74-8.22Zm-43.4-10.05c-11.36-1.86-22.59-4.7-34.14-5.16,11.17,3.16,22.46,5.53,34.14,5.16Z"/><path class="g" d="M124.7,147.96c-.14-.21-.38-.41-.39-.62-.62-18.83-1.49-37.65-1.71-56.48-.11-9.95,1.34-19.82,5.66-29.04,1.36-2.9,3.25-5.37,5.61-7.47,26.12-23.2,56.4-36.8,91.3-40.5,14.79-1.57,29.47-2.06,44.24-.7,4.81,.44,9.58,1.27,14.39,1.79,1.2,.13,3.17,.47,3.37-1.07,.2-1.53-1.81-1.56-2.99-1.92-1.7-.52-3.6-.38-5.34-1.69,2.15-2.97,5.13-3.86,8.49-3.98,1.23-.04,1.77,.68,2.31,1.72,11.34,22.13,24.44,43.24,37.7,64.25,6.21,9.84,12.63,19.56,18.94,29.34,.33,.52,.53,1.12,1.12,2.4-8.31-3.22-16.4-4.22-24.53-5.11-18.36-2.02-36.62-.39-54.79,1.83-28.77,3.51-56.91,10.03-84.31,19.51-20.45,7.07-40.07,15.97-58.35,27.66-.18,.12-.47,.06-.71,.08ZM243.08,48.98c.21-1.53-.26-2.72-1.64-3.27-1.61-.65-2.22,.69-3.08,1.7-2.16,2.54-1.38,6.08-2.78,8.64-5.7,10.41-11.24,20.96-19.04,30.05-4.51,5.25-9.1,10.43-13.63,15.66-.67,.78-1.58,1.73-.84,2.76,.89,1.24,2.21,.69,3.13-.03,2.36-1.85,4.67-3.76,6.89-5.78,14.41-13.1,22.06-30.53,30.35-47.55,.34-.69,.45-1.5,.65-2.18Zm-31.42-18.47c-.77-1.64-2.28-1.18-3.54-.76-6.93,2.31-13.98,4.33-20.48,7.77-4.04,2.14-7.95,4.52-11.55,7.35-1.16,.91-2.36,2.03-1.47,3.6,.9,1.59,2.46,1.04,3.86,.58,3.36-1.12,6.79-2.15,9.12-5.05,2.9-3.59,6.66-5.74,10.95-7.22,3.57-1.24,7.06-2.72,10.57-4.14,.95-.38,1.97-.75,2.54-2.12Zm103.05,30.6c-.63-.75-1.32-1.69-2.12-2.53-7.22-7.53-15.26-14.24-22.19-22.06-.94-1.06-2.25-2.35-3.67-1.2-1.53,1.24-.18,2.69,.62,3.76,5.62,7.58,11.91,14.52,19.63,20.04,1.79,1.28,3.57,2.67,5.78,3.21,.81,.2,1.9,.6,1.96-1.21Z"/><path class="g" d="M169.32,162.24c10.56,.28,21.11,.16,31.65-.72-4.87-1.53-9.91-1.36-14.87-1.67-.14-1,.52-1.15,1.16-1.29,26.26-5.95,52.02-14.37,78.67-18.27,30.85-4.52,61.95-6.31,93.04-1.38,2.7,.43,5.38,1.76,8.03,1.67,9.03-.29,17.27,3.94,26.18,4.2,9.15,.27,18.29,.76,27.44,1.16,9.16,.4,18.31,.16,27.47-.1,.49-.01,.97-.16,1.49-.6-7.73-2.46-15.95-1.61-24.78-3.43,13.47-2.02,25.93-3.52,38.55-2.88,1.97,.1,3.9,.4,5.74,1.14,1.21,.48,2.58,.88,2.76,2.46,.18,1.66-.89,2.72-2.13,3.49-2.58,1.62-5.47,2.63-8.47,2.89-13.16,1.14-26.32,2.02-39.57,1.29-12.89-.71-25.43,.6-37.46,6.35-20.52,9.82-42.67,13.84-65.03,16.9-24.98,3.42-50.07,4.02-75.2,2.95-11.75-.5-23.24-3.6-34.89-5.24-12.43-1.75-24.85-3.61-36.95-7.11-.96-.28-1.91-.6-2.87-.91l.03-.94Z"/><path class="f" d="M137.39,166.16c-11.68,.37-22.96-2-34.14-5.16,11.55,.46,22.77,3.3,34.14,5.16Z"/><path class="f" d="M243.08,48.98c-.2,.69-.31,1.49-.65,2.18-8.29,17.02-15.94,34.44-30.35,47.55-2.22,2.02-4.53,3.93-6.89,5.78-.92,.72-2.24,1.27-3.13,.03-.74-1.03,.16-1.99,.84-2.76,4.53-5.23,9.13-10.41,13.63-15.66,7.8-9.09,13.34-19.64,19.04-30.05,1.4-2.56,.62-6.1,2.78-8.64,.86-1.01,1.47-2.34,3.08-1.7,1.38,.55,1.85,1.74,1.64,3.27Z"/><path class="f" d="M211.66,30.51c-.56,1.37-1.59,1.74-2.54,2.12-3.51,1.42-7,2.9-10.57,4.14-4.29,1.49-8.05,3.63-10.95,7.22-2.33,2.89-5.77,3.93-9.12,5.05-1.39,.46-2.96,1.02-3.86-.58-.89-1.57,.31-2.7,1.47-3.6,3.61-2.83,7.51-5.21,11.55-7.35,6.5-3.44,13.54-5.46,20.48-7.77,1.26-.42,2.77-.88,3.54,.76Z"/><path class="f" d="M314.7,61.11c-.06,1.81-1.15,1.41-1.96,1.21-2.21-.54-3.99-1.93-5.78-3.21-7.71-5.52-14.01-12.46-19.63-20.04-.79-1.07-2.14-2.52-.62-3.76,1.42-1.15,2.73,.15,3.67,1.2,6.94,7.82,14.97,14.53,22.19,22.06,.8,.84,1.49,1.77,2.12,2.53Z"/></g></g></svg>