<?xml version="1.0" encoding="UTF-8"?><svg xmlns="http://www.w3.org/2000/svg" xmlns:xlink="http://www.w3.org/1999/xlink" viewBox="0 0 500 500"><defs><style>.g{fill:url(#e);}.h{fill:#002c6d;}.i{fill:#011945;}.j{fill:#fff;}.k{fill:#22d901;}.l{fill:#352b1c;}</style><linearGradient id="e" x1="259.11" y1="229" x2="176.63" y2="414.2" gradientTransform="matrix(1, 0, 0, 1, 0, 0)" gradientUnits="userSpaceOnUse"><stop offset="0" stop-color="#011945"/><stop offset=".21" stop-color="#03326d"/><stop offset=".44" stop-color="#064a92"/><stop offset=".66" stop-color="#085bad"/><stop offset=".85" stop-color="#0965bd"/><stop offset="1" stop-color="#0a69c3"/></linearGradient></defs><g id="a"><path class="l" d="M472.99,159.75h-5.15v-36.21c0-14.92-12.1-27.02-27.02-27.02h-5.15v-5.15c0-14.92-12.1-27.02-27.02-27.02h-5.16v-5.16c0-14.92-12.1-27.02-27.02-27.02h-36.21v-5.15c0-14.92-12.1-27.02-27.02-27.02h-126.47c-14.92,0-27.02,12.1-27.02,27.02v5.15h-36.21c-14.92,0-27.02,12.1-27.02,27.02v5.15h-5.15c-14.92,0-27.02,12.1-27.02,27.02h0v5.16h-5.16c-14.92,0-27.02,12.1-27.02,27.02v36.21h-5.15c-14.92,0-27.02,12.1-27.02,27.02H0v126.47c0,14.92,12.1,27.02,27.02,27.02h5.15v36.21c0,14.92,12.1,27.02,27.02,27.02h5.15v5.29c0,14.92,12.1,27.02,27.02,27.02h5.16v5.15c0,14.92,12.1,27.02,27.02,27.02h36.21v5c0,14.92,12.1,27.02,27.02,27.02h126.47c14.92,0,27.02-12.1,27.02-27.02v-5h36.21c14.92,0,27.02-12.1,27.02-27.02v-5.13h5.15c14.92,0,27.02-12.1,27.02-27.02h0v-5.3h5.15c14.92,0,27.02-12.1,27.02-27.02h0v-36.21h5.15c14.92,0,27.02-12.1,27.02-27.02h0v-126.47c0-14.92-12.09-27.02-27.01-27.02Z"/></g><g id="b"><polygon class="i" points="27.02 186.77 27.02 313.24 59.19 313.24 59.19 376.48 91.35 376.48 91.35 408.79 123.52 408.79 123.52 440.95 186.77 440.95 186.77 472.98 313.23 472.98 313.23 440.95 376.48 440.95 376.48 408.79 408.65 408.79 408.65 376.62 440.81 376.62 440.81 313.24 472.98 313.24 472.98 186.77 440.81 186.77 440.81 123.52 408.65 123.52 408.65 91.35 376.48 91.35 376.48 59.19 313.23 59.19 313.23 27.02 186.77 27.02 186.77 59.19 123.52 59.19 123.52 91.35 91.35 91.35 91.35 123.52 59.19 123.52 59.19 186.76 27.02 186.77"/></g><g id="c"><g><rect class="h" x="186.77" y="27.02" width="126.47" height="32.17"/><rect class="h" x="313.23" y="59.19" width="63.24" height="32.17"/><rect class="h" x="123.52" y="59.19" width="63.24" height="32.17"/><polygon class="h" points="91.35 123.52 59.19 123.52 59.19 186.76 91.35 186.76 91.35 123.52 123.52 123.52 123.52 91.35 91.35 91.35 91.35 123.52"/><rect class="h" x="27.02" y="186.76" width="32.17" height="126.49"/><rect class="h" x="408.65" y="123.52" width="32.17" height="63.23"/><rect class="h" x="440.81" y="186.76" width="32.17" height="126.49"/><rect class="h" x="376.48" y="91.35" width="32.17" height="32.17"/><rect class="h" x="186.77" y="440.81" width="126.47" height="32.17"/><rect class="h" x="313.23" y="408.65" width="63.24" height="32.17"/><rect class="h" x="123.52" y="408.65" width="63.24" height="32.17"/><polygon class="h" points="91.35 376.48 91.35 408.65 123.52 408.65 123.52 376.48 91.35 376.48 91.35 313.24 59.19 313.24 59.19 376.48 91.35 376.48"/><rect class="h" x="408.65" y="313.24" width="32.17" height="63.23"/><rect class="h" x="376.48" y="376.48" width="32.17" height="32.17"/><polygon class="h" points="415.6 119.68 415.6 119.64 413.08 119.64 413.08 119.68 415.6 119.68"/><rect class="h" x="54.33" y="315.07" width="0" height="0"/><rect class="h" x="84.39" y="380.31" width="2.51" height="0"/></g></g><g id="d"><g><path class="g" d="M373.02,316.89c-23.74,43.56-69.93,73.11-123.02,73.11-77.32,0-140-62.68-140-140,0-53.1,29.57-99.3,73.14-123.03-10.84,19.87-16.99,42.66-16.99,66.89,0,77.32,62.68,140,140,140,24.22,0,47-6.15,66.87-16.97Z"/><path class="j" d="M261.77,338.29c0,3.24-2.65,5.89-5.89,5.89h-11.77c-3.24,0-5.89-2.65-5.89-5.89v-18.54c-25.75-3.53-38.26-17.81-41.65-37.52-.59-3.38,2.06-6.33,5.44-6.33h13.39c2.8,0,5.15,2.06,5.74,4.71,2.5,11.63,9.27,20.6,29.87,20.6,15.16,0,26.05-8.53,26.05-21.19s-6.33-17.51-28.7-21.19c-32.96-4.41-48.56-14.42-48.56-40.17,0-19.87,15.16-35.46,38.41-38.7v-18.25c0-3.24,2.65-5.89,5.89-5.89h11.77c3.24,0,5.89,2.65,5.89,5.89v18.69c18.98,3.38,31.05,14.13,35.02,32.08,.74,3.38-1.91,6.47-5.44,6.47h-12.36c-2.65,0-4.86-1.77-5.59-4.27-3.38-11.33-11.48-16.33-25.61-16.33-15.6,0-23.69,7.5-23.69,18.1,0,11.18,4.56,16.78,28.55,20.16,32.37,4.41,49.15,13.69,49.15,41.2,0,20.9-15.6,37.82-39.88,41.64v18.84h-.15Z"/><g><path class="k" d="M385.77,316.58c-1.34-1.14-2.74-2.31-4.31-3.07-3.76-1.81-3.67-4.11-2.17-7.69,11.02-26.27,13.89-53.51,8.38-81.44-13.12-66.55-70.74-113.98-138.86-114.39-1.39,.09-3.01,.23-4.64,.28-33.13,1.14-62.22,12.67-87.46,34.07-3.66,3.11-3.65,3.4,.08,7.72,2.87,3.33,4.12,3.42,7.38,.71,31.27-26,67.03-36.29,107.15-29.36,79.91,13.8,127.61,96.46,99.89,172.51q-2.85,7.81-9.85,3.21c-3.85-2.53-6.18-1.52-6.56,3.12-.85,10.29-1.56,20.59-2.25,30.89-.24,3.6,1.94,5.38,5.04,3.83,9.35-4.68,18.61-9.54,27.82-14.49,2.7-1.45,2.74-3.91,.37-5.91Z"/><path class="k" d="M335.7,347.22c-9.49,7.89-19.71,14.46-31.02,19.65-13.87,6.37-28.25,10.04-43.35,11.33-25.47,2.18-49.45-2.93-71.85-15.09-57.59-31.26-83.05-98.49-60.73-159.9q2.6-7.14,8.84-2.8c.56,.39,1.11,.8,1.7,1.13,2.93,1.63,5.26,.67,5.55-2.62,.94-10.69,1.76-21.39,2.44-32.09,.23-3.6-2.06-5.23-5.18-3.66-9.34,4.7-18.6,9.55-27.79,14.52-2.76,1.49-2.75,3.81-.24,5.89,1.67,1.38,3.43,2.7,5.31,3.77,2.46,1.39,2.88,2.8,1.68,5.55-7.71,17.79-11.63,36.4-11.46,53.52-.08,26.73,5.86,49.62,17.71,70.94,27.62,49.72,83.25,79.11,141.81,71.43,27.98-3.67,52.59-14.81,74.05-33.06,2.3-1.95,3.39-3.41,.78-6.18-4.81-5.09-4.69-5.27-8.24-2.32Z"/></g></g></g><g id="f"/></svg>