<?xml version="1.0" encoding="UTF-8"?><svg xmlns="http://www.w3.org/2000/svg" viewBox="0 0 500 500"><defs><style>.f{fill:#fed955;}.g{fill:#9695f8;}.h{fill:#5552fd;}.i{fill:#352b1c;}</style></defs><g id="a"/><g id="b"><path class="i" d="M174.25,500c-12.55,0-22.73-10.18-22.73-22.73v-15.15h-15.15c-12.55,0-22.73-10.18-22.73-22.73v-15.15h-15.15c-12.55,0-22.73-10.18-22.73-22.73v-15.15h-15.15c-12.55,0-22.73-10.18-22.73-22.73v-15.15h-15.15c-12.55,0-22.73-10.18-22.73-22.73V174.25c0-12.55,10.18-22.73,22.73-22.73h15.15v-15.15c0-12.55,10.18-22.73,22.73-22.73h15.15v-15.15c0-12.55,10.18-22.73,22.73-22.73h15.15v-15.15c0-12.55,10.18-22.73,22.73-22.73h15.15v-15.15c0-12.55,10.18-22.73,22.73-22.73h151.52c12.55,0,22.73,10.18,22.73,22.73v15.15h15.15c12.55,0,22.73,10.18,22.73,22.73v15.15h15.15c12.55,0,22.73,10.18,22.73,22.73v15.15h15.15c12.55,0,22.73,10.18,22.73,22.73v15.15h15.15c12.55,0,22.73,10.18,22.73,22.73v151.52c0,12.55-10.18,22.73-22.73,22.73h-15.15v15.15c0,12.55-10.18,22.73-22.73,22.73h-15.15v15.15c0,12.55-10.18,22.73-22.73,22.73h-15.15v15.15c0,12.55-10.18,22.73-22.73,22.73h-15.15v15.15c0,12.55-10.18,22.73-22.73,22.73H174.25Z"/><polygon class="f" points="477.27 174.25 477.27 325.76 439.4 325.76 439.4 363.64 401.52 363.64 401.52 401.52 363.64 401.52 363.64 439.4 325.76 439.4 325.76 477.27 174.25 477.27 174.25 439.4 136.36 439.4 136.36 401.52 98.49 401.52 98.49 363.64 60.61 363.64 60.61 325.76 22.73 325.76 22.73 174.25 60.61 174.25 60.61 136.36 98.49 136.36 98.49 98.49 136.36 98.49 136.36 60.61 174.25 60.61 174.25 22.73 325.76 22.73 325.76 60.61 363.64 60.61 363.64 98.49 401.52 98.49 401.52 136.36 439.4 136.36 439.4 174.25 477.27 174.25"/></g><g id="c"><g><path class="g" d="M325.76,136.36h37.88v-37.88h-37.88v37.88Z"/><path class="g" d="M174.24,136.36h-37.88v-37.88h37.88v37.88Z"/><path class="g" d="M401.51,363.64h-37.88v-37.88h37.88v37.88Z"/><path class="g" d="M98.49,363.64h37.88v-37.88h-37.88v37.88Z"/><path class="g" d="M287.88,98.49h37.88V60.61h-37.88v37.88Z"/><path class="g" d="M287.88,439.39h37.88v-37.88h-37.88v37.88Z"/><path class="g" d="M212.12,98.49h37.88V60.61h-37.88v37.88Z"/><path class="g" d="M212.12,439.39h37.88v-37.88h-37.88v37.88Z"/><path class="g" d="M250,98.49h37.88V60.61h-37.88v37.88Z"/><path class="g" d="M250,439.39h37.88v-37.88h-37.88v37.88Z"/><path class="g" d="M174.24,98.49h37.88V60.61h-37.88v37.88Z"/><path class="g" d="M174.24,439.39h37.88v-37.88h-37.88v37.88Z"/><path class="g" d="M363.64,174.24h37.88v-37.88h-37.88v37.88Z"/><path class="g" d="M136.36,174.24h-37.88v-37.88h37.88v37.88Z"/><path class="g" d="M363.64,401.51h-37.88v-37.88h37.88v37.88Z"/><path class="g" d="M136.36,401.51h37.88v-37.88h-37.88v37.88Z"/><path class="g" d="M401.51,212.12h37.88v-37.88h-37.88v37.88Z"/><path class="g" d="M60.61,212.12h37.88v-37.88H60.61v37.88Z"/><path class="g" d="M401.51,250h37.88v-37.88h-37.88v37.88Z"/><path class="g" d="M60.61,250h37.88v-37.88H60.61v37.88Z"/><path class="g" d="M401.51,287.88h37.88v-37.88h-37.88v37.88Z"/><path class="g" d="M60.61,287.88h37.88v-37.88H60.61v37.88Z"/><path class="g" d="M401.51,325.76h37.88v-37.88h-37.88v37.88Z"/><path class="g" d="M60.61,325.76h37.88v-37.88H60.61v37.88Z"/></g><g><path class="h" d="M287.88,60.61h37.88V22.73h-37.88V60.61Z"/><path class="h" d="M287.88,477.27h37.88v-37.88h-37.88v37.88Z"/><path class="h" d="M212.12,60.61h37.88V22.73h-37.88V60.61Z"/><path class="h" d="M212.12,477.27h37.88v-37.88h-37.88v37.88Z"/><path class="h" d="M250,60.61h37.88V22.73h-37.88V60.61Z"/><path class="h" d="M250,477.27h37.88v-37.88h-37.88v37.88Z"/><path class="h" d="M174.24,60.61h37.88V22.73h-37.88V60.61Z"/><path class="h" d="M174.24,477.27h37.88v-37.88h-37.88v37.88Z"/><path class="h" d="M22.73,212.12H60.61v-37.88H22.73v37.88Z"/><path class="h" d="M60.61,174.24h37.88v-37.88H60.61v37.88Z"/><path class="h" d="M439.39,174.24h-37.88v-37.88h37.88v37.88Z"/><path class="h" d="M325.76,439.39h37.88v-37.88h-37.88v37.88Z"/><path class="h" d="M60.61,325.76v37.88h37.88v-37.88H60.61Z"/><path class="h" d="M98.49,136.36h37.88v-37.88h-37.88v37.88Z"/><path class="h" d="M401.51,136.36h-37.88v-37.88h37.88v37.88Z"/><path class="h" d="M363.64,401.51h37.88v-37.88h-37.88v37.88Z"/><path class="h" d="M98.49,363.64v37.88h37.88v-37.88h-37.88Z"/><path class="h" d="M136.36,98.49h37.88V60.61h-37.88v37.88Z"/><path class="h" d="M363.64,98.49h-37.88V60.61h37.88v37.88Z"/><path class="h" d="M401.51,363.64h37.88v-37.88h-37.88v37.88Z"/><path class="h" d="M136.36,401.52v37.88h37.88v-37.88h-37.88Z"/><path class="h" d="M439.39,212.12h37.88v-37.88h-37.88v37.88Z"/><path class="h" d="M22.73,250H60.61v-37.88H22.73v37.88Z"/><path class="h" d="M439.39,250h37.88v-37.88h-37.88v37.88Z"/><path class="h" d="M22.73,287.88H60.61v-37.88H22.73v37.88Z"/><path class="h" d="M439.39,287.88h37.88v-37.88h-37.88v37.88Z"/><path class="h" d="M22.73,325.76H60.61v-37.88H22.73v37.88Z"/><path class="h" d="M439.39,325.76h37.88v-37.88h-37.88v37.88Z"/></g></g><g id="d"><g><path class="h" d="M174.24,212.12h37.88v-37.88h-37.88v37.88Z"/><path class="h" d="M250,250h37.88v-37.88h-37.88v37.88Z"/><path class="h" d="M325.76,212.12h37.88v-37.88h-37.88v37.88Z"/><path class="h" d="M325.76,287.88h37.88v-37.88h-37.88v37.88Z"/><path class="h" d="M325.76,250h37.88v-37.88h-37.88v37.88Z"/><path class="h" d="M325.76,325.76h37.88v-37.88h-37.88v37.88Z"/><path class="h" d="M325.76,174.24h37.88v-37.88h-37.88v37.88Z"/><path class="h" d="M325.76,325.76h37.88v37.88h-37.88v-37.88Z"/><path class="h" d="M136.36,212.12h37.88v-37.88h-37.88v37.88Z"/><path class="h" d="M136.36,287.88h37.88v-37.88h-37.88v37.88Z"/><path class="h" d="M136.36,250h37.88v-37.88h-37.88v37.88Z"/><path class="h" d="M136.36,325.76h37.88v-37.88h-37.88v37.88Z"/><path class="h" d="M136.36,174.24h37.88v-37.88h-37.88v37.88Z"/><path class="h" d="M136.36,325.76h37.88v37.88h-37.88v-37.88Z"/><path class="h" d="M287.88,212.12h37.88v-37.88h-37.88v37.88Z"/><path class="h" d="M212.12,250h37.88v-37.88h-37.88v37.88Z"/></g></g><g id="e"/></svg>