<?xml version="1.0" encoding="UTF-8"?><svg xmlns="http://www.w3.org/2000/svg" viewBox="0 0 500 500"><defs><style>.f{fill:#fff;}.g{fill:#ff1f81;}.h{fill:#352b1c;}</style></defs><g id="a"><path class="h" d="M472.99,159.75h-5.15v-36.21c0-14.92-12.1-27.02-27.02-27.02h-5.15v-5.15c0-14.92-12.1-27.02-27.02-27.02h-5.16v-5.16c0-14.92-12.1-27.02-27.02-27.02h-36.21v-5.15c0-14.92-12.1-27.02-27.02-27.02h-126.47c-14.92,0-27.02,12.1-27.02,27.02v5.15h-36.21c-14.92,0-27.02,12.1-27.02,27.02v5.15h-5.15c-14.92,0-27.02,12.1-27.02,27.02h0v5.16h-5.16c-14.92,0-27.02,12.1-27.02,27.02v36.21h-5.15c-14.92,0-27.02,12.1-27.02,27.02H0v126.47c0,14.92,12.1,27.02,27.02,27.02h5.15v36.21c0,14.92,12.1,27.02,27.02,27.02h5.15v5.29c0,14.92,12.1,27.02,27.02,27.02h5.16v5.15c0,14.92,12.1,27.02,27.02,27.02h36.21v5c0,14.92,12.1,27.02,27.02,27.02h126.47c14.92,0,27.02-12.1,27.02-27.02v-5h36.21c14.92,0,27.02-12.1,27.02-27.02v-5.13h5.15c14.92,0,27.02-12.1,27.02-27.02h0v-5.3h5.15c14.92,0,27.02-12.1,27.02-27.02h0v-36.21h5.15c14.92,0,27.02-12.1,27.02-27.02h0v-126.47c0-14.92-12.09-27.02-27.01-27.02Z"/></g><g id="b"><polygon class="f" points="27.02 186.77 27.02 313.24 59.19 313.24 59.19 376.48 91.35 376.48 91.35 408.79 123.52 408.79 123.52 440.95 186.77 440.95 186.77 472.98 313.23 472.98 313.23 440.95 376.48 440.95 376.48 408.79 408.65 408.79 408.65 376.62 440.81 376.62 440.81 313.24 472.98 313.24 472.98 186.77 440.81 186.77 440.81 123.52 408.65 123.52 408.65 91.35 376.48 91.35 376.48 59.19 313.23 59.19 313.23 27.02 186.77 27.02 186.77 59.19 123.52 59.19 123.52 91.35 91.35 91.35 91.35 123.52 59.19 123.52 59.19 186.76 27.02 186.77"/></g><g id="c"><g><g><rect class="g" x="186.77" y="27.02" width="126.47" height="32.17"/><rect class="g" x="123.52" y="59.19" width="63.24" height="32.17"/><polygon class="g" points="91.35 123.53 59.19 123.53 59.19 186.76 91.35 186.76 91.35 123.53 123.52 123.53 123.52 91.36 91.35 91.36 91.35 123.53"/><rect class="g" x="27.02" y="186.76" width="32.17" height="126.49"/><rect class="g" x="186.77" y="440.82" width="126.47" height="32.17"/><rect class="g" x="123.52" y="408.65" width="63.24" height="32.17"/><polygon class="g" points="91.35 376.48 91.35 408.65 123.52 408.65 123.52 376.48 91.35 376.48 91.35 313.25 59.19 313.25 59.19 376.48 91.35 376.48"/><rect class="g" x="54.33" y="315.08" width="0" height="0"/></g><g><rect class="g" x="218.93" y="27.02" width="94.3" height="32.17"/><rect class="g" x="155.68" y="59.19" width="63.24" height="32.17"/><polygon class="g" points="123.52 123.52 91.35 123.52 91.35 186.76 123.52 186.76 123.52 123.52 155.68 123.52 155.68 91.35 123.52 91.35 123.52 123.52"/><rect class="g" x="59.18" y="186.76" width="32.17" height="126.49"/><rect class="g" x="218.93" y="440.81" width="94.3" height="32.17"/><rect class="g" x="155.68" y="408.65" width="63.24" height="32.17"/><polygon class="g" points="123.52 376.48 123.52 408.65 155.68 408.65 155.68 376.48 123.52 376.48 123.52 313.24 91.35 313.24 91.35 376.48 123.52 376.48"/><rect class="g" x="86.5" y="315.07" width="0" height="0"/></g><g><rect class="h" x="251.1" y="27.02" width="62.13" height="32.17"/><rect class="h" x="187.86" y="59.19" width="63.24" height="32.17"/><polygon class="h" points="155.69 123.53 123.52 123.53 123.52 186.76 155.69 186.76 155.69 123.53 187.86 123.53 187.86 91.36 155.69 91.36 155.69 123.53"/><rect class="h" x="91.35" y="186.76" width="32.17" height="126.49"/><rect class="h" x="251.1" y="440.82" width="62.13" height="32.17"/><rect class="h" x="187.86" y="408.65" width="63.24" height="32.17"/><polygon class="h" points="155.69 376.48 155.69 408.65 187.86 408.65 187.86 376.48 155.69 376.48 155.69 313.25 123.52 313.25 123.52 376.48 155.69 376.48"/><rect class="h" x="118.67" y="315.08" width="0" height="0"/><rect class="h" x="91.35" y="376.48" width="64.34" height="32.16"/><rect class="h" x="59.18" y="313.25" width="64.34" height="32.16"/></g></g></g><g id="d"><g><path d="M138.05,205.84h17.11c4.74,22.63,9.49,45.28,14.1,67.28,5.1-21.88,10.36-44.43,15.66-67.16h16.72c5.2,22.56,10.45,45.31,15.52,67.28,4.57-21.74,9.35-44.47,14.17-67.34h17.06c-6.88,29.42-13.71,58.64-20.61,88.13h-19.95c-4.89-21.14-9.81-42.42-14.64-63.28-4.77,20.75-9.66,42.05-14.56,63.41h-19.84c-6.87-29.26-13.73-58.49-20.73-88.32Z"/><path d="M406.04,240.33h32.18v-34.3h17.13v87.93h-16.82v-37.53h-32.3v37.57h-17.13v-88.07h16.95v34.4Z"/><path d="M276.13,221v19.53h27.08v15.32h-27.03v22.93h29.19v15.35h-46.3v-88.21h46.33v15.08h-29.26Z"/><path d="M354.02,221.29v72.83h-16.96v-72.58h-22.13v-15.61h60.98v15.36h-21.89Z"/></g></g><g id="e"/></svg>2-.69-.35-1.04-.53l-.17,.2c10.53,14.84,21.05,29.68,31.62,44.59-13.13,9.31-26.2,18.58-39.28,27.85,5.22,7.32,10.36,14.54,15.55,21.81,13.1-9.29,26.16-18.55,39.24-27.82,14.65,20.65,29.25,41.21,43.85,61.78h0Zm-.38-188.59c-5.76,2.61-11.51,5.22-17.27,7.84-12.18,5.54-24.36,11.09-36.54,16.63-12.16,5.53-24.32,11.05-36.47,16.57-.21,.09-.37,.27-.56,.41,.17,.16,.31,.35,.51,.46,10.02,5.94,20.04,11.87,30.06,17.8,10.59,6.26,21.18,12.51,31.77,18.77,9.51,5.62,19.01,11.24,28.53,16.86,.22,.13,.48,.16,.77,.26v-95.91c-.36,.14-.58,.22-.8,.32h0Zm1.8,95.72c30.61-18.09,61.1-36.12,91.8-54.26-30.74-13.97-61.23-27.83-91.8-41.72v95.99Z"/><g><circle class="f" cx="299.98" cy="339.35" r="52.62"/><path d="M303.45,334.84c-9.56-3.26-12.63-5.79-12.63-10.44,0-3.98,3.63-8,11.73-8,6.67,0,10.93,2.04,12.08,2.67l.68,.37,2.84-7.49-.56-.27c-1.75-.85-6.68-2.82-14.75-2.82-12.94,0-21.97,6.74-21.97,16.4,0,7.77,5.84,13.32,17.85,16.97,8.7,2.86,11.94,5.81,11.94,10.87,0,5.62-5.02,9.12-13.09,9.12-5.18,0-10.58-1.32-14.82-3.61l-.69-.37-2.71,7.46,.49,.29c3.83,2.24,11.04,3.87,17.14,3.87,17.44,0,23.63-9.34,23.63-17.34s-4.97-13.42-17.16-17.65Z"/></g></g></g><g id="e"/></svg>