<svg width="24" height="24" viewBox="0 0 24 24" fill="none" xmlns="http://www.w3.org/2000/svg">
<g clip-path="url(#clip0_982_37616)">
<g clip-path="url(#clip1_982_37616)">
<path d="M22.7034 7.66758H22.4564V5.92943C22.4564 5.21393 21.8747 4.6323 21.1593 4.6323H20.9123V4.38533C20.9123 3.66983 20.3306 3.0882 19.6152 3.0882H19.3682V2.84123C19.3682 2.12573 18.7865 1.5441 18.0711 1.5441H16.3329V1.29713C16.3329 0.581632 15.7513 0 15.0358 0H8.9647C8.24921 0 7.66758 0.581632 7.66758 1.29713V1.5441H5.92943C5.21393 1.5441 4.6323 2.12573 4.6323 2.84123V3.0882H4.38533C3.66983 3.0882 3.0882 3.66983 3.0882 4.38533V4.6323H2.84123C2.12573 4.6323 1.5441 5.21393 1.5441 5.92943V7.66758H1.29713C0.581632 7.66758 0 8.24921 0 8.9647V15.0358C0 15.7513 0.581632 16.3329 1.29713 16.3329H1.5441V18.0711C1.5441 18.7865 2.12573 19.3682 2.84123 19.3682H3.0882V19.6219C3.0882 20.3374 3.66983 20.919 4.38533 20.919H4.6323V21.166C4.6323 21.8815 5.21393 22.4631 5.92943 22.4631H7.66758V22.7034C7.66758 23.4188 8.24921 24.0005 8.9647 24.0005H15.0358C15.7513 24.0005 16.3329 23.4188 16.3329 22.7034V22.4631H18.0711C18.7865 22.4631 19.3682 21.8815 19.3682 21.166V20.919H19.6152C20.3306 20.919 20.9123 20.3374 20.9123 19.6219V19.3682H21.1593C21.8747 19.3682 22.4564 18.7865 22.4564 18.0711V16.3329H22.7034C23.4188 16.3329 24.0005 15.7513 24.0005 15.0358V8.9647C24.0005 8.24921 23.4188 7.66758 22.7034 7.66758Z" fill="#352B1C"/>
<path d="M22.7033 8.96469H21.1592V12H22.7033V8.96469Z" fill="#EAEFF3"/>
<path d="M22.7033 12H21.1592V15.0352H22.7033V12Z" fill="#EAEFF3"/>
<path d="M15.0358 2.8407V1.2966L12.0005 1.2966V2.8407H15.0358Z" fill="#EAEFF3"/>
<path d="M12 2.8407V1.2966L8.96472 1.2966V2.8407H12Z" fill="#EAEFF3"/>
<path d="M15.0352 22.7034V21.1593H11.9999V22.7034H15.0352Z" fill="#EAEFF3"/>
<path d="M12 22.7034V21.1593H8.96472V22.7034H12Z" fill="#EAEFF3"/>
<path d="M21.1593 5.92889H19.6152V8.96417H21.1593V5.92889Z" fill="#EAEFF3"/>
<path d="M21.1593 15.0358H19.6152V18.071H21.1593V15.0358Z" fill="#EAEFF3"/>
<path d="M18.071 21.166V19.6219H15.0358V21.166H18.071Z" fill="#EAEFF3"/>
<path d="M18.071 4.3848V2.8407H15.0358V4.3848H18.071Z" fill="#EAEFF3"/>
<path d="M19.6151 4.38483H18.071V5.92893H19.6151V4.38483Z" fill="#EAEFF3"/>
<path d="M19.6151 18.0778H18.071V19.6219H19.6151V18.0778Z" fill="#EAEFF3"/>
<path d="M1.2966 12H2.8407L2.8407 8.96469H1.2966L1.2966 12Z" fill="#EAEFF3"/>
<path d="M1.2966 15.0358H2.8407L2.8407 12.0005H1.2966L1.2966 15.0358Z" fill="#EAEFF3"/>
<path d="M2.84067 8.96469H4.38477V5.92941H2.84067L2.84067 8.96469Z" fill="#EAEFF3"/>
<path d="M2.84067 18.071H4.38477V15.0358H2.84067L2.84067 18.071Z" fill="#EAEFF3"/>
<path d="M8.96417 21.166V19.6219H5.9289V21.166H8.96417Z" fill="#EAEFF3"/>
<path d="M8.96472 4.3848V2.8407H5.92944V4.3848H8.96472Z" fill="#EAEFF3"/>
<path d="M4.38486 5.92889H5.92896V4.38479H4.38486V5.92889Z" fill="#EAEFF3"/>
<path d="M4.38486 19.6219H5.92896V18.0778H4.38486V19.6219Z" fill="#EAEFF3"/>
<path d="M8.96469 2.8407H15.0352V4.3848H18.071V5.9289H19.6151V8.96469H21.1592V15.0358H19.6151V18.0778H18.071V19.6219H15.0352V21.1592H8.96469V19.6219H5.9289V18.0778H4.3848V15.0358H2.8407V8.96469H4.3848V5.9289H5.9289V4.3848H8.96469V2.8407Z" fill="#00F078"/>
<path d="M16.596 14.6793L17.038 16.3241H10.9602L11.4023 14.6793C10.3895 14.6793 9.56036 13.8382 9.56036 12.8104C9.56036 11.8759 10.2416 11.0909 11.1444 10.9602C10.5182 10.6987 10.0579 10.0818 10.0579 9.35277C10.0579 8.39964 10.8129 7.6333 11.7525 7.6333C12.6921 7.6333 13.4471 8.39964 13.4471 9.35277C13.4471 9.57692 13.4102 9.7829 13.3366 9.98836H14.6259C14.5522 9.80158 14.5154 9.57692 14.5154 9.35277C14.5154 8.39964 15.2703 7.6333 16.21 7.6333C17.1496 7.6333 17.9045 8.39964 17.9045 9.35277C17.9045 10.0818 17.4625 10.7174 16.818 10.9602C17.7022 11.0909 18.4021 11.8573 18.4021 12.8104C18.4389 13.8382 17.6285 14.6793 16.597 14.6793H16.596Z" fill="#6A4C3D"/>
<path d="M12.5074 12.3056C12.7616 12.3056 12.9676 12.0965 12.9676 11.8381C12.9676 11.5797 12.7616 11.3706 12.5074 11.3706C12.2532 11.3706 12.0472 11.5797 12.0472 11.8381C12.0472 12.0965 12.2532 12.3056 12.5074 12.3056Z" fill="black"/>
<path d="M15.2516 12.3056C15.5058 12.3056 15.7118 12.0965 15.7118 11.8381C15.7118 11.5797 15.5058 11.3706 15.2516 11.3706C14.9974 11.3706 14.7914 11.5797 14.7914 11.8381C14.7914 12.0965 14.9974 12.3056 15.2516 12.3056Z" fill="black"/>
<path d="M13.8886 12.9972C14.1428 12.9972 14.3488 12.7881 14.3488 12.5297C14.3488 12.2713 14.1428 12.0622 13.8886 12.0622C13.6343 12.0622 13.4283 12.2713 13.4283 12.5297C13.4283 12.7881 13.6343 12.9972 13.8886 12.9972Z" fill="black"/>
<path d="M13.8891 12.5297V13.1093L13.6312 13.3521" fill="black"/>
<path d="M13.6307 13.6328C13.557 13.6328 13.5021 13.6141 13.4465 13.5581C13.336 13.446 13.336 13.2779 13.4465 13.1845L13.612 13.0164V12.5302C13.612 12.3808 13.7226 12.2687 13.8699 12.2687C14.0173 12.2687 14.1278 12.3808 14.1278 12.5302V13.1098C14.1278 13.1845 14.1091 13.2405 14.0541 13.2966L13.8149 13.5394C13.7781 13.5954 13.7044 13.6328 13.6307 13.6328Z" fill="black"/>
<path d="M14.1096 13.6141C14.036 13.6141 13.981 13.5954 13.9254 13.5394L13.7044 13.3153C13.5939 13.2032 13.5939 13.0351 13.7044 12.9417C13.8149 12.8296 13.9804 12.8296 14.0728 12.9417L14.2938 13.1658C14.4043 13.2779 14.4043 13.446 14.2938 13.5399C14.2383 13.596 14.1833 13.6146 14.1096 13.6146V13.6141Z" fill="black"/>
<path d="M11.6052 16.3988C11.89 16.3988 12.1209 16.1643 12.1209 15.8753C12.1209 15.5863 11.89 15.3517 11.6052 15.3517C11.3203 15.3517 11.0894 15.5863 11.0894 15.8753C11.0894 16.1643 11.3203 16.3988 11.6052 16.3988Z" fill="#EFEFED"/>
<path d="M16.4117 16.3988C16.6966 16.3988 16.9275 16.1643 16.9275 15.8753C16.9275 15.5863 16.6966 15.3517 16.4117 15.3517C16.1269 15.3517 15.896 15.5863 15.896 15.8753C15.896 16.1643 16.1269 16.3988 16.4117 16.3988Z" fill="#EFEFED"/>
<path d="M14.7727 15.7072C14.7727 16.2307 14.423 16.6416 13.9991 16.6416C13.5752 16.6416 13.2255 16.212 13.2255 15.7072C13.2255 15.2023 13.5752 14.4547 13.9991 14.4547C14.423 14.4547 14.7727 15.1836 14.7727 15.7072Z" fill="#EFEFED"/>
<path d="M11.9736 15.0721C12.0348 15.0721 12.0841 15.0217 12.0841 14.96C12.0841 14.8983 12.0348 14.8479 11.9736 14.8479C11.9123 14.8479 11.863 14.8983 11.863 14.96C11.863 15.0217 11.9123 15.0721 11.9736 15.0721Z" fill="#EFEFED"/>
<path d="M16.0439 15.0721C16.1051 15.0721 16.1544 15.0217 16.1544 14.96C16.1544 14.8983 16.1051 14.8479 16.0439 14.8479C15.9826 14.8479 15.9333 14.8983 15.9333 14.96C15.9333 15.0217 15.9826 15.0721 16.0439 15.0721Z" fill="#EFEFED"/>
<path d="M17.0567 16.7355H10.9788C10.8497 16.7355 10.7397 16.6795 10.666 16.5861C10.5923 16.4927 10.5741 16.3619 10.5923 16.2312L10.9238 15.0347C9.92921 14.7919 9.19244 13.8943 9.19244 12.8104C9.19244 11.988 9.6345 11.259 10.2976 10.8663C9.91105 10.474 9.69002 9.9505 9.69002 9.37094C9.69002 8.19315 10.6291 7.24002 11.7898 7.24002C12.9505 7.24002 13.8896 8.19315 13.8896 9.37094C13.8896 9.44566 13.8896 9.52037 13.8709 9.61376H14.1656C14.1656 9.53905 14.1469 9.46433 14.1469 9.37094C14.1469 8.19315 15.0861 7.24002 16.2467 7.24002C17.4074 7.24002 18.3465 8.19315 18.3465 9.37094C18.3465 9.9505 18.1255 10.4735 17.739 10.8663C18.402 11.259 18.8441 12.0067 18.8441 12.8104C18.8441 13.8756 18.1073 14.7919 17.1127 15.016L17.4442 16.2125C17.4811 16.3246 17.4442 16.4553 17.3706 16.5679C17.2969 16.68 17.1682 16.736 17.0577 16.736L17.0567 16.7355ZM11.4946 15.9318H16.5409L16.2281 14.7914C16.1912 14.6793 16.2281 14.5486 16.3017 14.4365C16.3754 14.3431 16.4859 14.2871 16.6146 14.2871C17.4064 14.2871 18.0513 13.6328 18.0513 12.8291C18.0513 12.1001 17.5174 11.4832 16.8175 11.3711C16.6333 11.3524 16.5046 11.203 16.4859 11.0157C16.4672 10.8289 16.5596 10.6608 16.7251 10.6048C17.2222 10.3993 17.5537 9.91314 17.5537 9.37094C17.5537 8.64196 16.9643 8.04372 16.2462 8.04372C15.5281 8.04372 14.9387 8.64196 14.9387 9.37094C14.9387 9.53905 14.9756 9.70716 15.0311 9.8571C15.0861 9.98785 15.0679 10.1186 14.9942 10.2307C14.9206 10.3427 14.7919 10.3988 14.6627 10.3988H13.3733C13.2447 10.3988 13.1155 10.3241 13.0418 10.2307C12.9681 10.1186 12.9494 9.98785 13.005 9.8571C13.0605 9.70767 13.0973 9.53957 13.0973 9.37094C13.0973 8.64196 12.5079 8.04372 11.7898 8.04372C11.0717 8.04372 10.4823 8.62328 10.4823 9.37094C10.4823 9.91314 10.8139 10.4175 11.3109 10.6048C11.4764 10.6795 11.5688 10.8476 11.5501 11.0157C11.5314 11.2025 11.3846 11.3332 11.2186 11.3711C10.5186 11.4645 9.98473 12.1001 9.98473 12.8291C9.98473 13.6328 10.6291 14.2871 11.4214 14.2871C11.5501 14.2871 11.6606 14.3431 11.7343 14.4365C11.808 14.5299 11.8266 14.6606 11.808 14.7914L11.4951 15.9318H11.4946Z" fill="black"/>
<path d="M11.7151 10.8953H5.68811V16.2286H11.7151V10.8953Z" fill="#B89F87"/>
<path d="M6.7502 15.3398H5.68811V15.6973H6.7502V15.3398Z" fill="#6D5C50"/>
<path d="M11.7146 15.3398H10.6525V15.6973H11.7146V15.3398Z" fill="#6D5C50"/>
<path d="M10.6525 15.8711H6.75018V16.2286H10.6525V15.8711Z" fill="#6D5C50"/>
<path d="M10.1217 10.8953H7.28149V11.4157H10.1217V10.8953Z" fill="#322A1C"/>
<path d="M11.1838 12.4996H11.7146V10.8953V10.3754H11.1838H10.1212V10.8953H11.1838V12.4996Z" fill="#322A1C"/>
<path d="M12.2459 12.4996H11.7146V15.6973H12.2459V12.4996Z" fill="#322A1C"/>
<path d="M6.21889 10.8953H7.2815V10.3754H6.21889H5.68811V10.8953V12.4996H6.21889V10.8953Z" fill="#322A1C"/>
<path d="M6.21889 15.6973H5.68811V16.2286H6.21889H6.7502V15.6973H6.21889Z" fill="#322A1C"/>
<path d="M10.6525 16.2286H6.75018V16.7599H10.6525V16.2286Z" fill="#322A1C"/>
<path d="M10.6525 15.6973V16.2286H11.1838H11.7146V15.6973H11.1838H10.6525Z" fill="#322A1C"/>
<path d="M5.6881 12.4996H5.1568V15.6973H5.6881V12.4996Z" fill="#322A1C"/>
<path d="M10.6525 11.08H10.4792V11.4375H10.6525V11.6108H11.01V11.4375V11.08H10.6525Z" fill="#6D5C50"/>
<path d="M6.93441 11.08H6.76111H6.40363V11.4375V11.6108H6.76111V11.4375H6.93441V11.08Z" fill="#6D5C50"/>
<path d="M7.82369 13.3884H7.28149V13.9306H7.82369V13.3884Z" fill="#322A1C"/>
<path d="M8.34357 13.9197H7.98608V14.2772H8.34357V13.9197Z" fill="#322A1C"/>
<path d="M9.41657 13.9197H9.05908V14.2772H9.41657V13.9197Z" fill="#322A1C"/>
<path d="M9.41653 14.9818H9.05904V14.8085H8.34355V14.9818H7.98606V14.2777H7.62805V15.5131H7.98606V15.6973H8.34355V15.8711H8.51684V16.0444H8.87485V15.8711H9.05904V15.6973H9.41653V15.5131H9.77454V14.2777H9.41653V14.9818Z" fill="#322A1C"/>
<path d="M10.1217 13.3884H9.57947V13.9306H10.1217V13.3884Z" fill="#322A1C"/>
</g>
</g>
<defs>
<clipPath id="clip0_982_37616">
<rect width="24" height="24" fill="white" transform="matrix(-1 0 0 1 24 0)"/>
</clipPath>
<clipPath id="clip1_982_37616">
<rect width="24" height="24" fill="white"/>
</clipPath>
</defs>
</svg>
