<svg width="24" height="24" viewBox="0 0 24 24" fill="none" xmlns="http://www.w3.org/2000/svg">
<g clip-path="url(#clip0_982_36083)">
<g clip-path="url(#clip1_982_36083)">
<path d="M22.7034 7.66758H22.4564V5.92943C22.4564 5.21393 21.8747 4.6323 21.1593 4.6323H20.9123V4.38533C20.9123 3.66983 20.3306 3.0882 19.6152 3.0882H19.3682V2.84123C19.3682 2.12573 18.7865 1.5441 18.0711 1.5441H16.3329V1.29713C16.3329 0.581632 15.7513 0 15.0358 0H8.9647C8.24921 0 7.66758 0.581632 7.66758 1.29713V1.5441H5.92943C5.21393 1.5441 4.6323 2.12573 4.6323 2.84123V3.0882H4.38533C3.66983 3.0882 3.0882 3.66983 3.0882 4.38533V4.6323H2.84123C2.12573 4.6323 1.5441 5.21393 1.5441 5.92943V7.66758H1.29713C0.581632 7.66758 0 8.24921 0 8.9647V15.0358C0 15.7513 0.581632 16.3329 1.29713 16.3329H1.5441V18.0711C1.5441 18.7865 2.12573 19.3682 2.84123 19.3682H3.0882V19.6219C3.0882 20.3374 3.66983 20.919 4.38533 20.919H4.6323V21.166C4.6323 21.8815 5.21393 22.4631 5.92943 22.4631H7.66758V22.7034C7.66758 23.4188 8.24921 24.0005 8.9647 24.0005H15.0358C15.7513 24.0005 16.3329 23.4188 16.3329 22.7034V22.4631H18.0711C18.7865 22.4631 19.3682 21.8815 19.3682 21.166V20.919H19.6152C20.3306 20.919 20.9123 20.3374 20.9123 19.6219V19.3682H21.1593C21.8747 19.3682 22.4564 18.7865 22.4564 18.0711V16.3329H22.7034C23.4188 16.3329 24.0005 15.7513 24.0005 15.0358V8.9647C24.0005 8.24921 23.4188 7.66758 22.7034 7.66758Z" fill="#352B1C"/>
<path d="M22.7033 8.96471H21.1592V12H22.7033V8.96471Z" fill="#EAEFF3"/>
<path d="M22.7033 12H21.1592V15.0353H22.7033V12Z" fill="#EAEFF3"/>
<path d="M15.0358 2.84072V1.29662L12.0005 1.29662V2.84072H15.0358Z" fill="#EAEFF3"/>
<path d="M12 2.84072V1.29662L8.96472 1.29662V2.84072H12Z" fill="#EAEFF3"/>
<path d="M15.0352 22.7034V21.1593H11.9999V22.7034H15.0352Z" fill="#EAEFF3"/>
<path d="M12 22.7034V21.1593H8.96472V22.7034H12Z" fill="#EAEFF3"/>
<path d="M21.1593 5.92889H19.6152V8.96417H21.1593V5.92889Z" fill="#EAEFF3"/>
<path d="M21.1593 15.0358H19.6152V18.0711H21.1593V15.0358Z" fill="#EAEFF3"/>
<path d="M18.071 21.166V19.6219H15.0358V21.166H18.071Z" fill="#EAEFF3"/>
<path d="M18.071 4.38481V2.84071H15.0358V4.38481H18.071Z" fill="#EAEFF3"/>
<path d="M19.6151 4.3848H18.071V5.9289H19.6151V4.3848Z" fill="#EAEFF3"/>
<path d="M19.6151 18.0778H18.071V19.6219H19.6151V18.0778Z" fill="#EAEFF3"/>
<path d="M1.2966 12H2.8407L2.8407 8.96471H1.2966L1.2966 12Z" fill="#EAEFF3"/>
<path d="M1.2966 15.0358H2.8407L2.8407 12.0005H1.2966L1.2966 15.0358Z" fill="#EAEFF3"/>
<path d="M2.84067 8.96471H4.38477V5.92943H2.84067L2.84067 8.96471Z" fill="#EAEFF3"/>
<path d="M2.84067 18.0711H4.38477V15.0358H2.84067L2.84067 18.0711Z" fill="#EAEFF3"/>
<path d="M8.96417 21.166V19.6219H5.9289V21.166H8.96417Z" fill="#EAEFF3"/>
<path d="M8.96472 4.38481V2.84071H5.92944V4.38481H8.96472Z" fill="#EAEFF3"/>
<path d="M4.38486 5.92889H5.92896V4.38479H4.38486V5.92889Z" fill="#EAEFF3"/>
<path d="M4.38486 19.6219H5.92896V18.0778H4.38486V19.6219Z" fill="#EAEFF3"/>
<path d="M8.96469 2.84071H15.0352V4.38481H18.071V5.92891H19.6151V8.96471H21.1592V15.0358H19.6151V18.0778H18.071V19.6219H15.0352V21.1593H8.96469V19.6219H5.9289V18.0778H4.3848V15.0358H2.8407V8.96471H4.3848V5.92891H5.9289V4.38481H8.96469V2.84071Z" fill="#00F078"/>
<path d="M14.8017 14.9247L15.2822 16.7122H8.67773L9.15819 14.9247C8.05719 14.9247 7.15698 14.0105 7.15698 12.8934C7.15698 11.8781 7.89738 11.0251 8.87801 10.8824C8.1978 10.5981 7.69711 9.92769 7.69711 9.13541C7.69711 8.09926 8.51741 7.26651 9.53851 7.26651C10.5596 7.26651 11.3799 8.09926 11.3799 9.13541C11.3799 9.37927 11.34 9.60238 11.2601 9.826H12.661C12.581 9.62313 12.5411 9.37927 12.5411 9.13541C12.5411 8.09926 13.3614 7.26651 14.3825 7.26651C15.4036 7.26651 16.2239 8.09926 16.2239 9.13541C16.2239 9.92769 15.7434 10.6183 15.043 10.8824C16.0039 11.0245 16.764 11.8573 16.764 12.8934C16.804 14.0105 15.9235 14.9247 14.8028 14.9247H14.8017Z" fill="#654D3F"/>
<path d="M10.3589 12.345C10.6354 12.345 10.859 12.1178 10.859 11.8371C10.859 11.5564 10.6349 11.3291 10.3589 11.3291C10.0828 11.3291 9.8587 11.5564 9.8587 11.8371C9.8587 12.1178 10.0828 12.345 10.3589 12.345Z" fill="black"/>
<path d="M13.3407 12.345C13.6172 12.345 13.8409 12.1178 13.8409 11.8371C13.8409 11.5564 13.6167 11.3291 13.3407 11.3291C13.0647 11.3291 12.8405 11.5564 12.8405 11.8371C12.8405 12.1178 13.0647 12.345 13.3407 12.345Z" fill="black"/>
<path d="M11.8599 13.0968C12.1364 13.0968 12.36 12.8696 12.36 12.5889C12.36 12.3082 12.1359 12.0809 11.8599 12.0809C11.5838 12.0809 11.3597 12.3082 11.3597 12.5889C11.3597 12.8696 11.5838 13.0968 11.8599 13.0968Z" fill="black"/>
<path d="M11.8599 12.5889V13.2188L11.5797 13.4829" fill="black"/>
<path d="M11.5797 13.7874C11.4998 13.7874 11.4396 13.7672 11.3794 13.706C11.2596 13.584 11.2596 13.4014 11.3794 13.2997L11.5595 13.1171V12.5889C11.5595 12.4265 11.6793 12.3046 11.8397 12.3046C12 12.3046 12.1198 12.4265 12.1198 12.5889V13.2188C12.1198 13.3002 12.0996 13.3609 12.0399 13.4216L11.78 13.6857C11.74 13.7464 11.6601 13.7874 11.5797 13.7874Z" fill="black"/>
<path d="M12.1001 13.7672C12.0202 13.7672 11.96 13.7469 11.8998 13.6857L11.6596 13.4419C11.5397 13.3199 11.5397 13.1373 11.6596 13.0356C11.7794 12.9137 11.96 12.9137 12.0596 13.0356L12.2999 13.2795C12.4197 13.4014 12.4197 13.584 12.2999 13.6857C12.2397 13.7464 12.18 13.7672 12.0996 13.7672H12.1001Z" fill="black"/>
<path d="M9.37823 16.7936C9.68798 16.7936 9.93859 16.5389 9.93859 16.225C9.93859 15.9111 9.68798 15.6563 9.37823 15.6563C9.06848 15.6563 8.81787 15.9111 8.81787 16.225C8.81787 16.5389 9.06899 16.7936 9.37823 16.7936Z" fill="#EEEEEC"/>
<path d="M14.602 16.7936C14.9118 16.7936 15.1624 16.5389 15.1624 16.225C15.1624 15.9111 14.9113 15.6563 14.602 15.6563C14.2928 15.6563 14.0417 15.9111 14.0417 16.225C14.0417 16.5389 14.2928 16.7936 14.602 16.7936Z" fill="#EEEEEC"/>
<path d="M12.8208 16.0418C12.8208 16.6105 12.4405 17.0572 11.9802 17.0572C11.52 17.0572 11.1397 16.5903 11.1397 16.0418C11.1397 15.4934 11.52 14.6809 11.9802 14.6809C12.4405 14.6809 12.8208 15.4732 12.8208 16.0418Z" fill="#EEEEEC"/>
<path d="M9.77821 15.3512C9.84462 15.3512 9.89858 15.2968 9.89858 15.2293C9.89858 15.1619 9.84462 15.1074 9.77821 15.1074C9.7118 15.1074 9.65784 15.1619 9.65784 15.2293C9.65784 15.2968 9.7118 15.3512 9.77821 15.3512Z" fill="#EEEEEC"/>
<path d="M14.2015 15.3512C14.2679 15.3512 14.3219 15.2968 14.3219 15.2293C14.3219 15.1619 14.2679 15.1074 14.2015 15.1074C14.1351 15.1074 14.0811 15.1619 14.0811 15.2293C14.0811 15.2968 14.1351 15.3512 14.2015 15.3512Z" fill="#EEEEEC"/>
<path d="M10.3189 11.4515C10.3853 11.4515 10.4393 11.3971 10.4393 11.3296C10.4393 11.2622 10.3853 11.2077 10.3189 11.2077C10.2525 11.2077 10.1985 11.2622 10.1985 11.3296C10.1985 11.3971 10.2525 11.4515 10.3189 11.4515Z" fill="#EEEEEC"/>
<path d="M13.6811 11.4515C13.7475 11.4515 13.8014 11.3971 13.8014 11.3296C13.8014 11.2622 13.7475 11.2077 13.6811 11.2077C13.6147 11.2077 13.5612 11.2622 13.5612 11.3296C13.5612 11.3971 13.6152 11.4515 13.6811 11.4515Z" fill="#EEEEEC"/>
<path d="M15.3025 17.1589H8.69801C8.55792 17.1589 8.43807 17.0982 8.35764 16.9965C8.27774 16.8948 8.2575 16.7527 8.27774 16.6105L8.63782 15.3108C7.55706 15.0467 6.75647 14.0718 6.75647 12.894C6.75647 12 7.23693 11.2082 7.95709 10.7817C7.53682 10.3552 7.29659 9.78656 7.29659 9.15668C7.29659 7.87719 8.31717 6.84105 9.57798 6.84105C10.8388 6.84105 11.8594 7.87667 11.8594 9.15668C11.8594 9.23814 11.8594 9.31908 11.8391 9.42077H12.1593C12.1593 9.33931 12.139 9.25837 12.139 9.15668C12.139 7.87719 13.1596 6.84105 14.4204 6.84105C15.6812 6.84105 16.7018 7.87667 16.7018 9.15668C16.7018 9.78656 16.4616 10.3552 16.0413 10.7817C16.762 11.2082 17.2419 12.0207 17.2419 12.894C17.2419 14.0515 16.4413 15.0472 15.3606 15.2905L15.7207 16.5903C15.7606 16.7122 15.7207 16.8544 15.6408 16.9763C15.5608 17.0982 15.4208 17.1589 15.3004 17.1589H15.3025ZM9.25837 16.2857H14.7421L14.4017 15.0467C14.3618 14.9247 14.4017 14.7826 14.4816 14.6606C14.5615 14.559 14.6819 14.4982 14.822 14.4982C15.6828 14.4982 16.3832 13.7874 16.3832 12.9142C16.3832 12.1219 15.8026 11.4516 15.0425 11.3301C14.8422 11.3099 14.7022 11.1475 14.6824 10.9441C14.6622 10.7412 14.7623 10.5581 14.9424 10.4974C15.4825 10.2738 15.8431 9.74609 15.8431 9.15668C15.8431 8.36439 15.2028 7.71479 14.422 7.71479C13.6411 7.71479 13.0008 8.36491 13.0008 9.15668C13.0008 9.33932 13.0408 9.52247 13.101 9.68487C13.1612 9.82704 13.1409 9.9692 13.061 10.0911C12.9811 10.2131 12.841 10.2738 12.7009 10.2738H11.3C11.16 10.2738 11.0199 10.1923 10.94 10.0911C10.8601 9.9692 10.8398 9.82704 10.9 9.68487C10.9602 9.52247 11.0001 9.33932 11.0001 9.15668C11.0001 8.36439 10.3599 7.71479 9.57902 7.71479C8.79815 7.71479 8.15789 8.34468 8.15789 9.15668C8.15789 9.74558 8.51797 10.294 9.05861 10.4974C9.23865 10.5788 9.33879 10.7615 9.31856 10.9441C9.29832 11.1475 9.13851 11.2897 8.95847 11.3301C8.19784 11.4318 7.61776 12.1224 7.61776 12.9142C7.61776 13.7874 8.31821 14.4982 9.17898 14.4982C9.31907 14.4982 9.43893 14.559 9.51935 14.6606C9.59925 14.7623 9.61949 14.9045 9.59925 15.0467L9.25889 16.2857H9.25837Z" fill="black"/>
</g>
</g>
<defs>
<clipPath id="clip0_982_36083">
<rect width="24" height="24" fill="white" transform="matrix(-1 0 0 1 24 0)"/>
</clipPath>
<clipPath id="clip1_982_36083">
<rect width="24" height="24" fill="white"/>
</clipPath>
</defs>
</svg>
