<svg xmlns="http://www.w3.org/2000/svg" viewBox="0 0 500 500"><defs><style>.cls-1{fill:#352b1c;}.cls-2{fill:#ffe81d;}</style></defs><g id="Layer_1" data-name="Layer 1"><path class="cls-1" d="M428.51,137.77V133a25,25,0,0,0-25-25h-4.76v-4.76a25,25,0,0,0-25-25H339.23V73.49a25,25,0,0,0-25-25H296.6V43.73a25,25,0,0,0-25-25H228.29a25,25,0,0,0-25,25v4.76H185.67a25,25,0,0,0-25,25v4.76H126.14a25,25,0,0,0-25,25V108H96.38a25,25,0,0,0-25,25v4.76H66.62a25,25,0,0,0-25,25V337.25a25,25,0,0,0,25,25h4.76V367a25,25,0,0,0,25,25h4.76v4.76a25,25,0,0,0,25,25h34.53v4.76a25,25,0,0,0,25,25h17.62v4.76a25,25,0,0,0,25,25H271.6a25,25,0,0,0,25-25v-4.76h17.63a25,25,0,0,0,25-25v-4.76h34.52a25,25,0,0,0,25-25V392h4.76a25,25,0,0,0,25-25v-4.76h4.76a25,25,0,0,0,25-25V162.77a25,25,0,0,0-25-25ZM369,362.25V392H309.47v29.76H264.88v29.76H235.12V421.77H190.43V392H130.91V362.25H101.14V332.41H71.38V167.53h29.76V137.77H130.9V108h59.53V78.25h44.69V48.49h29.76V78.25h44.59V108H369v29.76h29.76v29.76h29.76v165H398.75v29.76Z"/><polygon class="cls-2" points="235.12 78.25 235.12 48.49 264.88 48.49 264.88 78.25 309.47 78.25 309.47 108.01 368.99 108.01 368.99 137.77 398.75 137.77 398.75 167.53 428.51 167.53 428.51 332.49 398.75 332.49 398.75 362.25 368.99 362.25 368.99 392.01 309.47 392.01 309.47 421.77 264.88 421.77 264.88 451.53 235.12 451.53 235.12 421.77 190.43 421.77 190.43 392.01 130.91 392.01 130.91 362.25 101.14 362.25 101.14 332.41 71.39 332.41 71.39 167.53 101.14 167.53 101.14 137.77 130.91 137.77 130.91 108.01 190.43 108.01 190.43 78.25 235.12 78.25"/><path d="M133.89,250l26.17-26.17L186.23,250l-26.17,26.17ZM250,186.6l45,45,26.17-26.17-45-45L250,134.26l-26.17,26.17-45,44.6L205,231.2ZM313.77,250l26.17-26.17L366.11,250l-26.17,26.17ZM250,313.4l-45-44.6L178.86,295l45,44.6L250,365.74l26.17-26.17,45-45L295,268.8Z"/><path d="M223.83,250,250,223.83,276.17,250,250,276.17Z"/></g></svg>