<svg width="27" height="27" viewBox="0 0 27 27" fill="none" xmlns="http://www.w3.org/2000/svg">
<g clip-path="url(#clip0_13_1538)">
<path d="M9.93711 3.54032C9.78236 3.54064 9.63382 3.47951 9.52411 3.37037C9.41441 3.26123 9.35252 3.11301 9.35204 2.95826L9.34424 1.20011C9.34376 1.04499 9.40484 0.896018 9.51408 0.785884C9.62332 0.675749 9.77179 0.613449 9.92691 0.612655L13.4481 0.600054C13.4653 0.599143 13.4825 0.599143 13.4997 0.600054L16.9639 0.585053C17.1186 0.584893 17.267 0.646069 17.3767 0.755174C17.4864 0.864278 17.5483 1.01241 17.549 1.1671L17.5568 2.92706C17.5572 3.08218 17.4962 3.23115 17.3869 3.34129C17.2777 3.45142 17.1292 3.51372 16.9741 3.51451L13.4529 3.52952C13.4359 3.53043 13.4189 3.53043 13.4019 3.52952L9.93711 3.54032Z" fill="#352B1C"/>
<path d="M16.9638 1.1701L16.9716 2.92946L15.2122 2.93666L13.4528 2.94446L11.6964 2.95226L9.93701 2.95946L9.92921 1.20011L11.6886 1.19291L13.448 1.18511L15.2044 1.1773L16.9638 1.1701ZM16.9638 0H16.9584L15.1996 0.00780069L13.5194 0.0150013C13.496 0.0150013 13.472 0.0150013 13.448 0.0150013H13.4414L11.6838 0.0204018L9.9238 0.0282025C9.61388 0.0301071 9.31738 0.154885 9.09935 0.375154C8.88133 0.595423 8.7596 0.893189 8.76087 1.20311L8.76868 2.96246C8.7701 3.27186 8.89401 3.56809 9.1133 3.78636C9.33259 4.00463 9.6294 4.12717 9.93881 4.12717H9.94361L11.7012 4.11937L13.3814 4.11217C13.4048 4.11217 13.4288 4.11217 13.4528 4.11217H13.4576L15.217 4.10436L16.9764 4.09656C17.1301 4.09593 17.2821 4.06505 17.4238 4.00566C17.5655 3.94628 17.6942 3.85956 17.8024 3.75046C17.9106 3.64136 17.9963 3.51201 18.0545 3.36981C18.1127 3.2276 18.1424 3.07532 18.1417 2.92166L18.1339 1.1623C18.1319 0.85343 18.0078 0.5579 17.7887 0.340164C17.5696 0.122429 17.2733 0.000151536 16.9644 0L16.9638 0Z" fill="#352B1C"/>
<path d="M10.0361 26.4149C9.88136 26.4153 9.73281 26.3541 9.62311 26.245C9.51341 26.1358 9.45152 25.9876 9.45104 25.8329L9.44324 24.0729C9.44276 23.9178 9.50384 23.7688 9.61308 23.6587C9.72232 23.5486 9.87079 23.4863 10.0259 23.4855L13.5471 23.4705C13.5645 23.4696 13.5819 23.4696 13.5993 23.4705L17.0635 23.4555C17.2181 23.4555 17.3664 23.5167 17.4759 23.6258C17.5855 23.7349 17.6473 23.8829 17.648 24.0375L17.6558 25.7975C17.6562 25.9526 17.5952 26.1016 17.4859 26.2117C17.3767 26.3218 17.2282 26.3841 17.0731 26.3849L13.5519 26.3999C13.5347 26.4008 13.5175 26.4008 13.5003 26.3999L10.0361 26.4149Z" fill="#352B1C"/>
<path d="M17.0628 24.0429L17.0706 25.8023L15.3112 25.8095L13.5518 25.8173L11.7954 25.8251L10.036 25.8323L10.0282 24.0729L11.7876 24.0657L13.547 24.0579L15.3016 24.0501L17.061 24.0429H17.0628ZM17.061 22.8728H17.0556L15.2962 22.8806L13.616 22.8878C13.592 22.8878 13.5686 22.8878 13.544 22.8878H13.5392L11.7798 22.8956L10.0204 22.9034C9.86678 22.9041 9.71474 22.935 9.57302 22.9943C9.43129 23.0537 9.30265 23.1404 9.19444 23.2495C9.08623 23.3586 9.00057 23.488 8.94234 23.6302C8.88412 23.7724 8.85448 23.9247 8.85511 24.0783L8.86291 25.8377C8.86434 26.1476 8.98867 26.4443 9.2086 26.6627C9.42854 26.881 9.72612 27.0032 10.036 27.0024H10.0408L11.8002 26.9946L13.4804 26.9874C13.5044 26.9874 13.5284 26.9874 13.5524 26.9874H13.5572L15.3166 26.9796L17.0766 26.9718C17.2303 26.9712 17.3823 26.9403 17.524 26.8809C17.6658 26.8215 17.7944 26.7348 17.9026 26.6257C18.0108 26.5166 18.0965 26.3872 18.1547 26.245C18.2129 26.1028 18.2426 25.9506 18.2419 25.7969L18.2341 24.0375C18.2327 23.7282 18.1089 23.4321 17.8897 23.2139C17.6706 22.9956 17.3739 22.873 17.0646 22.8728H17.061Z" fill="#352B1C"/>
<path d="M6.4254 5.31708C6.2707 5.31693 6.12234 5.25556 6.01272 5.1464C5.9031 5.03723 5.84113 4.88913 5.84034 4.73443L5.83314 2.97507C5.83274 2.89827 5.84749 2.82214 5.87653 2.75105C5.90558 2.67995 5.94835 2.61527 6.00241 2.56071C6.05647 2.50615 6.12075 2.46278 6.19158 2.43308C6.26241 2.40338 6.3384 2.38794 6.4152 2.38762L9.93699 2.37262C10.0916 2.37262 10.2399 2.43386 10.3494 2.54295C10.459 2.65204 10.5208 2.80008 10.5215 2.95467L10.5293 4.71403C10.5297 4.79085 10.515 4.86701 10.486 4.93815C10.457 5.00928 10.4142 5.07399 10.3602 5.12857C10.3061 5.18314 10.2418 5.22651 10.1709 5.25618C10.1 5.28585 10.024 5.30124 9.9472 5.30148L6.4254 5.31708Z" fill="#352B1C"/>
<path d="M9.93699 2.95707L9.94419 4.71703L8.18479 4.72423L6.4254 4.73203L6.4206 2.97267L8.18059 2.96487L9.93999 2.95707H9.93699ZM9.93999 1.78757H9.93459L8.17519 1.79537L6.4128 1.80017C6.25898 1.80088 6.10681 1.8319 5.965 1.89147C5.82319 1.95104 5.69451 2.03799 5.58633 2.14734C5.47815 2.25668 5.39259 2.38629 5.33455 2.52873C5.27651 2.67117 5.24712 2.82366 5.24807 2.97747L5.25527 4.73683C5.2567 5.04628 5.38059 5.34258 5.59986 5.56094C5.81913 5.77931 6.11594 5.90198 6.4254 5.90213H6.4302L8.19019 5.89433L9.94959 5.88653C10.1032 5.88598 10.2553 5.85514 10.397 5.79578C10.5387 5.73641 10.6674 5.64969 10.7756 5.54057C10.8837 5.43144 10.9693 5.30206 11.0275 5.15982C11.0856 5.01758 11.1151 4.86528 11.1143 4.71163L11.1065 2.95227C11.1054 2.64288 10.9817 2.34655 10.7625 2.12823C10.5432 1.90991 10.2464 1.78741 9.93699 1.78757H9.93999Z" fill="#352B1C"/>
<path d="M6.5095 24.6712C6.35475 24.6712 6.2063 24.6099 6.09664 24.5007C5.98699 24.3915 5.92507 24.2433 5.92443 24.0885L5.91663 22.3292C5.91624 22.2523 5.93101 22.1762 5.96009 22.105C5.98917 22.0339 6.032 21.9692 6.08612 21.9146C6.14024 21.86 6.20459 21.8167 6.27549 21.787C6.34639 21.7574 6.42244 21.742 6.4993 21.7417L10.0205 21.7261C10.1752 21.7261 10.3237 21.7874 10.4334 21.8966C10.543 22.0058 10.6049 22.154 10.6056 22.3088L10.6134 24.0681C10.6137 24.145 10.5989 24.2211 10.5697 24.2922C10.5406 24.3633 10.4978 24.428 10.4437 24.4825C10.3896 24.5371 10.3253 24.5805 10.2544 24.6101C10.1835 24.6398 10.1075 24.6553 10.0307 24.6556L6.5095 24.6712Z" fill="#352B1C"/>
<path d="M10.0211 22.3112L10.0289 24.0705L8.26948 24.0783L6.51008 24.0861L6.50228 22.3268L8.26168 22.319L10.0211 22.3112ZM10.0211 21.1411H10.0157L8.25628 21.1489L6.49688 21.1567C6.18659 21.1581 5.88956 21.2827 5.67105 21.503C5.45254 21.7233 5.33043 22.0213 5.33155 22.3316L5.34055 24.0909C5.34198 24.4003 5.46589 24.6966 5.68518 24.9148C5.90447 25.1331 6.20128 25.2557 6.51068 25.2556H6.51548L8.27488 25.2484L10.0349 25.2406C10.3451 25.2392 10.6421 25.1146 10.8605 24.8943C11.0789 24.674 11.2009 24.376 11.1996 24.0657L11.1918 22.3064C11.1904 21.9968 11.0664 21.7004 10.847 21.4821C10.6276 21.2637 10.3306 21.1411 10.0211 21.1411Z" fill="#352B1C"/>
<path d="M4.67332 7.08423C4.51867 7.08408 4.37037 7.0227 4.26085 6.91351C4.15132 6.80433 4.08948 6.65623 4.08885 6.50158L4.08045 4.74042C4.08013 4.66359 4.09495 4.58745 4.12406 4.51635C4.15318 4.44525 4.19601 4.38058 4.25011 4.32603C4.30422 4.27148 4.36854 4.22812 4.4394 4.19842C4.51026 4.16873 4.58628 4.15329 4.66311 4.15297L6.42491 4.14517C6.57962 4.14533 6.72798 4.20669 6.8376 4.31585C6.94721 4.42502 7.00919 4.57312 7.00998 4.72782L7.01778 6.48718C7.01826 6.6423 6.95718 6.79127 6.84794 6.9014C6.7387 7.01154 6.59023 7.07384 6.43511 7.07463L4.67332 7.08423Z" fill="#352B1C"/>
<path d="M6.4255 4.73202L6.4333 6.49138L4.67391 6.49918L4.66611 4.74042L6.4255 4.73262V4.73202ZM6.4255 3.56252H6.4207L4.66071 3.57032C4.35058 3.57175 4.0537 3.69624 3.83531 3.91643C3.61691 4.13662 3.49486 4.4345 3.49598 4.74462L3.50378 6.50398C3.50521 6.81343 3.6291 7.10973 3.84837 7.32809C4.06764 7.54646 4.36445 7.66913 4.67391 7.66928H4.68051L6.4399 7.66148C6.74983 7.65958 7.04633 7.5348 7.26436 7.31453C7.48238 7.09426 7.60411 6.7965 7.60283 6.48658L7.59563 4.72722C7.59452 4.41768 7.47073 4.1212 7.25139 3.90276C7.03205 3.68433 6.73506 3.56176 6.4255 3.56192V3.56252Z" fill="#352B1C"/>
<path d="M4.74045 22.9221C4.5857 22.9221 4.43725 22.8607 4.32759 22.7515C4.21794 22.6423 4.15602 22.4942 4.15539 22.3394L4.14759 20.58C4.14711 20.4249 4.20819 20.2759 4.31742 20.1658C4.42666 20.0557 4.57513 19.9934 4.73025 19.9926L6.49205 19.9854C6.6468 19.9851 6.79534 20.0462 6.90504 20.1553C7.01475 20.2645 7.07664 20.4127 7.07711 20.5674L7.08672 22.322C7.08711 22.3989 7.07234 22.475 7.04326 22.5462C7.01418 22.6173 6.97135 22.682 6.91723 22.7366C6.86311 22.7911 6.79876 22.8345 6.72786 22.8642C6.65696 22.8938 6.5809 22.9092 6.50405 22.9095L4.74045 22.9221Z" fill="#352B1C"/>
<path d="M6.49389 20.5668L6.50169 22.3268L4.74049 22.334L4.73269 20.5746L6.49209 20.5668H6.49389ZM6.49209 19.3973H6.48729L4.72789 19.4045C4.57423 19.4055 4.42225 19.4367 4.28065 19.4964C4.13904 19.556 4.01058 19.643 3.90259 19.7523C3.7946 19.8617 3.7092 19.9912 3.65127 20.1335C3.59334 20.2758 3.56402 20.4282 3.56496 20.5818L3.57216 22.3412C3.57406 22.65 3.69794 22.9455 3.91678 23.1633C4.13563 23.3811 4.43171 23.5036 4.74049 23.5041H4.74529L6.50469 23.4963C6.65843 23.4958 6.81058 23.4651 6.95243 23.4058C7.09429 23.3465 7.22309 23.2599 7.33147 23.1509C7.43985 23.0418 7.52568 22.9125 7.58408 22.7703C7.64248 22.6281 7.67229 22.4757 7.67182 22.322L7.66402 20.5626C7.66259 20.2532 7.53868 19.957 7.31939 19.7387C7.1001 19.5205 6.80329 19.3979 6.49389 19.3979L6.49209 19.3973Z" fill="#352B1C"/>
<path d="M2.92942 10.6107C2.77467 10.6107 2.62622 10.5494 2.51657 10.4402C2.40691 10.331 2.34499 10.1828 2.34436 10.0281L2.32936 6.50938C2.32888 6.43255 2.34358 6.35639 2.37259 6.28526C2.40161 6.21412 2.44438 6.14941 2.49845 6.09484C2.55253 6.04026 2.61684 5.9969 2.68771 5.96723C2.75857 5.93755 2.8346 5.92216 2.91142 5.92192L4.67382 5.91412C4.82847 5.91428 4.97676 5.97566 5.08629 6.08484C5.19581 6.19403 5.25765 6.34213 5.25828 6.49678L5.27388 10.0155C5.27436 10.1706 5.21328 10.3196 5.10405 10.4297C4.99481 10.5398 4.84634 10.6021 4.69122 10.6029L2.92942 10.6107Z" fill="#352B1C"/>
<path d="M4.6738 6.49918L4.6804 8.25853L4.6888 10.0209L2.92941 10.0287L2.92161 8.26933L2.91381 6.50998L4.6738 6.50218V6.49918ZM4.6738 5.33207H4.6684L2.909 5.33987C2.75537 5.3405 2.60336 5.37139 2.46167 5.43079C2.31998 5.49018 2.19138 5.57691 2.08321 5.68602C1.97505 5.79512 1.88944 5.92447 1.83129 6.06668C1.77313 6.20888 1.74356 6.36114 1.74428 6.51478L1.75148 8.27413L1.75928 10.0335C1.7607 10.3429 1.8846 10.6392 2.10387 10.8576C2.32314 11.076 2.61995 11.1986 2.92941 11.1988H2.93421L4.6936 11.191C5.00389 11.1896 5.30092 11.065 5.51943 10.8447C5.73794 10.6244 5.86005 10.3264 5.85893 10.0161L5.85113 8.25673L5.84333 6.49678C5.84285 6.18692 5.71943 5.88991 5.50015 5.67097C5.28087 5.45204 4.98367 5.32907 4.6738 5.32907V5.33207Z" fill="#352B1C"/>
<path d="M1.20004 17.656C1.04539 17.6558 0.897093 17.5944 0.787571 17.4853C0.678048 17.3761 0.61621 17.228 0.615575 17.0733L0.584972 10.0359C0.584498 9.95907 0.59919 9.88291 0.628208 9.81178C0.657225 9.74064 0.699996 9.67593 0.754069 9.62136C0.808142 9.56678 0.872455 9.52342 0.94332 9.49375C1.01419 9.46407 1.09021 9.44868 1.16704 9.44844L2.92943 9.44064C3.08373 9.44079 3.23173 9.50183 3.34128 9.61047C3.45083 9.71912 3.51308 9.86661 3.5145 10.0209L3.5445 17.0583C3.54498 17.1351 3.53028 17.2113 3.50127 17.2824C3.47225 17.3536 3.42948 17.4183 3.3754 17.4729C3.32133 17.5274 3.25702 17.5708 3.18615 17.6005C3.11529 17.6301 3.03926 17.6455 2.96244 17.6458L1.20004 17.656Z" fill="#352B1C"/>
<path d="M2.92941 10.0257L2.94021 11.7851L2.94741 13.5444L2.95221 15.3014L2.96002 17.0607L1.20002 17.0709L1.19282 15.3116L1.18502 13.5522L1.17722 11.7929L1.17002 10.0335L2.92941 10.0257ZM2.92941 8.85559H2.92401L1.16462 8.86339C0.854383 8.86482 0.557414 8.98939 0.339001 9.20971C0.120589 9.43003 -0.00138822 9.72807 -0.000112158 10.0383L0.0076887 11.7977L0.0148895 13.557L0.0226904 15.3164L0.0304912 17.0763C0.0317605 17.3857 0.155519 17.682 0.374694 17.9004C0.593869 18.1188 0.890617 18.2415 1.20002 18.2416H1.20542L2.96482 18.2338C3.11845 18.2332 3.27046 18.2023 3.41215 18.1429C3.55384 18.0835 3.68245 17.9968 3.79061 17.8877C3.89877 17.7786 3.98438 17.6492 4.04253 17.507C4.10069 17.3648 4.13026 17.2126 4.12955 17.0589L4.12234 15.3014L4.11454 13.542L4.10674 11.7827L4.09894 10.0209C4.09767 9.71156 3.97389 9.41532 3.7547 9.19703C3.53551 8.97874 3.23876 8.85619 2.92941 8.85619V8.85559Z" fill="#352B1C"/>
<path d="M16.9818 5.27387C16.827 5.27387 16.6786 5.21256 16.5689 5.10336C16.4593 4.99416 16.3974 4.84597 16.3967 4.69122L16.3889 2.93186C16.3886 2.85503 16.4034 2.77889 16.4325 2.70779C16.4616 2.63669 16.5045 2.57201 16.5586 2.51746C16.6127 2.46291 16.677 2.41955 16.7479 2.38986C16.8187 2.36017 16.8948 2.34472 16.9716 2.34441L20.4928 2.32941C20.6475 2.32909 20.7961 2.39021 20.9058 2.49935C21.0155 2.60849 21.0774 2.75672 21.0778 2.91146L21.0856 4.67082C21.086 4.74767 21.0713 4.82384 21.0422 4.89498C21.0131 4.96612 20.9703 5.03082 20.9162 5.08539C20.862 5.13996 20.7977 5.18331 20.7268 5.21298C20.6559 5.24264 20.5798 5.25803 20.503 5.25827L16.9818 5.27387Z" fill="#352B1C"/>
<path d="M20.4904 2.91386L20.4982 4.67381L18.7388 4.68042L16.9819 4.68882L16.974 2.92946L18.7334 2.92166L20.4928 2.91386H20.4904ZM20.4928 1.74435H20.488L18.7286 1.75155L16.9692 1.75936C16.8154 1.75975 16.6631 1.79046 16.5212 1.84973C16.3792 1.909 16.2503 1.99568 16.1419 2.10479C16.0334 2.21391 15.9475 2.34333 15.8891 2.48565C15.8307 2.62798 15.801 2.78042 15.8015 2.93426L15.8093 4.69362C15.8104 5.00358 15.9346 5.30042 16.1544 5.51893C16.3743 5.73743 16.6719 5.85972 16.9819 5.85892L18.7412 5.85112L20.5006 5.84332C20.6545 5.84293 20.8067 5.81221 20.9487 5.75294C21.0907 5.69367 21.2196 5.607 21.328 5.49788C21.4365 5.38877 21.5223 5.25935 21.5807 5.11702C21.6391 4.97469 21.6689 4.82225 21.6684 4.66841L21.6624 2.90906C21.6609 2.59966 21.537 2.30343 21.3177 2.08516C21.0984 1.86689 20.8016 1.74435 20.4922 1.74435H20.4928Z" fill="#352B1C"/>
<path d="M17.0629 24.6274C16.9082 24.6275 16.7598 24.5663 16.6502 24.4572C16.5407 24.3481 16.4789 24.2 16.4784 24.0453L16.4706 22.286C16.4702 22.2091 16.485 22.1329 16.514 22.0618C16.5431 21.9907 16.586 21.926 16.6401 21.8714C16.6942 21.8168 16.7585 21.7735 16.8294 21.7438C16.9003 21.7141 16.9764 21.6988 17.0533 21.6985L20.5744 21.6829C20.7292 21.6829 20.8776 21.7442 20.9873 21.8534C21.0969 21.9626 21.1589 22.1108 21.1595 22.2656L21.1667 24.0249C21.1672 24.1018 21.1525 24.1779 21.1235 24.2491C21.0944 24.3202 21.0517 24.3849 20.9976 24.4395C20.9435 24.494 20.8792 24.5374 20.8084 24.5671C20.7375 24.5968 20.6615 24.6121 20.5846 24.6124L17.0629 24.6274Z" fill="#352B1C"/>
<path d="M20.5744 22.268L20.5822 24.0273L18.8228 24.0351L17.0628 24.0429L17.0556 22.283L18.815 22.2758L20.5744 22.268ZM20.5744 21.0979H20.5696L18.8096 21.1057L17.0502 21.1135C16.74 21.1149 16.443 21.2395 16.2246 21.4598C16.0062 21.6801 15.8842 21.9782 15.8855 22.2884L15.8933 24.0477C15.8947 24.357 16.0186 24.6532 16.2377 24.8714C16.4569 25.0897 16.7535 25.2123 17.0628 25.2124H17.0682L18.8276 25.2052L20.587 25.1974C20.7407 25.1968 20.8927 25.1659 21.0344 25.1065C21.1761 25.0471 21.3047 24.9604 21.4128 24.8513C21.521 24.7422 21.6066 24.6128 21.6648 24.4706C21.7229 24.3284 21.7525 24.1762 21.7518 24.0225L21.7446 22.262C21.7435 21.9524 21.6197 21.656 21.4003 21.4375C21.181 21.2191 20.884 21.0965 20.5744 21.0967V21.0979Z" fill="#352B1C"/>
<path d="M20.5061 7.02062C20.3514 7.02078 20.2029 6.9596 20.0933 6.85049C19.9836 6.74139 19.9217 6.59326 19.921 6.43856L19.9132 4.67921C19.9128 4.60235 19.9276 4.52618 19.9567 4.45504C19.9858 4.3839 20.0286 4.3192 20.0827 4.26463C20.1368 4.21007 20.2012 4.16671 20.2721 4.13705C20.343 4.10738 20.419 4.09199 20.4959 4.09175L22.2577 4.08035C22.4124 4.08051 22.5607 4.14187 22.6704 4.25104C22.78 4.3602 22.8419 4.5083 22.8427 4.663L22.8505 6.42056C22.851 6.57568 22.7899 6.72465 22.6807 6.83479C22.5715 6.94492 22.423 7.00722 22.2679 7.00801L20.5061 7.02062Z" fill="#352B1C"/>
<path d="M22.2577 4.66602L22.2655 6.42537L20.5061 6.43317L20.4983 4.67382L22.2577 4.66602ZM22.2577 3.49591H22.2529L20.4935 3.50371C20.3397 3.50442 20.1875 3.53542 20.0457 3.59495C19.9039 3.65447 19.7752 3.74135 19.667 3.85063C19.5588 3.95991 19.4732 4.08943 19.415 4.23181C19.3569 4.37419 19.3274 4.52663 19.3281 4.68042L19.3359 6.43977C19.3374 6.74917 19.4613 7.0454 19.6806 7.26367C19.8999 7.48194 20.1967 7.60448 20.5061 7.60448H20.5109L22.2703 7.59728C22.4241 7.59657 22.5762 7.56557 22.718 7.50604C22.8598 7.44652 22.9885 7.35963 23.0967 7.25036C23.205 7.14108 23.2906 7.01156 23.3487 6.86918C23.4069 6.7268 23.4364 6.57436 23.4356 6.42057L23.4278 4.66061C23.4264 4.35122 23.3025 4.05499 23.0832 3.83671C22.8639 3.61844 22.5671 3.49591 22.2577 3.49591Z" fill="#352B1C"/>
<path d="M20.5745 22.853C20.4197 22.853 20.2712 22.7917 20.1616 22.6825C20.0519 22.5733 19.99 22.4251 19.9894 22.2704L19.9822 20.511C19.9817 20.4341 19.9964 20.3579 20.0254 20.2866C20.0544 20.2154 20.0971 20.1506 20.1512 20.0958C20.2052 20.0411 20.2695 19.9976 20.3404 19.9677C20.4113 19.9379 20.4873 19.9222 20.5643 19.9218L22.3267 19.914C22.4813 19.9141 22.6296 19.9755 22.7391 20.0847C22.8486 20.1939 22.9105 20.342 22.9111 20.4966L22.9189 22.256C22.9193 22.3328 22.9045 22.409 22.8755 22.4801C22.8464 22.5513 22.8036 22.616 22.7494 22.6706C22.6953 22.7251 22.631 22.7685 22.5601 22.7981C22.4892 22.8278 22.4131 22.8432 22.3363 22.8434L20.5745 22.853Z" fill="#352B1C"/>
<path d="M22.3261 20.5008L22.3339 22.2602L20.5745 22.268L20.5667 20.5086L22.3261 20.5008ZM22.3261 19.3313H22.3225L20.5631 19.3385C20.2528 19.34 19.9559 19.4645 19.7374 19.6848C19.519 19.9052 19.397 20.2032 19.3983 20.5134L19.4055 22.2734C19.4071 22.5827 19.5311 22.8789 19.7503 23.0971C19.9696 23.3154 20.2663 23.4379 20.5757 23.4381H20.5823L22.3423 23.4303C22.6525 23.4289 22.9495 23.3043 23.1679 23.084C23.3863 22.8637 23.5083 22.5656 23.507 22.2554L23.4992 20.496C23.4978 20.1867 23.3739 19.8906 23.1548 19.6723C22.9356 19.4541 22.639 19.3315 22.3297 19.3313H22.3261Z" fill="#352B1C"/>
<path d="M22.2804 10.5291C22.1257 10.5291 21.9774 10.4679 21.8677 10.3588C21.7581 10.2498 21.6961 10.1017 21.6953 9.94709L21.6803 6.42777C21.6798 6.27276 21.7408 6.12388 21.8499 6.01376C21.959 5.90364 22.1074 5.84127 22.2624 5.84032L24.0242 5.83252C24.1789 5.83268 24.3272 5.89404 24.4369 6.0032C24.5465 6.11237 24.6084 6.26047 24.6092 6.41517L24.6242 9.93388C24.6247 10.0107 24.61 10.0869 24.581 10.158C24.552 10.2291 24.5092 10.2938 24.4551 10.3484C24.4011 10.403 24.3368 10.4464 24.2659 10.476C24.195 10.5057 24.119 10.5211 24.0422 10.5213L22.2804 10.5291Z" fill="#352B1C"/>
<path d="M24.0248 6.42058L24.0326 8.17994L24.0398 9.9399L22.2804 9.9471L22.2732 8.18774L22.2654 6.42838L24.0248 6.42058ZM24.0248 5.25108H24.02L22.2624 5.25528C21.9522 5.25687 21.6553 5.38149 21.437 5.60177C21.2186 5.82206 21.0965 6.12 21.0977 6.43018L21.1055 8.19014L21.1133 9.9495C21.1147 10.2588 21.2385 10.5549 21.4577 10.7732C21.6768 10.9914 21.9735 11.114 22.2828 11.1142H22.2882L24.0476 11.1064C24.2012 11.1058 24.3533 11.075 24.495 11.0156C24.6367 10.9563 24.7654 10.8696 24.8736 10.7604C24.9817 10.6513 25.0673 10.5219 25.1255 10.3797C25.1836 10.2375 25.2131 10.0851 25.2123 9.93149L25.2027 8.17214L25.1955 6.41278C25.1941 6.10339 25.0702 5.80715 24.8509 5.58888C24.6316 5.37061 24.3348 5.24807 24.0254 5.24808L24.0248 5.25108Z" fill="#352B1C"/>
<path d="M22.3266 21.0859C22.1719 21.0859 22.0234 21.0246 21.9138 20.9154C21.8041 20.8062 21.7422 20.658 21.7416 20.5032L21.726 16.9845C21.7255 16.8294 21.7866 16.6804 21.8958 16.5703C22.005 16.4601 22.1535 16.3978 22.3086 16.3971L24.0704 16.3893C24.2252 16.3893 24.3736 16.4506 24.4833 16.5598C24.5929 16.669 24.6549 16.8172 24.6555 16.9719L24.6705 20.4906C24.671 20.5674 24.6563 20.6436 24.6273 20.7147C24.5982 20.7859 24.5555 20.8506 24.5014 20.9052C24.4473 20.9597 24.383 21.0031 24.3121 21.0328C24.2413 21.0624 24.1653 21.0778 24.0884 21.0781L22.3266 21.0859Z" fill="#352B1C"/>
<path d="M24.0704 16.9743L24.0782 18.7337L24.086 20.4936L22.326 20.5008L22.3188 18.7415L22.311 16.9815L24.0704 16.9737V16.9743ZM24.0704 15.8042H24.0656L22.3062 15.8114C21.9959 15.8128 21.6989 15.9374 21.4804 16.1577C21.2619 16.378 21.1398 16.676 21.1409 16.9863L21.1487 18.7463L21.1565 20.5056C21.1579 20.8149 21.2817 21.1111 21.5009 21.3293C21.7201 21.5476 22.0167 21.6702 22.326 21.6703H22.3314L24.0908 21.6625C24.2445 21.662 24.3965 21.6311 24.5382 21.5718C24.68 21.5124 24.8086 21.4257 24.9168 21.3166C25.025 21.2074 25.1106 21.078 25.1687 20.9358C25.2268 20.7936 25.2563 20.6413 25.2555 20.4876L25.2483 18.7283L25.2405 16.9689C25.2391 16.6595 25.1152 16.3633 24.8959 16.145C24.6766 15.9267 24.3798 15.8042 24.0704 15.8042Z" fill="#352B1C"/>
<path d="M24.0704 17.5594C23.9158 17.5592 23.7675 17.4979 23.6579 17.3889C23.5483 17.2798 23.4863 17.1319 23.4853 16.9773L23.4553 9.93928C23.4549 9.86245 23.4696 9.78629 23.4986 9.71516C23.5276 9.64402 23.5704 9.57931 23.6244 9.52474C23.6785 9.47017 23.7428 9.4268 23.8137 9.39713C23.8845 9.36746 23.9606 9.35206 24.0374 9.35183L25.7998 9.34402C25.9544 9.34418 26.1027 9.40556 26.2123 9.51474C26.3218 9.62393 26.3836 9.77203 26.3843 9.92668L26.4149 16.9641C26.4153 17.0409 26.4006 17.1171 26.3716 17.1882C26.3426 17.2594 26.2998 17.3241 26.2458 17.3786C26.1917 17.4332 26.1274 17.4766 26.0565 17.5063C25.9856 17.5359 25.9096 17.5513 25.8328 17.5516L24.0704 17.5594Z" fill="#352B1C"/>
<path d="M25.8028 9.92908L25.81 11.6884L25.8178 13.4478L25.8256 15.2071L25.8328 16.9671L24.0734 16.9743L24.0626 15.2149L24.0548 13.4556L24.047 11.6962L24.0392 9.93688L25.7992 9.92908H25.8028ZM25.7992 8.75897H25.7938L24.0344 8.76677C23.7241 8.7682 23.4272 8.89277 23.2088 9.11309C22.9903 9.33341 22.8684 9.63145 22.8696 9.94168L22.8768 11.701L22.8846 13.4604L22.8924 15.2203L22.9002 16.9797C22.9014 17.2891 23.0251 17.5854 23.2443 17.8037C23.4635 18.0221 23.7604 18.1446 24.0698 18.1444H24.0752L25.8346 18.1366C25.9885 18.1365 26.141 18.106 26.2831 18.0469C26.4252 17.9877 26.5543 17.9011 26.6629 17.7919C26.7714 17.6827 26.8574 17.5532 26.9157 17.4107C26.9741 17.2683 27.0037 17.1157 27.0029 16.9617L26.9951 15.2023L26.9849 13.4412L26.9771 11.6818L26.9693 9.92188C26.9669 9.61373 26.8431 9.31896 26.6247 9.10156C26.4063 8.88417 26.1109 8.76171 25.8028 8.76077L25.7992 8.75897Z" fill="#352B1C"/>
<path d="M2.97507 21.1675C2.82037 21.1673 2.67201 21.106 2.56239 20.9968C2.45277 20.8876 2.3908 20.7395 2.39001 20.5848L2.37501 17.0661C2.37461 16.9893 2.38936 16.9132 2.4184 16.8421C2.44745 16.771 2.49022 16.7063 2.54428 16.6517C2.59834 16.5972 2.66262 16.5538 2.73345 16.5241C2.80428 16.4944 2.88027 16.479 2.95707 16.4787L4.71947 16.4709C4.87417 16.471 5.02253 16.5324 5.13215 16.6415C5.24177 16.7507 5.30374 16.8988 5.30453 17.0535L5.31954 20.5722C5.32001 20.7273 5.25893 20.8763 5.1497 20.9864C5.04046 21.0966 4.89199 21.1589 4.73687 21.1597L2.97507 21.1675Z" fill="#352B1C"/>
<path d="M4.71945 17.0559L4.72665 18.8153L4.73445 20.5746L2.97506 20.5818L2.96726 18.8225L2.96006 17.0625L4.71945 17.0553V17.0559ZM4.71945 15.8852H4.71405L2.95466 15.893C2.64442 15.8945 2.34745 16.019 2.12904 16.2393C1.91063 16.4597 1.78865 16.7577 1.78993 17.0679L1.80013 18.8279L1.80733 20.5872C1.80876 20.8966 1.93267 21.1929 2.15196 21.4111C2.37124 21.6294 2.66805 21.7519 2.97746 21.7519H2.98226L4.74045 21.7447C5.05059 21.7432 5.3474 21.6185 5.56568 21.3982C5.78397 21.1779 5.90586 20.88 5.90458 20.5698L5.89678 18.8099L5.88898 17.0505C5.88787 16.7411 5.76414 16.4448 5.54492 16.2265C5.32569 16.0082 5.02885 15.8857 4.71945 15.8858V15.8852Z" fill="#352B1C"/>
<path d="M19.2218 22.2716L20.8456 22.2644L20.8378 20.505L22.4616 20.4978L22.4544 18.7385L22.4466 16.9791L24.0704 16.9719L24.0626 15.2125L24.0554 13.4532L24.0476 11.6938L24.0398 9.93447L22.416 9.94107L22.4088 8.18172L22.401 6.42236L20.7772 6.42956L20.7694 4.67021L19.1456 4.67681L17.5219 4.68401L17.5141 2.92465L15.8903 2.93125L14.2659 2.93845L12.6421 2.94565L11.0183 2.95285L9.39456 2.95946L9.40236 4.71881L7.77798 4.72601L6.1542 4.73321L6.162 6.49257L4.53822 6.49977L4.54542 8.25912L4.55322 10.0185L2.92944 10.0257L2.93724 11.785L2.94445 13.5444L2.95225 15.3037L2.96005 17.0637L4.58383 17.0565L4.59163 18.8159L4.59883 20.5752L6.22261 20.568L6.23041 22.328L7.85419 22.3208L9.47857 22.3136L9.48577 24.0729L11.1096 24.0657L12.7339 24.0591L14.3577 24.0519L15.9815 24.0447L17.6053 24.0381L17.5975 22.2782L19.2218 22.2716Z" fill="#FCBE2C"/>
<path d="M13.4528 2.94206V2.94446L15.2122 2.93726L16.9716 2.92946L16.9638 1.1701L15.2044 1.17731L13.448 1.18511V1.18271L11.6886 1.19051L9.9292 1.19771L9.937 2.95706L11.6964 2.94986L13.4528 2.94206Z" fill="#F8AB00"/>
<path d="M13.547 24.0579V24.0555L11.7876 24.0633L10.0282 24.0705L10.036 25.8299L11.7954 25.8227L13.5518 25.8149V25.8173L15.3112 25.8101L17.0706 25.8023L17.0628 24.0429L15.3034 24.0501L13.547 24.0579Z" fill="#F8AB00"/>
<path d="M9.94419 4.71702L9.93699 2.95706L8.1776 2.96486L6.4176 2.97266L6.4254 4.73202L8.1848 4.72422L9.94419 4.71702Z" fill="#F8AB00"/>
<path d="M8.2611 22.319L6.50171 22.3262L6.50951 24.0861L8.26891 24.0783L10.0283 24.0705L10.0205 22.3112L8.2611 22.319Z" fill="#F8AB00"/>
<path d="M6.42564 4.73152L4.66626 4.7392L4.67394 6.49854L6.43331 6.49086L6.42564 4.73152Z" fill="#F8AB00"/>
<path d="M6.49473 20.5671L4.73535 20.5748L4.74303 22.3341L6.50241 22.3264L6.49473 20.5671Z" fill="#F8AB00"/>
<path d="M4.68101 8.25853L4.67381 6.49918L2.91382 6.50698L2.92162 8.26633L2.92942 10.0257L4.68881 10.0179L4.68101 8.25853Z" fill="#F8AB00"/>
<path d="M2.94444 13.5444L2.93724 11.7851L2.92944 10.0257L1.17004 10.0335L1.17724 11.7929L1.18505 13.5522L1.19285 15.3116L1.20005 17.0709L2.96004 17.0637L2.95224 15.3038L2.94444 13.5444Z" fill="#F8AB00"/>
<path d="M18.7389 4.68101L20.4983 4.6738L20.4905 2.91385L18.7311 2.92165L16.9717 2.92945L16.9795 4.68881L18.7389 4.68101Z" fill="#F8AB00"/>
<path d="M17.0557 22.283L17.0629 24.0429L18.8229 24.0351L20.5823 24.0273L20.5745 22.268L18.8151 22.2758L17.0557 22.283Z" fill="#F8AB00"/>
<path d="M22.2574 4.66484L20.498 4.67252L20.5057 6.43186L22.2651 6.42418L22.2574 4.66484Z" fill="#F8AB00"/>
<path d="M22.3271 20.5004L20.5677 20.5081L20.5754 22.2674L22.3348 22.2598L22.3271 20.5004Z" fill="#F8AB00"/>
<path d="M22.2804 9.94409L24.0398 9.93689L24.0326 8.17753L24.0248 6.41757L22.2654 6.42537L22.2732 8.18473L22.2804 9.94409Z" fill="#F8AB00"/>
<path d="M22.3188 18.7415L22.326 20.5008L24.086 20.493L24.0782 18.7337L24.0704 16.9743L22.311 16.9821L22.3188 18.7415Z" fill="#F8AB00"/>
<path d="M25.8148 13.4478L25.807 11.6884L25.7992 9.92908L24.0398 9.93688L24.0476 11.6962L24.0554 13.4556L24.0626 15.2149L24.0704 16.9743L25.8298 16.9665L25.8226 15.2071L25.8148 13.4478Z" fill="#F8AB00"/>
<path d="M4.71948 17.0559L2.96008 17.0637L2.96728 18.8231L2.97508 20.5824L4.73448 20.5746L4.72728 18.8153L4.71948 17.0559Z" fill="#F8AB00"/>
<path d="M14.1237 8.02753H9.26318V19.0565H14.1237C15.5863 19.0565 16.989 18.4755 18.0231 17.4414C19.0573 16.4072 19.6383 15.0046 19.6383 13.542C19.6383 12.0795 19.0573 10.6769 18.0231 9.64268C16.989 8.60852 15.5863 8.02753 14.1237 8.02753ZM14.1087 17.8816H10.5239V9.20063H14.1087C16.4364 9.20063 18.3302 11.1484 18.3302 13.542C18.3302 15.9356 16.4364 17.8816 14.1087 17.8816Z" fill="white"/>
<path d="M20.6866 12.8843V11.6248H7.73901V12.8843H20.6866Z" fill="white"/>
<path d="M20.6866 15.5156V14.2561H7.73901V15.5156H20.6866Z" fill="white"/>
</g>
<defs>
<clipPath id="clip0_13_1538">
<rect width="27" height="27" fill="white"/>
</clipPath>
</defs>
</svg>
