<?xml version="1.0" encoding="UTF-8"?><svg xmlns="http://www.w3.org/2000/svg" xmlns:xlink="http://www.w3.org/1999/xlink" viewBox="0 0 500 500"><defs><style>.g{fill:url(#c);}.h{fill:#2a1b5b;}.i{fill:#352b1c;}.j{opacity:.3;}.k{fill:#fff;fill-rule:evenodd;}</style><linearGradient id="c" x1="44.96" y1="150" x2="455.06" y2="350.02" gradientTransform="matrix(1, 0, 0, 1, 0, 0)" gradientUnits="userSpaceOnUse"><stop offset=".05" stop-color="#6d5cff"/><stop offset=".56" stop-color="#e86eff"/><stop offset=".92" stop-color="#ffd66e"/></linearGradient></defs><g id="a"><path class="i" d="M472.99,159.75h-5.15v-36.21c0-14.92-12.1-27.02-27.02-27.02h-5.15v-5.15c0-14.92-12.1-27.02-27.02-27.02h-5.16v-5.16c0-14.92-12.1-27.02-27.02-27.02h-36.21v-5.15c0-14.92-12.1-27.02-27.02-27.02h-126.47c-14.92,0-27.02,12.1-27.02,27.02v5.15h-36.21c-14.92,0-27.02,12.1-27.02,27.02v5.15h-5.15c-14.92,0-27.02,12.1-27.02,27.02h0v5.16h-5.16c-14.92,0-27.02,12.1-27.02,27.02v36.21h-5.15c-14.92,0-27.02,12.1-27.02,27.02H0v126.47c0,14.92,12.1,27.02,27.02,27.02h5.15v36.21c0,14.92,12.1,27.02,27.02,27.02h5.15v5.29c0,14.92,12.1,27.02,27.02,27.02h5.16v5.15c0,14.92,12.1,27.02,27.02,27.02h36.21v5c0,14.92,12.1,27.02,27.02,27.02h126.47c14.92,0,27.02-12.1,27.02-27.02v-5h36.21c14.92,0,27.02-12.1,27.02-27.02v-5.13h5.15c14.92,0,27.02-12.1,27.02-27.02h0v-5.3h5.15c14.92,0,27.02-12.1,27.02-27.02h0v-36.21h5.15c14.92,0,27.02-12.1,27.02-27.02h0v-126.47c0-14.92-12.09-27.02-27.01-27.02Z"/></g><g id="b"><polygon class="g" points="27.02 186.77 27.02 313.25 59.19 313.25 59.19 376.48 91.36 376.48 91.36 408.79 123.53 408.79 123.53 440.96 186.77 440.96 186.77 472.99 313.24 472.99 313.24 440.96 376.48 440.96 376.48 408.79 408.65 408.79 408.65 376.62 440.82 376.62 440.82 313.25 472.99 313.25 472.99 186.77 440.82 186.77 440.82 123.53 408.65 123.53 408.65 91.36 376.48 91.36 376.48 59.19 313.24 59.19 313.24 27.02 186.77 27.02 186.77 59.19 123.53 59.19 123.53 91.36 91.36 91.36 91.36 123.53 59.19 123.53 59.19 186.76 27.02 186.77"/></g><g id="d"><g class="j"><rect class="h" x="186.77" y="27.02" width="126.47" height="32.17"/><rect class="h" x="313.24" y="59.19" width="63.24" height="32.17"/><rect class="h" x="123.53" y="59.19" width="63.24" height="32.17"/><polygon class="h" points="91.36 123.53 59.19 123.53 59.19 186.76 91.36 186.76 91.36 123.53 123.53 123.53 123.53 91.36 91.36 91.36 91.36 123.53"/><rect class="h" x="27.02" y="186.76" width="32.17" height="126.49"/><rect class="h" x="408.65" y="123.53" width="32.17" height="63.23"/><rect class="h" x="440.82" y="186.76" width="32.17" height="126.49"/><rect class="h" x="376.48" y="91.36" width="32.17" height="32.17"/><rect class="h" x="186.77" y="440.82" width="126.47" height="32.17"/><rect class="h" x="313.24" y="408.65" width="63.24" height="32.17"/><rect class="h" x="123.53" y="408.65" width="63.24" height="32.17"/><polygon class="h" points="91.36 376.48 91.36 408.65 123.53 408.65 123.53 376.48 91.36 376.48 91.36 313.25 59.19 313.25 59.19 376.48 91.36 376.48"/><rect class="h" x="408.65" y="313.25" width="32.17" height="63.23"/><rect class="h" x="376.48" y="376.48" width="32.17" height="32.17"/><polygon class="h" points="415.6 119.69 415.6 119.64 413.09 119.64 413.09 119.69 415.6 119.69"/><rect class="h" x="54.34" y="315.08" width="0" height="0"/><rect class="h" x="84.4" y="380.31" width="2.51" height="0"/></g></g><g id="e"><path class="k" d="M243.05,140h27.94v.06c32.85,1.41,59.05,28.49,59.05,61.69,0,15.42-5.65,29.52-15,40.34,18.67,11.02,31.19,31.34,31.19,54.58,0,34.93-28.27,63.25-63.18,63.33h-94.6v-.64h0V140h54.6Zm-.95,40.56c0-3.56,2.39-6.56,5.65-7.48,2.67-.87,5.71-.24,7.83,1.88l20.96,20.96c.17,.15,.35,.3,.51,.47,3.01,3.01,3.01,7.88,0,10.89l-21.35,21.35c-1.55,1.55-3.6,2.3-5.64,2.25-.06,0-.13,0-.19,0-4.3,0-7.78-3.48-7.78-7.78v-42.54Zm37.14,137.3c0,3.56-2.39,6.56-5.65,7.48-2.67,.87-5.71,.24-7.83-1.88l-20.96-20.96c-.18-.15-.35-.3-.51-.47-3.01-3.01-3.01-7.88,0-10.89l21.35-21.35c1.55-1.55,3.6-2.3,5.63-2.25,.04,0,.08,0,.12,0h.08c4.29,0,7.78,3.48,7.78,7.78v42.54Z"/></g><g id="f"/></svg>