<svg xmlns="http://www.w3.org/2000/svg" viewBox="0 0 449.95 449.96"><defs><style>.cls-1{fill:#352b1c;}.cls-2{fill:#fff;}.cls-3{fill:#f0f1f9;}.cls-4{fill:#fab617;}.cls-5{fill:#fff2db;}.cls-6{fill:#1d3a46;}</style></defs><g id="Layer_1" data-name="Layer 1"><path class="cls-1" d="M164.81,62.48a9.74,9.74,0,0,1-9.75-9.7l-.13-29.32a9.75,9.75,0,0,1,9.71-9.79l58.68-.26a8.25,8.25,0,0,1,.86,0l57.74-.25a9.75,9.75,0,0,1,9.74,9.71l.13,29.32A9.76,9.76,0,0,1,282.08,62l-58.68.25a8.12,8.12,0,0,1-.86,0Z"/><path class="cls-1" d="M281.91,23,282,52.27l-29.32.13-29.32.12v0l-29.27.13-29.32.13-.13-29.33L194,23.29l29.32-.13v0l29.27-.13L281.91,23m0-19.5h-.09l-29.32.13-28,.12c-.39,0-.79,0-1.18,0h-.09l-29.32.13-29.32.13A19.5,19.5,0,0,0,145.18,23.5l.13,29.32a19.5,19.5,0,0,0,19.5,19.41h.08l29.32-.13,28-.12c.39,0,.79,0,1.19,0h.08l29.32-.13,29.33-.12a19.5,19.5,0,0,0,19.41-19.59l-.13-29.32A19.5,19.5,0,0,0,281.92,3.45Z"/><path class="cls-1" d="M166.46,443.66a9.75,9.75,0,0,1-9.75-9.7l-.13-29.32a9.75,9.75,0,0,1,9.71-9.79l58.69-.26a8.06,8.06,0,0,1,.85,0l57.74-.25a9.73,9.73,0,0,1,9.74,9.71l.13,29.32a9.76,9.76,0,0,1-9.71,9.79l-58.68.25a8.25,8.25,0,0,1-.86,0Z"/><path class="cls-1" d="M283.57,404.13l.12,29.32-29.32.13-29.32.12v0l-29.27.13-29.32.13-.13-29.33,29.32-.12,29.32-.13v0l29.26-.13,29.33-.12m0-19.5h-.09l-29.32.13-28,.12c-.4,0-.79,0-1.19,0h-.09l-29.32.13-29.32.13a19.48,19.48,0,0,0-19.41,19.58L147,434a19.5,19.5,0,0,0,19.5,19.41h.08l29.32-.12,28-.13c.4,0,.8,0,1.2,0h.08l29.33-.13,29.32-.12a19.5,19.5,0,0,0,19.41-19.59L303.06,404a19.5,19.5,0,0,0-19.49-19.41Z"/><path class="cls-1" d="M106.29,92.06a9.76,9.76,0,0,1-9.75-9.71L96.42,53a9.74,9.74,0,0,1,9.7-9.79L164.81,43a9.75,9.75,0,0,1,9.75,9.7L174.68,82a9.75,9.75,0,0,1-9.7,9.79Z"/><path class="cls-1" d="M164.81,52.74l.13,29.32-29.33.12-29.32.13L106.16,53l29.33-.13,29.32-.12m0-19.5h-.09l-29.32.13-29.32.12A19.5,19.5,0,0,0,86.67,53.07L86.8,82.4a19.5,19.5,0,0,0,19.49,19.41h.09l29.32-.13,29.32-.13A19.5,19.5,0,0,0,184.43,82l-.13-29.32a19.48,19.48,0,0,0-19.49-19.41Z"/><path class="cls-1" d="M107.69,414.6a9.75,9.75,0,0,1-9.75-9.71l-.13-29.32a9.75,9.75,0,0,1,9.71-9.79l58.69-.26a9.75,9.75,0,0,1,9.74,9.71l.13,29.32a9.75,9.75,0,0,1-9.71,9.79Z"/><path class="cls-1" d="M166.2,375.27l.13,29.32-29.32.13-29.32.13-.13-29.32,29.32-.13,29.32-.13m0-19.49h-.09l-29.32.12-29.32.13a19.49,19.49,0,0,0-19.41,19.58l.12,29.32a19.5,19.5,0,0,0,19.5,19.41h.08l29.32-.12,29.33-.13a19.5,19.5,0,0,0,19.41-19.58l-.13-29.32a19.5,19.5,0,0,0-19.49-19.41Z"/><path class="cls-1" d="M77.1,121.51a9.75,9.75,0,0,1-9.75-9.71l-.13-29.32a9.75,9.75,0,0,1,9.71-9.79l29.36-.13A9.76,9.76,0,0,1,116,82.27l.13,29.32a9.76,9.76,0,0,1-9.71,9.79Z"/><path class="cls-1" d="M106.29,82.31l.13,29.32-29.32.13L77,82.44l29.32-.13m0-19.5h-.08l-29.32.13A19.51,19.51,0,0,0,57.47,82.52l.13,29.32a19.49,19.49,0,0,0,19.5,19.42h.08l29.32-.13a19.51,19.51,0,0,0,19.42-19.58l-.13-29.32a19.51,19.51,0,0,0-19.5-19.42Z"/><path class="cls-1" d="M78.24,385.4a9.75,9.75,0,0,1-9.75-9.7l-.13-29.33a9.76,9.76,0,0,1,9.71-9.79l29.37-.12a9.74,9.74,0,0,1,9.74,9.7l.13,29.32a9.73,9.73,0,0,1-9.71,9.79Z"/><path class="cls-1" d="M107.43,346.21l.13,29.32-29.32.12-.13-29.32,29.32-.12m0-19.5h-.09L78,326.84a19.5,19.5,0,0,0-19.41,19.58l.12,29.32a19.5,19.5,0,0,0,19.5,19.41h.08l29.33-.13a19.5,19.5,0,0,0,19.41-19.58l-.13-29.32a19.5,19.5,0,0,0-19.49-19.41Z"/><path class="cls-1" d="M48,180.28a9.76,9.76,0,0,1-9.75-9.71L38,111.93a9.74,9.74,0,0,1,9.7-9.79L77.1,102a9.76,9.76,0,0,1,9.75,9.71l.25,58.64a9.75,9.75,0,0,1-9.71,9.79Z"/><path class="cls-1" d="M77.1,111.76l.12,29.32.13,29.32L48,170.53l-.13-29.32-.12-29.32,29.32-.13m0-19.5H77l-29.32.13A19.5,19.5,0,0,0,28.28,112l.13,29.32.12,29.32A19.49,19.49,0,0,0,48,190h.08l29.33-.13a19.5,19.5,0,0,0,19.41-19.58L96.72,141l-.13-29.32A19.49,19.49,0,0,0,77.1,92.26Z"/><path class="cls-1" d="M19.22,297.69A9.73,9.73,0,0,1,9.47,288L9,170.7a9.75,9.75,0,0,1,9.71-9.79L48,160.78a9.76,9.76,0,0,1,9.75,9.71l.51,117.28a9.75,9.75,0,0,1-9.71,9.79Z"/><path class="cls-1" d="M48,170.53l.13,29.32.12,29.32.13,29.32.13,29.33-29.32.12-.13-29.32L19,229.3,18.84,200l-.13-29.32L48,170.53M48,151H48l-29.33.13A19.5,19.5,0,0,0-.79,170.74l.13,29.32.13,29.32.12,29.33L-.28,288a19.5,19.5,0,0,0,19.49,19.41h.09l29.32-.13A19.48,19.48,0,0,0,68,287.73l-.12-29.32-.13-29.32-.13-29.32-.12-29.32A19.49,19.49,0,0,0,48,151Z"/><path class="cls-1" d="M282.17,91.34a9.76,9.76,0,0,1-9.75-9.71l-.13-29.32A9.76,9.76,0,0,1,282,42.52l58.69-.25a9.74,9.74,0,0,1,9.74,9.7l.13,29.32a9.74,9.74,0,0,1-9.71,9.79Z"/><path class="cls-1" d="M340.68,52l.13,29.32-29.32.12-29.32.13L282,52.27l29.32-.13L340.68,52m0-19.5h-.09l-29.32.13L282,32.77a19.5,19.5,0,0,0-19.41,19.58l.12,29.33a19.5,19.5,0,0,0,19.5,19.41h.08l29.32-.13,29.33-.13a19.5,19.5,0,0,0,19.41-19.58l-.13-29.32a19.5,19.5,0,0,0-19.49-19.41Z"/><path class="cls-1" d="M283.57,413.88a9.75,9.75,0,0,1-9.75-9.71l-.13-29.32a9.74,9.74,0,0,1,9.71-9.79l58.68-.26a9.75,9.75,0,0,1,9.75,9.71l.13,29.32a9.75,9.75,0,0,1-9.71,9.79Z"/><path class="cls-1" d="M342.08,374.55l.13,29.32-29.32.13-29.32.13-.13-29.32,29.32-.13,29.32-.13m0-19.49H342l-29.32.12-29.33.13a19.5,19.5,0,0,0-19.41,19.58l.13,29.32a19.5,19.5,0,0,0,19.5,19.41h.08L313,423.5l29.32-.13a19.51,19.51,0,0,0,19.42-19.58l-.13-29.32a19.5,19.5,0,0,0-19.5-19.41Z"/><path class="cls-1" d="M340.94,120.41a9.75,9.75,0,0,1-9.75-9.71l-.13-29.32a9.75,9.75,0,0,1,9.71-9.79l29.36-.13a9.75,9.75,0,0,1,9.75,9.71l.13,29.32a9.75,9.75,0,0,1-9.71,9.79Z"/><path class="cls-1" d="M370.13,81.21l.13,29.32-29.32.13-.13-29.32,29.32-.13m0-19.5h-.08l-29.32.13a19.49,19.49,0,0,0-19.41,19.58l.12,29.32a19.5,19.5,0,0,0,19.5,19.41H341l29.32-.12a19.51,19.51,0,0,0,19.42-19.58l-.13-29.32a19.49,19.49,0,0,0-19.5-19.42Z"/><path class="cls-1" d="M342.08,384.3a9.76,9.76,0,0,1-9.75-9.71l-.12-29.32a9.75,9.75,0,0,1,9.7-9.79l29.37-.12a9.74,9.74,0,0,1,9.74,9.7l.13,29.32a9.74,9.74,0,0,1-9.7,9.79Z"/><path class="cls-1" d="M371.28,345.1l.12,29.32-29.32.13L342,345.23l29.33-.13m0-19.49h-.09l-29.32.12a19.5,19.5,0,0,0-19.41,19.58l.12,29.33a19.51,19.51,0,0,0,19.5,19.41h.09l29.32-.13a19.5,19.5,0,0,0,19.41-19.58L390.77,345a19.48,19.48,0,0,0-19.49-19.41Z"/><path class="cls-1" d="M370.51,178.92a9.73,9.73,0,0,1-9.74-9.7l-.26-58.65a9.76,9.76,0,0,1,9.71-9.79l29.36-.12a9.74,9.74,0,0,1,9.75,9.7l.25,58.65a9.75,9.75,0,0,1-9.7,9.79Z"/><path class="cls-1" d="M399.58,110.4l.13,29.33.13,29.32-29.33.12-.12-29.32-.13-29.32,29.32-.13m0-19.49h-.08L370.18,91a19.5,19.5,0,0,0-19.42,19.59l.13,29.32.13,29.32a19.5,19.5,0,0,0,19.49,19.41h.09l29.32-.13A19.48,19.48,0,0,0,419.33,169l-.12-29.32-.13-29.32a19.5,19.5,0,0,0-19.5-19.41Z"/><path class="cls-1" d="M371.28,354.85a9.74,9.74,0,0,1-9.75-9.7l-.26-58.65a9.76,9.76,0,0,1,9.71-9.79l29.36-.12a9.74,9.74,0,0,1,9.75,9.7l.26,58.64a9.75,9.75,0,0,1-9.71,9.79Z"/><path class="cls-1" d="M400.34,286.33l.13,29.32L400.6,345l-29.32.12-.13-29.32L371,286.46l29.32-.13m0-19.49h-.09l-29.32.12a19.5,19.5,0,0,0-19.41,19.58l.12,29.33.13,29.32a19.5,19.5,0,0,0,19.49,19.41h.09l29.32-.13a19.48,19.48,0,0,0,19.41-19.58L420,315.57l-.13-29.32a19.5,19.5,0,0,0-19.49-19.41Z"/><path class="cls-1" d="M400.34,296.08a9.74,9.74,0,0,1-9.74-9.7l-.51-117.29a9.73,9.73,0,0,1,9.7-9.79l29.37-.13a9.75,9.75,0,0,1,9.74,9.71l.51,117.28a9.73,9.73,0,0,1-9.7,9.79Z"/><path class="cls-1" d="M429.16,168.92l.12,29.32.13,29.32.13,29.32.13,29.33-29.33.12L400.22,257l-.13-29.32L400,198.37l-.12-29.32,29.32-.13m0-19.5h-.09l-29.32.13a19.5,19.5,0,0,0-19.41,19.58l.13,29.32.12,29.32.13,29.33.13,29.32a19.48,19.48,0,0,0,19.49,19.41h.09l29.32-.13a19.48,19.48,0,0,0,19.41-19.58L449,256.8l-.12-29.32-.13-29.32-.13-29.32a19.49,19.49,0,0,0-19.49-19.42Z"/><path class="cls-1" d="M48.79,356.21A9.76,9.76,0,0,1,39,346.5l-.25-58.64a9.74,9.74,0,0,1,9.71-9.79l29.36-.13a9.76,9.76,0,0,1,9.75,9.71l.25,58.64a9.73,9.73,0,0,1-9.71,9.79Z"/><path class="cls-1" d="M77.86,287.69,78,317l.12,29.32-29.32.13-.13-29.32-.12-29.32,29.32-.13m0-19.5h-.09l-29.32.13A19.5,19.5,0,0,0,29,287.9l.13,29.32.13,29.32A19.51,19.51,0,0,0,48.79,366h.09l29.32-.13a19.49,19.49,0,0,0,19.41-19.58l-.13-29.32-.12-29.33a19.5,19.5,0,0,0-19.5-19.41Z"/><polygon class="cls-2" points="319.54 374.61 346.6 374.49 346.47 345.17 373.54 345.05 373.41 315.73 373.28 286.41 400.34 286.29 400.22 256.97 400.09 227.65 399.96 198.33 399.84 169.01 372.77 169.12 372.65 139.8 372.52 110.48 345.46 110.6 345.33 81.28 318.27 81.39 291.21 81.51 291.08 52.19 264.02 52.31 236.96 52.42 209.89 52.54 182.83 52.66 155.77 52.77 155.9 82.1 128.84 82.21 101.77 82.33 101.9 111.65 74.84 111.77 74.97 141.09 75.09 170.41 48.03 170.53 48.16 199.85 48.28 229.17 48.41 258.5 48.54 287.82 75.6 287.7 75.73 317.02 75.85 346.34 102.92 346.23 103.04 375.55 130.1 375.43 157.17 375.31 157.29 404.63 184.36 404.52 211.42 404.4 238.48 404.28 265.54 404.17 292.6 404.05 292.48 374.73 319.54 374.61"/><polygon class="cls-3" points="223.4 52.48 223.4 52.52 252.72 52.4 282.04 52.27 281.92 22.95 252.59 23.07 223.32 23.2 223.32 23.16 194 23.29 164.68 23.41 164.81 52.73 194.13 52.61 223.4 52.48"/><polygon class="cls-3" points="224.97 404.38 224.97 404.34 195.65 404.47 166.33 404.59 166.46 433.92 195.78 433.79 225.05 433.66 225.05 433.7 254.37 433.57 283.69 433.45 283.56 404.13 254.24 404.25 224.97 404.38"/><rect class="cls-4" x="106.23" y="52.93" width="29.32" height="29.32" transform="translate(-0.29 0.52) rotate(-0.25)"/><rect class="cls-3" x="135.55" y="52.8" width="29.32" height="29.32" transform="translate(-0.29 0.65) rotate(-0.25)"/><rect class="cls-3" x="136.95" y="375.34" width="29.32" height="29.32" transform="translate(-1.69 0.66) rotate(-0.25)"/><rect class="cls-4" x="107.63" y="375.46" width="29.32" height="29.32" transform="translate(-1.69 0.54) rotate(-0.25)"/><rect class="cls-4" x="77.03" y="82.37" width="29.32" height="29.32" transform="translate(-0.42 0.4) rotate(-0.25)"/><rect class="cls-4" x="78.18" y="346.27" width="29.32" height="29.32" transform="translate(-1.57 0.41) rotate(-0.25)"/><rect class="cls-3" x="47.97" y="141.14" width="29.32" height="29.32" transform="translate(-0.67 0.27) rotate(-0.25)"/><rect class="cls-4" x="47.84" y="111.82" width="29.32" height="29.32" transform="translate(-0.55 0.27) rotate(-0.25)"/><polygon class="cls-3" points="48.28 229.17 48.16 199.85 48.03 170.53 18.71 170.66 18.84 199.98 18.96 229.3 19.09 258.62 19.22 287.94 48.54 287.81 48.41 258.49 48.28 229.17"/><rect class="cls-3" x="282.1" y="52.21" width="29.32" height="29.32" transform="translate(-0.29 1.29) rotate(-0.25)"/><rect class="cls-4" x="311.43" y="52.08" width="29.32" height="29.32" transform="matrix(1, 0, 0, 1, -0.29, 1.42)"/><rect class="cls-4" x="312.82" y="374.62" width="29.32" height="29.32" transform="translate(-1.68 1.42) rotate(-0.25)"/><rect class="cls-3" x="283.5" y="374.74" width="29.32" height="29.32" transform="translate(-1.68 1.29) rotate(-0.25)"/><rect class="cls-4" x="340.88" y="81.27" width="29.32" height="29.32" transform="translate(-0.41 1.54) rotate(-0.25)"/><rect class="cls-4" x="342.02" y="345.17" width="29.32" height="29.32" transform="translate(-1.55 1.55) rotate(-0.25)"/><rect class="cls-4" x="370.32" y="110.47" width="29.32" height="29.32" transform="matrix(1, 0, 0, 1, -0.54, 1.66)"/><rect class="cls-3" x="370.45" y="139.79" width="29.32" height="29.32" transform="translate(-0.67 1.67) rotate(-0.25)"/><rect class="cls-3" x="371.09" y="286.4" width="29.32" height="29.32" transform="translate(-1.29 1.67) rotate(-0.25)"/><rect class="cls-4" x="371.21" y="315.72" width="29.32" height="29.32" transform="translate(-1.42 1.66) rotate(-0.25)"/><polygon class="cls-3" points="429.54 256.88 429.41 227.56 429.29 198.24 429.16 168.92 399.84 169.05 399.96 198.37 400.09 227.69 400.22 257.01 400.34 286.33 429.67 286.21 429.54 256.88"/><rect class="cls-4" x="48.73" y="317.07" width="29.32" height="29.32" transform="translate(-1.44 0.28) rotate(-0.25)"/><rect class="cls-3" x="48.6" y="287.75" width="29.32" height="29.32" transform="translate(-1.32 0.28) rotate(-0.25)"/><path class="cls-5" d="M281.5,123.21,223.36,278.37,165.23,123.21a28.28,28.28,0,0,0-36.66-16.46h0a28.27,28.27,0,0,0-16.37,36.1l82.42,225.24a28.27,28.27,0,0,0,26.55,18.56h4.38a28.26,28.26,0,0,0,26.55-18.56l82.42-225.24a28.27,28.27,0,0,0-16.37-36.1h0A28.27,28.27,0,0,0,281.5,123.21Z"/><path class="cls-6" d="M195.57,336.82a4.63,4.63,0,0,1-6.38,4.66,117.84,117.84,0,0,1,0-224.49c3.56-1.11,6.38,1,6.38,4.66v9.2A7,7,0,0,1,191.4,137a98.13,98.13,0,0,0,0,184.39,7,7,0,0,1,4.17,6.13Z"/><path class="cls-6" d="M234.83,302.84a4.93,4.93,0,0,1-4.91,4.91h-9.81a4.93,4.93,0,0,1-4.91-4.91V287.38c-21.47-2.94-31.9-14.84-34.72-31.28a4.52,4.52,0,0,1,4.54-5.27h11.16a5,5,0,0,1,4.79,3.92c2.08,9.69,7.73,17.18,24.9,17.18,12.64,0,21.71-7.12,21.71-17.67s-5.27-14.6-23.92-17.66c-27.48-3.68-40.48-12-40.48-33.49,0-16.56,12.64-29.57,32-32.27V155.63a4.93,4.93,0,0,1,4.91-4.91h9.81a4.93,4.93,0,0,1,4.91,4.91v15.58C250.65,174,260.71,183,264,198a4.5,4.5,0,0,1-4.54,5.4h-10.3a4.85,4.85,0,0,1-4.66-3.56c-2.82-9.44-9.57-13.61-21.35-13.61-13,0-19.75,6.25-19.75,15.09,0,9.32,3.8,14,23.8,16.8,27,3.68,41,11.41,41,34.35,0,17.42-13,31.53-33.24,34.72v15.7Z"/><path class="cls-6" d="M260.83,341.48c-3.55,1.11-6.38-1-6.38-4.66v-9.2a6.39,6.39,0,0,1,4.18-6.13,98,98,0,0,0,0-184.26,7,7,0,0,1-4.18-6.13v-9.2a4.65,4.65,0,0,1,6.38-4.67,117.68,117.68,0,0,1,0,224.25Z"/></g></svg>