<svg width="24" height="24" viewBox="0 0 24 24" fill="none" xmlns="http://www.w3.org/2000/svg">
<g clip-path="url(#clip0_1724_84959)">
<path d="M22.7031 7.66753H22.4563V5.92897C22.4563 5.21377 21.8746 4.63201 21.1594 4.63201H20.9127V4.38529C20.9127 3.67009 20.3309 3.08833 19.6157 3.08833H19.3685V2.84161C19.3685 2.12641 18.7867 1.54465 18.0715 1.54465H16.333V1.29745C16.333 0.582248 15.7512 0.000488281 15.036 0.000488281H8.96498C8.24978 0.000488281 7.66802 0.582248 7.66802 1.29745V1.54465H5.92994C5.21474 1.54465 4.63298 2.12641 4.63298 2.84161V3.08833H4.38578C3.67058 3.08833 3.08882 3.67009 3.08882 4.38529V4.63201H2.8421C2.1269 4.63201 1.54514 5.21377 1.54514 5.92897V7.66753H1.29794C0.582737 7.66753 0.000976562 8.24929 0.000976562 8.96449V15.0355C0.000976562 15.7507 0.582737 16.3325 1.29794 16.3325H1.54514V18.0706C1.54514 18.7858 2.1269 19.3675 2.8421 19.3675H3.08882V19.621C3.08882 20.3362 3.67058 20.9179 4.38578 20.9179H4.63298V21.1651C4.63298 21.8803 5.21474 22.4621 5.92994 22.4621H7.66802V22.7021C7.66802 23.4173 8.24978 23.999 8.96498 23.999H15.036C15.7512 23.999 16.333 23.4173 16.333 22.7021V22.4621H18.0715C18.7867 22.4621 19.3685 21.8803 19.3685 21.1651V20.9179H19.6157C20.3309 20.9179 20.9127 20.3362 20.9127 19.621V19.3675H21.1594C21.8746 19.3675 22.4563 18.7858 22.4563 18.0706V16.3325H22.7031C23.4183 16.3325 24 15.7507 24 15.0355V8.96449C24 8.24929 23.4183 7.66753 22.7031 7.66753Z" fill="#352B1C"/>
<path d="M22.703 8.96448H21.1589V12H22.703V8.96448Z" fill="#294998"/>
<path d="M22.703 12H21.1589V15.0355H22.703V12Z" fill="#294998"/>
<path d="M15.0355 2.84158V1.29742L12 1.29742V2.84158H15.0355Z" fill="#294998"/>
<path d="M12 2.84116V1.297L8.96448 1.297V2.84116H12Z" fill="#294998"/>
<path d="M15.035 22.703V21.1589H11.9995V22.703H15.035Z" fill="#294998"/>
<path d="M12 22.703V21.1589H8.96448V22.703H12Z" fill="#294998"/>
<path d="M21.1589 5.92944H19.6147V8.96496H21.1589V5.92944Z" fill="#294998"/>
<path d="M21.1589 15.0355H19.6147V18.071H21.1589V15.0355Z" fill="#294998"/>
<path d="M18.0706 21.1656V19.6215H15.035V21.1656H18.0706Z" fill="#294998"/>
<path d="M18.0706 4.38529V2.84113H15.035V4.38529H18.0706Z" fill="#294998"/>
<path d="M19.6152 4.38531H18.071V5.92947H19.6152V4.38531Z" fill="#294998"/>
<path d="M19.6152 18.0778H18.071V19.6219H19.6152V18.0778Z" fill="#294998"/>
<path d="M1.29697 12.0005H2.84113L2.84113 8.96497H1.29697L1.29697 12.0005Z" fill="#294998"/>
<path d="M1.29697 15.0355H2.84113L2.84113 12H1.29697L1.29697 15.0355Z" fill="#294998"/>
<path d="M2.84115 8.96448H4.38531V5.92896H2.84115L2.84115 8.96448Z" fill="#294998"/>
<path d="M2.84115 18.071H4.38531V15.0355H2.84115L2.84115 18.071Z" fill="#294998"/>
<path d="M8.96448 21.1656V19.6215H5.92896V21.1656H8.96448Z" fill="#294998"/>
<path d="M8.96448 4.38529V2.84113H5.92896V4.38529H8.96448Z" fill="#294998"/>
<path d="M4.3848 5.92896H5.92896V4.3848H4.3848V5.92896Z" fill="#294998"/>
<path d="M4.3848 19.6215H5.92896V18.0773H4.3848V19.6215Z" fill="#294998"/>
<path d="M8.96449 2.84113H15.0355V4.38529H18.071V5.92945H19.6147V8.96449H21.1589V15.0355H19.6147V18.0778H18.071V19.6214H15.0355V21.1589H8.96449V19.6214H5.92945V18.0778H4.38529V15.0355H2.84113V8.96449H4.38529V5.92945H5.92945V4.38529H8.96449V2.84113Z" fill="#3957A3"/>
<path d="M10.164 7.19086C10.164 9.21022 8.52001 10.8475 6.49249 10.8475V7.19086H10.164Z" fill="white"/>
<path d="M10.164 10.8475C10.164 8.82814 11.808 7.19086 13.8355 7.19086H17.507V10.8475H13.8355V18.2875H10.164V10.8475Z" fill="white"/>
</g>
<defs>
<clipPath id="clip0_1724_84959">
<rect width="24" height="24" fill="white"/>
</clipPath>
</defs>
</svg>
