<svg width="24" height="24" viewBox="0 0 24 24" fill="none" xmlns="http://www.w3.org/2000/svg">
<g clip-path="url(#clip0_982_36225)">
<g clip-path="url(#clip1_982_36225)">
<path d="M21.9019 7.992H21.6734V6.384C21.6734 5.72208 21.1354 5.184 20.4734 5.184H20.245V4.95552C20.245 4.2936 19.7069 3.75552 19.045 3.75552H18.8165V3.52704C18.8165 2.86512 18.2784 2.32704 17.6165 2.32704H16.0085V2.09856C16.0085 1.43664 15.4704 0.89856 14.8085 0.89856H9.192C8.53008 0.89856 7.992 1.43664 7.992 2.09856V2.32704H6.384C5.72208 2.32704 5.184 2.86512 5.184 3.52704V3.75552H4.95552C4.2936 3.75552 3.75552 4.2936 3.75552 4.95552V5.184H3.52704C2.86512 5.184 2.32704 5.72208 2.32704 6.384V7.992H2.09856C1.43664 7.992 0.89856 8.53008 0.89856 9.192V14.8085C0.89856 15.4704 1.43664 16.0085 2.09856 16.0085H2.32704V17.6165C2.32704 18.2784 2.86512 18.8165 3.52704 18.8165H3.75552V19.0512C3.75552 19.7131 4.2936 20.2512 4.95552 20.2512H5.184V20.4797C5.184 21.1416 5.72208 21.6797 6.384 21.6797H7.992V21.9019C7.992 22.5638 8.53008 23.1019 9.192 23.1019H14.8085C15.4704 23.1019 16.0085 22.5638 16.0085 21.9019V21.6797H17.6165C18.2784 21.6797 18.8165 21.1416 18.8165 20.4797V20.2512H19.045C19.7069 20.2512 20.245 19.7131 20.245 19.0512V18.8165H20.4734C21.1354 18.8165 21.6734 18.2784 21.6734 17.6165V16.0085H21.9019C22.5638 16.0085 23.1019 15.4704 23.1019 14.8085V9.192C23.1019 8.53008 22.5638 7.992 21.9019 7.992Z" fill="#352B1C"/>
<path d="M21.9019 9.19199H20.4734V12H21.9019V9.19199Z" fill="#D8D8D8"/>
<path d="M21.9019 12H20.4734V14.808H21.9019V12Z" fill="#D8D8D8"/>
<path d="M14.8085 3.52656V2.09808H12.0005V3.52656H14.8085Z" fill="#D8D8D8"/>
<path d="M12 3.52656V2.09808H9.192V3.52656H12Z" fill="#D8D8D8"/>
<path d="M14.808 21.9019V20.4734H12V21.9019H14.808Z" fill="#D8D8D8"/>
<path d="M12 21.9019V20.4734H9.192V21.9019H12Z" fill="#D8D8D8"/>
<path d="M20.4735 6.38351H19.045V9.19151H20.4735V6.38351Z" fill="#D8D8D8"/>
<path d="M20.4735 14.8085H19.045V17.6165H20.4735V14.8085Z" fill="#D8D8D8"/>
<path d="M17.6165 20.4797V19.0512H14.8085V20.4797H17.6165Z" fill="#D8D8D8"/>
<path d="M17.6165 4.95503V3.52655H14.8085V4.95503H17.6165Z" fill="#D8D8D8"/>
<path d="M19.0449 4.95505H17.6165V6.38353H19.0449V4.95505Z" fill="#D8D8D8"/>
<path d="M19.0449 17.6227H17.6165V19.0512H19.0449V17.6227Z" fill="#D8D8D8"/>
<path d="M2.09807 12H3.52655L3.52655 9.192H2.09807L2.09807 12Z" fill="#D8D8D8"/>
<path d="M2.09807 14.8085H3.52655L3.52655 12.0005H2.09807L2.09807 14.8085Z" fill="#D8D8D8"/>
<path d="M3.52654 9.19199H4.95502V6.38399H3.52654L3.52654 9.19199Z" fill="#D8D8D8"/>
<path d="M3.52654 17.6165H4.95502V14.8085H3.52654L3.52654 17.6165Z" fill="#D8D8D8"/>
<path d="M9.19153 20.4797V19.0512H6.38353V20.4797H9.19153Z" fill="#D8D8D8"/>
<path d="M9.19202 4.95503V3.52655H6.38402V4.95503H9.19202Z" fill="#D8D8D8"/>
<path d="M4.95506 6.38351H6.38354V4.95503H4.95506V6.38351Z" fill="#D8D8D8"/>
<path d="M4.95506 19.0512H6.38354V17.6227H4.95506V19.0512Z" fill="#D8D8D8"/>
<path d="M9.19199 3.52655H14.808V4.95503H17.6165V6.38351H19.0449V9.19199H20.4734V14.8085H19.0449V17.6227H17.6165V19.0512H14.808V20.4734H9.19199V19.0512H6.38351V17.6227H4.95503V14.8085H3.52655V9.19199H4.95503V6.38351H6.38351V4.95503H9.19199V3.52655Z" fill="white"/>
<path d="M16.4155 8.08463H7.58447V15.8995H16.4155V8.08463Z" fill="#B89F87"/>
<path d="M9.14111 14.5968H7.58447V15.121H9.14111V14.5968Z" fill="#6D5C50"/>
<path d="M16.4155 14.5968H14.8589V15.121H16.4155V14.5968Z" fill="#6D5C50"/>
<path d="M14.8594 15.3753H9.14111V15.8995H14.8594V15.3753Z" fill="#6D5C50"/>
<path d="M14.0808 8.08463H9.91919V8.84687H14.0808V8.08463Z" fill="#322A1C"/>
<path d="M15.6375 10.4357H16.4155V8.08463V7.32239H15.6375H14.0808V8.08463H15.6375V10.4357Z" fill="#322A1C"/>
<path d="M17.1936 10.4357H16.4155V15.1214H17.1936V10.4357Z" fill="#322A1C"/>
<path d="M8.36255 8.08463H9.91919V7.32239H8.36255H7.58447V8.08463V10.4357H8.36255V8.08463Z" fill="#322A1C"/>
<path d="M8.36255 15.1209H7.58447V15.8995H8.36255H9.14111V15.1209H8.36255Z" fill="#322A1C"/>
<path d="M14.8594 15.8995H9.14111V16.6776H14.8594V15.8995Z" fill="#322A1C"/>
<path d="M14.8589 15.1209V15.8995H15.6374H16.4155V15.1209H15.6374H14.8589Z" fill="#322A1C"/>
<path d="M7.58399 10.4357H6.80591V15.1214H7.58399V10.4357Z" fill="#322A1C"/>
<path d="M14.8588 8.35486H14.6049V8.87902H14.8588V9.13294H15.383V8.87902V8.35486H14.8588Z" fill="#6D5C50"/>
<path d="M9.41089 8.35486H9.15697H8.63281V8.87902V9.13294H9.15697V8.87902H9.41089V8.35486Z" fill="#6D5C50"/>
<path d="M10.7136 11.7379H9.91919V12.5323H10.7136V11.7379Z" fill="#322A1C"/>
<path d="M11.4758 12.516H10.9517V13.0402H11.4758V12.516Z" fill="#322A1C"/>
<path d="M13.0483 12.516H12.5242V13.0402H13.0483V12.516Z" fill="#322A1C"/>
<path d="M13.0483 14.0726H12.5241V13.8187H11.4758V14.0726H10.9517V13.0402H10.4275V14.8512H10.9517V15.121H11.4758V15.3754H11.7297V15.6293H12.2539V15.3754H12.5241V15.121H13.0483V14.8512H13.5725V13.0402H13.0483V14.0726Z" fill="#322A1C"/>
<path d="M14.0808 11.7379H13.2864V12.5323H14.0808V11.7379Z" fill="#322A1C"/>
<path fill-rule="evenodd" clip-rule="evenodd" d="M17.2685 14.0765H15.3V16.5369H15.792V14.5685H17.268V14.0765H17.2685ZM20.2209 14.5685H17.2685V15.0605H20.2209V14.5685ZM16.2845 19.9809V20.4729H15.3005V19.9809H16.2845ZM21.2049 20.4729H16.2845V20.9649H21.2049V20.4729ZM14.808 16.5365V19.9809H15.3V16.5365H14.808ZM22.1889 14.076H20.2205V14.568H21.6965V16.5365H22.1885V14.076H22.1889ZM22.1889 19.9805V20.4725H21.2049V19.9805H22.1889ZM22.6809 16.536V19.9805H22.1889V16.536H22.6809Z" fill="#2F291E"/>
<path fill-rule="evenodd" clip-rule="evenodd" d="M15.7925 14.5685H17.2685V16.5365V15.0605H20.221V14.5685H21.697V16.5365H22.189V19.981H21.205V20.473H16.2845V19.981H15.3005V16.5365H15.7925V14.5685Z" fill="#B9A08E"/>
<path d="M16.7765 15.0609H16.2845V16.0449H16.7765V15.0609Z" fill="#685D54"/>
<path d="M16.2845 19.4894H15.3005V19.9814H16.2845V19.4894Z" fill="#685D54"/>
<path d="M22.189 19.4894H21.205V19.9814H22.189V19.4894Z" fill="#685D54"/>
<path d="M21.205 19.9814H16.2845V20.4734H21.205V19.9814Z" fill="#685D54"/>
<path d="M21.205 15.0609H20.713V16.0449H21.205V15.0609Z" fill="#685D54"/>
<path d="M17.7605 16.537H17.2685V17.029H17.7605V16.537Z" fill="#2F291E"/>
<path d="M18.2524 16.537H17.7604V17.029H18.2524V16.537Z" fill="#2F291E"/>
<path d="M18.7449 17.029H18.2529V17.521H18.7449V17.029Z" fill="#2F291E"/>
<path d="M20.2209 17.029H18.7449V17.521H20.2209V17.029Z" fill="#2F291E"/>
<path d="M19.7289 16.537H19.2369V17.029H19.7289V16.537Z" fill="#2F291E"/>
<path d="M17.7605 17.029H16.2845V17.521H17.7605V17.029Z" fill="#2F291E"/>
<path d="M17.7605 17.521H17.2685V18.013H17.7605V17.521Z" fill="#2F291E"/>
<path d="M17.2685 17.521H16.7765V18.013H17.2685V17.521Z" fill="#2F291E"/>
<path d="M15.3005 19.9814H14.8085V20.4734H15.3005V19.9814Z" fill="white"/>
<path d="M22.681 19.9814H22.189V20.4734H22.681V19.9814Z" fill="white"/>
<path d="M20.2209 21.4574H19.7289V21.9494H20.2209V21.4574Z" fill="white"/>
<path d="M19.7289 21.9494H19.2369V22.4414H19.7289V21.9494Z" fill="white"/>
<path d="M18.2524 21.9494H17.7604V22.4414H18.2524V21.9494Z" fill="white"/>
<path d="M19.2369 22.4414H18.2529V22.9334H19.2369V22.4414Z" fill="white"/>
<path d="M17.7605 21.4574H17.2685V21.9494H17.7605V21.4574Z" fill="white"/>
<path d="M22.189 20.4734H21.205V20.9654H22.189V20.4734Z" fill="white"/>
<path d="M21.2049 20.9654H19.7289V21.4574H21.2049V20.9654Z" fill="white"/>
<path d="M15.3005 14.0765H14.8085V16.537H15.3005V14.0765Z" fill="white"/>
<path d="M22.681 13.5845H22.189V16.537H22.681V13.5845Z" fill="white"/>
<path d="M23.1734 16.537H22.6814V19.9814H23.1734V16.537Z" fill="white"/>
<path d="M17.269 13.5845H14.8085V14.0765H17.269V13.5845Z" fill="white"/>
<path d="M20.221 14.0765H17.2685V14.5685H20.221V14.0765Z" fill="white"/>
<path d="M22.1889 13.5845H20.2209V14.0765H22.1889V13.5845Z" fill="white"/>
<path d="M17.2685 16.537H16.7765V17.029H17.2685V16.537Z" fill="#2F291E"/>
<path d="M16.7765 16.537H16.2845V17.029H16.7765V16.537Z" fill="#2F291E"/>
<path d="M16.2845 16.537H15.7925V17.029H16.2845V16.537Z" fill="#2F291E"/>
<path d="M16.2845 16.537H15.7925V17.029H16.2845V16.537Z" fill="#2F291E"/>
<path d="M21.205 16.537H20.713V17.029H21.205V16.537Z" fill="#2F291E"/>
<path d="M21.697 16.537H21.205V17.029H21.697V16.537Z" fill="#2F291E"/>
<path d="M21.205 17.029H20.713V17.521H21.205V17.029Z" fill="#2F291E"/>
<path d="M20.7129 17.521H20.2209V18.013H20.7129V17.521Z" fill="#2F291E"/>
<path d="M20.2209 17.521H19.7289V18.013H20.2209V17.521Z" fill="#2F291E"/>
<path d="M20.7129 17.029H20.2209V17.521H20.7129V17.029Z" fill="#2F291E"/>
<path d="M18.2524 17.029H17.7604V17.521H18.2524V17.029Z" fill="#2F291E"/>
<path d="M18.2524 17.521H17.7604V18.013H18.2524V17.521Z" fill="#2F291E"/>
<path d="M19.2369 18.5049H18.2529V18.9969H19.2369V18.5049Z" fill="#2F291E"/>
<path d="M20.221 19.4894H17.2685V19.9814H20.221V19.4894Z" fill="#2F291E"/>
<path d="M20.221 19.9814H17.2685V20.4734H20.221V19.9814Z" fill="#2F291E"/>
<path d="M19.7284 20.9654H17.7604V21.9494H19.7284V20.9654Z" fill="#2F291E"/>
<path d="M19.2369 21.4574H18.2529V22.4414H19.2369V21.4574Z" fill="#2F291E"/>
<path d="M20.713 18.9969H16.7765V19.4889H20.713V18.9969Z" fill="#2F291E"/>
<path d="M17.7605 18.0129H16.7765V18.9969H17.7605V18.0129Z" fill="#2F291E"/>
<path d="M20.7129 18.0129H19.7289V18.9969H20.7129V18.0129Z" fill="#2F291E"/>
<path d="M19.7289 17.521H19.2369V18.013H19.7289V17.521Z" fill="#2F291E"/>
<path d="M20.7129 16.537H19.7289V17.029H20.7129V16.537Z" fill="#2F291E"/>
<path d="M17.7605 18.0129H16.7765V18.5049H17.7605V18.0129Z" fill="#685D54"/>
<path d="M16.2845 20.4734H15.3005V20.9654H16.2845V20.4734Z" fill="white"/>
<path d="M17.7605 20.9654H16.2845V21.4574H17.7605V20.9654Z" fill="white"/>
<path d="M14.8085 16.537H14.3165V19.9814H14.8085V16.537Z" fill="white"/>
<path d="M20.7129 18.0129H19.7289V18.5049H20.7129V18.0129Z" fill="#685D54"/>
</g>
</g>
<defs>
<clipPath id="clip0_982_36225">
<rect width="24" height="24" fill="white" transform="matrix(-1 0 0 1 24 0)"/>
</clipPath>
<clipPath id="clip1_982_36225">
<rect width="24" height="24" fill="white"/>
</clipPath>
</defs>
</svg>
