<svg id="Layer_1" data-name="Layer 1" xmlns="http://www.w3.org/2000/svg" xmlns:xlink="http://www.w3.org/1999/xlink" viewBox="0 0 32 32"><defs><style>.cls-1{fill:#352b1c;}.cls-2{fill:#f6be4e;}.cls-3{fill:url(#linear-gradient);}.cls-4{fill:#fff;}</style><linearGradient id="linear-gradient" x1="8.6" y1="21.66" x2="27.6" y2="6.31" gradientTransform="matrix(1, 0, 0, -1, 0, 31.69)" gradientUnits="userSpaceOnUse"><stop offset="0" stop-color="#e87120"/><stop offset="1" stop-color="#ecab48"/></linearGradient></defs><g id="Layer_1-2" data-name="Layer 1"><path class="cls-1" d="M30.27,10.22h-.33V7.9a1.74,1.74,0,0,0-1.73-1.73h-.33V5.84a1.74,1.74,0,0,0-1.73-1.73h-.33V3.78a1.74,1.74,0,0,0-1.73-1.73H21.77V1.72A1.73,1.73,0,0,0,20,0H12a1.73,1.73,0,0,0-1.73,1.73v.33H7.9A1.74,1.74,0,0,0,6.17,3.78v.33H5.84A1.74,1.74,0,0,0,4.11,5.84h0v.33H3.78A1.74,1.74,0,0,0,2.05,7.9v2.32H1.72A1.72,1.72,0,0,0,0,12H0V20a1.72,1.72,0,0,0,1.72,1.73h.33v2.32a1.74,1.74,0,0,0,1.73,1.73h.33v.34a1.74,1.74,0,0,0,1.73,1.73h.33v.33A1.74,1.74,0,0,0,7.9,30h2.32v.32A1.72,1.72,0,0,0,12,32H20a1.72,1.72,0,0,0,1.73-1.72V30h2.32a1.74,1.74,0,0,0,1.73-1.73v-.33h.33a1.74,1.74,0,0,0,1.73-1.73h0v-.34h.33a1.74,1.74,0,0,0,1.73-1.73h0V21.77h.33A1.73,1.73,0,0,0,32,20h0V12A1.73,1.73,0,0,0,30.27,10.22Z"/><rect class="cls-2" x="28.21" y="11.95" width="2.06" height="4.05"/><rect class="cls-2" x="28.21" y="16" width="2.06" height="4.05"/><rect class="cls-2" x="16" y="1.72" width="4.05" height="2.06"/><rect class="cls-2" x="11.95" y="1.72" width="4.05" height="2.06"/><rect class="cls-2" x="16" y="28.21" width="4.05" height="2.06"/><rect class="cls-2" x="11.95" y="28.21" width="4.05" height="2.06"/><rect class="cls-2" x="26.15" y="7.9" width="2.06" height="4.05"/><rect class="cls-2" x="26.15" y="20.04" width="2.06" height="4.05"/><rect class="cls-2" x="20.04" y="26.16" width="4.05" height="2.06"/><rect class="cls-2" x="20.04" y="3.78" width="4.05" height="2.06"/><rect class="cls-2" x="24.09" y="5.84" width="2.06" height="2.06"/><rect class="cls-2" x="24.09" y="24.1" width="2.06" height="2.06"/><rect class="cls-2" x="1.72" y="11.95" width="2.06" height="4.05"/><rect class="cls-2" x="1.72" y="16" width="2.06" height="4.05"/><rect class="cls-2" x="3.78" y="7.9" width="2.06" height="4.05"/><rect class="cls-2" x="3.78" y="20.04" width="2.06" height="4.05"/><rect class="cls-2" x="7.9" y="26.16" width="4.05" height="2.06"/><rect class="cls-2" x="7.9" y="3.78" width="4.05" height="2.06"/><rect class="cls-2" x="5.84" y="5.84" width="2.06" height="2.06"/><rect class="cls-2" x="5.84" y="24.1" width="2.06" height="2.06"/><polygon class="cls-3" points="11.95 3.78 20.04 3.78 20.04 5.84 24.09 5.84 24.09 7.9 26.15 7.9 26.15 11.95 28.21 11.95 28.21 20.04 26.15 20.04 26.15 24.1 24.09 24.1 24.09 26.16 20.04 26.16 20.04 28.21 11.95 28.21 11.95 26.16 7.9 26.16 7.9 24.1 5.84 24.1 5.84 20.04 3.78 20.04 3.78 11.95 5.84 11.95 5.84 7.9 7.9 7.9 7.9 5.84 11.95 5.84 11.95 3.78"/><rect class="cls-4" x="9.09" y="8.29" width="3.25" height="15.42"/><rect class="cls-4" x="19.65" y="8.29" width="3.25" height="15.42"/><rect class="cls-4" x="13.86" y="12.07" width="4.27" height="2.46"/><rect class="cls-4" x="13.86" y="16.75" width="4.27" height="2.46"/></g></svg>