<?xml version="1.0" encoding="UTF-8"?><svg xmlns="http://www.w3.org/2000/svg" viewBox="0 0 145 145"><defs><style>.d{fill:#06f;}.e{fill:#fff;}.f{fill:#7e49fc;}.g{fill:#352b1c;}</style></defs><g id="a"/><g id="b"><g id="c"><g><g><g><path class="g" d="M137.16,46.32h-1.49v-10.5c0-4.32-3.52-7.84-7.84-7.84h-1.49v-1.49c0-4.32-3.52-7.84-7.84-7.84h-1.49v-1.49c0-4.32-3.52-7.84-7.84-7.84h-10.5v-1.49c0-4.32-3.52-7.84-7.84-7.84H54.16c-4.32,0-7.84,3.52-7.84,7.84v1.49h-10.5c-4.32,0-7.84,3.52-7.84,7.84v1.49h-1.49c-4.32,0-7.84,3.52-7.84,7.84v1.49h-1.49c-4.32,0-7.84,3.52-7.84,7.84v10.5h-1.49c-4.32,0-7.84,3.52-7.84,7.84v36.68c0,4.32,3.52,7.84,7.84,7.84h1.49v10.5c0,4.32,3.52,7.84,7.84,7.84h1.49v1.53c0,4.32,3.52,7.84,7.84,7.84h1.49v1.49c0,4.32,3.52,7.84,7.84,7.84h10.5v1.45c0,4.32,3.52,7.84,7.84,7.84h36.68c4.32,0,7.84-3.52,7.84-7.84v-1.45h10.5c4.32,0,7.84-3.52,7.84-7.84v-1.49h1.49c4.32,0,7.84-3.52,7.84-7.84v-1.53h1.49c4.32,0,7.84-3.52,7.84-7.84v-10.5h1.49c4.32,0,7.84-3.52,7.84-7.84V54.16c0-4.32-3.52-7.84-7.84-7.84Z"/><g><polygon class="f" points="127.84 54.16 127.84 72.5 127.84 90.84 118.51 90.84 118.51 109.18 127.84 109.18 127.84 90.84 137.16 90.84 137.16 72.5 137.16 54.16 127.84 54.16"/><polygon class="f" points="72.5 7.84 54.16 7.84 54.16 17.17 72.5 17.17 90.84 17.17 90.84 7.84 72.5 7.84"/><rect class="f" x="118.51" y="35.82" width="9.33" height="18.34"/><polygon class="f" points="90.84 127.84 72.5 127.84 54.16 127.84 54.16 118.55 35.82 118.55 35.82 127.88 54.16 127.88 54.16 137.16 72.5 137.16 90.84 137.16 90.84 127.88 109.18 127.88 109.18 118.55 90.84 118.55 90.84 127.84"/><rect class="f" x="90.84" y="17.17" width="18.34" height="9.33"/><rect class="f" x="109.18" y="26.49" width="9.33" height="9.33"/><rect class="f" x="109.18" y="109.22" width="9.33" height="9.33"/><polygon class="f" points="7.84 72.5 7.84 90.84 17.17 90.84 17.17 109.18 26.49 109.18 26.49 90.84 17.17 90.84 17.17 72.5 17.17 54.16 7.84 54.16 7.84 72.5"/><rect class="f" x="17.17" y="35.82" width="9.33" height="18.34"/><rect class="f" x="35.82" y="17.17" width="18.34" height="9.33"/><rect class="f" x="26.49" y="26.49" width="9.33" height="9.33"/><rect class="f" x="26.49" y="109.22" width="9.33" height="9.33"/></g></g><polygon class="e" points="54.16 17.17 90.84 17.17 90.84 26.49 109.18 26.49 109.18 35.82 118.51 35.82 118.51 54.16 127.84 54.16 127.84 90.84 118.51 90.84 118.51 109.22 109.18 109.22 109.18 118.55 90.84 118.55 90.84 127.83 54.16 127.83 54.16 118.55 35.82 118.55 35.82 109.22 26.49 109.22 26.49 90.84 17.17 90.84 17.17 54.16 26.49 54.16 26.49 35.82 35.82 35.82 35.82 26.49 54.16 26.49 54.16 17.17"/></g><path class="d" d="M43.5,46.4v29c0,16.02,12.98,29,29,29h0c16.02,0,29-12.98,29-29v-29h-17.62v28.94c0,6.29-5.1,11.38-11.38,11.38h0c-6.29,0-11.38-5.1-11.38-11.38v-28.94h-17.62Z"/></g></g></g></svg>