<?xml version="1.0" encoding="UTF-8"?><svg id="Layer_2" xmlns="http://www.w3.org/2000/svg" viewBox="0 0 500 500"><defs><style>.cls-1{fill:#fff;}.cls-2{fill:#1a1a1a;}.cls-3{fill:#352b1c;}</style></defs><g id="Token"><path class="cls-3" d="m472.99,159.75h-5.15v-36.21c0-14.92-12.1-27.02-27.02-27.02h-5.15v-5.15c0-14.92-12.1-27.02-27.02-27.02h-5.16v-5.16c0-14.92-12.1-27.02-27.02-27.02h-36.21v-5.15c0-14.92-12.1-27.02-27.02-27.02h-126.47c-14.92,0-27.02,12.1-27.02,27.02v5.15h-36.21c-14.92,0-27.02,12.1-27.02,27.02v5.15h-5.15c-14.92,0-27.02,12.1-27.02,27.02h0v5.16h-5.16c-14.92,0-27.02,12.1-27.02,27.02v36.21h-5.15c-14.92,0-27.02,12.1-27.02,27.02h0v126.47c0,14.92,12.1,27.02,27.02,27.02h5.15v36.21c0,14.92,12.1,27.02,27.02,27.02h5.15v5.29c0,14.92,12.1,27.02,27.02,27.02h5.16v5.15c0,14.92,12.1,27.02,27.02,27.02h36.21v5c0,14.92,12.1,27.02,27.02,27.02h126.47c14.92,0,27.02-12.1,27.02-27.02v-5h36.21c14.92,0,27.02-12.1,27.02-27.02v-5.13h5.15c14.92,0,27.02-12.1,27.02-27.02h0v-5.3h5.15c14.92,0,27.02-12.1,27.02-27.02h0v-36.21h5.15c14.92,0,27.02-12.1,27.02-27.02h0v-126.47c0-14.92-12.09-27.02-27.01-27.02Z"/></g><g id="BrandColor"><polygon class="cls-1" points="27.02 186.77 27.02 313.25 59.19 313.25 59.19 376.48 91.36 376.48 91.36 408.79 123.53 408.79 123.53 440.96 186.77 440.96 186.77 472.99 313.24 472.99 313.24 440.96 376.48 440.96 376.48 408.79 408.65 408.79 408.65 376.62 440.82 376.62 440.82 313.25 472.99 313.25 472.99 186.77 440.82 186.77 440.82 123.53 408.65 123.53 408.65 91.36 376.48 91.36 376.48 59.19 313.24 59.19 313.24 27.02 186.77 27.02 186.77 59.19 123.53 59.19 123.53 91.36 91.36 91.36 91.36 123.53 59.19 123.53 59.19 186.76 27.02 186.77"/></g><g id="DecoFrame"><rect class="cls-2" x="186.77" y="27.02" width="126.47" height="32.17"/><rect class="cls-2" x="313.24" y="59.19" width="63.24" height="32.17"/><rect class="cls-2" x="123.53" y="59.19" width="63.24" height="32.17"/><polygon class="cls-2" points="91.36 123.53 59.19 123.53 59.19 186.76 91.36 186.76 91.36 123.53 123.53 123.53 123.53 91.36 91.36 91.36 91.36 123.53"/><rect class="cls-2" x="27.02" y="186.76" width="32.17" height="126.49"/><rect class="cls-2" x="408.65" y="123.53" width="32.17" height="63.23"/><rect class="cls-2" x="440.82" y="186.76" width="32.17" height="126.49"/><rect class="cls-2" x="376.48" y="91.36" width="32.17" height="32.17"/><rect class="cls-2" x="186.77" y="440.82" width="126.47" height="32.17"/><rect class="cls-2" x="313.24" y="408.65" width="63.24" height="32.17"/><rect class="cls-2" x="123.53" y="408.65" width="63.24" height="32.17"/><polygon class="cls-2" points="91.36 376.48 91.36 408.65 123.53 408.65 123.53 376.48 91.36 376.48 91.36 313.25 59.19 313.25 59.19 376.48 91.36 376.48"/><rect class="cls-2" x="408.65" y="313.25" width="32.17" height="63.23"/><rect class="cls-2" x="376.48" y="376.48" width="32.17" height="32.17"/><polygon class="cls-2" points="415.6 119.69 415.6 119.64 413.09 119.64 413.09 119.69 415.6 119.69"/><rect class="cls-2" x="54.34" y="315.08" width="0" height="0"/><rect class="cls-2" x="84.4" y="380.31" width="2.51" height="0"/></g><g id="Logo"><path d="m243.49,366.54h-1.61v43.29L82.11,250.01,241.89,90.23v43.35c1.42-.06,2.84-.1,4.28-.1,3.26,0,7.41.15,11.96.42v-43.64l159.78,159.78-159.78,159.78v-44.02c-4.7.52-9.6.77-14.65.77l.02-.02ZM59.19,250.09l190.73,190.73h.17l190.73-190.73v-.17.02L250.09,59.19h-.15L59.19,249.94v.15Z"/><path d="m316.3,293.25c1.17-20.6-8.35-35.04-24.73-45.67l-52.54-34.13c-11.54-7.49-19.87-14.76-19.2-25.61.67-14.8,14.36-26.49,36.05-26.49,23.29,0,38.8,12.59,38.84,31.7h2.65l3.61-40.49h-17.3c-12.59-1.59-28.66-2.82-37.51-2.82-34.75,0-55.65,19.7-57.98,48.24-2,20.08,7.41,36.86,26.36,49.43l48.01,31.85c14.8,9.83,22.04,17.28,22.02,28.45,0,17.26-14.11,30.54-38.07,30.97-33.04.54-54.16-23.17-51.95-51.89h-2.42c-7.2,12.02-11.08,35.25-6.53,46.77,10.04,10.35,33.21,16.72,57.9,16.72,44.06,0,71.11-21.14,72.78-57.02l.02-.02Z"/></g></svg>
