<?xml version="1.0" encoding="UTF-8"?><svg xmlns="http://www.w3.org/2000/svg" viewBox="0 0 500 500"><defs><style>.f{fill:#e6e6e6;}.g{fill:#fff;}.h{fill:#8b8b8b;}.i{fill:#131313;}.j{fill:#352b1c;}.k{fill:#393939;}.l{fill:#3c3c3b;}.m{fill:#343434;}</style></defs><g id="a"><path class="j" d="M472.99,159.75h-5.15v-36.21c0-14.92-12.1-27.02-27.02-27.02h-5.15v-5.15c0-14.92-12.1-27.02-27.02-27.02h-5.16v-5.16c0-14.92-12.1-27.02-27.02-27.02h-36.21v-5.15c0-14.92-12.1-27.02-27.02-27.02h-126.47c-14.92,0-27.02,12.1-27.02,27.02v5.15h-36.21c-14.92,0-27.02,12.1-27.02,27.02v5.15h-5.15c-14.92,0-27.02,12.1-27.02,27.02h0v5.16h-5.16c-14.92,0-27.02,12.1-27.02,27.02v36.21h-5.15c-14.92,0-27.02,12.1-27.02,27.02H0v126.47c0,14.92,12.1,27.02,27.02,27.02h5.15v36.21c0,14.92,12.1,27.02,27.02,27.02h5.15v5.29c0,14.92,12.1,27.02,27.02,27.02h5.16v5.15c0,14.92,12.1,27.02,27.02,27.02h36.21v5c0,14.92,12.1,27.02,27.02,27.02h126.47c14.92,0,27.02-12.1,27.02-27.02v-5h36.21c14.92,0,27.02-12.1,27.02-27.02v-5.13h5.15c14.92,0,27.02-12.1,27.02-27.02h0v-5.3h5.15c14.92,0,27.02-12.1,27.02-27.02h0v-36.21h5.15c14.92,0,27.02-12.1,27.02-27.02h0v-126.47c0-14.92-12.09-27.02-27.01-27.02Z"/></g><g id="b"><polygon class="g" points="27.02 186.77 27.02 313.25 59.19 313.25 59.19 376.48 91.36 376.48 91.36 408.79 123.53 408.79 123.53 440.96 186.77 440.96 186.77 472.99 313.24 472.99 313.24 440.96 376.48 440.96 376.48 408.79 408.65 408.79 408.65 376.62 440.82 376.62 440.82 313.25 472.99 313.25 472.99 186.77 440.82 186.77 440.82 123.53 408.65 123.53 408.65 91.36 376.48 91.36 376.48 59.19 313.24 59.19 313.24 27.02 186.77 27.02 186.77 59.19 123.53 59.19 123.53 91.36 91.36 91.36 91.36 123.53 59.19 123.53 59.19 186.76 27.02 186.77"/></g><g id="c"><g><rect class="f" x="186.77" y="27.02" width="126.47" height="32.17"/><rect class="f" x="313.24" y="59.19" width="63.24" height="32.17"/><rect class="f" x="123.53" y="59.19" width="63.24" height="32.17"/><polygon class="f" points="91.36 123.53 59.19 123.53 59.19 186.76 91.36 186.76 91.36 123.53 123.53 123.53 123.53 91.36 91.36 91.36 91.36 123.53"/><rect class="f" x="27.02" y="186.76" width="32.17" height="126.49"/><rect class="f" x="408.65" y="123.53" width="32.17" height="63.23"/><rect class="f" x="440.82" y="186.76" width="32.17" height="126.49"/><rect class="f" x="376.48" y="91.36" width="32.17" height="32.17"/><rect class="f" x="186.77" y="440.82" width="126.47" height="32.17"/><rect class="f" x="313.24" y="408.65" width="63.24" height="32.17"/><rect class="f" x="123.53" y="408.65" width="63.24" height="32.17"/><polygon class="f" points="91.36 376.48 91.36 408.65 123.53 408.65 123.53 376.48 91.36 376.48 91.36 313.25 59.19 313.25 59.19 376.48 91.36 376.48"/><rect class="f" x="408.65" y="313.25" width="32.17" height="63.23"/><rect class="f" x="376.48" y="376.48" width="32.17" height="32.17"/><polygon class="f" points="415.6 119.69 415.6 119.64 413.09 119.64 413.09 119.69 415.6 119.69"/><rect class="f" x="54.34" y="315.08" width="0" height="0"/><rect class="f" x="84.4" y="380.31" width="2.51" height="0"/></g></g><g id="d"><g><polygon class="m" points="249.97 110 248.1 116.38 248.1 301.52 249.97 303.4 335.71 252.6 249.97 110"/><polygon class="h" points="249.98 110 164.24 252.6 249.98 303.4 249.98 213.53 249.98 110"/><polygon class="l" points="249.97 319.67 248.92 320.96 248.92 386.91 249.97 390 335.77 268.89 249.97 319.67"/><polygon class="h" points="249.98 390 249.98 319.67 164.24 268.89 249.98 390"/><polygon class="i" points="249.97 303.4 335.71 252.6 249.97 213.54 249.97 303.4"/><polygon class="k" points="164.24 252.6 249.97 303.4 249.97 213.54 164.24 252.6"/></g></g><g id="e"/></svg>