<?xml version="1.0" encoding="UTF-8"?><svg xmlns="http://www.w3.org/2000/svg" viewBox="0 0 500 500"><defs><style>.i{fill:#07c166;}.j{fill:#352b1c;}.k{mix-blend-mode:multiply;}.l{opacity:.3;}.m{fill:#fff;fill-rule:evenodd;}.n{isolation:isolate;}</style></defs><g class="n"><g id="a"><g id="b"><path class="j" d="M472.99,159.76h-5.15v-36.21c0-14.92-12.1-27.02-27.02-27.02h-5.15v-5.15c0-14.92-12.1-27.02-27.02-27.02h-5.16v-5.16c0-14.92-12.1-27.02-27.02-27.02h-36.21v-5.15C340.26,12.11,328.16,0,313.24,0h-126.47c-14.92,0-27.02,12.1-27.02,27.02v5.15h-36.21c-14.92,0-27.02,12.1-27.02,27.02v5.15h-5.15c-14.92,0-27.02,12.1-27.02,27.02h0v5.16h-5.16c-14.92,0-27.02,12.1-27.02,27.02v36.21h-5.15C12.1,159.76,0,171.86,0,186.78H0v126.47C0,328.17,12.1,340.27,27.02,340.27h5.15v36.21c0,14.92,12.1,27.02,27.02,27.02h5.15v5.29c0,14.92,12.1,27.02,27.02,27.02h5.16v5.15c0,14.92,12.1,27.02,27.02,27.02h36.21v5c0,14.92,12.1,27.02,27.02,27.02h126.47c14.92,0,27.02-12.1,27.02-27.02v-5h36.21c14.92,0,27.02-12.1,27.02-27.02v-5.13h5.15c14.92,0,27.02-12.1,27.02-27.02h0v-5.3h5.15c14.92,0,27.02-12.1,27.02-27.02h0v-36.21h5.15c14.92,0,27.02-12.1,27.02-27.02h0v-126.47c0-14.92-12.09-27.02-27.01-27.02h0Z"/></g></g><g id="c"><g id="d"><polygon class="i" points="27.02 186.77 27.02 313.25 59.19 313.25 59.19 376.48 91.36 376.48 91.36 408.79 123.53 408.79 123.53 440.95 186.77 440.95 186.77 472.98 313.23 472.98 313.23 440.95 376.48 440.95 376.48 408.79 408.64 408.79 408.64 376.61 440.82 376.61 440.82 313.25 472.98 313.25 472.98 186.77 440.82 186.77 440.82 123.53 408.64 123.53 408.64 91.36 376.48 91.36 376.48 59.19 313.23 59.19 313.23 27.02 186.77 27.02 186.77 59.19 123.53 59.19 123.53 91.36 91.36 91.36 91.36 123.53 59.19 123.53 59.19 186.75 27.02 186.77"/></g></g><g id="e"><g id="f" class="k"><g class="l"><rect x="186.77" y="27.02" width="126.47" height="32.17"/><rect x="313.23" y="59.19" width="63.24" height="32.17"/><rect x="123.53" y="59.19" width="63.24" height="32.17"/><polygon points="91.36 123.53 59.19 123.53 59.19 186.75 91.36 186.75 91.36 123.53 123.53 123.53 123.53 91.36 91.36 91.36 91.36 123.53"/><rect x="27.02" y="186.75" width="32.17" height="126.49"/><rect x="408.64" y="123.53" width="32.17" height="63.23"/><rect x="440.82" y="186.75" width="32.17" height="126.49"/><rect x="376.48" y="91.36" width="32.17" height="32.17"/><rect x="186.77" y="440.82" width="126.47" height="32.17"/><rect x="313.23" y="408.64" width="63.24" height="32.17"/><rect x="123.53" y="408.64" width="63.24" height="32.17"/><polygon points="91.36 376.48 91.36 408.64 123.53 408.64 123.53 376.48 91.36 376.48 91.36 313.25 59.19 313.25 59.19 376.48 91.36 376.48"/><rect x="408.64" y="313.25" width="32.17" height="63.23"/><rect x="376.48" y="376.48" width="32.17" height="32.17"/><polygon points="415.6 119.69 415.6 119.64 413.09 119.64 413.09 119.69 415.6 119.69"/></g></g></g><g id="g"><path class="m" d="M324.67,118.95c5.24,.61,8.57,5.93,6.81,10.91l-25.64,72.86c-2.29,6.51-11.08,7.48-14.74,1.63l-5.47-8.76-98.96,61.83-10.18-16.29c-16.25-26.01-8.34-60.28,17.67-76.53l51.85-32.4-6-9.61c-3.66-5.85,1.07-13.33,7.92-12.53l76.73,8.89Zm-103.75,168.94c-35.75,20.64-48,66.36-27.36,102.11l100.69-58.13c26.56-15.34,35.67-49.31,20.33-75.87l-9.6-16.63-84.05,48.53Z"/></g><g id="h"/></g></svg>