<?xml version="1.0" encoding="UTF-8"?><svg xmlns="http://www.w3.org/2000/svg" viewBox="0 0 145 145"><defs><style>.e{fill:#fff;}.f{fill:#1f72b8;}.g{fill:#215881;}.h{fill:#352b1c;}</style></defs><g id="a"/><g id="b"><g id="c"><g><g><g><path class="h" d="M137.16,46.33h-1.49v-10.5c0-4.32-3.52-7.84-7.84-7.84h-1.49v-1.49c0-4.32-3.52-7.84-7.84-7.84h-1.49v-1.49c0-4.32-3.52-7.84-7.84-7.84h-10.5v-1.49c0-4.32-3.52-7.84-7.84-7.84H54.16c-4.32,0-7.84,3.52-7.84,7.84v1.49h-10.5c-4.32,0-7.84,3.52-7.84,7.84v1.49h-1.49c-4.32,0-7.84,3.52-7.84,7.84v1.49h-1.49c-4.32,0-7.84,3.52-7.84,7.84v10.5h-1.49c-4.32,0-7.84,3.52-7.84,7.84v36.68c0,4.32,3.52,7.84,7.84,7.84h1.49v10.5c0,4.32,3.52,7.84,7.84,7.84h1.49v1.53c0,4.32,3.52,7.84,7.84,7.84h1.49v1.49c0,4.32,3.52,7.84,7.84,7.84h10.5v1.45c0,4.32,3.52,7.84,7.84,7.84h36.68c4.32,0,7.84-3.52,7.84-7.84v-1.45h10.5c4.32,0,7.84-3.52,7.84-7.84v-1.49h1.49c4.32,0,7.84-3.52,7.84-7.84v-1.53h1.49c4.32,0,7.84-3.52,7.84-7.84v-10.5h1.49c4.32,0,7.84-3.52,7.84-7.84V54.16c0-4.32-3.52-7.84-7.84-7.84Z"/><rect class="g" x="127.84" y="54.16" width="9.33" height="18.34"/><rect class="g" x="127.84" y="72.5" width="9.33" height="18.34"/><rect class="g" x="77.01" y="3.33" width="9.33" height="18.34" transform="translate(94.17 -69.17) rotate(90)"/><rect class="g" x="58.67" y="3.33" width="9.33" height="18.34" transform="translate(75.83 -50.83) rotate(90)"/><rect class="g" x="77.01" y="123.33" width="9.33" height="18.34" transform="translate(214.17 50.83) rotate(90)"/><rect class="g" x="58.67" y="123.33" width="9.33" height="18.34" transform="translate(195.83 69.17) rotate(90)"/><rect class="g" x="118.51" y="35.82" width="9.33" height="18.34"/><rect class="g" x="118.51" y="90.84" width="9.33" height="18.34"/><rect class="g" x="95.34" y="114.04" width="9.33" height="18.34" transform="translate(223.22 23.2) rotate(90)"/><rect class="g" x="95.34" y="12.66" width="9.33" height="18.34" transform="translate(121.84 -78.18) rotate(90)"/><rect class="g" x="109.18" y="26.49" width="9.33" height="9.33"/><rect class="g" x="109.18" y="109.22" width="9.33" height="9.33"/><rect class="g" x="7.84" y="54.16" width="9.33" height="18.34" transform="translate(25 126.66) rotate(180)"/><rect class="g" x="7.84" y="72.5" width="9.33" height="18.34" transform="translate(25 163.34) rotate(180)"/><rect class="g" x="17.17" y="35.82" width="9.33" height="18.34" transform="translate(43.66 89.98) rotate(180)"/><rect class="g" x="17.17" y="90.84" width="9.33" height="18.34" transform="translate(43.66 200.02) rotate(180)"/><rect class="g" x="40.33" y="114.04" width="9.33" height="18.34" transform="translate(168.2 78.22) rotate(90)"/><rect class="g" x="40.33" y="12.66" width="9.33" height="18.34" transform="translate(66.82 -23.16) rotate(90)"/><rect class="g" x="26.49" y="26.49" width="9.33" height="9.33" transform="translate(62.32 62.32) rotate(180)"/><rect class="g" x="26.49" y="109.22" width="9.33" height="9.33" transform="translate(62.32 227.77) rotate(180)"/></g><polygon class="f" points="54.16 17.17 90.84 17.17 90.84 26.49 109.18 26.49 109.18 35.82 118.51 35.82 118.51 54.16 127.84 54.16 127.84 90.84 118.51 90.84 118.51 109.22 109.18 109.22 109.18 118.55 90.84 118.55 90.84 127.83 54.16 127.83 54.16 118.55 35.82 118.55 35.82 109.22 26.49 109.22 26.49 90.84 17.17 90.84 17.17 54.16 26.49 54.16 26.49 35.82 35.82 35.82 35.82 26.49 54.16 26.49 54.16 17.17"/><g><path class="e" d="M63.29,106.14c0,1.15-.92,1.8-1.99,1.46-14.89-4.76-25.63-18.64-25.63-35.1s10.74-30.35,25.63-35.1c1.11-.35,1.99,.31,1.99,1.46v2.88c0,.77-.58,1.65-1.3,1.92-11.78,4.34-20.18,15.65-20.18,28.85s8.4,24.51,20.18,28.81c.73,.27,1.3,1.15,1.3,1.92v2.92Z"/><path class="e" d="M75.57,95.52c0,.84-.69,1.53-1.53,1.53h-3.07c-.84,0-1.53-.69-1.53-1.53v-4.83c-6.71-.92-9.97-4.64-10.86-9.78-.15-.88,.54-1.65,1.42-1.65h3.49c.73,0,1.34,.54,1.5,1.23,.65,3.03,2.42,5.37,7.79,5.37,3.95,0,6.79-2.23,6.79-5.52s-1.65-4.57-7.48-5.52c-8.59-1.15-12.66-3.76-12.66-10.47,0-5.18,3.95-9.25,10.01-10.09v-4.76c0-.84,.69-1.53,1.53-1.53h3.07c.84,0,1.53,.69,1.53,1.53v4.87c4.95,.88,8.09,3.68,9.13,8.36,.19,.88-.5,1.69-1.42,1.69h-3.22c-.69,0-1.27-.46-1.46-1.11-.88-2.95-2.99-4.26-6.68-4.26-4.07,0-6.18,1.96-6.18,4.72,0,2.92,1.19,4.37,7.44,5.26,8.44,1.15,12.81,3.57,12.81,10.74,0,5.45-4.07,9.86-10.4,10.86v4.91h-.04Z"/><path class="e" d="M83.7,107.6c-1.11,.35-1.99-.31-1.99-1.46v-2.88c0-.84,.5-1.65,1.3-1.92,11.74-4.3,20.18-15.61,20.18-28.81s-8.4-24.51-20.18-28.81c-.73-.27-1.3-1.15-1.3-1.92v-2.88c0-1.15,.92-1.8,1.99-1.46,14.89,4.68,25.63,18.61,25.63,35.03s-10.74,30.35-25.63,35.1Z"/></g></g><g><circle cx="120.35" cy="120.35" r="24.65"/><g id="d"><path class="e" d="M122.33,117.67l10.4-10.35-3.95-3.92-8.43,8.38-8.43-8.38-3.95,3.92,10.4,10.35c.54,.54,1.26,.81,1.97,.81s1.43-.27,1.97-.81Zm15.06,11.05l-8.43-8.38,8.43-8.38-3.95-3.92-10.4,10.35c-1.09,1.08-1.09,2.84,0,3.92l10.4,10.35,3.95-3.92h0Zm-17.05,.19l8.43,8.38,3.95-3.92-10.4-10.35c-1.09-1.08-2.86-1.08-3.95,0l-10.4,10.35,3.95,3.92,8.43-8.38h0Zm-2.68-6.59c.52-.52,.82-1.23,.82-1.96s-.29-1.44-.82-1.96l-10.4-10.35-3.95,3.93,8.43,8.38-8.43,8.38,3.95,3.92,10.4-10.35h0Z"/></g></g></g></g></g></svg>