<?xml version="1.0" encoding="UTF-8"?><svg xmlns="http://www.w3.org/2000/svg" viewBox="0 0 500 500"><defs><style>.f{fill:#fff;}.g{fill:#de0913;}.h{fill:#1a1a1a;}.i{fill:#352b1c;}</style></defs><g id="a"><path class="i" d="M472.99,159.75h-5.15v-36.21c0-14.92-12.1-27.02-27.02-27.02h-5.15v-5.15c0-14.92-12.1-27.02-27.02-27.02h-5.16v-5.16c0-14.92-12.1-27.02-27.02-27.02h-36.21v-5.15c0-14.92-12.1-27.02-27.02-27.02h-126.47c-14.92,0-27.02,12.1-27.02,27.02v5.15h-36.21c-14.92,0-27.02,12.1-27.02,27.02v5.15h-5.15c-14.92,0-27.02,12.1-27.02,27.02h0v5.16h-5.16c-14.92,0-27.02,12.1-27.02,27.02v36.21h-5.15c-14.92,0-27.02,12.1-27.02,27.02H0v126.47c0,14.92,12.1,27.02,27.02,27.02h5.15v36.21c0,14.92,12.1,27.02,27.02,27.02h5.15v5.29c0,14.92,12.1,27.02,27.02,27.02h5.16v5.15c0,14.92,12.1,27.02,27.02,27.02h36.21v5c0,14.92,12.1,27.02,27.02,27.02h126.47c14.92,0,27.02-12.1,27.02-27.02v-5h36.21c14.92,0,27.02-12.1,27.02-27.02v-5.13h5.15c14.92,0,27.02-12.1,27.02-27.02h0v-5.3h5.15c14.92,0,27.02-12.1,27.02-27.02h0v-36.21h5.15c14.92,0,27.02-12.1,27.02-27.02h0v-126.47c0-14.92-12.09-27.02-27.01-27.02Z"/></g><g id="b"><polygon points="27.02 186.77 27.02 313.25 59.19 313.25 59.19 376.48 91.36 376.48 91.36 408.79 123.53 408.79 123.53 440.96 186.77 440.96 186.77 472.99 313.24 472.99 313.24 440.96 376.48 440.96 376.48 408.79 408.65 408.79 408.65 376.62 440.82 376.62 440.82 313.25 472.99 313.25 472.99 186.77 440.82 186.77 440.82 123.53 408.65 123.53 408.65 91.36 376.48 91.36 376.48 59.19 313.24 59.19 313.24 27.02 186.77 27.02 186.77 59.19 123.53 59.19 123.53 91.36 91.36 91.36 91.36 123.53 59.19 123.53 59.19 186.76 27.02 186.77"/></g><g id="c"><g><rect class="h" x="186.77" y="27.02" width="126.47" height="32.17"/><rect class="h" x="313.24" y="59.19" width="63.24" height="32.17"/><rect class="h" x="123.53" y="59.19" width="63.24" height="32.17"/><polygon class="h" points="91.36 123.53 59.19 123.53 59.19 186.76 91.36 186.76 91.36 123.53 123.53 123.53 123.53 91.36 91.36 91.36 91.36 123.53"/><rect class="h" x="27.02" y="186.76" width="32.17" height="126.49"/><rect class="h" x="408.65" y="123.53" width="32.17" height="63.23"/><rect class="h" x="440.82" y="186.76" width="32.17" height="126.49"/><rect class="h" x="376.48" y="91.36" width="32.17" height="32.17"/><rect class="h" x="186.77" y="440.82" width="126.47" height="32.17"/><rect class="h" x="313.24" y="408.65" width="63.24" height="32.17"/><rect class="h" x="123.53" y="408.65" width="63.24" height="32.17"/><polygon class="h" points="91.36 376.48 91.36 408.65 123.53 408.65 123.53 376.48 91.36 376.48 91.36 313.25 59.19 313.25 59.19 376.48 91.36 376.48"/><rect class="h" x="408.65" y="313.25" width="32.17" height="63.23"/><rect class="h" x="376.48" y="376.48" width="32.17" height="32.17"/><polygon class="h" points="415.6 119.69 415.6 119.64 413.09 119.64 413.09 119.69 415.6 119.69"/><rect class="h" x="54.34" y="315.08" width="0" height="0"/><rect class="h" x="84.4" y="380.31" width="2.51" height="0"/></g><g><path class="g" d="M328.29,125H171.71v30.69h156.58v-30.69Z"/><path class="f" d="M252.1,375c-14.56,0-27.6-2.42-39.13-7.25-11.53-4.83-20.79-11.99-27.79-21.46-6.81-9.47-10.4-20.88-10.78-34.22h51.6c.76,7.54,3.31,13.34,7.66,17.4,4.35,3.87,10.02,5.8,17.01,5.8s12.85-1.64,17.01-4.93c4.16-3.48,6.24-8.22,6.24-14.21,0-5.03-1.7-9.18-5.1-12.47-3.21-3.29-7.28-5.99-12.19-8.12-4.73-2.13-11.53-4.54-20.41-7.25-12.85-4.06-23.34-8.12-31.47-12.18-8.13-4.06-15.12-10.05-20.98-17.98-5.86-7.93-8.79-18.27-8.79-31.03,0-18.94,6.71-33.73,20.13-44.36,13.42-10.83,30.91-16.24,52.45-16.24s39.6,5.41,53.02,16.24c13.42,10.63,20.6,25.52,21.55,44.65h-52.46c-.38-6.57-2.74-11.7-7.09-15.37-4.35-3.87-9.92-5.8-16.73-5.8-5.86,0-10.59,1.64-14.18,4.93-3.59,3.09-5.39,7.64-5.39,13.63,0,6.57,3.02,11.7,9.07,15.37,6.05,3.67,15.5,7.64,28.36,11.89,12.85,4.45,23.25,8.7,31.19,12.76,8.13,4.06,15.12,9.96,20.98,17.69,5.86,7.73,8.79,17.69,8.79,29.87s-2.93,22.13-8.79,31.6c-5.67,9.47-13.99,17.01-24.95,22.62-10.96,5.61-23.91,8.41-38.85,8.41Z"/></g></g><g id="d"/><g id="e"/></svg>