<?xml version="1.0" encoding="UTF-8"?><svg id="Layer_2" xmlns="http://www.w3.org/2000/svg" viewBox="0 0 500 500"><defs><style>.cls-1{fill:#fff;}.cls-2{fill:#fd4530;}.cls-3{fill:#2a1b5b;}.cls-4{fill:#352b1c;}.cls-5{opacity:.3;}</style></defs><g id="Token"><path class="cls-4" d="m472.99,159.75h-5.15v-36.21c0-14.92-12.1-27.02-27.02-27.02h-5.15v-5.15c0-14.92-12.1-27.02-27.02-27.02h-5.16v-5.16c0-14.92-12.1-27.02-27.02-27.02h-36.21v-5.15c0-14.92-12.1-27.02-27.02-27.02h-126.47c-14.92,0-27.02,12.1-27.02,27.02v5.15h-36.21c-14.92,0-27.02,12.1-27.02,27.02v5.15h-5.15c-14.92,0-27.02,12.1-27.02,27.02h0v5.16h-5.16c-14.92,0-27.02,12.1-27.02,27.02v36.21h-5.15c-14.92,0-27.02,12.1-27.02,27.02h0v126.47c0,14.92,12.1,27.02,27.02,27.02h5.15v36.21c0,14.92,12.1,27.02,27.02,27.02h5.15v5.29c0,14.92,12.1,27.02,27.02,27.02h5.16v5.15c0,14.92,12.1,27.02,27.02,27.02h36.21v5c0,14.92,12.1,27.02,27.02,27.02h126.47c14.92,0,27.02-12.1,27.02-27.02v-5h36.21c14.92,0,27.02-12.1,27.02-27.02v-5.13h5.15c14.92,0,27.02-12.1,27.02-27.02h0v-5.3h5.15c14.92,0,27.02-12.1,27.02-27.02h0v-36.21h5.15c14.92,0,27.02-12.1,27.02-27.02h0v-126.47c0-14.92-12.09-27.02-27.01-27.02Z"/></g><g id="BrandColor"><polygon class="cls-2" points="27.02 186.77 27.02 313.25 59.19 313.25 59.19 376.48 91.36 376.48 91.36 408.79 123.53 408.79 123.53 440.96 186.77 440.96 186.77 472.99 313.24 472.99 313.24 440.96 376.48 440.96 376.48 408.79 408.65 408.79 408.65 376.62 440.82 376.62 440.82 313.25 472.99 313.25 472.99 186.77 440.82 186.77 440.82 123.53 408.65 123.53 408.65 91.36 376.48 91.36 376.48 59.19 313.24 59.19 313.24 27.02 186.77 27.02 186.77 59.19 123.53 59.19 123.53 91.36 91.36 91.36 91.36 123.53 59.19 123.53 59.19 186.76 27.02 186.77"/></g><g id="DecoFrame"><g class="cls-5"><rect class="cls-3" x="186.77" y="27.02" width="126.47" height="32.17"/><rect class="cls-3" x="313.24" y="59.19" width="63.24" height="32.17"/><rect class="cls-3" x="123.53" y="59.19" width="63.24" height="32.17"/><polygon class="cls-3" points="91.36 123.53 59.19 123.53 59.19 186.76 91.36 186.76 91.36 123.53 123.53 123.53 123.53 91.36 91.36 91.36 91.36 123.53"/><rect class="cls-3" x="27.02" y="186.76" width="32.17" height="126.49"/><rect class="cls-3" x="408.65" y="123.53" width="32.17" height="63.23"/><rect class="cls-3" x="440.82" y="186.76" width="32.17" height="126.49"/><rect class="cls-3" x="376.48" y="91.36" width="32.17" height="32.17"/><rect class="cls-3" x="186.77" y="440.82" width="126.47" height="32.17"/><rect class="cls-3" x="313.24" y="408.65" width="63.24" height="32.17"/><rect class="cls-3" x="123.53" y="408.65" width="63.24" height="32.17"/><polygon class="cls-3" points="91.36 376.48 91.36 408.65 123.53 408.65 123.53 376.48 91.36 376.48 91.36 313.25 59.19 313.25 59.19 376.48 91.36 376.48"/><rect class="cls-3" x="408.65" y="313.25" width="32.17" height="63.23"/><rect class="cls-3" x="376.48" y="376.48" width="32.17" height="32.17"/><polygon class="cls-3" points="415.6 119.69 415.6 119.64 413.09 119.64 413.09 119.69 415.6 119.69"/><rect class="cls-3" x="54.34" y="315.08" width="0" height="0"/><rect class="cls-3" x="84.4" y="380.31" width="2.51" height="0"/></g></g><g id="Logo"><polygon class="cls-1" points="225.27 187.45 250 201.55 274.73 187.45 250 173.34 225.27 187.45"/><polygon class="cls-1" points="165.19 249.9 140.46 235.79 140.46 312.35 207.7 350.67 207.7 322.36 165.19 298.14 165.19 249.9"/><polygon class="cls-1" points="250 153.31 292.51 177.43 317.24 163.33 250 125 182.76 163.33 207.49 177.43 250 153.31"/><polygon class="cls-1" points="182.76 259.81 182.76 288.12 207.49 302.23 207.49 273.92 182.76 259.81"/><polygon class="cls-1" points="334.81 173.34 310.08 187.45 292.51 197.47 250 221.59 207.49 197.47 176.97 180.17 165.19 173.45 140.46 187.55 140.46 215.86 150.84 221.78 150.84 221.78 150.85 221.79 165.19 229.97 165.19 229.92 182.76 239.88 225.27 264 225.27 312.24 225.27 332.58 225.27 360.9 250 375 274.73 360.9 274.73 332.58 274.73 312.24 274.73 264 317.24 239.88 334.81 229.86 359.54 215.76 359.54 187.45 334.81 173.34"/><polygon class="cls-1" points="292.51 274.02 292.51 302.33 317.24 288.12 317.24 259.81 292.51 274.02"/><polygon class="cls-1" points="334.71 298.14 292.2 322.26 292.2 350.57 359.44 312.24 359.44 235.79 334.71 249.9 334.71 298.14"/></g></svg>