<svg xmlns="http://www.w3.org/2000/svg" xmlns:xlink="http://www.w3.org/1999/xlink" viewBox="0 0 500 500"><defs><style>.cls-1{fill:#fff;}.cls-1,.cls-5{fill-rule:evenodd;}.cls-2{fill:#352b1c;}.cls-3{fill:#1a1a1a;}.cls-4{mask:url(#mask);}.cls-5{fill:#f1b82f;}.cls-6{fill:#0c1c26;}.cls-7{fill:#3377fd;}.cls-8{fill:#2bd2b5;}</style><mask id="mask" x="28.62" y="39.19" width="442.63" height="442.63" maskUnits="userSpaceOnUse"><g id="mask-2"><path id="path-1" class="cls-1" d="M249.93,481.81c122.23,0,221.31-99.08,221.31-221.31S372.16,39.19,249.93,39.19,28.62,138.27,28.62,260.5,127.7,481.81,249.93,481.81Z"/></g></mask></defs><g id="Logo-2" data-name="Logo"><path class="cls-2" d="M472.85,159.7H467.7V123.5a27,27,0,0,0-27-27h-5.15V91.34a27,27,0,0,0-27-27h-5.15V59.17a27,27,0,0,0-27-27h-36.2V27a27,27,0,0,0-27-27H186.72a27,27,0,0,0-27,27v5.15H123.5a27,27,0,0,0-27,27v5.15H91.34a27,27,0,0,0-27,27h0v5.16H59.17a27,27,0,0,0-27,27v36.2H27a27,27,0,0,0-27,27H0V313.15a27,27,0,0,0,27,27h5.15v36.2a27,27,0,0,0,27,27h5.15v5.28a27,27,0,0,0,27,27h5.16v5.15a27,27,0,0,0,27,27h36.2v5a27,27,0,0,0,27,27H313.15a27,27,0,0,0,27-27v-5h36.2a27,27,0,0,0,27-27v-5.13h5.14a27,27,0,0,0,27-27h0v-5.29h5.15a27,27,0,0,0,27-27h0v-36.2h5.15a27,27,0,0,0,27-27h0V186.72A27,27,0,0,0,472.85,159.7Z"/><polygon points="27.02 186.72 27.02 313.16 59.17 313.16 59.17 376.37 91.33 376.37 91.33 408.67 123.49 408.67 123.49 440.83 186.72 440.83 186.72 472.85 313.15 472.85 313.15 440.83 376.37 440.83 376.37 408.67 408.53 408.67 408.53 376.51 440.69 376.51 440.69 313.16 472.85 313.16 472.85 186.72 440.69 186.72 440.69 123.49 408.53 123.49 408.53 91.33 376.37 91.33 376.37 59.17 313.15 59.17 313.15 27.02 186.72 27.02 186.72 59.17 123.49 59.17 123.49 91.33 91.33 91.33 91.33 123.49 59.17 123.49 59.17 186.71 27.02 186.72"/><rect class="cls-3" x="186.72" y="27.01" width="126.43" height="32.16"/><rect class="cls-3" x="313.15" y="59.17" width="63.23" height="32.16"/><rect class="cls-3" x="123.49" y="59.17" width="63.23" height="32.16"/><polygon class="cls-3" points="91.33 123.49 59.17 123.49 59.17 186.71 91.33 186.71 91.33 123.49 123.49 123.49 123.49 91.33 91.33 91.33 91.33 123.49"/><rect class="cls-3" x="27.01" y="186.71" width="32.16" height="126.45"/><rect class="cls-3" x="408.53" y="123.49" width="32.16" height="63.22"/><rect class="cls-3" x="440.69" y="186.71" width="32.16" height="126.45"/><rect class="cls-3" x="376.37" y="91.33" width="32.16" height="32.16"/><rect class="cls-3" x="186.72" y="440.69" width="126.43" height="32.16"/><rect class="cls-3" x="313.15" y="408.53" width="63.23" height="32.16"/><rect class="cls-3" x="123.49" y="408.53" width="63.23" height="32.16"/><polygon class="cls-3" points="91.33 376.37 91.33 408.53 123.49 408.53 123.49 376.37 91.33 376.37 91.33 313.16 59.17 313.16 59.17 376.37 91.33 376.37"/><rect class="cls-3" x="408.53" y="313.16" width="32.16" height="63.22"/><rect class="cls-3" x="376.37" y="376.37" width="32.16" height="32.16"/><polygon class="cls-3" points="415.48 119.65 415.48 119.61 412.97 119.61 412.97 119.65 415.48 119.65"/><rect class="cls-3" x="54.32" y="314.98"/><rect class="cls-3" x="84.37" y="380.2" width="2.51"/><g class="cls-4"><g id="Shape"><path id="path-3" class="cls-1" d="M300.1,281.08l29.19,29.16L249.93,389.6l-79.32-79.32,0,0,29.22-29.14,50.14,50.14Zm-50.17-50.2,29.61,29.6v0l-29.62,29.62-29.58-29.58,0,0,0,0,5.18-5.19,2.52-2.51h0Zm99.93.45L379,260.51l-29.18,29.18-29.17-29.18Zm-199.85,0,29.17,29.17L150,289.67,120.83,260.5Zm99.92-99.92,79.34,79.35L300.1,239.92l-50.17-50.16L199.79,239.9l-29.18-29.18Z"/><path id="path-3-2" data-name="path-3" class="cls-5" d="M300.1,281.08l29.19,29.16L249.93,389.6l-79.32-79.32,0,0,29.22-29.14,50.14,50.14Zm-50.17-50.2,29.61,29.6v0l-29.62,29.62-29.58-29.58,0,0,0,0,5.18-5.19,2.52-2.51h0Zm99.93.45L379,260.51l-29.18,29.18-29.17-29.18Zm-199.85,0,29.17,29.17L150,289.67,120.83,260.5Zm99.92-99.92,79.34,79.35L300.1,239.92l-50.17-50.16L199.79,239.9l-29.18-29.18Z"/></g></g><g id="Group-3"><circle id="Oval" class="cls-6" cx="413.65" cy="414.01" r="85.99"/><g id="horizon_symbol-colored" data-name="horizon symbol-colored"><polygon id="Path" class="cls-7" points="478.92 413.9 459.28 394.28 446.19 407.36 452.74 413.9 413.46 453.13 400.37 440.05 406.92 433.51 410.19 436.78 410.19 417.17 390.56 417.17 393.83 420.44 374.19 440.05 413.46 479.28 478.92 413.9"/><polygon id="Path-2" data-name="Path" class="cls-8" points="453.12 387.98 413.84 348.75 348.39 414.13 368.02 433.75 381.12 420.67 374.57 414.13 413.84 374.9 426.94 387.98 420.39 394.52 417.12 391.25 417.12 410.86 436.75 410.86 433.48 407.59 453.12 387.98"/></g></g></g></svg>
