<?xml version="1.0" encoding="UTF-8"?><svg xmlns="http://www.w3.org/2000/svg" xmlns:xlink="http://www.w3.org/1999/xlink" viewBox="0 0 500 500"><defs><style>.cls-1{fill:url(#linear-gradient);}.cls-2{fill:#f8d33a;}.cls-3{fill:#312706;}.cls-4{fill:#312807;}.cls-5{fill:#130f03;}.cls-6{fill:#363636;}.cls-7{fill:#868686;}.cls-8{fill:#352b1c;}.cls-9{fill:#fff;fill-rule:evenodd;}</style><linearGradient id="linear-gradient" x1="27.02" y1="250" x2="472.98" y2="250" gradientUnits="userSpaceOnUse"><stop offset="0" stop-color="#f0b90b"/><stop offset="1" stop-color="#f8d33a"/></linearGradient></defs><g id="Token"><path class="cls-8" d="M472.99,159.75h-5.15v-36.21c0-14.92-12.1-27.02-27.02-27.02h-5.15v-5.15c0-14.92-12.1-27.02-27.02-27.02h-5.16v-5.16c0-14.92-12.1-27.02-27.02-27.02h-36.21v-5.15c0-14.92-12.1-27.02-27.02-27.02h-126.47c-14.92,0-27.02,12.1-27.02,27.02v5.15h-36.21c-14.92,0-27.02,12.1-27.02,27.02v5.15h-5.15c-14.92,0-27.02,12.1-27.02,27.02h0v5.16h-5.16c-14.92,0-27.02,12.1-27.02,27.02v36.21h-5.15C12.1,159.75,0,171.85,0,186.77H0v126.47C0,328.16,12.1,340.26,27.02,340.26h5.15v36.21c0,14.92,12.1,27.02,27.02,27.02h5.15v5.29c0,14.92,12.1,27.02,27.02,27.02h5.16v5.15c0,14.92,12.1,27.02,27.02,27.02h36.21v5c0,14.92,12.1,27.02,27.02,27.02h126.47c14.92,0,27.02-12.1,27.02-27.02v-5h36.21c14.92,0,27.02-12.1,27.02-27.02v-5.13h5.15c14.92,0,27.02-12.1,27.02-27.02h0v-5.3h5.15c14.92,0,27.02-12.1,27.02-27.02h0v-36.21h5.15c14.92,0,27.02-12.1,27.02-27.02h0v-126.47c0-14.92-12.09-27.02-27.01-27.02Z"/></g><g id="BrandColor"><polygon class="cls-1" points="27.02 186.77 27.02 313.24 59.19 313.24 59.19 376.48 91.35 376.48 91.35 408.79 123.52 408.79 123.52 440.95 186.77 440.95 186.77 472.98 313.23 472.98 313.23 440.95 376.48 440.95 376.48 408.79 408.65 408.79 408.65 376.62 440.81 376.62 440.81 313.24 472.98 313.24 472.98 186.77 440.81 186.77 440.81 123.52 408.65 123.52 408.65 91.35 376.48 91.35 376.48 59.19 313.23 59.19 313.23 27.02 186.77 27.02 186.77 59.19 123.52 59.19 123.52 91.35 91.35 91.35 91.35 123.52 59.19 123.52 59.19 186.76 27.02 186.77"/><g><path class="cls-9" d="M134.14,141.62c-26.54,28.36-42.79,66.47-42.79,108.38s14.74,76.39,39.07,104.27l10.26-10.26c-21.5-25.19-34.48-57.87-34.48-93.59,0-37.93,14.64-72.43,38.57-98.18l-10.63-10.63Zm214.46,214.46c-25.74,23.94-60.25,38.57-98.17,38.57s-71.56-14.27-97.19-37.67l-10.19,10.19c28.21,25.76,65.75,41.47,106.96,41.47s80.02-16.25,108.38-42.79l-9.78-9.78Zm22.24-3.28l-9.81-9.81c20.98-25.05,33.62-57.33,33.62-92.56,0-37.44-14.27-71.55-37.67-97.19l10.19-10.19c25.76,28.21,41.47,65.75,41.47,106.96s-14.23,75.11-37.81,102.79ZM157.86,139.82l-10.66-10.66c27.69-23.58,63.58-37.8,102.8-37.8s76.39,14.74,104.27,39.07l-10.26,10.26c-25.19-21.5-57.87-34.48-93.59-34.48s-67.51,12.63-92.56,33.62Z"/><path class="cls-7" d="M249.21,148.5v74.2l-61.62,27.98,61.62-102.18Z"/><path class="cls-6" d="M249.21,222.69v64.44l-61.62-36.46,61.62-27.98Z"/><path class="cls-7" d="M249.21,299.94v50.06l-61.62-86.52,61.62,36.46Z"/><path class="cls-3" d="M249.21,148.5v74.2l61.61,27.98-61.61-102.18Z"/><path class="cls-5" d="M249.21,222.69v64.44l61.61-36.46-61.61-27.98Z"/><path class="cls-4" d="M249.21,299.94v50.06l61.61-86.52-61.61,36.46Z"/></g></g><g id="DecoFrame"><g><rect class="cls-2" x="186.77" y="27.02" width="126.47" height="32.17"/><rect class="cls-2" x="313.23" y="59.19" width="63.24" height="32.17"/><rect class="cls-2" x="123.52" y="59.19" width="63.24" height="32.17"/><polygon class="cls-2" points="91.35 123.52 59.19 123.52 59.19 186.76 91.35 186.76 91.35 123.52 123.52 123.52 123.52 91.35 91.35 91.35 91.35 123.52"/><rect class="cls-2" x="27.02" y="186.76" width="32.17" height="126.49"/><rect class="cls-2" x="408.65" y="123.52" width="32.17" height="63.23"/><rect class="cls-2" x="440.81" y="186.76" width="32.17" height="126.49"/><rect class="cls-2" x="376.48" y="91.35" width="32.17" height="32.17"/><rect class="cls-2" x="186.77" y="440.81" width="126.47" height="32.17"/><rect class="cls-2" x="313.23" y="408.65" width="63.24" height="32.17"/><rect class="cls-2" x="123.52" y="408.65" width="63.24" height="32.17"/><polygon class="cls-2" points="91.35 376.48 91.35 408.65 123.52 408.65 123.52 376.48 91.35 376.48 91.35 313.24 59.19 313.24 59.19 376.48 91.35 376.48"/><rect class="cls-2" x="408.65" y="313.24" width="32.17" height="63.23"/><rect class="cls-2" x="376.48" y="376.48" width="32.17" height="32.17"/><rect class="cls-2" x="54.33" y="315.07" width="0" height="0"/></g></g></svg>