<svg width="24" height="24" viewBox="0 0 24 24" fill="none" xmlns="http://www.w3.org/2000/svg">
<g clip-path="url(#clip0_982_36559)">
<g clip-path="url(#clip1_982_36559)">
<path d="M22.7034 7.66758H22.4564V5.92943C22.4564 5.21393 21.8747 4.6323 21.1593 4.6323H20.9123V4.38533C20.9123 3.66983 20.3306 3.0882 19.6152 3.0882H19.3682V2.84123C19.3682 2.12573 18.7865 1.5441 18.0711 1.5441H16.3329V1.29713C16.3329 0.581632 15.7513 0 15.0358 0H8.9647C8.24921 0 7.66758 0.581632 7.66758 1.29713V1.5441H5.92943C5.21393 1.5441 4.6323 2.12573 4.6323 2.84123V3.0882H4.38533C3.66983 3.0882 3.0882 3.66983 3.0882 4.38533V4.6323H2.84123C2.12573 4.6323 1.5441 5.21393 1.5441 5.92943V7.66758H1.29713C0.581632 7.66758 0 8.24921 0 8.9647V15.0358C0 15.7513 0.581632 16.3329 1.29713 16.3329H1.5441V18.0711C1.5441 18.7865 2.12573 19.3682 2.84123 19.3682H3.0882V19.6219C3.0882 20.3374 3.66983 20.919 4.38533 20.919H4.6323V21.166C4.6323 21.8815 5.21393 22.4631 5.92943 22.4631H7.66758V22.7034C7.66758 23.4188 8.24921 24.0005 8.9647 24.0005H15.0358C15.7513 24.0005 16.3329 23.4188 16.3329 22.7034V22.4631H18.0711C18.7865 22.4631 19.3682 21.8815 19.3682 21.166V20.919H19.6152C20.3306 20.919 20.9123 20.3374 20.9123 19.6219V19.3682H21.1593C21.8747 19.3682 22.4564 18.7865 22.4564 18.0711V16.3329H22.7034C23.4188 16.3329 24.0005 15.7513 24.0005 15.0358V8.9647C24.0005 8.24921 23.4188 7.66758 22.7034 7.66758Z" fill="#352B1C"/>
<path d="M22.7033 8.96469H21.1592V12H22.7033V8.96469Z" fill="#EDB91A"/>
<path d="M22.7033 12H21.1592V15.0352H22.7033V12Z" fill="#EDB91A"/>
<path d="M15.0358 2.8407V1.2966L12.0005 1.2966V2.8407H15.0358Z" fill="#EDB91A"/>
<path d="M12 2.8407V1.2966L8.96472 1.2966V2.8407H12Z" fill="#EDB91A"/>
<path d="M15.0352 22.7034V21.1593H11.9999V22.7034H15.0352Z" fill="#EDB91A"/>
<path d="M12 22.7034V21.1593H8.96472V22.7034H12Z" fill="#EDB91A"/>
<path d="M21.1593 5.92889H19.6152V8.96417H21.1593V5.92889Z" fill="#EDB91A"/>
<path d="M21.1593 15.0358H19.6152V18.071H21.1593V15.0358Z" fill="#EDB91A"/>
<path d="M18.071 21.166V19.6219H15.0358V21.166H18.071Z" fill="#EDB91A"/>
<path d="M18.071 4.3848V2.8407H15.0358V4.3848H18.071Z" fill="#EDB91A"/>
<path d="M19.6151 4.38483H18.071V5.92893H19.6151V4.38483Z" fill="#EDB91A"/>
<path d="M19.6151 18.0778H18.071V19.6219H19.6151V18.0778Z" fill="#EDB91A"/>
<path d="M1.2966 12H2.8407L2.8407 8.96469H1.2966L1.2966 12Z" fill="#EDB91A"/>
<path d="M1.2966 15.0358H2.8407L2.8407 12.0005H1.2966L1.2966 15.0358Z" fill="#EDB91A"/>
<path d="M2.84067 8.96469H4.38477V5.92941H2.84067L2.84067 8.96469Z" fill="#EDB91A"/>
<path d="M2.84067 18.071H4.38477V15.0358H2.84067L2.84067 18.071Z" fill="#EDB91A"/>
<path d="M8.96417 21.166V19.6219H5.9289V21.166H8.96417Z" fill="#EDB91A"/>
<path d="M8.96472 4.3848V2.8407H5.92944V4.3848H8.96472Z" fill="#EDB91A"/>
<path d="M4.38486 5.92889H5.92896V4.38479H4.38486V5.92889Z" fill="#EDB91A"/>
<path d="M4.38486 19.6219H5.92896V18.0778H4.38486V19.6219Z" fill="#EDB91A"/>
<path d="M8.96469 2.8407H15.0352V4.3848H18.071V5.9289H19.6151V8.96469H21.1592V15.0358H19.6151V18.0778H18.071V19.6219H15.0352V21.1592H8.96469V19.6219H5.9289V18.0778H4.3848V15.0358H2.8407V8.96469H4.3848V5.9289H5.9289V4.3848H8.96469V2.8407Z" fill="#FCDA4F"/>
<path fill-rule="evenodd" clip-rule="evenodd" d="M10.0024 7.23486H7.24992V10.6759H7.93791V7.92338H10.0024V7.23538V7.23486ZM14.1314 7.92286H10.0024V8.61086H14.1314V7.92286ZM8.62591 15.4929V16.1809H7.2494V15.4929H8.62591ZM15.5074 16.1809H8.62643V16.8689H15.5079V16.1809H15.5074ZM6.5614 10.6754V15.4924H7.2494V10.6754H6.5614ZM16.8839 7.23434H14.1314V7.92234H16.1959V10.6748H16.8839V7.23383V7.23434ZM16.8839 15.4924V16.1804H15.5074V15.4924H16.8839ZM17.5719 10.6754V15.4924H16.8839V10.6754H17.5719Z" fill="#2F291E"/>
<path fill-rule="evenodd" clip-rule="evenodd" d="M7.93794 7.92282H10.0024V10.6753V8.61082H14.1315V7.92282H16.196V10.6753H16.884V15.4923H15.5074V16.1803H8.62645V15.4923H7.24994V10.6753H7.93794V7.92282Z" fill="#B9A08E"/>
<path d="M9.3144 8.61133H8.6264V9.98784H9.3144V8.61133Z" fill="#685D54"/>
<path d="M8.62645 14.8049H7.24994V15.4929H8.62645V14.8049Z" fill="#685D54"/>
<path d="M16.8845 14.8049H15.508V15.4929H16.8845V14.8049Z" fill="#685D54"/>
<path d="M15.5079 15.4929H8.6264V16.1809H15.5079V15.4929Z" fill="#685D54"/>
<path d="M15.5079 8.61133H14.8199V9.98784H15.5079V8.61133Z" fill="#685D54"/>
<path d="M10.6904 10.6759H10.0024V11.3639H10.6904V10.6759Z" fill="#2F291E"/>
<path d="M11.3789 10.6759H10.6909V11.3639H11.3789V10.6759Z" fill="#2F291E"/>
<path d="M12.0669 11.3639H11.3789V12.0519H12.0669V11.3639Z" fill="#2F291E"/>
<path d="M14.1314 11.3639H12.0669V12.0519H14.1314V11.3639Z" fill="#2F291E"/>
<path d="M13.4434 10.6759H12.7554V11.3639H13.4434V10.6759Z" fill="#2F291E"/>
<path d="M10.6909 11.3639H8.6264V12.0519H10.6909V11.3639Z" fill="#2F291E"/>
<path d="M10.6904 12.0518H10.0024V12.7398H10.6904V12.0518Z" fill="#2F291E"/>
<path d="M10.0024 12.0518H9.31439V12.7398H10.0024V12.0518Z" fill="#2F291E"/>
<path d="M7.24995 15.4929H6.56195V16.1809H7.24995V15.4929Z" fill="#FCDA4F"/>
<path d="M17.5725 15.4929H16.8845V16.1809H17.5725V15.4929Z" fill="#FCDA4F"/>
<path d="M14.1314 17.5574H13.4434V18.2454H14.1314V17.5574Z" fill="#FCDA4F"/>
<path d="M13.4434 18.2454H12.7554V18.9334H13.4434V18.2454Z" fill="#FCDA4F"/>
<path d="M11.3789 18.2454H10.6909V18.9334H11.3789V18.2454Z" fill="#FCDA4F"/>
<path d="M12.7554 18.9339H11.3789V19.6219H12.7554V18.9339Z" fill="#FCDA4F"/>
<path d="M10.6904 17.5574H10.0024V18.2454H10.6904V17.5574Z" fill="#FCDA4F"/>
<path d="M16.8845 16.1808H15.508V16.8688H16.8845V16.1808Z" fill="#FCDA4F"/>
<path d="M15.5079 16.8694H13.4434V17.5574H15.5079V16.8694Z" fill="#FCDA4F"/>
<path d="M7.24995 7.23483H6.56195V10.6759H7.24995V7.23483Z" fill="#FCDA4F"/>
<path d="M17.5725 6.54684H16.8845V10.6759H17.5725V6.54684Z" fill="#FCDA4F"/>
<path d="M18.2605 10.6759H17.5725V15.4929H18.2605V10.6759Z" fill="#FCDA4F"/>
<path d="M10.003 6.54684H6.56195V7.23484H10.003V6.54684Z" fill="#FCDA4F"/>
<path d="M14.1314 7.23483H10.0024V7.92283H14.1314V7.23483Z" fill="#FCDA4F"/>
<path d="M16.884 6.54684H14.1315V7.23484H16.884V6.54684Z" fill="#FCDA4F"/>
<path d="M10.0024 10.6759H9.31439V11.3639H10.0024V10.6759Z" fill="#2F291E"/>
<path d="M9.3144 10.6759H8.6264V11.3639H9.3144V10.6759Z" fill="#2F291E"/>
<path d="M8.62592 10.6759H7.93793V11.3639H8.62592V10.6759Z" fill="#2F291E"/>
<path d="M8.62592 10.6759H7.93793V11.3639H8.62592V10.6759Z" fill="#2F291E"/>
<path d="M15.5079 10.6759H14.8199V11.3639H15.5079V10.6759Z" fill="#2F291E"/>
<path d="M16.196 10.6759H15.508V11.3639H16.196V10.6759Z" fill="#2F291E"/>
<path d="M15.5079 11.3639H14.8199V12.0519H15.5079V11.3639Z" fill="#2F291E"/>
<path d="M14.8195 12.0518H14.1315V12.7398H14.8195V12.0518Z" fill="#2F291E"/>
<path d="M14.1314 12.0518H13.4434V12.7398H14.1314V12.0518Z" fill="#2F291E"/>
<path d="M14.8195 11.3639H14.1315V12.0519H14.8195V11.3639Z" fill="#2F291E"/>
<path d="M11.3789 11.3639H10.6909V12.0519H11.3789V11.3639Z" fill="#2F291E"/>
<path d="M11.3789 12.0518H10.6909V12.7398H11.3789V12.0518Z" fill="#2F291E"/>
<path d="M12.7554 13.4284H11.3789V14.1164H12.7554V13.4284Z" fill="#2F291E"/>
<path d="M14.1314 14.8049H10.0024V15.4929H14.1314V14.8049Z" fill="#2F291E"/>
<path d="M14.1314 15.4929H10.0024V16.1809H14.1314V15.4929Z" fill="#2F291E"/>
<path d="M13.4434 16.8694H10.6909V18.2459H13.4434V16.8694Z" fill="#2F291E"/>
<path d="M12.7554 17.5574H11.3789V18.9339H12.7554V17.5574Z" fill="#2F291E"/>
<path d="M14.8199 14.1164H9.31439V14.8044H14.8199V14.1164Z" fill="#2F291E"/>
<path d="M10.6909 12.7404H9.31439V14.1169H10.6909V12.7404Z" fill="#2F291E"/>
<path d="M14.8199 12.7404H13.4434V14.1169H14.8199V12.7404Z" fill="#2F291E"/>
<path d="M13.4434 12.0518H12.7554V12.7398H13.4434V12.0518Z" fill="#2F291E"/>
<path d="M14.8199 10.6759H13.4434V11.3639H14.8199V10.6759Z" fill="#2F291E"/>
<path d="M10.6909 12.7404H9.31439V13.4284H10.6909V12.7404Z" fill="#685D54"/>
<path d="M8.62645 16.1808H7.24994V16.8688H8.62645V16.1808Z" fill="#FCDA4F"/>
<path d="M10.6909 16.8694H8.6264V17.5574H10.6909V16.8694Z" fill="#FCDA4F"/>
<path d="M6.56141 10.6759H5.87341V15.4929H6.56141V10.6759Z" fill="#FCDA4F"/>
<path d="M14.8199 12.7404H13.4434V13.4284H14.8199V12.7404Z" fill="#685D54"/>
</g>
</g>
<defs>
<clipPath id="clip0_982_36559">
<rect width="24" height="24" fill="white" transform="matrix(-1 0 0 1 24 0)"/>
</clipPath>
<clipPath id="clip1_982_36559">
<rect width="24" height="24" fill="white"/>
</clipPath>
</defs>
</svg>
