<?xml version="1.0" encoding="utf-8"?>
<!-- Generator: Adobe Illustrator 25.3.1, SVG Export Plug-In . SVG Version: 6.00 Build 0)  -->
<svg version="1.1" id="Layer_1" xmlns="http://www.w3.org/2000/svg" xmlns:xlink="http://www.w3.org/1999/xlink" x="0px" y="0px"
	 viewBox="0 0 500 500" style="enable-background:new 0 0 500 500;" xml:space="preserve">
<style type="text/css">
	.st0{fill:#352B1C;}
	.st1{fill:#DBA203;}
	.st2{fill:#C63237;}
	.st3{fill:#EDB70D;}
	.st4{fill:#060B07;}
	.st5{fill:#FFFFFF;}
</style>
<g id="Layer_1_1_">
	<path class="st0" d="M466.4,167v-49.1c0-9.4-7.6-16.9-16.9-16.9l0,0h-16.7V84.2c0-9.4-7.6-16.9-16.9-16.9h-16.7V50.6
		c0-9.4-7.6-16.9-16.9-16.9l0,0H333V16.9C333,7.6,325.4,0,316.1,0H183.9C174.6,0,167,7.6,167,16.9v16.7h-49.1
		c-9.4,0-16.9,7.6-16.9,16.9l0,0v16.7H84.2c-9.4,0-16.9,7.6-16.9,16.9v16.7H50.6c-9.4,0-16.9,7.6-16.9,16.9l0,0V167H16.9
		C7.6,167,0,174.6,0,183.9l0,0v132.2c0,9.4,7.6,16.9,16.9,16.9l0,0h16.7v49.1c0,9.4,7.6,16.9,16.9,16.9h16.7V416
		c0,9.4,7.6,16.9,16.9,16.9h16.7v16.7c0,9.4,7.6,16.9,16.9,16.9H167v16.5c0,9.4,7.6,16.9,16.9,16.9l0,0h132.2
		c9.4,0,16.9-7.6,16.9-16.9l0,0v-16.5h49.1c9.4,0,16.9-7.6,16.9-16.9v-16.7h16.7c9.4,0,16.9-7.6,16.9-16.9v-16.8h16.7
		c9.4,0,16.9-7.6,16.9-16.9V333H483c9.4,0,16.9-7.6,16.9-16.9l0,0V183.9c0-9.4-7.6-16.9-16.9-16.9l0,0H466.4z"/>
	<rect x="449.4" y="183.9" class="st1" width="33.6" height="66.1"/>
	<rect x="449.4" y="250" class="st2" width="33.6" height="66.1"/>
	<rect x="250" y="16.9" class="st1" width="66.1" height="33.6"/>
	<rect x="183.9" y="16.9" class="st1" width="66.1" height="33.6"/>
	<rect x="250" y="449.4" class="st2" width="66.1" height="33.6"/>
	<rect x="183.9" y="449.4" class="st2" width="66.1" height="33.6"/>
	<rect x="415.8" y="117.8" class="st1" width="33.6" height="66.1"/>
	<rect x="415.8" y="316.1" class="st2" width="33.6" height="66.1"/>
	<rect x="316.1" y="416" class="st2" width="66.1" height="33.6"/>
	<rect x="316.1" y="50.6" class="st1" width="66.1" height="33.6"/>
	<rect x="382.2" y="84.2" class="st1" width="33.6" height="33.6"/>
	<rect x="382.2" y="382.3" class="st2" width="33.6" height="33.6"/>
	<rect x="16.9" y="183.9" class="st1" width="33.6" height="66.1"/>
	<rect x="16.9" y="250" class="st2" width="33.6" height="66.1"/>
	<rect x="50.6" y="117.8" class="st1" width="33.6" height="66.1"/>
	<rect x="50.6" y="316.1" class="st2" width="33.6" height="66.1"/>
	<rect x="117.8" y="416" class="st2" width="66.1" height="33.6"/>
	<rect x="117.8" y="50.6" class="st1" width="66.1" height="33.6"/>
	<rect x="84.2" y="84.2" class="st1" width="33.6" height="33.6"/>
	<rect x="84.2" y="382.3" class="st2" width="33.6" height="33.6"/>
	<polygon class="st3" points="50.6,250 50.6,183.9 84.2,183.9 84.2,117.8 117.8,117.8 117.8,84.2 183.9,84.2 183.9,50.6 316.1,50.6 
		316.1,84.2 382.2,84.2 382.2,117.8 415.8,117.8 415.8,183.9 449.4,183.9 449.4,250 	"/>
	<polygon class="st4" points="449.4,250 449.4,316.1 415.8,316.1 415.8,382.3 382.2,382.3 382.2,416 316.1,416 316.1,449.4 
		183.9,449.4 183.9,416 117.8,416 117.8,382.3 84.2,382.3 84.2,316.1 50.6,316.1 50.6,250 	"/>
	<path class="st5" d="M182.3,162.7l67.7-38.6l67.8,38.6l-25,14.2L250,152.6l-42.8,24.3L182.3,162.7z M317.7,211.3l-24.9-14.2
		L250,221.4l-42.8-24.3l-24.9,14.2v28.5l42.8,24.3v48.6l24.9,14.2l24.9-14.2v-48.6l42.9-24.3L317.7,211.3L317.7,211.3z M317.8,288.4
		v-28.5l-25,14.3v28.5L317.8,288.4z M335.4,298.5l-42.8,24.3v28.5l67.7-38.6v-77l-24.9,14.2L335.4,298.5z M310.5,187l24.9,14.2v28.5
		l24.9-14.2V187l-24.9-14.2L310.5,187z M225.1,333.2v28.5l24.9,14.2l24.9-14.2v-28.5L250,347.4L225.1,333.2z M182.3,288.4l24.9,14.2
		v-28.5l-24.9-14.2V288.4z M225.1,187l24.9,14.2l24.9-14.2L250,172.8L225.1,187z M164.6,201.3l24.9-14.2l-24.9-14.2l-24.9,14.2v28.5
		l24.9,14.2V201.3z M164.6,249.9l-24.9-14.2v77.1l67.7,38.6v-28.5l-42.8-24.4L164.6,249.9z"/>
</g>
</svg>
