<svg width="24" height="24" viewBox="0 0 24 24" fill="none" xmlns="http://www.w3.org/2000/svg">
<g clip-path="url(#clip0_982_36154)">
<g clip-path="url(#clip1_982_36154)">
<path d="M22.7166 7.66742H22.4696V5.92931C22.4696 5.21383 21.888 4.63221 21.1725 4.63221H20.9255V4.38524C20.9255 3.66976 20.3439 3.08814 19.6284 3.08814H19.3815V2.84117C19.3815 2.12569 18.7998 1.54407 18.0844 1.54407H16.3462V1.2971C16.3462 0.58162 15.7646 0 15.0491 0H8.9782C8.26271 0 7.68109 0.58162 7.68109 1.2971V1.54407H5.94298C5.2275 1.54407 4.64588 2.12569 4.64588 2.84117V3.08814H4.39891C3.68343 3.08814 3.10181 3.66976 3.10181 4.38524V4.63221H2.85484C2.13936 4.63221 1.55774 5.21383 1.55774 5.92931V7.66742H1.31077C0.595292 7.66742 0.0136719 8.24904 0.0136719 8.96452V15.0355C0.0136719 15.751 0.595292 16.3326 1.31077 16.3326H1.55774V18.0707C1.55774 18.7862 2.13936 19.3678 2.85484 19.3678H3.10181V19.6215C3.10181 20.337 3.68343 20.9186 4.39891 20.9186H4.64588V21.1656C4.64588 21.8811 5.2275 22.4627 5.94298 22.4627H7.68109V22.7029C7.68109 23.4184 8.26271 24 8.9782 24H15.0491C15.7646 24 16.3462 23.4184 16.3462 22.7029V22.4627H18.0844C18.7998 22.4627 19.3815 21.8811 19.3815 21.1656V20.9186H19.6284C20.3439 20.9186 20.9255 20.337 20.9255 19.6215V19.3678H21.1725C21.888 19.3678 22.4696 18.7862 22.4696 18.0707V16.3326H22.7166C23.4321 16.3326 24.0137 15.751 24.0137 15.0355V8.96452C24.0137 8.24904 23.4321 7.66742 22.7166 7.66742ZM19.6284 19.6215H18.0844V21.1656H15.0491V22.7029H8.9782V21.1656H5.94298V19.6215H4.39891V18.0774H5.94298V19.6215H8.9782V21.1588H15.0491V19.6215H18.0844V18.0774H19.6284V19.6215ZM22.7166 11.9997V15.035H21.1725V18.0702H19.6284V15.035H21.1725V8.96401H19.6284V5.92879H18.0844V4.38472H15.0491V2.84065H8.9782V4.38472H5.94298V5.92879H4.39891V8.96401H2.85484V15.035H4.39891V18.0702H2.85484V15.035H1.31077V8.96401H2.85484V5.92879H4.39891V4.38472H5.94298V2.84065H8.9782V1.29658H15.0491V2.84065H18.0844V4.38472H19.6284V5.92879H21.1725V8.96401H22.7166V11.9992V11.9997Z" fill="#352B1C"/>
<path d="M21.1725 8.96454V11.9998V15.0355H19.6285V18.0707H21.1725V15.0355H22.7166V11.9998V8.96454H21.1725Z" fill="#A8D1FF" fill-opacity="0.2"/>
<path d="M12.0134 1.2966H8.97821V2.84067H12.0134H15.0492V1.2966H12.0134Z" fill="#A8D1FF" fill-opacity="0.2"/>
<path d="M21.1725 5.9288H19.6285V8.96402H21.1725V5.9288Z" fill="#A8D1FF" fill-opacity="0.2"/>
<path d="M15.0491 21.1588H12.0134H8.97818V19.6215H5.94244V21.1656H8.97818V22.7029H12.0134H15.0491V21.1656H18.0843V19.6215H15.0491V21.1588Z" fill="#A8D1FF" fill-opacity="0.2"/>
<path d="M18.0843 2.84064H15.0491V4.38471H18.0843V2.84064Z" fill="#A8D1FF" fill-opacity="0.2"/>
<path d="M19.6284 4.3847H18.0844V5.92877H19.6284V4.3847Z" fill="#A8D1FF" fill-opacity="0.2"/>
<path d="M19.6284 18.0774H18.0844V19.6215H19.6284V18.0774Z" fill="#A8D1FF" fill-opacity="0.2"/>
<path d="M1.31024 11.9998V15.0355H2.85431V18.0707H4.39838V15.0355H2.85431V11.9998V8.96454H1.31024V11.9998Z" fill="#A8D1FF" fill-opacity="0.2"/>
<path d="M4.39838 5.9288H2.85431V8.96402H4.39838V5.9288Z" fill="#A8D1FF" fill-opacity="0.2"/>
<path d="M8.97766 2.84064H5.94244V4.38471H8.97766V2.84064Z" fill="#A8D1FF" fill-opacity="0.2"/>
<path d="M5.94245 4.3847H4.39838V5.92877H5.94245V4.3847Z" fill="#A8D1FF" fill-opacity="0.2"/>
<path d="M5.94245 18.0774H4.39838V19.6215H5.94245V18.0774Z" fill="#A8D1FF" fill-opacity="0.2"/>
<path d="M8.97818 2.84064H15.0486V4.38471H18.0844V5.92878H19.6284V8.96451H21.1725V15.0355H19.6284V18.0774H18.0844V19.6215H15.0486V21.1588H8.97818V19.6215H5.94245V18.0774H4.39838V15.0355H2.85431V8.96451H4.39838V5.92878H5.94245V4.38471H8.97818V2.84064Z" fill="#A8D1FF"/>
<path d="M5.15245 10.6691C5.12129 11.2077 5.16232 11.7526 5.27868 12.2892L5.99913 13.0034L5.40594 12.7738C5.47658 13.0039 5.56177 13.232 5.66202 13.4564L6.50401 14.0968L5.87602 13.888C5.94147 14.009 6.01159 14.128 6.08639 14.2459C7.87116 17.043 11.582 17.8622 14.376 16.0759C14.9988 15.6775 15.5239 15.183 15.9431 14.6246C11.9845 15.1736 7.90232 13.7483 5.15245 10.6696V10.6691Z" fill="url(#paint0_linear_982_36154)"/>
<path d="M18.854 10.6691C18.8852 11.2077 18.8442 11.7526 18.7278 12.2892L18.0073 13.0034L18.6005 12.7738C18.5299 13.0039 18.4447 13.232 18.3445 13.4564L17.5025 14.0968L18.1305 13.888C18.065 14.009 17.9949 14.128 17.9201 14.2459C16.1353 17.043 12.4245 17.8622 9.63048 16.0759C9.00768 15.6775 8.48254 15.183 8.06335 14.6246C12.0235 15.1741 16.1047 13.7488 18.8545 10.6701H18.854V10.6691Z" fill="url(#paint1_linear_982_36154)"/>
<path d="M11.9986 16.2494C9.86836 16.2494 8.02023 15.0433 7.09772 13.2762C7.65507 15.4656 9.63774 17.0846 11.9986 17.0846C14.3594 17.0846 16.3426 15.4656 16.8994 13.2762C15.9764 15.0433 14.1282 16.2494 11.9986 16.2494Z" fill="url(#paint2_linear_982_36154)"/>
<path d="M11.9986 16.2494C14.1287 16.2494 15.9769 15.0433 16.8994 13.2762C17.0017 12.8752 17.0563 12.4555 17.0563 12.0222C17.0563 9.22667 14.7921 6.96039 11.9991 6.96039C9.2061 6.96039 6.94189 9.22667 6.94189 12.0222C6.94189 12.4549 6.99644 12.8746 7.09876 13.2762C8.02179 15.0433 9.86993 16.2494 11.9996 16.2494H11.9986Z" fill="url(#paint3_linear_982_36154)"/>
<path d="M9.69488 13.7504C10.8272 13.7504 11.7446 12.8315 11.7446 11.6987C11.7446 10.5658 10.8267 9.64691 9.69488 9.64691C8.56304 9.64691 7.6452 10.5653 7.6452 11.6987C7.6452 12.8321 8.56304 13.7504 9.69488 13.7504Z" fill="white" stroke="#064E80" stroke-width="0.4" stroke-miterlimit="10"/>
<path d="M10.1889 12.9759C10.8028 12.9759 11.3004 12.4778 11.3004 11.8633C11.3004 11.2488 10.8028 10.7507 10.1889 10.7507C9.57489 10.7507 9.07727 11.2488 9.07727 11.8633C9.07727 12.4778 9.57489 12.9759 10.1889 12.9759Z" fill="#1470A4"/>
<path d="M10.1888 12.5801C10.5846 12.5801 10.9051 12.2591 10.9051 11.8633C10.9051 11.4675 10.5846 11.1465 10.1888 11.1465C9.79302 11.1465 9.47253 11.4675 9.47253 11.8633C9.47253 12.2591 9.79302 12.5801 10.1888 12.5801Z" fill="#0C1A2B"/>
<path d="M9.78369 11.5277C9.9094 11.5277 10.0107 11.4259 10.0107 11.3002C10.0107 11.1745 9.90888 11.0727 9.78369 11.0727C9.65851 11.0727 9.5567 11.1745 9.5567 11.3002C9.5567 11.4259 9.65851 11.5277 9.78369 11.5277Z" fill="white"/>
<path d="M14.2425 13.7504C15.3748 13.7504 16.2922 12.8315 16.2922 11.6987C16.2922 10.5658 15.3743 9.64691 14.2425 9.64691C13.1106 9.64691 12.1928 10.5653 12.1928 11.6987C12.1928 12.8321 13.1106 13.7504 14.2425 13.7504Z" fill="white" stroke="#064E80" stroke-width="0.4" stroke-miterlimit="10"/>
<path d="M13.7485 12.9759C14.3625 12.9759 14.8601 12.4778 14.8601 11.8633C14.8601 11.2488 14.3625 10.7507 13.7485 10.7507C13.1345 10.7507 12.6369 11.2488 12.6369 11.8633C12.6369 12.4778 13.1345 12.9759 13.7485 12.9759Z" fill="#1470A4"/>
<path d="M13.7485 12.5801C14.1443 12.5801 14.4648 12.2591 14.4648 11.8633C14.4648 11.4675 14.1443 11.1465 13.7485 11.1465C13.3527 11.1465 13.0322 11.4675 13.0322 11.8633C13.0322 12.2591 13.3527 12.5801 13.7485 12.5801Z" fill="#0C1A2B"/>
<path d="M13.3428 11.5277C13.4685 11.5277 13.5698 11.4259 13.5698 11.3002C13.5698 11.1745 13.468 11.0727 13.3428 11.0727C13.2177 11.0727 13.1158 11.1745 13.1158 11.3002C13.1158 11.4259 13.2177 11.5277 13.3428 11.5277Z" fill="white"/>
<path d="M12.4909 13.432L12.0022 12.7032C11.9861 12.6793 11.9513 12.6793 11.9351 12.7032L11.4464 13.432L11.4349 13.4491L11.45 13.4647L11.9398 13.9852C11.9559 14.0023 11.9829 14.0023 11.9985 13.9852L12.4883 13.4647L12.5034 13.4491L12.492 13.432H12.4909Z" fill="url(#paint4_linear_982_36154)"/>
</g>
</g>
<defs>
<linearGradient id="paint0_linear_982_36154" x1="6.10197" y1="11.0976" x2="14.8243" y2="17.4752" gradientUnits="userSpaceOnUse">
<stop stop-color="#69ACE4"/>
<stop offset="0.17" stop-color="#1375C5"/>
<stop offset="0.21" stop-color="#1060A1"/>
<stop offset="0.26" stop-color="#0C4C80"/>
<stop offset="0.31" stop-color="#0B3D69"/>
<stop offset="0.36" stop-color="#09355A"/>
<stop offset="0.4" stop-color="#0A3255"/>
<stop offset="0.48" stop-color="#0B3557"/>
<stop offset="0.55" stop-color="#183E5F"/>
<stop offset="0.63" stop-color="#2C4F6D"/>
<stop offset="0.71" stop-color="#486680"/>
<stop offset="0.78" stop-color="#6A8196"/>
<stop offset="0.86" stop-color="#94A5B4"/>
<stop offset="0.93" stop-color="#C6CFD7"/>
<stop offset="1" stop-color="white"/>
</linearGradient>
<linearGradient id="paint1_linear_982_36154" x1="17.9045" y1="11.0981" x2="9.18169" y2="17.4752" gradientUnits="userSpaceOnUse">
<stop stop-color="#69ACE4"/>
<stop offset="0.17" stop-color="#1375C5"/>
<stop offset="0.21" stop-color="#1060A1"/>
<stop offset="0.26" stop-color="#0C4C80"/>
<stop offset="0.31" stop-color="#0B3D69"/>
<stop offset="0.36" stop-color="#09355A"/>
<stop offset="0.4" stop-color="#0A3255"/>
<stop offset="0.48" stop-color="#0B3557"/>
<stop offset="0.55" stop-color="#183E5F"/>
<stop offset="0.63" stop-color="#2C4F6D"/>
<stop offset="0.71" stop-color="#486680"/>
<stop offset="0.78" stop-color="#6A8196"/>
<stop offset="0.86" stop-color="#94A5B4"/>
<stop offset="0.93" stop-color="#C6CFD7"/>
<stop offset="1" stop-color="white"/>
</linearGradient>
<linearGradient id="paint2_linear_982_36154" x1="7.51638" y1="15.1799" x2="16.4527" y2="15.1799" gradientUnits="userSpaceOnUse">
<stop stop-color="#083658"/>
<stop offset="0.13" stop-color="#90C0E8"/>
<stop offset="0.14" stop-color="#A7CCEC"/>
<stop offset="0.17" stop-color="#C1DBF1"/>
<stop offset="0.2" stop-color="#D7E8F5"/>
<stop offset="0.23" stop-color="#E8F1F9"/>
<stop offset="0.27" stop-color="#F4F8FB"/>
<stop offset="0.33" stop-color="#FBFBFC"/>
<stop offset="0.5" stop-color="white"/>
<stop offset="0.66" stop-color="#FBFBFC"/>
<stop offset="0.72" stop-color="#F4F8FB"/>
<stop offset="0.77" stop-color="#E8F1F9"/>
<stop offset="0.8" stop-color="#D7E8F5"/>
<stop offset="0.83" stop-color="#C1DBF1"/>
<stop offset="0.85" stop-color="#A7CCEC"/>
<stop offset="0.88" stop-color="#84BAE5"/>
<stop offset="0.9" stop-color="#62A5DE"/>
<stop offset="0.92" stop-color="#398ED6"/>
<stop offset="0.93" stop-color="#147BCF"/>
<stop offset="1" stop-color="#083658"/>
</linearGradient>
<linearGradient id="paint3_linear_982_36154" x1="11.9986" y1="7.48553" x2="11.9986" y2="17.6092" gradientUnits="userSpaceOnUse">
<stop stop-color="#050F1A"/>
<stop offset="0.41" stop-color="#0C1A2B"/>
<stop offset="0.52" stop-color="#0B1B2E"/>
<stop offset="0.62" stop-color="#0C2038"/>
<stop offset="0.7" stop-color="#0D2B48"/>
<stop offset="0.78" stop-color="#0C3960"/>
<stop offset="0.85" stop-color="#104B7F"/>
<stop offset="0.93" stop-color="#1060A1"/>
<stop offset="1" stop-color="#147BCF"/>
</linearGradient>
<linearGradient id="paint4_linear_982_36154" x1="11.9684" y1="12.685" x2="11.9684" y2="13.9976" gradientUnits="userSpaceOnUse">
<stop stop-color="#DFDFDF"/>
<stop offset="1" stop-color="#8E8887"/>
</linearGradient>
<clipPath id="clip0_982_36154">
<rect width="24" height="24" fill="white" transform="matrix(-1 0 0 1 24 0)"/>
</clipPath>
<clipPath id="clip1_982_36154">
<rect width="24" height="24" fill="white"/>
</clipPath>
</defs>
</svg>
