<?xml version="1.0" encoding="UTF-8"?><svg xmlns="http://www.w3.org/2000/svg" viewBox="0 0 500 500"><defs><style>.i{fill:#ea533d;}.j{fill:#0f202d;}.k{fill:#352b1c;}.l{mix-blend-mode:multiply;}.m{opacity:.3;}.n{isolation:isolate;}</style></defs><g class="n"><g id="a"><g id="b"><path class="k" d="M472.99,159.76h-5.15v-36.21c0-14.92-12.1-27.02-27.02-27.02h-5.15v-5.15c0-14.92-12.1-27.02-27.02-27.02h-5.16v-5.16c0-14.92-12.1-27.02-27.02-27.02h-36.21v-5.15C340.26,12.11,328.16,0,313.24,0h-126.47c-14.92,0-27.02,12.1-27.02,27.02v5.15h-36.21c-14.92,0-27.02,12.1-27.02,27.02v5.15h-5.15c-14.92,0-27.02,12.1-27.02,27.02h0v5.16h-5.16c-14.92,0-27.02,12.1-27.02,27.02v36.21h-5.15C12.1,159.76,0,171.86,0,186.78H0v126.47C0,328.17,12.1,340.27,27.02,340.27h5.15v36.21c0,14.92,12.1,27.02,27.02,27.02h5.15v5.29c0,14.92,12.1,27.02,27.02,27.02h5.16v5.15c0,14.92,12.1,27.02,27.02,27.02h36.21v5c0,14.92,12.1,27.02,27.02,27.02h126.47c14.92,0,27.02-12.1,27.02-27.02v-5h36.21c14.92,0,27.02-12.1,27.02-27.02v-5.13h5.15c14.92,0,27.02-12.1,27.02-27.02h0v-5.3h5.15c14.92,0,27.02-12.1,27.02-27.02h0v-36.21h5.15c14.92,0,27.02-12.1,27.02-27.02h0v-126.47c0-14.92-12.09-27.02-27.01-27.02h0Z"/></g></g><g id="c"><g id="d"><polygon class="j" points="27.02 186.77 27.02 313.25 59.19 313.25 59.19 376.48 91.36 376.48 91.36 408.79 123.53 408.79 123.53 440.95 186.77 440.95 186.77 472.98 313.23 472.98 313.23 440.95 376.48 440.95 376.48 408.79 408.64 408.79 408.64 376.61 440.82 376.61 440.82 313.25 472.98 313.25 472.98 186.77 440.82 186.77 440.82 123.53 408.64 123.53 408.64 91.36 376.48 91.36 376.48 59.19 313.23 59.19 313.23 27.02 186.77 27.02 186.77 59.19 123.53 59.19 123.53 91.36 91.36 91.36 91.36 123.53 59.19 123.53 59.19 186.75 27.02 186.77"/></g></g><g id="e"><g id="f" class="l"><g class="m"><rect x="186.77" y="27.02" width="126.47" height="32.17"/><rect x="313.23" y="59.19" width="63.24" height="32.17"/><rect x="123.53" y="59.19" width="63.24" height="32.17"/><polygon points="91.36 123.53 59.19 123.53 59.19 186.75 91.36 186.75 91.36 123.53 123.53 123.53 123.53 91.36 91.36 91.36 91.36 123.53"/><rect x="27.02" y="186.75" width="32.17" height="126.49"/><rect x="408.64" y="123.53" width="32.17" height="63.23"/><rect x="440.82" y="186.75" width="32.17" height="126.49"/><rect x="376.48" y="91.36" width="32.17" height="32.17"/><rect x="186.77" y="440.82" width="126.47" height="32.17"/><rect x="313.23" y="408.64" width="63.24" height="32.17"/><rect x="123.53" y="408.64" width="63.24" height="32.17"/><polygon points="91.36 376.48 91.36 408.64 123.53 408.64 123.53 376.48 91.36 376.48 91.36 313.25 59.19 313.25 59.19 376.48 91.36 376.48"/><rect x="408.64" y="313.25" width="32.17" height="63.23"/><rect x="376.48" y="376.48" width="32.17" height="32.17"/><polygon points="415.6 119.69 415.6 119.64 413.09 119.64 413.09 119.69 415.6 119.69"/></g></g></g><g id="g"><g><path class="i" d="M383.09,182.27c0-2.1-.74-3.15-2.49-4.14-14.27-8.07-28.48-16.23-42.72-24.37-24.87-14.21-49.75-28.43-74.62-42.64-3.15-1.8-3.75-1.54-3.75,1.67-.01,32.73-.01,65.45,0,98.18,0,3.28,.4,3.48,3.41,1.83,7.45-4.08,14.85-8.26,22.38-12.2,2.03-1.06,2.81-2.2,2.78-4.53-.13-11.47-.07-22.94-.05-34.41,0-2.91,.47-3.25,2.77-1.94,20.68,11.78,41.35,23.61,62.04,35.37,1.3,.74,1.73,1.63,1.72,3.08-.03,28.57-.02,57.15-.03,85.72,0,2.84-.64,3.19-3.11,1.75-5.03-2.94-10.07-5.88-15.03-8.93-1.44-.89-2.52-.94-4.01-.02-7.67,4.7-15.42,9.27-23.13,13.9-2.98,1.79-2.95,2.24,.16,4.02,8.65,4.97,17.31,9.92,25.96,14.9,3.18,1.83,3.19,2.27-.05,4.16-14.67,8.58-29.35,17.14-44.04,25.69-2.76,1.61-3.23,1.35-3.23-1.73-.01-27.39,.01-54.77-.05-82.16,0-1.76,.64-2.67,2.08-3.49,4.56-2.58,9.05-5.28,13.58-7.9,2.89-1.68,3.38-1.42,3.39,1.84,.02,7.02-.01,14.04,.01,21.06,.01,3.01,.5,3.31,3.01,1.82,7.9-4.7,15.75-9.49,23.68-14.13,1.54-.9,1.84-2.01,1.84-3.62-.04-18.19-.02-36.38-.03-54.58,0-3.73-.36-3.94-3.58-2.05-23.36,13.69-46.7,27.41-70.08,41.07-1.74,1.01-2.42,2.12-2.41,4.19,.08,24.52,.05,49.04,.05,73.56s0,48.84,.02,73.26c0,1.12-.58,2.55,.71,3.27,1.13,.63,2.03-.48,2.91-.99,39.18-22.84,78.34-45.73,117.53-68.55,1.76-1.02,2.41-2.14,2.4-4.19-.06-44.59-.06-89.18,0-133.77Z"/><path class="i" d="M238.1,235.47c-23.55-13.74-47.04-27.57-70.56-41.37-2.49-1.46-3.05-1.14-3.05,1.8-.02,18.49,.01,36.97-.04,55.46,0,1.59,.49,2.48,1.86,3.29,7.92,4.66,15.78,9.43,23.68,14.13,2.5,1.49,2.98,1.19,2.99-1.82,.03-7.02,0-14.04,.01-21.06,0-3.28,.46-3.53,3.37-1.84,4.61,2.68,9.17,5.45,13.83,8.06,1.42,.8,1.83,1.77,1.83,3.33-.04,27.38-.02,54.77-.04,82.15,0,3.08-.52,3.36-3.23,1.78-14.85-8.65-29.69-17.32-44.52-26-2.7-1.58-2.68-2.1,.06-3.68,8.9-5.14,17.82-10.23,26.72-15.36,2.62-1.51,2.64-2.03,.16-3.52-7.87-4.74-15.78-9.4-23.62-14.18-1.36-.83-2.37-.9-3.75-.05-4.79,2.95-9.66,5.8-14.53,8.62-.96,.56-1.89,1.78-3.17,.98-1.11-.69-.6-2-.6-3.03-.02-28.07,0-56.15-.07-84.22,0-2.2,.79-3.33,2.63-4.37,20.2-11.45,40.35-22.98,60.52-34.49,3.06-1.75,3.41-1.54,3.41,2.06,0,11.47,0,22.93,0,34.4,0,1.41-.01,2.56,1.6,3.41,8.02,4.27,15.94,8.73,23.93,13.05,2.67,1.45,2.99,1.22,2.99-1.89,.01-32.82,.01-65.64,0-98.46,0-2.93-.52-3.22-3.07-1.88-.61,.32-1.2,.68-1.8,1.03-38.61,22.05-77.21,44.11-115.85,66.1-2.04,1.16-2.87,2.4-2.86,4.84,.08,44.29,.08,88.57,0,132.86,0,2.36,.69,3.67,2.77,4.87,39.11,22.73,78.17,45.55,117.24,68.35,3.27,1.91,3.58,1.73,3.58-2.04,0-24.52,0-49.03,0-73.55s-.02-48.83,.04-73.25c0-2.1-.53-3.38-2.44-4.5Z"/></g></g><g id="h"/></g></svg>