<?xml version="1.0" encoding="UTF-8"?><svg xmlns="http://www.w3.org/2000/svg" viewBox="0 0 500 500"><defs><style>.f,.g{fill:#fff;}.h{fill:#216c58;}.i{fill:#1c5645;}.j{fill:#352b1c;}.g{fill-rule:evenodd;}</style></defs><g id="a"><path class="j" d="M472.98,159.74h-5.14v-36.22c0-14.9-12.12-27.02-27.02-27.02h-5.14v-5.14c0-14.9-12.12-27.02-27.02-27.02h-5.15v-5.14c0-14.9-12.12-27.02-27.02-27.02h-36.22v-5.15c0-14.9-12.12-27.02-27.02-27.02h-126.48c-14.9,0-27.02,12.12-27.02,27.02v5.15h-36.21c-14.9,0-27.02,12.12-27.02,27.02v5.14h-5.15c-14.9,0-27.02,12.12-27.02,27.02v5.14h-5.14c-14.9,0-27.02,12.12-27.02,27.02v36.22h-5.15c-14.9,0-27.02,12.12-27.02,27.02v126.48c0,14.9,12.12,27.02,27.02,27.02h5.15v36.21c0,14.9,12.12,27.02,27.02,27.02h5.14v5.28c0,14.9,12.12,27.02,27.02,27.02h5.15v5.15c0,14.9,12.12,27.02,27.02,27.02h36.21v5c0,14.9,12.12,27.02,27.02,27.02h126.48c14.9,0,27.02-12.12,27.02-27.02v-5h36.22c14.9,0,27.02-12.12,27.02-27.02v-5.15h5.15c14.9,0,27.02-12.12,27.02-27.02v-5.28h5.14c14.9,0,27.02-12.12,27.02-27.02v-36.21h5.14c14.9,0,27.02-12.12,27.02-27.02v-126.48c0-14.9-12.12-27.02-27.02-27.02Z"/></g><g id="b"><polygon class="h" points="27.02 186.77 27.02 313.25 59.19 313.25 59.19 376.48 91.36 376.48 91.36 408.79 123.53 408.79 123.53 440.96 186.77 440.96 186.77 472.99 313.24 472.99 313.24 440.96 376.48 440.96 376.48 408.79 408.65 408.79 408.65 376.62 440.82 376.62 440.82 313.25 472.99 313.25 472.99 186.77 440.82 186.77 440.82 123.53 408.65 123.53 408.65 91.36 376.48 91.36 376.48 59.19 313.24 59.19 313.24 27.02 186.77 27.02 186.77 59.19 123.53 59.19 123.53 91.36 91.36 91.36 91.36 123.53 59.19 123.53 59.19 186.76 27.02 186.77"/></g><g id="c"><g><rect class="i" x="186.77" y="27.02" width="126.47" height="32.17"/><rect class="i" x="313.24" y="59.19" width="63.24" height="32.17"/><rect class="i" x="123.53" y="59.19" width="63.24" height="32.17"/><polygon class="i" points="91.36 123.53 59.19 123.53 59.19 186.76 91.36 186.76 91.36 123.53 123.53 123.53 123.53 91.36 91.36 91.36 91.36 123.53"/><rect class="i" x="27.02" y="186.76" width="32.17" height="126.49"/><rect class="i" x="408.65" y="123.53" width="32.17" height="63.23"/><rect class="i" x="440.82" y="186.76" width="32.17" height="126.49"/><rect class="i" x="376.48" y="91.36" width="32.17" height="32.17"/><rect class="i" x="186.77" y="440.82" width="126.47" height="32.17"/><rect class="i" x="313.24" y="408.65" width="63.24" height="32.17"/><rect class="i" x="123.53" y="408.65" width="63.24" height="32.17"/><polygon class="i" points="91.36 376.48 91.36 408.65 123.53 408.65 123.53 376.48 91.36 376.48 91.36 313.25 59.19 313.25 59.19 376.48 91.36 376.48"/><rect class="i" x="408.65" y="313.25" width="32.17" height="63.23"/><rect class="i" x="376.48" y="376.48" width="32.17" height="32.17"/><polygon class="i" points="415.6 119.69 415.6 119.64 413.09 119.64 413.09 119.69 415.6 119.69"/><rect class="i" x="54.34" y="315.08" width="0" height="0"/><rect class="i" x="84.4" y="380.31" width="2.51" height="0"/></g></g><g id="d"><g><rect class="h" x="231.82" y="314.9" width="15.58" height="15.58"/><rect class="h" x="257.79" y="314.9" width="15.58" height="15.58"/><rect class="f" x="200.67" y="153.94" width="109.04" height="12.98" rx="5.19" ry="5.19"/><path class="f" d="M249.99,172.11v176.54c0,2.87-2.32,5.19-5.19,5.19h-2.6c-2.87,0-5.19-2.32-5.19-5.19V172.11h12.98Z"/><path class="f" d="M270.77,172.11v176.54c0,2.87-2.32,5.19-5.19,5.19h-2.6c-2.87,0-5.19-2.32-5.19-5.19V172.11h12.98Z"/><path class="f" d="M238.92,216.07h.03c3.61-1.33,8.16-2.03,13.74-2.03,8.2,0,14.38,1.57,18.76,4.45,3.17,2.08,5.25,4.69,6.38,7.86,1.13,3.17,4.03,6.25,8.11,6.25h23.98c4.26,0,8.1-3.57,7.45-8.23-1-7.17-3.71-13.65-8.11-19.38-5.5-7.17-13.16-12.69-22.82-16.61-9.64-3.94-20.83-5.87-33.51-5.87s-23.7,1.93-33.64,5.86c-9.93,3.92-17.87,9.42-23.7,16.56h0c-5.84,7.24-8.72,15.7-8.67,25.29-.05,11.75,4.33,21.28,13.16,28.3,8.58,6.82,20.13,11.73,34.49,14.84h0l18.21,4.07h.02c6.02,1.3,11.03,2.72,15.07,4.26h.01c4.03,1.52,6.86,3.29,8.68,5.19h0l.02,.02c1.73,1.77,2.61,3.92,2.61,6.62,0,2.94-.98,5.5-3.02,7.81-2.09,2.35-5.13,4.3-9.29,5.75h0c-4.07,1.44-8.97,2.18-14.75,2.18s-11.05-.79-15.58-2.33c-4.43-1.57-7.86-3.83-10.41-6.74-1.62-1.92-2.79-4.16-3.49-6.76-.93-3.45-3.94-6.66-8.11-6.66h-24.11c-4.31,0-8.07,3.6-7.54,8.21,1.02,8.82,3.96,16.51,8.89,22.96v.02c5.97,7.67,14.19,13.39,24.54,17.22h0c10.38,3.82,22.46,5.69,36.2,5.69s25.8-1.85,35.82-5.62h0c10.04-3.82,17.89-9.24,23.36-16.34,5.55-7.18,8.33-15.65,8.39-25.29h0v-.04c-.06-6.55-1.41-12.47-4.13-17.69-2.63-5.15-6.33-9.6-11.07-13.36-4.69-3.72-10.21-6.82-16.51-9.33-6.26-2.49-13.11-4.47-20.54-5.95l-15.02-3.2h-.03c-3.56-.72-6.89-1.56-10-2.55-3.07-1.02-5.72-2.18-7.99-3.48-2.18-1.29-3.81-2.77-4.98-4.41-1-1.47-1.5-3.23-1.41-5.39v-.11c0-2.58,.82-4.86,2.51-6.93,1.76-2.08,4.37-3.81,8.02-5.11Z"/><path class="h" d="M252.52,343.46c-14.06,0-26.54-1.96-37.1-5.85-10.85-4.01-19.49-10.08-25.68-18.05-5.2-6.81-8.36-14.96-9.43-24.27-.33-2.83,.53-5.55,2.42-7.66,1.94-2.19,4.76-3.44,7.7-3.44h24.11c5.7,0,9.5,4.44,10.62,8.57,.6,2.22,1.57,4.11,2.97,5.77,2.27,2.59,5.32,4.56,9.29,5.96,8.43,2.86,20.81,2.88,28.59,.14l.43-.14c3.4-1.24,6.02-2.88,7.79-4.88,1.62-1.83,2.38-3.76,2.38-6.08,0-1.98-.59-3.51-1.88-4.81-1.6-1.68-4.06-3.16-7.35-4.44l-.43-.16c-3.9-1.49-8.84-2.89-14.68-4.15l-18.25-4.07c-14.82-3.22-26.78-8.38-35.55-15.34-9.44-7.51-14.2-17.72-14.14-30.34-.06-10.18,3.05-19.24,9.25-26.91,6.06-7.42,14.38-13.26,24.77-17.36,10.16-4.01,21.79-6.04,34.6-6.04s24.64,2.04,34.49,6.06c10.13,4.12,18.18,9.99,23.9,17.44,4.66,6.07,7.57,13,8.63,20.6,.39,2.81-.41,5.53-2.26,7.66-1.95,2.24-4.77,3.52-7.76,3.52h-23.98c-5.35,0-9.16-4.01-10.56-7.98-.94-2.66-2.69-4.81-5.35-6.55-4.07-2.67-9.91-4.02-17.34-4.02-5.14,0-9.46,.63-12.85,1.87l-.05,.02c-3.07,1.09-5.39,2.54-6.9,4.34-1.29,1.56-1.89,3.25-1.89,5.25-.07,1.76,.24,2.98,.96,4.04,.95,1.32,2.36,2.56,4.17,3.64,2.1,1.2,4.63,2.3,7.48,3.25,2.97,.94,6.24,1.77,9.69,2.46l15.09,3.21c7.54,1.5,14.6,3.55,20.96,6.08,6.55,2.6,12.32,5.86,17.17,9.71,5.03,3.99,9,8.77,11.77,14.21,2.86,5.5,4.35,11.84,4.41,18.84-.06,10.33-3.06,19.36-8.93,26.94-5.69,7.39-13.93,13.17-24.49,17.18-10.19,3.85-22.56,5.79-36.74,5.79Zm-62.1-54.09c-1.47,0-2.86,.62-3.82,1.7-.63,.7-1.33,1.91-1.13,3.61,.97,8.37,3.78,15.66,8.38,21.67,5.59,7.21,13.46,12.71,23.37,16.38,9.99,3.67,21.87,5.53,35.31,5.53s25.3-1.84,34.9-5.45c9.65-3.67,17.13-8.9,22.22-15.51,5.16-6.66,7.79-14.64,7.85-23.72-.06-6.18-1.35-11.73-3.84-16.51-2.45-4.8-5.94-9-10.39-12.52-4.45-3.53-9.78-6.54-15.85-8.95-6.07-2.41-12.83-4.37-20.09-5.82l-15.05-3.21c-3.64-.72-7.1-1.6-10.28-2.61-3.22-1.07-6.06-2.31-8.5-3.71-2.47-1.47-4.4-3.19-5.81-5.15-1.38-2.02-2.01-4.37-1.89-7.01,0-3.18,1.04-6.06,3.09-8.57,2.14-2.54,5.22-4.51,9.16-5.91l.18-.05c3.78-1.39,8.71-2.13,14.45-2.13,8.46,0,15.25,1.64,20.18,4.88,3.59,2.36,6.08,5.44,7.4,9.16,.8,2.25,2.85,4.52,5.66,4.52h23.98c1.46,0,2.9-.65,3.84-1.73,.6-.69,1.27-1.87,1.04-3.54-.93-6.7-3.49-12.81-7.6-18.16-5.15-6.71-12.47-12.02-21.74-15.79-9.23-3.77-20.17-5.68-32.53-5.68s-23.14,1.91-32.69,5.68c-9.55,3.77-17.16,9.08-22.64,15.79-5.42,6.71-8.14,14.66-8.09,23.64-.05,10.98,4.05,19.81,12.18,26.28,8.13,6.47,19.38,11.29,33.42,14.33l18.24,4.08c5.9,1.27,10.95,2.69,15.03,4.22l.41,.15c4.24,1.59,7.48,3.55,9.64,5.82,2.22,2.26,3.35,5.1,3.35,8.44,0,3.57-1.24,6.77-3.68,9.53-2.44,2.75-5.93,4.93-10.37,6.47l-.43,.14c-4.31,1.46-9.41,2.19-15.18,2.19-6.06,0-11.58-.83-16.41-2.47-4.8-1.7-8.66-4.22-11.53-7.48-1.9-2.25-3.25-4.86-4.04-7.79-.62-2.28-2.63-4.74-5.61-4.74h-24.11Z"/><rect class="f" x="237.02" y="205.87" width="12.98" height="18.17"/><rect class="f" x="237.02" y="270.77" width="12.98" height="18.17"/><rect class="f" x="237.02" y="325.29" width="12.98" height="18.17"/><rect class="f" x="257.79" y="205.87" width="12.98" height="18.17"/><rect class="f" x="257.79" y="270.77" width="12.98" height="18.17"/><rect class="f" x="257.79" y="325.29" width="12.98" height="18.17"/><path class="g" d="M380.65,257.79c-2.06,0-3.76,1.61-3.95,3.67-5.79,64.89-60.31,115.75-126.7,115.75s-120.91-50.86-126.7-115.75c-.18-2.06-1.88-3.67-3.95-3.67-2.24,0-4.03,1.89-3.83,4.13,6.03,68.98,63.94,123.09,134.48,123.09s128.45-54.11,134.48-123.09c.2-2.23-1.59-4.13-3.83-4.13Zm-261.3-15.58c2.06,0,3.76-1.61,3.95-3.67,5.79-64.89,60.31-115.75,126.7-115.75s120.91,50.87,126.7,115.75c.18,2.05,1.88,3.67,3.95,3.67,2.24,0,4.03-1.89,3.83-4.13-6.03-68.98-63.94-123.09-134.48-123.09s-128.45,54.11-134.48,123.09c-.2,2.23,1.59,4.13,3.83,4.13Z"/></g></g><g id="e"/></svg>