<svg xmlns="http://www.w3.org/2000/svg" xmlns:xlink="http://www.w3.org/1999/xlink" viewBox="0 0 500 500"><defs><style>.cls-1,.cls-8{fill:#fff;}.cls-1{fill-rule:evenodd;}.cls-2{fill:#352b1c;}.cls-3{fill:#1a1a1a;}.cls-4{fill:#0c1c26;}.cls-5{fill:#3377fd;}.cls-6{fill:#2bd2b5;}.cls-7{mask:url(#mask);}</style><mask id="mask" x="29.34" y="26.12" width="442.61" height="442.61" maskUnits="userSpaceOnUse"><g id="mask-2"><path id="path-1" class="cls-1" d="M250.64,468.73C372.86,468.73,472,369.65,472,247.42S372.86,26.12,250.64,26.12,29.34,125.2,29.34,247.42,128.42,468.73,250.64,468.73Z"/></g></mask></defs><g id="Logo-2" data-name="Logo"><path class="cls-2" d="M473,159.7h-5.15V123.5a27,27,0,0,0-27-27h-5.15V91.34a27,27,0,0,0-27-27h-5.16V59.17a27,27,0,0,0-27-27h-36.2V27a27,27,0,0,0-27-27H186.87a27,27,0,0,0-27,27v5.15h-36.2a27,27,0,0,0-27,27v5.15H91.49a27,27,0,0,0-27,27h0v5.16H59.32a27,27,0,0,0-27,27v36.2H27.16a27,27,0,0,0-27,27h0V313.15a27,27,0,0,0,27,27h5.15v36.2a27,27,0,0,0,27,27h5.15v5.28a27,27,0,0,0,27,27h5.16v5.15a27,27,0,0,0,27,27h36.2v5a27,27,0,0,0,27,27H313.29a27,27,0,0,0,27-27v-5h36.2a27,27,0,0,0,27-27v-5.13h5.15a27,27,0,0,0,27-27h0v-5.29h5.15a27,27,0,0,0,27-27h0v-36.2H473a27,27,0,0,0,27-27h0V186.72A27,27,0,0,0,473,159.7Z"/><polygon points="27.16 186.72 27.16 313.16 59.32 313.16 59.32 376.37 91.48 376.37 91.48 408.67 123.64 408.67 123.64 440.83 186.87 440.83 186.87 472.85 313.3 472.85 313.3 440.83 376.52 440.83 376.52 408.67 408.68 408.67 408.68 376.51 440.84 376.51 440.84 313.16 473 313.16 473 186.72 440.84 186.72 440.84 123.49 408.68 123.49 408.68 91.33 376.52 91.33 376.52 59.17 313.3 59.17 313.3 27.02 186.87 27.02 186.87 59.17 123.64 59.17 123.64 91.33 91.48 91.33 91.48 123.49 59.32 123.49 59.32 186.71 27.16 186.72"/><rect class="cls-3" x="186.87" y="27.01" width="126.43" height="32.16"/><rect class="cls-3" x="313.29" y="59.17" width="63.23" height="32.16"/><rect class="cls-3" x="123.64" y="59.17" width="63.23" height="32.16"/><polygon class="cls-3" points="91.48 123.49 59.32 123.49 59.32 186.71 91.48 186.71 91.48 123.49 123.64 123.49 123.64 91.33 91.48 91.33 91.48 123.49"/><rect class="cls-3" x="27.16" y="186.71" width="32.16" height="126.45"/><rect class="cls-3" x="408.68" y="123.49" width="32.16" height="63.22"/><rect class="cls-3" x="440.84" y="186.71" width="32.16" height="126.45"/><rect class="cls-3" x="376.52" y="91.33" width="32.16" height="32.16"/><rect class="cls-3" x="186.87" y="440.69" width="126.43" height="32.16"/><rect class="cls-3" x="313.29" y="408.53" width="63.23" height="32.16"/><rect class="cls-3" x="123.64" y="408.53" width="63.23" height="32.16"/><polygon class="cls-3" points="91.48 376.37 91.48 408.53 123.64 408.53 123.64 376.37 91.48 376.37 91.48 313.16 59.32 313.16 59.32 376.37 91.48 376.37"/><rect class="cls-3" x="408.68" y="313.16" width="32.16" height="63.22"/><rect class="cls-3" x="376.52" y="376.37" width="32.16" height="32.16"/><polygon class="cls-3" points="415.63 119.65 415.63 119.61 413.12 119.61 413.12 119.65 415.63 119.65"/><rect class="cls-3" x="54.47" y="314.98"/><rect class="cls-3" x="84.52" y="380.2" width="2.51"/><g id="Group-3"><circle id="Oval" class="cls-4" cx="413.8" cy="414.01" r="85.99"/><g id="horizon_symbol-colored" data-name="horizon symbol-colored"><polygon id="Path" class="cls-5" points="479.07 413.9 459.43 394.28 446.34 407.36 452.89 413.9 413.61 453.13 400.52 440.05 407.07 433.51 410.34 436.78 410.34 417.17 390.7 417.17 393.98 420.44 374.34 440.05 413.61 479.28 479.07 413.9"/><polygon id="Path-2" data-name="Path" class="cls-6" points="453.27 387.98 413.99 348.75 348.54 414.13 368.17 433.75 381.26 420.67 374.72 414.13 413.99 374.9 427.08 387.98 420.54 394.52 417.27 391.25 417.27 410.86 436.9 410.86 433.63 407.59 453.27 387.98"/></g></g><g class="cls-7"><path id="Shape" class="cls-8" d="M319.59,261.18v58.09l-26.78,26.38H261.75v30.87H241.81V345.65h-35l-26.21-25.82v-18h21.37v10.94l13.67,13.75h26.21V254.44H207.34l-26.21-25.82V175l26.21-25.82h34.47V118.33h19.94V149.2H291.1L317.31,175v18.24H296.23V182L282,168.28H261.75v67.08h31.63ZM243,235.51V168H217.33l-14.6,13.85v39.83l14.6,13.85Zm54.4,31.5-14.16-13.63h-22.1v71.5h22.1l14.16-14.19Z"/></g></g></svg>
