<?xml version="1.0" encoding="UTF-8"?><svg id="Layer_2" xmlns="http://www.w3.org/2000/svg" xmlns:xlink="http://www.w3.org/1999/xlink" viewBox="0 0 500 500"><defs><style>.cls-1{fill:url(#linear-gradient);}.cls-2{fill:#00f3ab;}.cls-3{fill:#352b1c;}.cls-4{fill:url(#linear-gradient-2);}.cls-5{fill:#090f17;fill-rule:evenodd;}</style><linearGradient id="linear-gradient" x1="35.49" y1="35.56" x2="476.53" y2="476.6" gradientUnits="userSpaceOnUse"><stop offset="0" stop-color="#0093ed"/><stop offset="1" stop-color="#00f3ab"/></linearGradient><linearGradient id="linear-gradient-2" x1="-1198.54" y1="-2444.81" x2="-1201.33" y2="-2440.13" gradientTransform="translate(60235 -121893.45) scale(50 -50)" gradientUnits="userSpaceOnUse"><stop offset="0" stop-color="#000a17"/><stop offset="1" stop-color="#00554f"/></linearGradient></defs><g id="Logo"><path class="cls-3" d="m472.99,159.75h-5.15v-36.21c0-14.92-12.1-27.02-27.02-27.02h-5.15v-5.15c0-14.92-12.1-27.02-27.02-27.02h-5.16v-5.16c0-14.92-12.1-27.02-27.02-27.02h-36.21v-5.15c0-14.92-12.1-27.02-27.02-27.02h-126.47c-14.92,0-27.02,12.1-27.02,27.02v5.15h-36.21c-14.92,0-27.02,12.1-27.02,27.02v5.15h-5.15c-14.92,0-27.02,12.1-27.02,27.02h0v5.16h-5.16c-14.92,0-27.02,12.1-27.02,27.02v36.21h-5.15c-14.92,0-27.02,12.1-27.02,27.02h0v126.47c0,14.92,12.1,27.02,27.02,27.02h5.15v36.21c0,14.92,12.1,27.02,27.02,27.02h5.15v5.29c0,14.92,12.1,27.02,27.02,27.02h5.16v5.15c0,14.92,12.1,27.02,27.02,27.02h36.21v5c0,14.92,12.1,27.02,27.02,27.02h126.47c14.92,0,27.02-12.1,27.02-27.02v-5h36.21c14.92,0,27.02-12.1,27.02-27.02v-5.13h5.15c14.92,0,27.02-12.1,27.02-27.02h0v-5.3h5.15c14.92,0,27.02-12.1,27.02-27.02h0v-36.21h5.15c14.92,0,27.02-12.1,27.02-27.02h0v-126.47c0-14.92-12.09-27.02-27.01-27.02Z"/><polygon class="cls-1" points="27.02 186.77 27.02 313.25 59.19 313.25 59.19 376.48 91.36 376.48 91.36 408.79 123.53 408.79 123.53 440.96 186.77 440.96 186.77 472.99 313.24 472.99 313.24 440.96 376.48 440.96 376.48 408.79 408.65 408.79 408.65 376.62 440.82 376.62 440.82 313.25 472.99 313.25 472.99 186.77 440.82 186.77 440.82 123.53 408.65 123.53 408.65 91.36 376.48 91.36 376.48 59.19 313.24 59.19 313.24 27.02 186.77 27.02 186.77 59.19 123.53 59.19 123.53 91.36 91.36 91.36 91.36 123.53 59.19 123.53 59.19 186.76 27.02 186.77"/><rect class="cls-2" x="186.77" y="27.02" width="126.47" height="32.17"/><rect class="cls-2" x="313.24" y="59.19" width="63.24" height="32.17"/><rect class="cls-2" x="123.53" y="59.19" width="63.24" height="32.17"/><polygon class="cls-2" points="91.36 123.53 59.19 123.53 59.19 186.76 91.36 186.76 91.36 123.53 123.53 123.53 123.53 91.36 91.36 91.36 91.36 123.53"/><rect class="cls-2" x="27.02" y="186.76" width="32.17" height="126.49"/><rect class="cls-2" x="408.65" y="123.53" width="32.17" height="63.23"/><rect class="cls-2" x="440.82" y="186.76" width="32.17" height="126.49"/><rect class="cls-2" x="376.48" y="91.36" width="32.17" height="32.17"/><rect class="cls-2" x="186.77" y="440.82" width="126.47" height="32.17"/><rect class="cls-2" x="313.24" y="408.65" width="63.24" height="32.17"/><rect class="cls-2" x="123.53" y="408.65" width="63.24" height="32.17"/><polygon class="cls-2" points="91.36 376.48 91.36 408.65 123.53 408.65 123.53 376.48 91.36 376.48 91.36 313.25 59.19 313.25 59.19 376.48 91.36 376.48"/><rect class="cls-2" x="408.65" y="313.25" width="32.17" height="63.23"/><rect class="cls-2" x="376.48" y="376.48" width="32.17" height="32.17"/><polygon class="cls-2" points="415.6 119.69 415.6 119.64 413.09 119.64 413.09 119.69 415.6 119.69"/><rect class="cls-2" x="54.34" y="315.08" width="0" height="0"/><rect class="cls-2" x="84.4" y="380.31" width="2.51" height="0"/><path id="path16" class="cls-4" d="m180.68,250l-28.59,28.57-28.57-28.57,28.57-28.57,28.59,28.57Zm69.32-69.37l48.96,48.98,28.57-28.57-77.53-77.53-77.53,77.53,28.57,28.57,48.96-48.98Zm97.94,40.8l-28.57,28.57,28.57,28.57,28.54-28.57-28.54-28.57Zm-97.94,97.94l-48.96-48.96-28.57,28.54,77.53,77.53,77.53-77.53-28.57-28.54-48.96,48.96Zm0-40.8l28.57-28.57-28.57-28.57-28.57,28.57,28.57,28.57Z"/><path id="Combined-Shape-Copy-9" class="cls-5" d="m133.66,90c24.11,0,43.66,19.55,43.66,43.66s-19.55,43.66-43.66,43.66-43.66-19.55-43.66-43.66,19.55-43.66,43.66-43.66Zm1.78,20.15h-11.86v53.74h11.86v-22.22c0-8.05,11.17-17.1,20.43-17.1h1.3v-12.99h-1.3c-8.11,0-16.75,3.35-20.43,9.89v-11.32Z"/></g></svg>