<?xml version="1.0" encoding="UTF-8"?>
<svg id="Layer_1" data-name="Layer 1" xmlns="http://www.w3.org/2000/svg" xmlns:xlink="http://www.w3.org/1999/xlink" viewBox="0 0 423.93 423.63">
  <defs>
    <style>
      .cls-1 {
        fill: none;
      }

      .cls-2 {
        clip-path: url(#clippath);
      }

      .cls-3 {
        fill: #fff;
      }

      .cls-4 {
        fill: #322c20;
      }

      .cls-5 {
        fill: #526bae;
      }

      .cls-6 {
        fill: #526aae;
      }
    </style>
    <clipPath id="clippath">
      <rect class="cls-1" width="423.63" height="423.63"/>
    </clipPath>
  </defs>
  <g class="cls-2">
    <g>
      <path class="cls-4" d="M400.79,135.39h-4.39v-30.55c0-6.08-2.42-11.92-6.72-16.22s-10.14-6.72-16.22-6.72h-4.29v-4.39c-.03-6.07-2.45-11.88-6.75-16.16-4.3-4.28-10.12-6.68-16.18-6.68h-4.39v-4.39c0-6.06-2.41-11.87-6.69-16.15-4.28-4.28-10.09-6.69-16.15-6.69h-30.65v-4.39c-.02-6.08-2.45-11.9-6.75-16.19-4.3-4.3-10.12-6.72-16.19-6.75h-107.37c-6.07,.03-11.88,2.45-16.16,6.75-4.28,4.3-6.68,10.12-6.68,16.19v4.39h-30.75c-5.99,.08-11.71,2.5-15.93,6.76-4.22,4.25-6.6,9.99-6.62,15.99v4.39h-4.39c-6.06,0-11.87,2.41-16.15,6.69-4.28,4.28-6.69,10.09-6.69,16.15v4.39h-4.39c-3.03-.01-6.03,.57-8.83,1.73-2.8,1.15-5.35,2.85-7.49,4.99-2.14,2.14-3.84,4.69-4.99,7.49-1.15,2.8-1.74,5.8-1.73,8.83v30.65h-3.9c-6.07,0-11.89,2.4-16.19,6.68-4.3,4.28-6.73,10.09-6.75,16.16v107.37c.08,6.03,2.53,11.79,6.82,16.03,4.29,4.24,10.08,6.62,16.12,6.62h4.29v30.65c.03,6.08,2.45,11.9,6.75,16.19,4.3,4.3,10.12,6.72,16.19,6.75h4.39v4.49c0,3,.59,5.97,1.74,8.74s2.83,5.29,4.95,7.41c2.12,2.12,4.64,3.8,7.41,4.95,2.77,1.15,5.74,1.74,8.74,1.74h4.1v4.39c0,6.06,2.41,11.87,6.69,16.15,4.28,4.28,10.09,6.69,16.15,6.69h30.75v4.29c0,6.06,2.41,11.87,6.69,16.15,4.28,4.28,10.09,6.69,16.15,6.69h107.37c6.07,0,11.89-2.4,16.18-6.68,4.3-4.28,6.73-10.09,6.75-16.16v-4.29h30.65c6.06,0,11.87-2.41,16.15-6.69,4.28-4.28,6.69-10.09,6.69-16.15v-4.39h4.39c6.07,0,11.89-2.4,16.19-6.68,4.3-4.28,6.73-10.09,6.75-16.16v-4.49h4.29c6.08,0,11.92-2.42,16.22-6.72s6.72-10.14,6.72-16.22v-30.65h4.39c6.07-.03,11.88-2.45,16.16-6.75,4.28-4.3,6.68-10.12,6.68-16.19v-107.37c-.02-3.01-.64-5.98-1.82-8.75-1.18-2.77-2.89-5.28-5.04-7.38-2.15-2.1-4.69-3.76-7.49-4.88-2.79-1.12-5.78-1.67-8.79-1.64Z"/>
      <path class="cls-6" d="M400.7,158.23h-27.23v53.59h27.23v-53.59Z"/>
      <path class="cls-6" d="M400.7,211.82h-27.23v53.59h27.23v-53.59Z"/>
      <path class="cls-6" d="M265.4,50.17V22.94h-53.59v27.23h53.59Z"/>
      <path class="cls-6" d="M211.82,50.17V22.94h-53.59v27.23h53.59Z"/>
      <path class="cls-6" d="M265.4,400.7v-27.23h-53.59v27.23h53.59Z"/>
      <path class="cls-6" d="M211.82,400.7v-27.23h-53.59v27.23h53.59Z"/>
      <path class="cls-6" d="M373.46,104.64h-27.23v53.59h27.23v-53.59Z"/>
      <path class="cls-6" d="M373.46,265.4h-27.23v53.59h27.23v-53.59Z"/>
      <path class="cls-6" d="M318.9,373.56v-27.23h-53.59v27.23h53.59Z"/>
      <path class="cls-6" d="M318.99,77.41v-27.23h-53.59v27.23h53.59Z"/>
      <path class="cls-6" d="M346.23,77.41h-27.23v27.23h27.23v-27.23Z"/>
      <path class="cls-6" d="M346.23,319.09h-27.23v27.23h27.23v-27.23Z"/>
      <path class="cls-6" d="M22.84,211.82h27.23v-53.59H22.84v53.59Z"/>
      <path class="cls-6" d="M22.84,265.4h27.23v-53.59H22.84v53.59Z"/>
      <path class="cls-6" d="M50.17,158.23h27.23v-53.59h-27.23v53.59Z"/>
      <path class="cls-6" d="M50.17,318.99h27.23v-53.59h-27.23v53.59Z"/>
      <path class="cls-6" d="M158.23,373.56v-27.23h-53.59v27.23h53.59Z"/>
      <path class="cls-6" d="M158.23,77.41v-27.23h-53.59v27.23h53.59Z"/>
      <path class="cls-6" d="M77.41,104.74h27.23v-27.23h-27.23v27.23Z"/>
      <path class="cls-6" d="M77.41,346.33h27.23v-27.23h-27.23v27.23Z"/>
      <path class="cls-3" d="M50.17,211.82v-53.59h27.23v-53.59h27.23v-27.23h53.59v-27.23h107.18v27.23h53.59v27.23h27.23v53.59h27.23v53.59H50.17Z"/>
      <path class="cls-3" d="M373.46,211.82v53.59h-27.23v53.69h-27.23v27.23h-53.59v27.14h-107.18v-27.14h-53.59v-27.23h-27.23v-53.69h-27.23v-53.59H373.46Z"/>
      <path class="cls-3" d="M156.96,141.05l54.86-31.24,54.96,31.24-20.21,11.52-34.75-19.52-34.65,19.52-20.21-11.52Zm109.81,39.05l-20.21-11.52-34.75,19.52-34.65-19.52-20.21,11.52v23.13l34.65,19.52v39.04l20.21,11.52,20.21-11.52v-39.04l34.75-19.52v-23.13Zm0,62.47v-23.13l-20.21,12.3v23.13l20.21-12.3Zm14.25,8.2l-34.75,19.52v23.13l54.95-31.33v-62.47l-20.2,12.59v38.56Zm-20.11-90.39l20.21,11.52v23.13l20.11-11.52v-23.13l-20.11-11.52-20.21,11.52Zm-69.3,118.5v23.13l20.21,11.52,20.21-11.52v-23.13l-20.21,11.52-20.21-11.52Zm-34.65-36.31l20.21,11.52v-22.35l-20.21-11.52v22.35Zm34.65-82.19l20.21,11.52,20.21-11.52-20.21-11.52-20.21,11.52Zm-48.81,11.62l20.11-11.52-20.11-11.52-20.21,11.52v23.13l20.21,11.52v-23.13Zm0,39.05l-20.21-11.52v62.57l54.86,31.24v-22.55l-34.65-19.52v-40.22Z"/>
    </g>
  </g>
  <path class="cls-5" d="M290.6,147.77l-65.54-34.74c-8.05-4.28-17.64-4.28-25.69-.04l-66.22,34.89c-9.99,6-19.33,13.08-19.73,33.7v16.64h25.76v-22.74l73.05-38.95,72.51,38.95v22.74h25.76v-16.64c-.43-20.73-9.84-27.77-19.91-33.81Z"/>
  <path class="cls-5" d="M284.7,250.03l-59.61,33.38v-26.95c20.95-4.92,34.74-21.99,34.74-44.81,0-27.67-19.12-46.24-47.61-46.24s-47.61,18.58-47.61,46.24c0,22.85,13.76,39.88,34.74,44.81v26.98l-60.15-33.41v-24.86h-25.8v16.6c.43,20.59,9.74,27.7,19.73,33.7l66.22,34.89c8.05,4.24,17.68,4.24,25.69-.04l65.5-34.74c10.06-6,19.51-13.08,19.91-33.81v-16.6h-25.76v24.86h0Zm-96.15-38.37c0-15.16,8.41-23.5,23.68-23.5s23.68,8.34,23.68,23.5-8.84,23.5-23.68,23.5-23.68-8.77-23.68-23.5Z"/>
</svg>