<?xml version="1.0" encoding="UTF-8"?><svg id="Layer_2" xmlns="http://www.w3.org/2000/svg" xmlns:xlink="http://www.w3.org/1999/xlink" viewBox="0 0 500 500"><defs><style>.cls-1{fill:url(#linear-gradient);}.cls-2{clip-path:url(#clippath);}.cls-3{fill:#fff;}.cls-4,.cls-5{fill:#1f2333;}.cls-6{fill:#352b1c;}.cls-7{fill:url(#linear-gradient-2);}.cls-8{opacity:.5;}.cls-5{fill-rule:evenodd;}</style><linearGradient id="linear-gradient" x1="93.17" y1="385.25" x2="407.19" y2="114.6" gradientUnits="userSpaceOnUse"><stop offset=".07" stop-color="#aac4fd"/><stop offset="1" stop-color="#76a0fc"/></linearGradient><clipPath id="clippath"><polygon class="cls-1" points="27.02 186.77 27.02 313.25 59.19 313.25 59.19 376.48 91.36 376.48 91.36 408.79 123.53 408.79 123.53 440.96 186.77 440.96 186.77 472.99 313.24 472.99 313.24 440.96 376.48 440.96 376.48 408.79 408.65 408.79 408.65 376.62 440.82 376.62 440.82 313.25 472.99 313.25 472.99 186.77 440.82 186.77 440.82 123.53 408.65 123.53 408.65 91.36 376.48 91.36 376.48 59.19 313.24 59.19 313.24 27.02 186.77 27.02 186.77 59.19 123.53 59.19 123.53 91.36 91.36 91.36 91.36 123.53 59.19 123.53 59.19 186.76 27.02 186.77"/></clipPath><linearGradient id="linear-gradient-2" x1="93.13" y1="385.2" x2="407.15" y2="114.55" xlink:href="#linear-gradient"/></defs><g id="Token"><path class="cls-6" d="m472.99,159.75h-5.15v-36.21c0-14.92-12.1-27.02-27.02-27.02h-5.15v-5.15c0-14.92-12.1-27.02-27.02-27.02h-5.16v-5.16c0-14.92-12.1-27.02-27.02-27.02h-36.21v-5.15c0-14.92-12.1-27.02-27.02-27.02h-126.47c-14.92,0-27.02,12.1-27.02,27.02v5.15h-36.21c-14.92,0-27.02,12.1-27.02,27.02v5.15h-5.15c-14.92,0-27.02,12.1-27.02,27.02h0v5.16h-5.16c-14.92,0-27.02,12.1-27.02,27.02v36.21h-5.15c-14.92,0-27.02,12.1-27.02,27.02h0v126.47c0,14.92,12.1,27.02,27.02,27.02h5.15v36.21c0,14.92,12.1,27.02,27.02,27.02h5.15v5.29c0,14.92,12.1,27.02,27.02,27.02h5.16v5.15c0,14.92,12.1,27.02,27.02,27.02h36.21v5c0,14.92,12.1,27.02,27.02,27.02h126.47c14.92,0,27.02-12.1,27.02-27.02v-5h36.21c14.92,0,27.02-12.1,27.02-27.02v-5.13h5.15c14.92,0,27.02-12.1,27.02-27.02h0v-5.3h5.15c14.92,0,27.02-12.1,27.02-27.02h0v-36.21h5.15c14.92,0,27.02-12.1,27.02-27.02h0v-126.47c0-14.92-12.09-27.02-27.01-27.02Z"/></g><g id="BrandColor"><polygon class="cls-1" points="27.02 186.77 27.02 313.25 59.19 313.25 59.19 376.48 91.36 376.48 91.36 408.79 123.53 408.79 123.53 440.96 186.77 440.96 186.77 472.99 313.24 472.99 313.24 440.96 376.48 440.96 376.48 408.79 408.65 408.79 408.65 376.62 440.82 376.62 440.82 313.25 472.99 313.25 472.99 186.77 440.82 186.77 440.82 123.53 408.65 123.53 408.65 91.36 376.48 91.36 376.48 59.19 313.24 59.19 313.24 27.02 186.77 27.02 186.77 59.19 123.53 59.19 123.53 91.36 91.36 91.36 91.36 123.53 59.19 123.53 59.19 186.76 27.02 186.77"/><g class="cls-2"><rect class="cls-7" width="500" height="500"/></g></g><g id="DecoFrame"><g class="cls-8"><rect class="cls-3" x="186.77" y="27.02" width="126.47" height="32.17"/><rect class="cls-3" x="313.24" y="59.19" width="63.24" height="32.17"/><rect class="cls-3" x="123.53" y="59.19" width="63.24" height="32.17"/><polygon class="cls-3" points="91.36 123.53 59.19 123.53 59.19 186.76 91.36 186.76 91.36 123.53 123.53 123.53 123.53 91.36 91.36 91.36 91.36 123.53"/><rect class="cls-3" x="27.02" y="186.76" width="32.17" height="126.49"/><rect class="cls-3" x="408.65" y="123.53" width="32.17" height="63.23"/><rect class="cls-3" x="440.82" y="186.76" width="32.17" height="126.49"/><rect class="cls-3" x="376.48" y="91.36" width="32.17" height="32.17"/><rect class="cls-3" x="186.77" y="440.82" width="126.47" height="32.17"/><rect class="cls-3" x="313.24" y="408.65" width="63.24" height="32.17"/><rect class="cls-3" x="123.53" y="408.65" width="63.24" height="32.17"/><polygon class="cls-3" points="91.36 376.48 91.36 408.65 123.53 408.65 123.53 376.48 91.36 376.48 91.36 313.25 59.19 313.25 59.19 376.48 91.36 376.48"/><rect class="cls-3" x="408.65" y="313.25" width="32.17" height="63.23"/><rect class="cls-3" x="376.48" y="376.48" width="32.17" height="32.17"/><polygon class="cls-3" points="415.6 119.69 415.6 119.64 413.09 119.64 413.09 119.69 415.6 119.69"/><rect class="cls-3" x="54.34" y="315.08" width="0" height="0"/><rect class="cls-3" x="84.4" y="380.31" width="2.51" height="0"/></g></g><g id="Logo"><path class="cls-3" d="m349.98,221.73l-99.97-102.08-99.98,102.08,49.99,51.04,49.99-51.04,49.99,51.04,49.99-51.04Z"/><path class="cls-4" d="m245.98,364.98c-4.97,0-9.25-.9-12.83-2.69-3.53-1.85-6.24-4.45-8.15-7.8-1.85-3.41-2.77-7.43-2.77-12.05v-39.35h11.44v39.7c0,3.7,1.04,6.62,3.12,8.75,2.14,2.14,5.2,3.21,9.19,3.21s7.02-1.07,9.1-3.21c2.14-2.14,3.21-5.06,3.21-8.75v-39.7h11.44v39.35c0,4.62-.95,8.64-2.86,12.05-1.85,3.35-4.56,5.95-8.15,7.8-3.52,1.79-7.77,2.69-12.74,2.69Z"/><path class="cls-4" d="m295.88,363.76v-60.67h26.35c3.81,0,7.14.66,9.97,1.99,2.83,1.33,5.03,3.21,6.59,5.63s2.34,5.29,2.34,8.58v1.04c0,3.64-.87,6.59-2.6,8.84-1.73,2.25-3.87,3.9-6.41,4.94v1.56c2.31.12,4.1.92,5.37,2.43,1.27,1.44,1.91,3.38,1.91,5.81v19.85h-11.44v-18.2c0-1.39-.38-2.51-1.13-3.38-.69-.87-1.88-1.3-3.55-1.3h-15.95v22.88h-11.44Zm11.44-33.28h13.69c2.72,0,4.83-.72,6.33-2.17,1.56-1.5,2.34-3.47,2.34-5.89v-.87c0-2.43-.75-4.36-2.25-5.81-1.5-1.5-3.64-2.25-6.41-2.25h-13.69v16.99Z"/><path class="cls-5" d="m158.08,365.19v-63.53h41.86v13.26h-27.56v11.62h25.14v13.26h-25.14v12.14h28.08v13.26h-42.38Zm74.42-1.63h-.01c-3.76-1.98-6.68-4.77-8.73-8.37h0s0-.03,0-.03c-1.98-3.66-2.95-7.91-2.95-12.73v-40.78h14.3v41.13c0,3.42.95,5.94,2.71,7.75,1.79,1.79,4.44,2.78,8.17,2.78s6.35-1,8.08-2.77h.01c1.81-1.83,2.79-4.35,2.79-7.76v-41.13h14.3v40.78c0,4.82-1,9.08-3.04,12.74-1.99,3.61-4.92,6.41-8.74,8.38h0c-3.77,1.92-8.25,2.85-13.39,2.85s-9.64-.93-13.47-2.84h-.01Zm34.37-9.07c1.91-3.41,2.86-7.43,2.86-12.05v-39.35h-11.44v39.7c0,3.7-1.07,6.62-3.21,8.75-2.08,2.14-5.11,3.21-9.1,3.21s-7.05-1.07-9.19-3.21c-2.08-2.14-3.12-5.06-3.12-8.75v-39.7h-11.44v39.35c0,4.62.92,8.64,2.77,12.05,1.91,3.35,4.62,5.95,8.15,7.8,3.58,1.79,7.86,2.69,12.83,2.69s9.22-.9,12.74-2.69c3.58-1.85,6.3-4.45,8.15-7.8Zm27.59,10.7v-63.53h27.78c3.98,0,7.52.69,10.57,2.13,3.05,1.43,5.46,3.48,7.18,6.15,1.73,2.69,2.57,5.83,2.57,9.35v1.04c0,3.87-.92,7.15-2.9,9.71-1.47,1.91-3.21,3.43-5.23,4.54,1.64.44,3.04,1.29,4.14,2.58,1.55,1.77,2.25,4.07,2.25,6.74v21.28h-14.3v-19.63c0-1.12-.3-1.89-.78-2.45l-.02-.02-.02-.02c-.31-.38-.97-.76-2.44-.76h-14.52v22.88h-14.3Zm12.87-24.31h15.95c1.68,0,2.86.43,3.55,1.3.75.87,1.13,1.99,1.13,3.38v18.2h11.44v-19.85c0-2.43-.64-4.36-1.91-5.81-1.27-1.5-3.06-2.31-5.37-2.43v-1.56c2.54-1.04,4.68-2.69,6.41-4.94,1.73-2.25,2.6-5.2,2.6-8.84v-1.04c0-3.29-.78-6.15-2.34-8.58s-3.76-4.3-6.59-5.63c-2.83-1.33-6.15-1.99-9.97-1.99h-26.35v60.67h11.44v-22.88Zm19.11-24.12h0c-1.16-1.17-2.89-1.85-5.4-1.85h-12.27v14.13h12.27c2.46,0,4.17-.65,5.34-1.77,1.25-1.2,1.9-2.77,1.9-4.86v-.87c0-2.11-.64-3.65-1.82-4.78h0Zm.91,11.55c-1.5,1.44-3.61,2.17-6.33,2.17h-13.69v-16.99h13.69c2.77,0,4.91.75,6.41,2.25,1.5,1.44,2.25,3.38,2.25,5.81v.87c0,2.43-.78,4.39-2.34,5.89Z"/></g></svg>