<?xml version="1.0" encoding="UTF-8"?><svg id="Layer_2" xmlns="http://www.w3.org/2000/svg" xmlns:xlink="http://www.w3.org/1999/xlink" viewBox="0 0 500 500"><defs><style>.cls-1{fill:url(#linear-gradient);}.cls-2{fill:#fff;}.cls-3{fill:#352b1c;}.cls-4{opacity:.5;}</style><linearGradient id="linear-gradient" x1="79.27" y1="57.18" x2="430.42" y2="453.75" gradientUnits="userSpaceOnUse"><stop offset="0" stop-color="#0095d7"/><stop offset="1" stop-color="#0072aa"/></linearGradient></defs><g id="Token"><path class="cls-3" d="m472.99,159.75h-5.15v-36.21c0-14.92-12.1-27.02-27.02-27.02h-5.15v-5.15c0-14.92-12.1-27.02-27.02-27.02h-5.16v-5.16c0-14.92-12.1-27.02-27.02-27.02h-36.21v-5.15c0-14.92-12.1-27.02-27.02-27.02h-126.47c-14.92,0-27.02,12.1-27.02,27.02v5.15h-36.21c-14.92,0-27.02,12.1-27.02,27.02v5.15h-5.15c-14.92,0-27.02,12.1-27.02,27.02h0v5.16h-5.16c-14.92,0-27.02,12.1-27.02,27.02v36.21h-5.15c-14.92,0-27.02,12.1-27.02,27.02h0v126.47c0,14.92,12.1,27.02,27.02,27.02h5.15v36.21c0,14.92,12.1,27.02,27.02,27.02h5.15v5.29c0,14.92,12.1,27.02,27.02,27.02h5.16v5.15c0,14.92,12.1,27.02,27.02,27.02h36.21v5c0,14.92,12.1,27.02,27.02,27.02h126.47c14.92,0,27.02-12.1,27.02-27.02v-5h36.21c14.92,0,27.02-12.1,27.02-27.02v-5.13h5.15c14.92,0,27.02-12.1,27.02-27.02h0v-5.3h5.15c14.92,0,27.02-12.1,27.02-27.02h0v-36.21h5.15c14.92,0,27.02-12.1,27.02-27.02h0v-126.47c0-14.92-12.09-27.02-27.01-27.02Z"/></g><g id="BrandColor"><polygon class="cls-1" points="27.02 186.77 27.02 313.25 59.19 313.25 59.19 376.48 91.36 376.48 91.36 408.79 123.53 408.79 123.53 440.96 186.77 440.96 186.77 472.99 313.24 472.99 313.24 440.96 376.48 440.96 376.48 408.79 408.65 408.79 408.65 376.62 440.82 376.62 440.82 313.25 472.99 313.25 472.99 186.77 440.82 186.77 440.82 123.53 408.65 123.53 408.65 91.36 376.48 91.36 376.48 59.19 313.24 59.19 313.24 27.02 186.77 27.02 186.77 59.19 123.53 59.19 123.53 91.36 91.36 91.36 91.36 123.53 59.19 123.53 59.19 186.76 27.02 186.77"/></g><g id="DecoFrame"><g class="cls-4"><rect class="cls-2" x="186.77" y="27.02" width="126.47" height="32.17"/><rect class="cls-2" x="313.24" y="59.19" width="63.24" height="32.17"/><rect class="cls-2" x="123.53" y="59.19" width="63.24" height="32.17"/><polygon class="cls-2" points="91.36 123.53 59.19 123.53 59.19 186.76 91.36 186.76 91.36 123.53 123.53 123.53 123.53 91.36 91.36 91.36 91.36 123.53"/><rect class="cls-2" x="27.02" y="186.76" width="32.17" height="126.49"/><rect class="cls-2" x="408.65" y="123.53" width="32.17" height="63.23"/><rect class="cls-2" x="440.82" y="186.76" width="32.17" height="126.49"/><rect class="cls-2" x="376.48" y="91.36" width="32.17" height="32.17"/><rect class="cls-2" x="186.77" y="440.82" width="126.47" height="32.17"/><rect class="cls-2" x="313.24" y="408.65" width="63.24" height="32.17"/><rect class="cls-2" x="123.53" y="408.65" width="63.24" height="32.17"/><polygon class="cls-2" points="91.36 376.48 91.36 408.65 123.53 408.65 123.53 376.48 91.36 376.48 91.36 313.25 59.19 313.25 59.19 376.48 91.36 376.48"/><rect class="cls-2" x="408.65" y="313.25" width="32.17" height="63.23"/><rect class="cls-2" x="376.48" y="376.48" width="32.17" height="32.17"/><polygon class="cls-2" points="415.6 119.69 415.6 119.64 413.09 119.64 413.09 119.69 415.6 119.69"/><rect class="cls-2" x="54.34" y="315.08" width="0" height="0"/><rect class="cls-2" x="84.4" y="380.31" width="2.51" height="0"/></g></g><g id="Logo"><path class="cls-2" d="m349.08,307.39l-23.56-13.56c-.33-.19-.7-.28-1.07-.29-.2,0-.39.03-.58.08-.55.16-1.02.53-1.3,1.04-2.02,3.71-4.54,7.13-7.48,10.16-3.96,4.1-8.51,7.59-13.48,10.37-4.81,2.67-9.96,4.65-15.32,5.88-5.03,1.19-10.19,1.81-15.36,1.84-9.12.08-18.12-2.05-26.23-6.22-7.79-4.03-14.69-9.57-20.31-16.31-2.74-3.31-5.18-6.85-7.28-10.6l-2.77-4.92h59.8c1.18,0,2.14-.96,2.14-2.14v-18.63c0-1.18-.96-2.14-2.14-2.14h-66.46l-.33-2.94c-.35-3.17-.53-6.36-.54-9.56,0-2.68.14-5.48.43-8.35l.3-2.98h66.59c1.18,0,2.14-.96,2.14-2.14v-18.63c0-1.18-.96-2.14-2.14-2.14h-60.44l2.56-4.85c1.81-3.44,3.9-6.72,6.25-9.82,5.32-6.95,12.05-12.69,19.76-16.83,7.95-4.34,17.38-6.55,28.03-6.55,5.06.02,10.1.59,15.03,1.68,5.16,1.15,10.16,2.97,14.85,5.41,8.79,4.68,16.1,11.71,21.1,20.32.3.51.8.88,1.38,1.01.15.03.3.05.46.05.44,0,.86-.13,1.22-.38l21.88-15.07c.93-.64,1.2-1.89.63-2.86-6.48-10.9-15.75-20.03-27.54-27.13-13.35-8.03-29.45-12.14-47.83-12.14-15.6,0-29.67,2.94-41.84,8.74-23.47,10.91-41.64,30.7-50.5,55.02-.07.18-.13.36-.19.54v.05c-.06.19-.12.37-.19.56l-.79,2.2h-46c-1.18,0-2.14.96-2.14,2.14v18.63c0,1.18.96,2.14,2.14,2.14h40.96l-.24,3.52c-.16,2.53-.24,4.65-.24,6.64,0,3.32.17,6.7.5,10.04l.36,3.63h-41.34c-1.18,0-2.14.96-2.14,2.14v18.63c0,1.18.96,2.14,2.14,2.14h47.23l.84,2.08c4.68,11.85,11.38,22.81,19.8,32.37,8.65,9.76,19.09,17.79,30.74,23.65,11.74,5.97,24.91,8.99,39.13,8.99,8.41-.04,16.78-1.09,24.94-3.12,8.32-2.01,16.36-5.06,23.93-9.07,7.31-3.87,14.04-8.76,19.99-14.5,4.53-4.37,8.35-9.43,11.3-14.99.54-1.02.18-2.28-.81-2.86Z"/></g></svg>