<?xml version="1.0" encoding="UTF-8"?><svg id="Layer_2" xmlns="http://www.w3.org/2000/svg" viewBox="0 0 500 500"><defs><style>.cls-1{fill:#fff;}.cls-2{fill:#1a1a1a;}.cls-3{fill:#352b1c;}</style></defs><g id="Token"><path class="cls-3" d="m472.99,159.75h-5.15v-36.21c0-14.92-12.1-27.02-27.02-27.02h-5.15v-5.15c0-14.92-12.1-27.02-27.02-27.02h-5.16v-5.16c0-14.92-12.1-27.02-27.02-27.02h-36.21v-5.15c0-14.92-12.1-27.02-27.02-27.02h-126.47c-14.92,0-27.02,12.1-27.02,27.02v5.15h-36.21c-14.92,0-27.02,12.1-27.02,27.02v5.15h-5.15c-14.92,0-27.02,12.1-27.02,27.02h0v5.16h-5.16c-14.92,0-27.02,12.1-27.02,27.02v36.21h-5.15c-14.92,0-27.02,12.1-27.02,27.02h0v126.47c0,14.92,12.1,27.02,27.02,27.02h5.15v36.21c0,14.92,12.1,27.02,27.02,27.02h5.15v5.29c0,14.92,12.1,27.02,27.02,27.02h5.16v5.15c0,14.92,12.1,27.02,27.02,27.02h36.21v5c0,14.92,12.1,27.02,27.02,27.02h126.47c14.92,0,27.02-12.1,27.02-27.02v-5h36.21c14.92,0,27.02-12.1,27.02-27.02v-5.13h5.15c14.92,0,27.02-12.1,27.02-27.02h0v-5.3h5.15c14.92,0,27.02-12.1,27.02-27.02h0v-36.21h5.15c14.92,0,27.02-12.1,27.02-27.02h0v-126.47c0-14.92-12.09-27.02-27.01-27.02Z"/></g><g id="BrandColor"><polygon points="27.02 186.77 27.02 313.25 59.19 313.25 59.19 376.48 91.36 376.48 91.36 408.79 123.53 408.79 123.53 440.96 186.77 440.96 186.77 472.99 313.24 472.99 313.24 440.96 376.48 440.96 376.48 408.79 408.65 408.79 408.65 376.62 440.82 376.62 440.82 313.25 472.99 313.25 472.99 186.77 440.82 186.77 440.82 123.53 408.65 123.53 408.65 91.36 376.48 91.36 376.48 59.19 313.24 59.19 313.24 27.02 186.77 27.02 186.77 59.19 123.53 59.19 123.53 91.36 91.36 91.36 91.36 123.53 59.19 123.53 59.19 186.76 27.02 186.77"/></g><g id="DecoFrame"><rect class="cls-2" x="186.77" y="27.02" width="126.47" height="32.17"/><rect class="cls-2" x="313.24" y="59.19" width="63.24" height="32.17"/><rect class="cls-2" x="123.53" y="59.19" width="63.24" height="32.17"/><polygon class="cls-2" points="91.36 123.53 59.19 123.53 59.19 186.76 91.36 186.76 91.36 123.53 123.53 123.53 123.53 91.36 91.36 91.36 91.36 123.53"/><rect class="cls-2" x="27.02" y="186.76" width="32.17" height="126.49"/><rect class="cls-2" x="408.65" y="123.53" width="32.17" height="63.23"/><rect class="cls-2" x="440.82" y="186.76" width="32.17" height="126.49"/><rect class="cls-2" x="376.48" y="91.36" width="32.17" height="32.17"/><rect class="cls-2" x="186.77" y="440.82" width="126.47" height="32.17"/><rect class="cls-2" x="313.24" y="408.65" width="63.24" height="32.17"/><rect class="cls-2" x="123.53" y="408.65" width="63.24" height="32.17"/><polygon class="cls-2" points="91.36 376.48 91.36 408.65 123.53 408.65 123.53 376.48 91.36 376.48 91.36 313.25 59.19 313.25 59.19 376.48 91.36 376.48"/><rect class="cls-2" x="408.65" y="313.25" width="32.17" height="63.23"/><rect class="cls-2" x="376.48" y="376.48" width="32.17" height="32.17"/><polygon class="cls-2" points="415.6 119.69 415.6 119.64 413.09 119.64 413.09 119.69 415.6 119.69"/><rect class="cls-2" x="54.34" y="315.08" width="0" height="0"/><rect class="cls-2" x="84.4" y="380.31" width="2.51" height="0"/></g><g id="Logo"><path class="cls-1" d="m250.93,100.03c15.34,25.45,30.67,50.89,46.04,76.39,17.59-10.61,35.12-21.18,52.74-31.8,5.93,9.82,11.84,19.62,17.8,29.48-17.58,10.6-35.13,21.19-52.77,31.82,9.21,15.28,18.38,30.49,27.65,45.88-.37-.09-.55-.11-.7-.17-8.26-3.76-16.51-7.54-24.77-11.29-11.21-5.1-22.42-10.19-33.64-15.28-10.62-4.82-21.24-9.64-31.86-14.44-.53-.24-.77-.52-.77-1.16.02-36.21.02-72.42.02-108.63,0-.23.03-.46.04-.69.07-.03.14-.05.22-.08h0Zm-92.88,151.58c.2-.06.41-.11.59-.19,4.26-1.95,8.51-3.91,12.78-5.85,6.47-2.95,12.94-5.87,19.41-8.81,9.55-4.34,19.09-8.68,28.64-13.01,9.77-4.44,19.53-8.88,29.31-13.3.57-.25.74-.56.74-1.16-.01-36.16-.01-72.31-.01-108.48,0-.23-.03-.46-.04-.7-.08-.03-.16-.07-.25-.11-15.36,25.48-30.71,50.95-46.1,76.47-17.64-10.64-35.22-21.23-52.83-31.86-5.95,9.85-11.86,19.64-17.8,29.48,17.66,10.65,35.24,21.25,52.86,31.88-9.17,15.22-18.3,30.36-27.43,45.51.04.05.08.09.12.14h0Zm183.45,19.98c-.3.14-.61.27-.9.44-9.84,5.81-19.67,11.62-29.51,17.43-9.57,5.66-19.15,11.34-28.72,17-10.37,6.13-20.76,12.26-31.14,18.37-.54.32-.74.66-.74,1.29.03,7.32.02,14.64.02,21.96v51.8c.06.03.13.06.19.09,14.63-20.61,29.26-41.22,43.9-61.85,13.18,9.34,26.25,18.61,39.36,27.9,5.21-7.31,10.35-14.53,15.55-21.81-13.14-9.32-26.24-18.61-39.39-27.93,10.54-14.87,21.06-29.69,31.57-44.51-.05-.06-.11-.13-.16-.19h0Zm-92.34,128.4c.09-.04.18-.08.27-.12-.03-.53-.08-1.06-.08-1.59v-50.38c0-7.26,0-14.53.01-21.79,0-.58-.14-.95-.68-1.24-.96-.51-1.88-1.11-2.82-1.66-10.73-6.33-21.46-12.66-32.19-18.99-8.69-5.13-17.37-10.27-26.05-15.41-9.41-5.56-18.82-11.13-28.23-16.69-.33-.2-.69-.35-1.04-.53l-.17.2c10.53,14.84,21.05,29.68,31.62,44.59-13.13,9.31-26.2,18.58-39.28,27.85,5.22,7.32,10.36,14.54,15.55,21.81,13.1-9.29,26.16-18.55,39.24-27.82,14.65,20.65,29.25,41.21,43.85,61.78h0Zm-.38-188.58c-5.76,2.61-11.51,5.22-17.27,7.84-12.18,5.54-24.36,11.09-36.54,16.63-12.16,5.53-24.32,11.05-36.47,16.57-.21.09-.37.27-.56.41.17.16.31.35.51.46,10.02,5.94,20.04,11.87,30.06,17.8,10.59,6.26,21.18,12.51,31.77,18.77,9.51,5.62,19.01,11.24,28.53,16.86.22.13.48.16.77.26v-95.91c-.36.14-.58.22-.8.32h0Zm1.8,95.72c30.61-18.09,61.1-36.12,91.8-54.26-30.74-13.97-61.23-27.83-91.8-41.72v95.99Z"/></g></svg>