<?xml version="1.0" encoding="UTF-8"?><svg xmlns="http://www.w3.org/2000/svg" viewBox="0 0 500 500"><defs><style>.i{fill:#00a3ff;}.j{fill:#fff;}.k{fill:#999;}.l,.m{fill:#99daff;}.n{fill:#352b1c;}.m,.o{mix-blend-mode:multiply;}.p{opacity:.3;}.q{opacity:.8;}.r{isolation:isolate;}</style></defs><g class="r"><g id="a"><g id="b"><path class="n" d="M472.99,159.76h-5.15v-36.21c0-14.92-12.1-27.02-27.02-27.02h-5.15v-5.15c0-14.92-12.1-27.02-27.02-27.02h-5.16v-5.16c0-14.92-12.1-27.02-27.02-27.02h-36.21v-5.15C340.26,12.11,328.16,0,313.24,0h-126.47c-14.92,0-27.02,12.1-27.02,27.02v5.15h-36.21c-14.92,0-27.02,12.1-27.02,27.02v5.15h-5.15c-14.92,0-27.02,12.1-27.02,27.02h0v5.16h-5.16c-14.92,0-27.02,12.1-27.02,27.02v36.21h-5.15C12.1,159.76,0,171.86,0,186.78H0v126.47C0,328.17,12.1,340.27,27.02,340.27h5.15v36.21c0,14.92,12.1,27.02,27.02,27.02h5.15v5.29c0,14.92,12.1,27.02,27.02,27.02h5.16v5.15c0,14.92,12.1,27.02,27.02,27.02h36.21v5c0,14.92,12.1,27.02,27.02,27.02h126.47c14.92,0,27.02-12.1,27.02-27.02v-5h36.21c14.92,0,27.02-12.1,27.02-27.02v-5.13h5.15c14.92,0,27.02-12.1,27.02-27.02h0v-5.3h5.15c14.92,0,27.02-12.1,27.02-27.02h0v-36.21h5.15c14.92,0,27.02-12.1,27.02-27.02h0v-126.47c0-14.92-12.09-27.02-27.01-27.02h0Z"/></g></g><g id="c"><g id="d"><polygon class="i" points="27.02 186.77 27.02 313.25 59.19 313.25 59.19 376.48 91.36 376.48 91.36 408.79 123.53 408.79 123.53 440.95 186.77 440.95 186.77 472.98 313.23 472.98 313.23 440.95 376.48 440.95 376.48 408.79 408.64 408.79 408.64 376.61 440.82 376.61 440.82 313.25 472.98 313.25 472.98 186.77 440.82 186.77 440.82 123.53 408.64 123.53 408.64 91.36 376.48 91.36 376.48 59.19 313.23 59.19 313.23 27.02 186.77 27.02 186.77 59.19 123.53 59.19 123.53 91.36 91.36 91.36 91.36 123.53 59.19 123.53 59.19 186.75 27.02 186.77"/></g><g><path class="j" d="M166.35,223.31l.46,.27h-.46c-10.3,15.72-16.3,34.51-16.3,54.71,0,55.19,44.75,99.94,99.94,99.94v-106.85l-83.65-48.06Z"/><path class="j" d="M333.84,223.57h-.46l.46-.27-83.84,48.17h0v107.09h0c55.32,0,100.17-44.85,100.17-100.17,0-20.24-6.01-39.08-16.33-54.83Z"/><polygon class="l" points="250 378.36 166.35 223.45 250 271.51 333.65 223.45 250 378.36"/><polygon class="j" points="250 245.75 250 98.36 321.2 205.06 250 245.75"/><polygon class="j" points="250 98.36 250 245.75 178.8 205.06 250 98.36"/><polygon class="l" points="178.8 205.06 250 245.75 321.2 205.06 250 163.49 178.8 205.06"/><g class="q"><path class="m" d="M333.84,223.57h-.46l.46-.27-83.84,48.17h0v107.09h0c55.32,0,100.17-44.85,100.17-100.17,0-20.24-6.01-39.08-16.33-54.83Z"/><polygon class="m" points="250 245.75 250 98.36 321.2 205.06 250 245.75"/></g></g></g><g id="e"><g id="f" class="o"><g class="p"><rect class="k" x="186.77" y="27.02" width="126.47" height="32.17"/><rect class="k" x="313.23" y="59.19" width="63.24" height="32.17"/><rect class="k" x="123.53" y="59.19" width="63.24" height="32.17"/><polygon class="k" points="91.36 123.53 59.19 123.53 59.19 186.75 91.36 186.75 91.36 123.53 123.53 123.53 123.53 91.36 91.36 91.36 91.36 123.53"/><rect class="k" x="27.02" y="186.75" width="32.17" height="126.49"/><rect class="k" x="408.64" y="123.53" width="32.17" height="63.23"/><rect class="k" x="440.82" y="186.75" width="32.17" height="126.49"/><rect class="k" x="376.48" y="91.36" width="32.17" height="32.17"/><rect class="k" x="186.77" y="440.82" width="126.47" height="32.17"/><rect class="k" x="313.23" y="408.64" width="63.24" height="32.17"/><rect class="k" x="123.53" y="408.64" width="63.24" height="32.17"/><polygon class="k" points="91.36 376.48 91.36 408.64 123.53 408.64 123.53 376.48 91.36 376.48 91.36 313.25 59.19 313.25 59.19 376.48 91.36 376.48"/><rect class="k" x="408.64" y="313.25" width="32.17" height="63.23"/><rect class="k" x="376.48" y="376.48" width="32.17" height="32.17"/><polygon class="k" points="415.6 119.69 415.6 119.64 413.09 119.64 413.09 119.69 415.6 119.69"/></g></g></g><g id="g"/><g id="h"/></g></svg>
