<?xml version="1.0" encoding="UTF-8"?><svg id="Layer_2" xmlns="http://www.w3.org/2000/svg" xmlns:xlink="http://www.w3.org/1999/xlink" viewBox="0 0 500 500"><defs><style>.cls-1{fill:none;}.cls-2{clip-path:url(#clippath);}.cls-3{fill:#fff;}.cls-4,.cls-5{fill:#9465b9;}.cls-6{fill:#b7b7b7;}.cls-7{fill:#939090;}.cls-8{fill:#b1b1b1;}.cls-9{fill:#352b1c;}.cls-10{opacity:.5;}.cls-5{fill-rule:evenodd;}</style><clipPath id="clippath"><rect class="cls-1" x="167.2" y="167.2" width="165.6" height="165.6"/></clipPath></defs><g id="Token"><path class="cls-9" d="m472.99,159.75h-5.15v-36.21c0-14.92-12.1-27.02-27.02-27.02h-5.15v-5.15c0-14.92-12.1-27.02-27.02-27.02h-5.16v-5.16c0-14.92-12.1-27.02-27.02-27.02h-36.21v-5.15c0-14.92-12.1-27.02-27.02-27.02h-126.47c-14.92,0-27.02,12.1-27.02,27.02v5.15h-36.21c-14.92,0-27.02,12.1-27.02,27.02v5.15h-5.15c-14.92,0-27.02,12.1-27.02,27.02h0v5.16h-5.16c-14.92,0-27.02,12.1-27.02,27.02v36.21h-5.15c-14.92,0-27.02,12.1-27.02,27.02h0v126.47c0,14.92,12.1,27.02,27.02,27.02h5.15v36.21c0,14.92,12.1,27.02,27.02,27.02h5.15v5.29c0,14.92,12.1,27.02,27.02,27.02h5.16v5.15c0,14.92,12.1,27.02,27.02,27.02h36.21v5c0,14.92,12.1,27.02,27.02,27.02h126.47c14.92,0,27.02-12.1,27.02-27.02v-5h36.21c14.92,0,27.02-12.1,27.02-27.02v-5.13h5.15c14.92,0,27.02-12.1,27.02-27.02h0v-5.3h5.15c14.92,0,27.02-12.1,27.02-27.02h0v-36.21h5.15c14.92,0,27.02-12.1,27.02-27.02h0v-126.47c0-14.92-12.09-27.02-27.01-27.02Z"/></g><g id="BrandColor"><polygon class="cls-4" points="27.02 186.77 27.02 313.25 59.19 313.25 59.19 376.48 91.36 376.48 91.36 408.79 123.53 408.79 123.53 440.96 186.77 440.96 186.77 472.99 313.24 472.99 313.24 440.96 376.48 440.96 376.48 408.79 408.65 408.79 408.65 376.62 440.82 376.62 440.82 313.25 472.99 313.25 472.99 186.77 440.82 186.77 440.82 123.53 408.65 123.53 408.65 91.36 376.48 91.36 376.48 59.19 313.24 59.19 313.24 27.02 186.77 27.02 186.77 59.19 123.53 59.19 123.53 91.36 91.36 91.36 91.36 123.53 59.19 123.53 59.19 186.76 27.02 186.77"/><circle class="cls-3" cx="248.92" cy="250" r="157.38"/><path class="cls-5" d="m415.6,250c0,91.46-74.15,165.6-165.6,165.6s-165.6-74.15-165.6-165.6S158.54,84.4,250,84.4s165.6,74.15,165.6,165.6Zm-94.62,129.51l58.55-58.55-27.86-27.87c-11.17,26.31-32.24,47.4-58.55,58.56l27.86,27.86Zm-106.4-24.92c-27.32-9.24-49.84-28.9-62.85-54.23l-22.57,22.56,58.55,58.55,26.88-26.88Zm-66.24-147.72c11.17-26.31,32.26-47.38,58.55-58.55l-22.53-22.53-58.55,58.55,22.53,22.53Zm152.02-55.14l23.96-23.98,58.55,58.55-28.28,28.28c-9.24-27.32-28.9-49.84-54.23-62.85Z"/><g class="cls-2"><path class="cls-6" d="m250.03,167.2l-1.11,3.77v109.5l1.11,1.11,50.82-30.04-50.82-84.33Z"/><path class="cls-3" d="m250.02,167.2l-50.82,84.33,50.82,30.04v-114.37Z"/><path class="cls-7" d="m250.02,291.2l-.62.77v39l.62,1.83,50.87-71.62-50.87,30.02Z"/><path class="cls-3" d="m250.02,332.8v-41.6l-50.82-30.02,50.82,71.62Z"/><path class="cls-7" d="m250.03,281.57l50.82-30.04-50.82-23.1v53.14Z"/><path class="cls-8" d="m199.2,251.53l50.82,30.04v-53.14l-50.82,23.1Z"/></g></g><g id="DecoFrame"><g class="cls-10"><rect class="cls-3" x="186.77" y="27.02" width="126.47" height="32.17"/><rect class="cls-3" x="313.24" y="59.19" width="63.24" height="32.17"/><rect class="cls-3" x="123.53" y="59.19" width="63.24" height="32.17"/><polygon class="cls-3" points="91.36 123.53 59.19 123.53 59.19 186.76 91.36 186.76 91.36 123.53 123.53 123.53 123.53 91.36 91.36 91.36 91.36 123.53"/><rect class="cls-3" x="27.02" y="186.76" width="32.17" height="126.49"/><rect class="cls-3" x="408.65" y="123.53" width="32.17" height="63.23"/><rect class="cls-3" x="440.82" y="186.76" width="32.17" height="126.49"/><rect class="cls-3" x="376.48" y="91.36" width="32.17" height="32.17"/><rect class="cls-3" x="186.77" y="440.82" width="126.47" height="32.17"/><rect class="cls-3" x="313.24" y="408.65" width="63.24" height="32.17"/><rect class="cls-3" x="123.53" y="408.65" width="63.24" height="32.17"/><polygon class="cls-3" points="91.36 376.48 91.36 408.65 123.53 408.65 123.53 376.48 91.36 376.48 91.36 313.25 59.19 313.25 59.19 376.48 91.36 376.48"/><rect class="cls-3" x="408.65" y="313.25" width="32.17" height="63.23"/><rect class="cls-3" x="376.48" y="376.48" width="32.17" height="32.17"/><polygon class="cls-3" points="415.6 119.69 415.6 119.64 413.09 119.64 413.09 119.69 415.6 119.69"/><rect class="cls-3" x="54.34" y="315.08" width="0" height="0"/><rect class="cls-3" x="84.4" y="380.31" width="2.51" height="0"/></g></g></svg>