<svg width="15" height="15" viewBox="0 0 15 15" fill="none" xmlns="http://www.w3.org/2000/svg">
<g clip-path="url(#clip0_2751_125101)">
<path d="M5.51992 1.96904C5.43331 1.96907 5.35011 1.93524 5.28809 1.87477C5.22608 1.81431 5.19015 1.732 5.18799 1.64541V0.667869C5.18796 0.581255 5.22179 0.49806 5.28226 0.436044C5.34272 0.374028 5.42503 0.338103 5.51162 0.335938H6.49082C6.57741 0.338103 6.65972 0.374028 6.72019 0.436044C6.78065 0.49806 6.81448 0.581255 6.81445 0.667869V1.64541C6.81367 1.7311 6.77977 1.81317 6.71985 1.87444C6.69001 1.90493 6.65438 1.92915 6.61505 1.94568C6.57572 1.96221 6.53348 1.97072 6.49082 1.9707L5.51992 1.96904Z" fill="#352B1C"/>
<path d="M6.49434 0.663965V1.6415H5.5168V0.663965H6.49434V0.663965ZM6.49434 0.0150381H5.5168C5.34454 0.0150375 5.17931 0.0833534 5.05735 0.205003C4.93539 0.326653 4.86665 0.491706 4.86621 0.663965V1.6415C4.86752 1.81305 4.93636 1.97718 5.05782 2.09833C5.17928 2.21948 5.34359 2.2879 5.51514 2.28877V2.28877H6.49268C6.66493 2.28789 6.82981 2.21873 6.95115 2.09646C7.07249 1.97419 7.14039 1.80879 7.13994 1.63653L7.13662 0.663965C7.13751 0.492429 7.07044 0.32752 6.95008 0.205294C6.82972 0.0830689 6.66587 0.0134713 6.49434 0.0117188V0.0150381Z" fill="#352B1C"/>
<path d="M6.49746 1.96318C6.41229 1.96108 6.33119 1.92631 6.27095 1.86606C6.2107 1.80582 6.17593 1.72472 6.17383 1.63955V0.66201C6.1738 0.575395 6.20763 0.492201 6.2681 0.430185C6.32856 0.368168 6.41087 0.332243 6.49746 0.330078L7.46836 0.331738C7.5564 0.331738 7.64082 0.366709 7.70307 0.428958C7.76532 0.491208 7.80029 0.575636 7.80029 0.66367V1.64121C7.80029 1.72924 7.76532 1.81367 7.70307 1.87592C7.64082 1.93817 7.5564 1.97314 7.46836 1.97314L6.49746 1.96318Z" fill="#352B1C"/>
<path d="M7.46869 0.664036V1.64158H6.49115V0.664036H7.46869ZM7.46869 0.000172414H6.49115C6.40487 0.000594659 6.31953 0.0181769 6.2401 0.0518955C6.16068 0.0856142 6.08875 0.134796 6.02852 0.196577C5.96828 0.258358 5.92094 0.331504 5.88924 0.411757C5.85754 0.492011 5.84212 0.577768 5.84389 0.664036V1.64158C5.84433 1.81339 5.91289 1.97802 6.03454 2.09936C6.15619 2.2207 6.32099 2.28884 6.49281 2.28884V2.28884H7.47035C7.55726 2.29017 7.64356 2.27412 7.72418 2.24162C7.80479 2.20913 7.8781 2.16085 7.93979 2.09962C8.00149 2.03839 8.05032 1.96545 8.08342 1.88508C8.11652 1.80471 8.13323 1.71853 8.13256 1.63162V0.654078C8.13325 0.56717 8.11647 0.481009 8.08323 0.400708C8.04998 0.320406 8.00095 0.247601 7.93903 0.186612C7.87711 0.125623 7.80357 0.0776931 7.72278 0.0456665C7.64198 0.0136399 7.55558 -0.00183083 7.46869 0.000172414V0.000172414Z" fill="#352B1C"/>
<path d="M7.46865 1.96182C7.38062 1.96182 7.29619 1.92685 7.23394 1.8646C7.17169 1.80236 7.13672 1.71793 7.13672 1.62989V0.652354C7.13672 0.56432 7.17169 0.479892 7.23394 0.417642C7.29619 0.355393 7.38062 0.320422 7.46865 0.320422H8.44785C8.49175 0.319281 8.53543 0.327087 8.57621 0.343364C8.617 0.359641 8.65405 0.38405 8.6851 0.415103C8.71616 0.446156 8.74056 0.483204 8.75684 0.523991C8.77312 0.564779 8.78092 0.608453 8.77978 0.652354V1.62989C8.77978 1.71793 8.74481 1.80236 8.68256 1.8646C8.62031 1.92685 8.53588 1.96182 8.44785 1.96182H7.46865Z" fill="#352B1C"/>
<path d="M8.44748 0.653906V1.63145L7.46828 1.63642V0.663864H8.44582L8.44748 0.653906ZM8.44748 0L7.46828 0.0082983C7.38256 0.00851445 7.29774 0.0256672 7.21867 0.0587709C7.1396 0.0918747 7.06786 0.140277 7.00755 0.201196C6.94725 0.262115 6.89958 0.33435 6.86728 0.413749C6.83499 0.493149 6.8187 0.578149 6.81936 0.663864V1.6414C6.82067 1.81265 6.88962 1.97643 7.01117 2.09705C7.13273 2.21767 7.29703 2.28536 7.46828 2.28535V2.28535H8.44582C8.53126 2.28492 8.61577 2.26766 8.69454 2.23456C8.7733 2.20146 8.84478 2.15317 8.90489 2.09245C8.96499 2.03173 9.01255 1.95977 9.04484 1.88067C9.07713 1.80157 9.09353 1.71688 9.09309 1.63145V0.653906C9.09374 0.568548 9.07755 0.4839 9.04544 0.404809C9.01333 0.325719 8.96593 0.25374 8.90596 0.192997C8.84599 0.132254 8.77462 0.0839402 8.69595 0.0508224C8.61727 0.0177047 8.53284 0.000434104 8.44748 0V0Z" fill="#352B1C"/>
<path d="M8.45107 1.95732C8.36446 1.95735 8.28126 1.92352 8.21925 1.86306C8.15723 1.80259 8.12131 1.72028 8.11914 1.63369V0.656151C8.11914 0.568117 8.15411 0.483689 8.21636 0.421439C8.27861 0.35919 8.36304 0.324219 8.45107 0.324219H9.43027C9.51831 0.324219 9.60274 0.35919 9.66498 0.421439C9.72723 0.483689 9.76221 0.568117 9.76221 0.656151V1.63369C9.76221 1.72172 9.72723 1.80615 9.66498 1.8684C9.60274 1.93065 9.51831 1.96562 9.43027 1.96562L8.45107 1.95732Z" fill="#352B1C"/>
<path d="M9.42527 0.650586V1.62813H8.44773V0.650586H9.42527V0.650586ZM9.42527 4.49881e-09L8.44441 4.49881e-09C8.35834 0.000637547 8.27326 0.0183913 8.19412 0.0522276C8.11497 0.0860639 8.04335 0.135307 7.98343 0.197089C7.9235 0.258871 7.87646 0.331957 7.84505 0.412094C7.81364 0.49223 7.79848 0.577814 7.80047 0.663864V1.6414C7.8009 1.81322 7.86947 1.97785 7.99112 2.09919C8.11277 2.22053 8.27757 2.28867 8.44939 2.28867V2.28867H9.42693C9.59919 2.28779 9.76407 2.21863 9.88541 2.09636C10.0067 1.97409 10.0746 1.80868 10.0742 1.63642V0.658885C10.0755 0.572832 10.0597 0.487376 10.0277 0.407492C9.99567 0.327608 9.94808 0.25489 9.88769 0.193573C9.8273 0.132256 9.75531 0.0835642 9.67593 0.0503316C9.59654 0.0170991 9.51133 -1.0129e-05 9.42527 4.49881e-09V4.49881e-09Z" fill="#352B1C"/>
<path d="M5.57461 14.6744C5.48827 14.6745 5.40532 14.6409 5.34335 14.5807C5.28138 14.5206 5.24527 14.4387 5.24268 14.3524V13.3749C5.24268 13.2869 5.27765 13.2024 5.3399 13.1402C5.40215 13.0779 5.48657 13.043 5.57461 13.043H6.55381C6.64184 13.043 6.72627 13.0779 6.78852 13.1402C6.85077 13.2024 6.88574 13.2869 6.88574 13.3749V14.3524C6.88577 14.4391 6.85194 14.5222 6.79147 14.5843C6.731 14.6463 6.64869 14.6822 6.5621 14.6844L5.57461 14.6744Z" fill="#352B1C"/>
<path d="M6.54912 13.3677V14.3452H5.57158V13.3677H6.54912ZM6.54912 12.7188H5.57158C5.39946 12.7201 5.23484 12.7894 5.11359 12.9115C4.99235 13.0337 4.92431 13.1989 4.92432 13.371V14.3485C4.92476 14.5204 4.99332 14.685 5.11497 14.8063C5.23662 14.9277 5.40142 14.9958 5.57324 14.9958V14.9958H6.55078C6.72321 14.9938 6.88809 14.9247 7.01051 14.8033C7.07061 14.7425 7.11812 14.6705 7.1503 14.5913C7.18249 14.5121 7.19871 14.4274 7.19805 14.3419V13.3644C7.19674 13.1927 7.12761 13.0285 7.00575 12.9075C6.88388 12.7866 6.71915 12.7187 6.54746 12.7188H6.54912Z" fill="#352B1C"/>
<path d="M6.55215 14.6707C6.46556 14.6685 6.38325 14.6326 6.32278 14.5706C6.26232 14.5086 6.22849 14.4254 6.22852 14.3388V13.3612C6.22852 13.2732 6.26349 13.1888 6.32574 13.1265C6.38799 13.0643 6.47241 13.0293 6.56045 13.0293H7.53965C7.62768 13.0293 7.71211 13.0643 7.77436 13.1265C7.83661 13.1888 7.87158 13.2732 7.87158 13.3612V14.3388C7.87161 14.4254 7.83778 14.5086 7.77731 14.5706C7.71684 14.6326 7.63453 14.6685 7.54795 14.6707H6.55215Z" fill="#352B1C"/>
<path d="M7.52666 13.3654V14.343H6.54912V13.3654H7.52666ZM7.52666 12.7148H6.54912C6.37718 12.7153 6.21243 12.7839 6.09106 12.9057C5.97043 13.0291 5.90257 13.1946 5.90186 13.3671V14.3446C5.90273 14.5163 5.97143 14.6807 6.09299 14.8019C6.21454 14.9232 6.3791 14.9915 6.55078 14.9919H7.52832C7.61368 14.9917 7.69816 14.9746 7.77691 14.9417C7.85567 14.9088 7.92716 14.8607 7.98729 14.8001C8.04741 14.7395 8.09499 14.6676 8.1273 14.5886C8.15962 14.5096 8.17602 14.425 8.17559 14.3396V13.3621C8.17515 13.1903 8.10659 13.0257 7.98494 12.9043C7.86329 12.783 7.69848 12.7148 7.52666 12.7148Z" fill="#352B1C"/>
<path d="M7.52822 14.6683C7.44161 14.6683 7.35841 14.6345 7.2964 14.574C7.23438 14.5135 7.19845 14.4312 7.19629 14.3446V13.3671C7.19626 13.2805 7.23009 13.1973 7.29056 13.1353C7.35102 13.0732 7.43334 13.0373 7.51992 13.0352H8.49912C8.58716 13.0352 8.67158 13.0701 8.73383 13.1324C8.79608 13.1946 8.83105 13.2791 8.83105 13.3671V14.3446C8.83105 14.4327 8.79608 14.5171 8.73383 14.5793C8.67158 14.6416 8.58716 14.6766 8.49912 14.6766L7.52822 14.6683Z" fill="#352B1C"/>
<path d="M8.50225 13.3615V14.3391H7.52471V13.3615H8.50225ZM8.50225 12.7109H7.52471C7.35245 12.7118 7.18757 12.781 7.06624 12.9032C6.9449 13.0255 6.877 13.1909 6.87744 13.3632V14.3407C6.87788 14.5125 6.94645 14.6772 7.0681 14.7985C7.18975 14.9199 7.35455 14.988 7.52637 14.988V14.988H8.50391C8.58927 14.9878 8.67375 14.9707 8.7525 14.9378C8.83126 14.9049 8.90275 14.8568 8.96287 14.7962C9.023 14.7356 9.07058 14.6637 9.10289 14.5847C9.13521 14.5057 9.15161 14.4211 9.15118 14.3357V13.3582C9.15074 13.1864 9.08218 13.0218 8.96053 12.9004C8.83888 12.7791 8.67407 12.7109 8.50225 12.7109V12.7109Z" fill="#352B1C"/>
<path d="M8.50576 14.6657C8.41773 14.6657 8.3333 14.6308 8.27105 14.5685C8.2088 14.5063 8.17383 14.4218 8.17383 14.3338V13.3563C8.17418 13.27 8.20811 13.1872 8.26843 13.1256C8.29827 13.0951 8.3339 13.0708 8.37323 13.0543C8.41256 13.0378 8.4548 13.0293 8.49746 13.0293H9.47666C9.563 13.0293 9.64595 13.0629 9.70792 13.123C9.76989 13.1831 9.806 13.265 9.80859 13.3513V14.3288C9.80824 14.4151 9.77431 14.4978 9.71399 14.5595C9.68415 14.59 9.64852 14.6142 9.60919 14.6307C9.56986 14.6473 9.52762 14.6558 9.48496 14.6558L8.50576 14.6657Z" fill="#352B1C"/>
<path d="M9.47979 13.3579V14.3355H8.50226V13.3579H9.47979ZM9.47979 12.709H8.50226C8.41682 12.7094 8.3323 12.7267 8.25354 12.7598C8.17477 12.7929 8.1033 12.8412 8.04319 12.9019C7.98309 12.9626 7.93553 13.0346 7.90324 13.1137C7.87095 13.1928 7.85455 13.2775 7.85499 13.3629V14.3404C7.85587 14.512 7.92462 14.6762 8.04622 14.7971C8.16783 14.9181 8.33238 14.986 8.50392 14.986V14.986H9.48145C9.65371 14.9852 9.81859 14.916 9.93993 14.7937C10.0613 14.6715 10.1292 14.5061 10.1287 14.3338V13.3563C10.1283 13.1844 10.0597 13.0198 9.93807 12.8985C9.81642 12.7771 9.65161 12.709 9.47979 12.709V12.709Z" fill="#352B1C"/>
<path d="M4.54726 2.94951C4.50407 2.95062 4.46109 2.94307 4.42086 2.9273C4.38064 2.91153 4.34397 2.88787 4.31304 2.85771C4.2821 2.82754 4.25752 2.79149 4.24074 2.75167C4.22396 2.71186 4.21532 2.66908 4.21533 2.62588V1.64834C4.2153 1.56172 4.24914 1.47853 4.3096 1.41651C4.37007 1.3545 4.45238 1.31857 4.53897 1.31641H5.51816C5.6062 1.31641 5.69063 1.35138 5.75288 1.41363C5.81513 1.47588 5.8501 1.5603 5.8501 1.64834V2.62588C5.8501 2.71391 5.81513 2.79834 5.75288 2.86059C5.69063 2.92284 5.6062 2.95781 5.51816 2.95781L4.54726 2.94951Z" fill="#352B1C"/>
<path d="M5.52003 1.64307V2.62061H4.54249V1.64473H5.52003V1.64307ZM5.52003 0.994141L4.54083 0.9958C4.45547 0.996018 4.37099 1.01307 4.29224 1.04599C4.21348 1.07891 4.14199 1.12704 4.08187 1.18763C4.02174 1.24821 3.97416 1.32007 3.94185 1.39908C3.90953 1.47808 3.89313 1.56269 3.89356 1.64805V2.62559C3.89444 2.79756 3.96337 2.96218 4.08529 3.08348C4.2072 3.20477 4.37218 3.27286 4.54415 3.27285H5.52169C5.60705 3.27242 5.69148 3.25515 5.77016 3.22203C5.84883 3.18891 5.9202 3.1406 5.98017 3.07986C6.04014 3.01911 6.08754 2.94713 6.11965 2.86804C6.15176 2.78895 6.16795 2.7043 6.16729 2.61895V1.64141C6.16556 1.47043 6.09676 1.30698 5.9757 1.18623C5.85464 1.06548 5.69101 0.997097 5.52003 0.9958V0.994141Z" fill="#352B1C"/>
<path d="M3.56972 2.95401C3.48169 2.95401 3.39726 2.91904 3.33501 2.85679C3.27276 2.79454 3.23779 2.71011 3.23779 2.62208V1.64454C3.23775 1.55821 3.27136 1.47525 3.33147 1.41328C3.39158 1.35131 3.47347 1.3152 3.55977 1.31261H4.53896C4.58287 1.31147 4.62654 1.31927 4.66733 1.33555C4.70811 1.35183 4.74516 1.37624 4.77622 1.40729C4.80727 1.43834 4.83168 1.47539 4.84795 1.51618C4.86423 1.55697 4.87204 1.60064 4.8709 1.64454V2.62208C4.87092 2.7087 4.83709 2.79189 4.77663 2.85391C4.71616 2.91592 4.63385 2.95185 4.54726 2.95401H3.56972Z" fill="#352B1C"/>
<path d="M4.54256 1.64834V2.62422H3.56502V1.64668H4.54256V1.64834ZM4.54256 0.996094H3.56336C3.39022 0.999448 3.22525 1.07032 3.10363 1.19359C3.04293 1.25495 2.99508 1.3278 2.96287 1.40788C2.93067 1.48796 2.91477 1.57366 2.91609 1.65996V2.6375C2.91697 2.80947 2.9859 2.9741 3.10781 3.09539C3.22973 3.21668 3.39471 3.28477 3.56668 3.28476H4.54422C4.6295 3.28452 4.71389 3.26738 4.79251 3.23434C4.87114 3.20129 4.94243 3.153 5.00228 3.09224C5.12342 2.96989 5.1914 2.80469 5.19149 2.63252V1.65498C5.19258 1.56899 5.17662 1.48363 5.14452 1.40384C5.11242 1.32406 5.06482 1.25143 5.00448 1.19016C4.94413 1.12889 4.87223 1.08019 4.79295 1.04688C4.71366 1.01357 4.62856 0.996306 4.54256 0.996094V0.996094Z" fill="#352B1C"/>
<path d="M4.59414 13.702C4.50611 13.702 4.42168 13.667 4.35943 13.6047C4.29718 13.5425 4.26221 13.4581 4.26221 13.37V12.3925C4.26218 12.3059 4.29601 12.2227 4.35648 12.1607C4.41694 12.0986 4.49925 12.0627 4.58584 12.0605H5.56338C5.65141 12.0605 5.73584 12.0955 5.79809 12.1578C5.86034 12.22 5.89531 12.3044 5.89531 12.3925V13.37C5.89531 13.4581 5.86034 13.5425 5.79809 13.6047C5.73584 13.667 5.65141 13.702 5.56338 13.702H4.59414Z" fill="#352B1C"/>
<path d="M5.56671 12.3967V13.3742H4.58917V12.3967H5.56671ZM5.56671 11.7461H4.58917C4.50381 11.7463 4.41933 11.7634 4.34058 11.7963C4.26182 11.8292 4.19033 11.8773 4.13021 11.9379C4.07008 11.9985 4.0225 12.0704 3.99019 12.1494C3.95787 12.2284 3.94147 12.313 3.9419 12.3983V13.3759C3.94278 13.5478 4.01171 13.7125 4.13363 13.8338C4.25554 13.9551 4.42052 14.0231 4.59249 14.0231V14.0231H5.57003C5.74229 14.0223 5.90717 13.9531 6.02851 13.8308C6.14984 13.7086 6.21774 13.5432 6.2173 13.3709V12.3934C6.21642 12.2214 6.14749 12.0568 6.02557 11.9355C5.90366 11.8142 5.73868 11.7461 5.56671 11.7461Z" fill="#352B1C"/>
<path d="M3.6166 13.7078C3.52857 13.7078 3.44414 13.6728 3.38189 13.6106C3.31964 13.5483 3.28467 13.4639 3.28467 13.3759V12.3983C3.28467 12.3103 3.31964 12.2259 3.38189 12.1636C3.44414 12.1014 3.52857 12.0664 3.6166 12.0664H4.59414C4.68217 12.0664 4.7666 12.1014 4.82885 12.1636C4.8911 12.2259 4.92607 12.3103 4.92607 12.3983V13.3759C4.9261 13.4625 4.89227 13.5457 4.8318 13.6077C4.77134 13.6697 4.68903 13.7056 4.60244 13.7078H3.6166Z" fill="#352B1C"/>
<path d="M4.58918 12.3989V13.3765H3.61164V12.3989H4.58918ZM4.58918 11.75H3.61164C3.52614 11.7502 3.44153 11.7673 3.36266 11.8003C3.2838 11.8334 3.21223 11.8816 3.15209 11.9424C3.09194 12.0032 3.04439 12.0752 3.01218 12.1544C2.97996 12.2336 2.96372 12.3184 2.96437 12.4039V13.3798C2.96525 13.5518 3.03418 13.7164 3.1561 13.8377C3.27801 13.959 3.44299 14.0271 3.61496 14.0271H4.5925C4.76476 14.0262 4.92964 13.957 5.05098 13.8347C5.17231 13.7125 5.24021 13.5471 5.23977 13.3748V12.3973C5.23889 12.2253 5.16996 12.0607 5.04805 11.9394C4.92613 11.8181 4.76115 11.75 4.58918 11.75Z" fill="#352B1C"/>
<path d="M2.5956 3.93418C2.50899 3.93421 2.42579 3.90038 2.36378 3.83991C2.30176 3.77945 2.26584 3.69713 2.26367 3.61055V2.63467C2.26364 2.54805 2.29747 2.46486 2.35794 2.40284C2.41841 2.34082 2.50072 2.3049 2.58731 2.30273H3.56651C3.65312 2.30271 3.73631 2.33654 3.79833 2.397C3.86035 2.45747 3.89627 2.53978 3.89844 2.62637V3.60391C3.89846 3.69052 3.86463 3.77372 3.80417 3.83573C3.7437 3.89775 3.66139 3.93367 3.5748 3.93584L2.5956 3.93418Z" fill="#352B1C"/>
<path d="M3.57002 2.6291V3.60664H2.59248V2.6291H3.57002ZM3.57002 1.97852L2.58916 1.99179C2.41691 1.99267 2.25203 2.06183 2.13069 2.1841C2.00935 2.30637 1.94145 2.47178 1.9419 2.64404V3.62158C1.94234 3.7934 2.0109 3.95803 2.13255 4.07937C2.2542 4.2007 2.419 4.26885 2.59082 4.26884V4.26884H3.56836C3.6538 4.26841 3.73831 4.25115 3.81708 4.21805C3.89585 4.18496 3.96732 4.13667 4.02743 4.07595C4.08753 4.01523 4.13509 3.94326 4.16738 3.86416C4.19967 3.78506 4.21607 3.70038 4.21563 3.61494V2.6374C4.21432 2.46557 4.14525 2.30119 4.02343 2.17999C3.90161 2.05879 3.73688 1.99057 3.56504 1.99013L3.57002 1.97852Z" fill="#352B1C"/>
<path d="M2.63369 12.7332C2.5471 12.731 2.46479 12.6951 2.40433 12.6331C2.34386 12.5711 2.31003 12.4879 2.31006 12.4013V11.4237C2.31003 11.3371 2.34386 11.2539 2.40433 11.1919C2.46479 11.1299 2.5471 11.094 2.63369 11.0918H3.61289C3.70092 11.0918 3.78535 11.1268 3.8476 11.189C3.90985 11.2513 3.94482 11.3357 3.94482 11.4237V12.4013C3.94593 12.4445 3.93838 12.4874 3.92261 12.5277C3.90684 12.5679 3.88318 12.6046 3.85302 12.6355C3.82285 12.6664 3.7868 12.691 3.74699 12.7078C3.70717 12.7246 3.6644 12.7332 3.62119 12.7332H2.63369Z" fill="#352B1C"/>
<path d="M3.60821 11.426V12.4035H2.63067V11.426H3.60821ZM3.60821 10.7754H2.63067C2.45841 10.7763 2.29353 10.8454 2.17219 10.9677C2.05085 11.09 1.98296 11.2554 1.9834 11.4276V12.4052C1.98471 12.5767 2.05355 12.7409 2.17501 12.862C2.29647 12.9832 2.46078 13.0516 2.63233 13.0524V13.0524H3.60987C3.78212 13.0516 3.947 12.9824 4.06834 12.8601C4.18968 12.7379 4.25757 12.5725 4.25713 12.4002V11.4227C4.25669 11.2508 4.18813 11.0862 4.06648 10.9649C3.94483 10.8435 3.78003 10.7754 3.60821 10.7754V10.7754Z" fill="#352B1C"/>
<path d="M1.62295 4.91826C1.53633 4.91829 1.45314 4.88446 1.39112 4.82399C1.32911 4.76353 1.29318 4.68122 1.29102 4.59463V3.61709C1.29102 3.52905 1.32599 3.44463 1.38824 3.38238C1.45049 3.32013 1.53491 3.28516 1.62295 3.28516H2.60049C2.6871 3.28513 2.7703 3.31896 2.83231 3.37942C2.89433 3.43989 2.93025 3.5222 2.93242 3.60879V4.58633C2.93245 4.67294 2.89862 4.75614 2.83815 4.81816C2.77768 4.88017 2.69537 4.9161 2.60879 4.91826H1.62295Z" fill="#352B1C"/>
<path d="M2.59571 3.61152V4.58906H1.61817V3.61152H2.59405H2.59571ZM2.59405 2.96094H1.61651C1.4441 2.96225 1.27922 3.03178 1.15793 3.15432C1.03664 3.27685 0.968797 3.44243 0.96924 3.61484V4.59238C0.970118 4.76435 1.03905 4.92898 1.16096 5.05027C1.28288 5.17156 1.44785 5.23965 1.61983 5.23965V5.23965H2.59737C2.76962 5.23877 2.9345 5.16961 3.05584 5.04734C3.17718 4.92507 3.24507 4.75966 3.24463 4.5874V3.60986C3.24419 3.43805 3.17563 3.27341 3.05398 3.15208C2.93233 3.03074 2.76753 2.9626 2.59571 2.9626L2.59405 2.96094Z" fill="#352B1C"/>
<path d="M1.62832 5.89424C1.54028 5.89424 1.45586 5.85927 1.39361 5.79702C1.33136 5.73477 1.29639 5.65034 1.29639 5.56231V4.58477C1.29674 4.4985 1.33067 4.41576 1.39099 4.35407C1.42083 4.32358 1.45646 4.29936 1.49579 4.28283C1.53512 4.2663 1.57736 4.2578 1.62002 4.25781H2.59922C2.68583 4.25779 2.76903 4.29162 2.83104 4.35208C2.89306 4.41255 2.92899 4.49486 2.93115 4.58145V5.55899C2.9316 5.60142 2.92362 5.64351 2.90766 5.68283C2.89171 5.72215 2.8681 5.7579 2.83821 5.78802C2.77679 5.84894 2.69402 5.88348 2.60752 5.88428L1.62832 5.89424Z" fill="#352B1C"/>
<path d="M2.60088 4.58809V5.56563H1.62334V4.58809H2.60088V4.58809ZM2.60088 3.9375H1.62334C1.45093 3.93882 1.28606 4.00834 1.16477 4.13088C1.04347 4.25341 0.975633 4.41899 0.976076 4.59141V5.56895C0.976954 5.74092 1.04588 5.90554 1.1678 6.02684C1.28971 6.14813 1.45469 6.21621 1.62666 6.21621V6.21621H2.6042C2.68956 6.216 2.77404 6.19894 2.85279 6.16602C2.93155 6.13311 3.00304 6.08498 3.06317 6.02439C3.12329 5.9638 3.17087 5.89194 3.20319 5.81294C3.2355 5.73393 3.25191 5.64932 3.25147 5.56397V4.58643C3.25059 4.41446 3.18166 4.24983 3.05975 4.12854C2.93783 4.00725 2.77286 3.93916 2.60088 3.93916V3.9375Z" fill="#352B1C"/>
<path d="M1.65957 11.7595C1.57153 11.7595 1.48711 11.7245 1.42486 11.6623C1.36261 11.6 1.32764 11.5156 1.32764 11.4275V10.455C1.3276 10.3686 1.3612 10.2857 1.42131 10.2237C1.48142 10.1617 1.56331 10.1256 1.64961 10.123H2.62881C2.71542 10.123 2.79862 10.1568 2.86064 10.2173C2.92265 10.2778 2.95858 10.3601 2.96074 10.4467V11.4242C2.96077 11.5108 2.92694 11.594 2.86647 11.656C2.80601 11.7181 2.7237 11.754 2.63711 11.7562L1.65957 11.7595Z" fill="#352B1C"/>
<path d="M2.62539 10.456V11.4336L1.65947 11.4352V10.4577H2.63701L2.62539 10.456ZM2.63701 9.80877H1.65947C1.57314 9.80678 1.48729 9.82204 1.40693 9.85366C1.32658 9.88527 1.25334 9.93261 1.19152 9.99289C1.12969 10.0532 1.08052 10.1252 1.04688 10.2047C1.01324 10.2842 0.995806 10.3697 0.995608 10.456V11.4336C0.995369 11.5203 1.01246 11.6062 1.04589 11.6862C1.07931 11.7662 1.12839 11.8387 1.19024 11.8994C1.25208 11.9602 1.32546 12.008 1.40604 12.04C1.48662 12.072 1.57278 12.0876 1.65947 12.0858H2.63701C2.80927 12.0849 2.97415 12.0158 3.09549 11.8935C3.21683 11.7712 3.28472 11.6058 3.28428 11.4336V10.456C3.2834 10.2841 3.21447 10.1194 3.09256 9.99814C2.97064 9.87685 2.80566 9.80876 2.63369 9.80877H2.63701Z" fill="#352B1C"/>
<path d="M0.653709 6.875C0.565675 6.875 0.481247 6.84003 0.418998 6.77778C0.356749 6.71553 0.321777 6.6311 0.321777 6.54307V5.56553C0.322563 5.47983 0.356461 5.39776 0.416378 5.33649C0.44622 5.30601 0.481852 5.28179 0.521182 5.26526C0.560512 5.24873 0.602748 5.24022 0.645411 5.24023H1.62461C1.70978 5.24234 1.79088 5.27711 1.85112 5.33735C1.91137 5.3976 1.94614 5.4787 1.94824 5.56387V6.54141C1.94827 6.62802 1.91444 6.71122 1.85398 6.77323C1.79351 6.83525 1.7112 6.87117 1.62461 6.87334L0.653709 6.875Z" fill="#352B1C"/>
<path d="M1.62816 5.57051V6.54805H0.65062V5.57051H1.62816ZM1.62816 4.91992H0.65062C0.564623 4.91992 0.479477 4.93696 0.400109 4.97007C0.32074 5.00318 0.248723 5.0517 0.188223 5.11282C0.127723 5.17393 0.0799403 5.24644 0.0476383 5.32614C0.0153364 5.40584 -0.000843653 5.49115 3.38742e-05 5.57715V6.55469C0.000473309 6.7265 0.0690361 6.89114 0.190686 7.01247C0.312336 7.13381 0.477142 7.20195 0.648961 7.20195H0.663897H1.64144C1.72687 7.20152 1.81139 7.18426 1.89015 7.15116C1.96892 7.11807 2.0404 7.06978 2.1005 7.00906C2.16061 6.94833 2.20816 6.87637 2.24045 6.79727C2.27275 6.71817 2.28914 6.63348 2.2887 6.54805V5.57051C2.28783 5.39883 2.21913 5.23445 2.09757 5.1132C1.97601 4.99196 1.81146 4.92368 1.63978 4.92324L1.62816 4.91992Z" fill="#352B1C"/>
<path d="M0.663963 7.85381C0.620909 7.85491 0.578068 7.84741 0.537949 7.83175C0.497831 7.81608 0.461243 7.79257 0.430329 7.76258C0.399415 7.73259 0.374797 7.69674 0.357918 7.65712C0.341039 7.61749 0.332238 7.5749 0.332031 7.53183V6.55263C0.332031 6.4646 0.367003 6.38017 0.429252 6.31792C0.491501 6.25567 0.575929 6.2207 0.663963 6.2207H1.64316C1.72978 6.22068 1.81297 6.25451 1.87499 6.31497C1.937 6.37544 1.97293 6.45775 1.97509 6.54434V7.52187C1.97509 7.60991 1.94012 7.69434 1.87787 7.75659C1.81562 7.81883 1.7312 7.85381 1.64316 7.85381H0.663963Z" fill="#352B1C"/>
<path d="M1.63145 6.54766V7.5252L0.663873 7.53018V6.55264H1.64141L1.63145 6.54766ZM1.64141 5.90205H0.663873C0.577126 5.90005 0.490859 5.91547 0.410175 5.9474C0.329491 5.97932 0.256029 6.0271 0.194134 6.08791C0.13224 6.14872 0.083169 6.22133 0.0498255 6.30144C0.0164819 6.38155 -0.000457461 6.46753 9.39362e-06 6.5543V7.53184C0.000431638 7.61812 0.0180139 7.70346 0.0517325 7.78289C0.0854511 7.86231 0.134633 7.93424 0.196414 7.99447C0.258195 8.05471 0.331341 8.10205 0.411594 8.13375C0.491848 8.16545 0.577605 8.18086 0.663873 8.1791V8.1791H1.64141C1.81384 8.17707 1.97872 8.10803 2.10114 7.98658C2.16124 7.92582 2.20875 7.85378 2.24093 7.7746C2.27312 7.69542 2.28934 7.61066 2.28868 7.5252V6.54766C2.2878 6.37569 2.21887 6.21106 2.09696 6.08977C1.97504 5.96848 1.81007 5.90039 1.63809 5.90039L1.64141 5.90205Z" fill="#352B1C"/>
<path d="M0.663966 8.83115C0.577378 8.82898 0.495066 8.79306 0.434601 8.73104C0.374135 8.66903 0.340305 8.58583 0.340332 8.49922V7.52334C0.340332 7.4353 0.375303 7.35088 0.437553 7.28863C0.499802 7.22638 0.58423 7.19141 0.672264 7.19141H1.65146C1.73808 7.19138 1.82127 7.22521 1.88329 7.28567C1.9453 7.34614 1.98123 7.42845 1.98339 7.51504V8.49258C1.98342 8.57919 1.94959 8.66239 1.88913 8.7244C1.82866 8.78642 1.74635 8.82234 1.65976 8.82451L0.663966 8.83115Z" fill="#352B1C"/>
<path d="M1.63643 7.52422V8.50176L0.663871 8.50674V7.5292H1.64141L1.63643 7.52422ZM1.64141 6.87861H0.663871C0.491613 6.87949 0.326734 6.94865 0.205395 7.07092C0.0840557 7.1932 0.016162 7.3586 0.0166037 7.53086V8.5084C0.0170418 8.67993 0.0853765 8.84431 0.206668 8.9656C0.327959 9.08689 0.49234 9.15523 0.663871 9.15566H1.64141C1.72685 9.15523 1.81136 9.13797 1.89013 9.10487C1.96889 9.07178 2.04037 9.02349 2.10047 8.96277C2.16058 8.90205 2.20814 8.83008 2.24043 8.75098C2.27272 8.67188 2.28911 8.5872 2.28868 8.50176V7.52422C2.2878 7.35254 2.2191 7.18816 2.09754 7.06692C1.97599 6.94567 1.81144 6.87739 1.63975 6.87695L1.64141 6.87861Z" fill="#352B1C"/>
<path d="M0.663963 9.80826C0.575929 9.80826 0.491501 9.77329 0.429252 9.71104C0.367003 9.64879 0.332031 9.56436 0.332031 9.47633V8.49879C0.332671 8.45608 0.341804 8.41392 0.358898 8.37477C0.375992 8.33562 0.400706 8.30027 0.431598 8.27077C0.462491 8.24126 0.498946 8.2182 0.538839 8.20293C0.578732 8.18765 0.621266 8.18047 0.663963 8.1818H1.64316C1.72978 8.18177 1.81297 8.2156 1.87499 8.27606C1.937 8.33653 1.97293 8.41884 1.97509 8.50543V9.48297C1.97512 9.56958 1.94129 9.65278 1.88083 9.71479C1.82036 9.77681 1.73805 9.81273 1.65146 9.8149L0.663963 9.80826Z" fill="#352B1C"/>
<path d="M1.63976 8.50274V9.48027L0.663877 9.48525V8.50771H1.64142L1.63976 8.50274ZM1.64142 7.85713H0.663877C0.578519 7.85735 0.494042 7.8744 0.415285 7.90732C0.336528 7.94023 0.265039 7.98836 0.204913 8.04895C0.144787 8.10954 0.0972051 8.1814 0.0648929 8.2604C0.0325807 8.33941 0.0161732 8.42402 0.0166101 8.50937V9.48691C0.0174823 9.65831 0.0859564 9.82244 0.207154 9.94364C0.328352 10.0648 0.49248 10.1333 0.663877 10.1342V10.1342H1.64142C1.72678 10.1337 1.81121 10.1165 1.88988 10.0834C1.96856 10.0502 2.03993 10.0019 2.0999 9.94118C2.15987 9.88044 2.20727 9.80846 2.23938 9.72937C2.27149 9.65028 2.28768 9.56563 2.28702 9.48027V8.50274C2.28615 8.33076 2.21722 8.16614 2.0953 8.04485C1.97339 7.92355 1.80841 7.85547 1.63644 7.85547L1.64142 7.85713Z" fill="#352B1C"/>
<path d="M9.43349 2.92998C9.34688 2.93001 9.26369 2.89618 9.20167 2.83571C9.13965 2.77525 9.10373 2.69293 9.10156 2.60635V1.62881C9.10154 1.54219 9.13537 1.459 9.19583 1.39698C9.2563 1.33497 9.33861 1.29904 9.4252 1.29688H10.4044C10.491 1.29685 10.5742 1.33068 10.6362 1.39114C10.6982 1.45161 10.7342 1.53392 10.7363 1.62051V2.59805C10.7364 2.68438 10.7028 2.76734 10.6427 2.82931C10.5825 2.89128 10.5007 2.92739 10.4144 2.92998H9.43349Z" fill="#352B1C"/>
<path d="M10.4063 1.62324V2.60078H9.42876V1.62324H10.4063V1.62324ZM10.4063 0.972656H9.42876C9.34284 0.972649 9.25778 0.989705 9.1785 1.02283C9.09922 1.05596 9.02731 1.10451 8.96694 1.16565C8.90658 1.22679 8.85895 1.29931 8.82683 1.379C8.79471 1.45869 8.77874 1.54397 8.77984 1.62988V2.60742C8.78006 2.69264 8.79706 2.77698 8.82987 2.85563C8.86268 2.93428 8.91066 3.00569 8.97108 3.0658C9.03149 3.1259 9.10315 3.17352 9.18196 3.20593C9.26078 3.23834 9.34521 3.25491 9.43042 3.25469H10.408C10.4935 3.25447 10.5781 3.23736 10.6569 3.20434C10.7358 3.17132 10.8074 3.12304 10.8675 3.06228C10.9277 3.00151 10.9752 2.92946 11.0074 2.85026C11.0396 2.77106 11.0559 2.68628 11.0552 2.60078V1.62324C11.0539 1.45141 10.9848 1.28703 10.863 1.16583C10.7412 1.04464 10.5765 0.976408 10.4046 0.975976L10.4063 0.972656Z" fill="#352B1C"/>
<path d="M10.411 2.92607C10.3244 2.9261 10.2412 2.89227 10.1792 2.8318C10.1172 2.77134 10.0813 2.68903 10.0791 2.60244V1.6249C10.0791 1.53829 10.1129 1.45509 10.1734 1.39308C10.2338 1.33106 10.3161 1.29513 10.4027 1.29297H11.3819C11.47 1.29297 11.5544 1.32794 11.6166 1.39019C11.6789 1.45244 11.7139 1.53687 11.7139 1.6249V2.60244C11.7152 2.64569 11.7078 2.68877 11.6921 2.7291C11.6764 2.76943 11.6528 2.80619 11.6226 2.83717C11.5924 2.86816 11.5562 2.89273 11.5163 2.90943C11.4764 2.92613 11.4335 2.93462 11.3902 2.93437L10.411 2.92607Z" fill="#352B1C"/>
<path d="M11.3836 1.61904V2.59492H10.4061V1.61738H11.3836V1.61904ZM11.3836 0.966797H10.4061C10.2336 0.968112 10.0688 1.03764 9.94748 1.16018C9.82619 1.28271 9.75835 1.44829 9.75879 1.6207V2.59824C9.75967 2.77021 9.8286 2.93484 9.95051 3.05613C10.0724 3.17742 10.2374 3.24551 10.4094 3.24551V3.24551H11.3869C11.4723 3.24529 11.5568 3.22824 11.6355 3.19532C11.7143 3.1624 11.7858 3.11427 11.8459 3.05368C11.906 2.99309 11.9536 2.92124 11.9859 2.84223C12.0182 2.76323 12.0346 2.67862 12.0342 2.59326V1.61572C12.0333 1.44375 11.9644 1.27913 11.8425 1.15783C11.7205 1.03654 11.5556 0.968454 11.3836 0.968457V0.966797Z" fill="#352B1C"/>
<path d="M9.47988 13.6824C9.39185 13.6824 9.30742 13.6474 9.24517 13.5852C9.18292 13.5229 9.14795 13.4385 9.14795 13.3505V12.3729C9.14792 12.2863 9.18175 12.2031 9.24222 12.1411C9.30268 12.0791 9.385 12.0432 9.47158 12.041H10.4508C10.5388 12.041 10.6232 12.076 10.6855 12.1382C10.7477 12.2005 10.7827 12.2849 10.7827 12.3729V13.3505C10.7827 13.4371 10.7489 13.5203 10.6884 13.5823C10.628 13.6443 10.5457 13.6803 10.4591 13.6824H9.47988Z" fill="#352B1C"/>
<path d="M10.4557 12.3752V13.3527H9.47814V12.3752H10.4557ZM10.4557 11.7246H9.47979C9.39444 11.7248 9.30996 11.7419 9.2312 11.7748C9.15245 11.8077 9.08096 11.8558 9.02083 11.9164C8.9607 11.977 8.91312 12.0489 8.88081 12.1279C8.8485 12.2069 8.83209 12.2915 8.83253 12.3769V13.3544C8.83341 13.5264 8.90234 13.691 9.02425 13.8123C9.14616 13.9336 9.31114 14.0017 9.48311 14.0017V14.0017H10.4607C10.546 14.0014 10.6305 13.9844 10.7092 13.9515C10.788 13.9186 10.8595 13.8704 10.9196 13.8098C10.9797 13.7492 11.0273 13.6774 11.0596 13.5984C11.0919 13.5194 11.1084 13.4348 11.1079 13.3494V12.3719C11.107 12.1996 11.0379 12.0347 10.9156 11.9134C10.7933 11.7921 10.6279 11.7242 10.4557 11.7246V11.7246Z" fill="#352B1C"/>
<path d="M10.4557 13.6789C10.37 13.6781 10.2879 13.6442 10.2266 13.5843C10.1661 13.5233 10.1316 13.4412 10.1304 13.3553V12.3777C10.1307 12.2915 10.1647 12.2087 10.225 12.147C10.2864 12.0861 10.3692 12.0516 10.4557 12.0508H11.4349C11.5229 12.0508 11.6073 12.0858 11.6696 12.148C11.7318 12.2103 11.7668 12.2947 11.7668 12.3827V13.3603C11.7668 13.4483 11.7318 13.5327 11.6696 13.595C11.6073 13.6572 11.5229 13.6922 11.4349 13.6922L10.4557 13.6789Z" fill="#352B1C"/>
<path d="M11.4303 12.3716V13.3491H10.4527V12.3716H11.4303ZM11.4303 11.7227H10.4527C10.3675 11.7231 10.2832 11.7403 10.2047 11.7733C10.1261 11.8063 10.0548 11.8545 9.99485 11.9151C9.9349 11.9756 9.88747 12.0474 9.85526 12.1263C9.82305 12.2052 9.8067 12.2897 9.80714 12.3749V13.3524C9.80714 13.5247 9.87545 13.6899 9.9971 13.8119C10.1188 13.9339 10.2838 14.0026 10.4561 14.003H11.4336C11.519 14.0028 11.6034 13.9858 11.6822 13.9528C11.761 13.9199 11.8324 13.8718 11.8926 13.8112C11.9527 13.7506 12.0003 13.6788 12.0326 13.5998C12.0649 13.5207 12.0813 13.4361 12.0809 13.3508V12.3732C12.08 12.2013 12.0111 12.0366 11.8892 11.9154C11.7672 11.7941 11.6023 11.726 11.4303 11.726V11.7227Z" fill="#352B1C"/>
<path d="M11.392 3.89873C11.3054 3.89876 11.2222 3.86493 11.1602 3.80446C11.0981 3.744 11.0622 3.66169 11.0601 3.5751V2.59756C11.0601 2.50952 11.095 2.4251 11.1573 2.36285C11.2195 2.3006 11.304 2.26562 11.392 2.26562H12.3712C12.4564 2.26773 12.5375 2.3025 12.5977 2.36274C12.6579 2.42299 12.6927 2.50409 12.6948 2.58926V3.5668C12.6949 3.65341 12.661 3.73661 12.6006 3.79862C12.5401 3.86064 12.4578 3.89657 12.3712 3.89873H11.392Z" fill="#352B1C"/>
<path d="M12.366 2.5917V3.56924H11.3885V2.5917H12.366V2.5917ZM12.366 1.94111H11.3885C11.2162 1.94199 11.0513 2.01115 10.93 2.13342C10.8087 2.2557 10.7408 2.4211 10.7412 2.59336V3.5709C10.7417 3.74272 10.8102 3.90735 10.9319 4.02869C11.0535 4.15003 11.2183 4.21817 11.3901 4.21817V4.21817H12.3677C12.5401 4.21685 12.705 4.14732 12.8263 4.02479C12.9475 3.90225 13.0154 3.73667 13.0149 3.56426V2.58672C13.0141 2.41504 12.9454 2.25066 12.8238 2.12941C12.7023 2.00817 12.5377 1.93989 12.366 1.93945V1.94111Z" fill="#352B1C"/>
<path d="M11.4301 12.697C11.342 12.697 11.2576 12.662 11.1954 12.5998C11.1331 12.5375 11.0981 12.4531 11.0981 12.365V11.3875C11.0981 11.3015 11.1314 11.2188 11.1911 11.1568C11.2531 11.0968 11.3355 11.0624 11.4218 11.0605H12.401C12.489 11.0605 12.5734 11.0955 12.6357 11.1578C12.6979 11.22 12.7329 11.3044 12.7329 11.3925V12.37C12.7329 12.4581 12.6979 12.5425 12.6357 12.6047C12.5734 12.667 12.489 12.7019 12.401 12.7019L11.4301 12.697Z" fill="#352B1C"/>
<path d="M12.4041 11.3908V12.3684H11.4266V11.3908H12.4041ZM12.4041 10.7402H11.4266C11.2543 10.7411 11.0894 10.8103 10.9681 10.9325C10.8468 11.0548 10.7789 11.2202 10.7793 11.3925V12.37C10.7797 12.5418 10.8483 12.7065 10.97 12.8278C11.0916 12.9491 11.2564 13.0173 11.4282 13.0173H12.4058C12.578 13.0164 12.7429 12.9472 12.8642 12.825C12.9856 12.7027 13.0535 12.5373 13.053 12.365V11.3875C13.0526 11.2157 12.984 11.0511 12.8624 10.9297C12.7407 10.8084 12.5759 10.7402 12.4041 10.7402Z" fill="#352B1C"/>
<path d="M12.3744 4.87334C12.2878 4.87337 12.2046 4.83954 12.1426 4.77907C12.0806 4.7186 12.0446 4.63629 12.0425 4.54971V3.57217C12.0425 3.48413 12.0775 3.3997 12.1397 3.33746C12.202 3.27521 12.2864 3.24023 12.3744 3.24023H13.3536C13.4399 3.2402 13.5229 3.2738 13.5849 3.33391C13.6468 3.39402 13.683 3.47591 13.6855 3.56221V4.53975C13.6855 4.62778 13.6506 4.71221 13.5883 4.77446C13.5261 4.83671 13.4416 4.87168 13.3536 4.87168L12.3744 4.87334Z" fill="#352B1C"/>
<path d="M13.3468 3.56494V4.54248H12.3693V3.56494H13.3468ZM13.3468 2.91602H12.3693C12.2839 2.91645 12.1995 2.93372 12.1208 2.96684C12.0421 2.99996 11.9708 3.04827 11.9108 3.10901C11.8508 3.16976 11.8034 3.24173 11.7713 3.32082C11.7392 3.39992 11.723 3.48456 11.7237 3.56992V4.54746C11.7245 4.71943 11.7935 4.88406 11.9154 5.00535C12.0373 5.12664 12.2023 5.19473 12.3742 5.19473H13.3518C13.4371 5.19451 13.5216 5.17746 13.6004 5.14454C13.6791 5.11162 13.7506 5.06349 13.8107 5.0029C13.8709 4.94231 13.9185 4.87046 13.9508 4.79145C13.9831 4.71245 13.9995 4.62784 13.999 4.54248V3.56494C13.9982 3.39297 13.9292 3.22834 13.8073 3.10705C13.6854 2.98576 13.5204 2.91767 13.3485 2.91768L13.3468 2.91602Z" fill="#352B1C"/>
<path d="M12.3778 5.85039C12.2898 5.85039 12.2054 5.81542 12.1431 5.75317C12.0809 5.69092 12.0459 5.60649 12.0459 5.51846V4.54092C12.0459 4.45288 12.0809 4.36845 12.1431 4.3062C12.2054 4.24396 12.2898 4.20898 12.3778 4.20898H13.357C13.4434 4.20895 13.5263 4.24255 13.5883 4.30266C13.6503 4.36277 13.6864 4.44466 13.689 4.53096V5.5085C13.689 5.59653 13.654 5.68096 13.5917 5.74321C13.5295 5.80546 13.4451 5.84043 13.357 5.84043L12.3778 5.85039Z" fill="#352B1C"/>
<path d="M13.3519 4.54346V5.521H12.3743V4.54346H13.3519V4.54346ZM13.3519 3.89453H12.3743C12.2889 3.89497 12.2044 3.91223 12.1256 3.94532C12.0468 3.97842 11.9754 4.02671 11.9153 4.08743C11.8552 4.14815 11.8076 4.22011 11.7753 4.29921C11.743 4.37831 11.7266 4.463 11.7271 4.54844V5.52598C11.7279 5.69751 11.7967 5.86171 11.9183 5.98269C12.0399 6.10367 12.2045 6.17159 12.376 6.17158V6.17158H13.3535C13.5258 6.1707 13.6907 6.10155 13.812 5.97927C13.9333 5.857 14.0012 5.6916 14.0008 5.51934V4.5418C14.0004 4.36998 13.9318 4.20535 13.8101 4.08401C13.6885 3.96267 13.5237 3.89453 13.3519 3.89453V3.89453Z" fill="#352B1C"/>
<path d="M12.3995 10.7373C12.3114 10.7373 12.227 10.7023 12.1648 10.64C12.1025 10.5778 12.0675 10.4934 12.0675 10.4053V9.42779C12.0662 9.38383 12.0738 9.34005 12.09 9.29915C12.1062 9.25826 12.1306 9.22111 12.1617 9.19001C12.1928 9.1589 12.2299 9.1345 12.2708 9.11831C12.3117 9.10212 12.3555 9.09448 12.3995 9.09586H13.377C13.465 9.09586 13.5495 9.13083 13.6117 9.19308C13.674 9.25533 13.7089 9.33976 13.7089 9.42779V10.4053C13.7073 10.4923 13.6715 10.5751 13.6094 10.636C13.5795 10.6665 13.5439 10.6907 13.5046 10.7073C13.4652 10.7238 13.423 10.7323 13.3803 10.7323L12.3995 10.7373Z" fill="#352B1C"/>
<path d="M13.3719 9.43018V10.4077H12.3943V9.43018H13.3719ZM13.3719 8.78125H12.3943C12.2221 8.78213 12.0572 8.85129 11.9359 8.97356C11.8145 9.09583 11.7466 9.26124 11.7471 9.43349V10.411C11.7509 10.586 11.8236 10.7525 11.9496 10.8741C12.0716 10.9945 12.2362 11.0619 12.4076 11.0616H13.3852C13.4706 11.0612 13.5551 11.0439 13.6339 11.0108C13.7126 10.9777 13.7841 10.9294 13.8442 10.8687C13.9043 10.808 13.9519 10.736 13.9842 10.6569C14.0165 10.5778 14.0329 10.4931 14.0324 10.4077V9.43184C14.0322 9.34662 14.0152 9.26228 13.9824 9.18363C13.9496 9.10498 13.9016 9.03357 13.8412 8.97346C13.7808 8.91336 13.7091 8.86574 13.6303 8.83333C13.5515 8.80092 13.4671 8.78435 13.3818 8.78457L13.3719 8.78125Z" fill="#352B1C"/>
<path d="M12.4042 11.7144C12.3179 11.7144 12.2349 11.6808 12.1729 11.6207C12.111 11.5606 12.0749 11.4787 12.0723 11.3924V10.4148C12.0726 10.3286 12.1066 10.2458 12.1669 10.1842C12.1967 10.1537 12.2323 10.1294 12.2717 10.1129C12.311 10.0964 12.3532 10.0879 12.3959 10.0879H13.3751C13.4631 10.0879 13.5476 10.1229 13.6098 10.1851C13.6721 10.2474 13.707 10.3318 13.707 10.4198V11.3974C13.707 11.4854 13.6721 11.5698 13.6098 11.6321C13.5476 11.6943 13.4631 11.7293 13.3751 11.7293L12.4042 11.7144Z" fill="#352B1C"/>
<path d="M13.3768 10.4087V11.3862H12.3992V10.4087H13.3768V10.4087ZM13.3768 9.75977H12.3992C12.227 9.76064 12.0621 9.8298 11.9407 9.95208C11.8194 10.0743 11.7515 10.2398 11.752 10.412V11.3896C11.7528 11.5615 11.8218 11.7261 11.9437 11.8474C12.0656 11.9687 12.2306 12.0368 12.4025 12.0368V12.0368H13.3801C13.4656 12.0366 13.5502 12.0195 13.6291 11.9865C13.7079 11.9535 13.7795 11.9052 13.8396 11.8444C13.8998 11.7836 13.9473 11.7116 13.9795 11.6324C14.0118 11.5532 14.028 11.4684 14.0273 11.3829V10.4054C14.0249 10.2335 13.9559 10.0693 13.8348 9.94731C13.7128 9.82688 13.5482 9.75949 13.3768 9.75977Z" fill="#352B1C"/>
<path d="M13.3603 6.82304C13.2722 6.82304 13.1878 6.78807 13.1255 6.72582C13.0633 6.66357 13.0283 6.57915 13.0283 6.49111V5.51357C13.0283 5.42696 13.0621 5.34376 13.1226 5.28175C13.1831 5.21973 13.2654 5.18381 13.352 5.18164H14.3312C14.4178 5.18161 14.501 5.21544 14.563 5.27591C14.625 5.33638 14.6609 5.41869 14.6631 5.50527V6.48281C14.6631 6.56943 14.6293 6.65262 14.5688 6.71464C14.5084 6.77666 14.426 6.81258 14.3395 6.81475L13.3603 6.82304Z" fill="#352B1C"/>
<path d="M14.3328 5.51582V6.49336H13.3553V5.51582H14.3328ZM14.3328 4.86523H13.3553C13.2699 4.86545 13.1854 4.88251 13.1067 4.91542C13.0279 4.94834 12.9564 4.99647 12.8963 5.05706C12.8362 5.11765 12.7886 5.1895 12.7563 5.26851C12.724 5.34752 12.7076 5.43212 12.708 5.51748V6.49502C12.7089 6.66699 12.7778 6.83162 12.8997 6.95291C13.0217 7.0742 13.1866 7.14229 13.3586 7.14229V7.14229H14.3345C14.4198 7.14207 14.5043 7.12501 14.5831 7.0921C14.6618 7.05918 14.7333 7.01105 14.7934 6.95046C14.8536 6.88987 14.9012 6.81802 14.9335 6.73901C14.9658 6.66 14.9822 6.5754 14.9817 6.49004V5.5125C14.9809 5.34053 14.9119 5.1759 14.79 5.05461C14.6681 4.93332 14.5031 4.86523 14.3312 4.86523H14.3328Z" fill="#352B1C"/>
<path d="M13.3638 7.79961C13.3199 7.80075 13.2762 7.79294 13.2354 7.77667C13.1946 7.76039 13.1576 7.73598 13.1265 7.70493C13.0955 7.67387 13.0711 7.63683 13.0548 7.59604C13.0385 7.55525 13.0307 7.51158 13.0318 7.46768V6.49014C13.0318 6.40352 13.0657 6.32033 13.1261 6.25831C13.1866 6.19629 13.2689 6.16037 13.3555 6.1582H14.3347C14.4213 6.15818 14.5045 6.19201 14.5665 6.25247C14.6285 6.31294 14.6644 6.39525 14.6666 6.48184V7.45938C14.6666 7.54741 14.6316 7.63184 14.5694 7.69409C14.5071 7.75634 14.4227 7.79131 14.3347 7.79131L13.3638 7.79961Z" fill="#352B1C"/>
<path d="M14.3377 6.49434V7.47187H13.3602V6.49434H14.3377ZM14.3377 5.84375H13.3602C13.1879 5.84463 13.0231 5.91379 12.9017 6.03606C12.7804 6.15833 12.7125 6.32374 12.7129 6.496V7.47353C12.712 7.55961 12.7282 7.645 12.7605 7.72479C12.7928 7.80459 12.8405 7.8772 12.901 7.93845C12.9615 7.9997 13.0335 8.04837 13.1129 8.08166C13.1923 8.11495 13.2774 8.1322 13.3635 8.13242V8.13242H14.3411C14.4276 8.13244 14.5133 8.11518 14.5931 8.08166C14.6729 8.04813 14.7453 7.99902 14.8058 7.9372C14.8664 7.87537 14.9141 7.80207 14.946 7.7216C14.9779 7.64113 14.9934 7.5551 14.9916 7.46855V6.49102C14.9903 6.31947 14.9215 6.15534 14.8 6.03419C14.6786 5.91304 14.5143 5.84462 14.3427 5.84375H14.3377Z" fill="#352B1C"/>
<path d="M13.3686 8.77812C13.2805 8.77812 13.1961 8.74315 13.1338 8.6809C13.0716 8.61865 13.0366 8.53422 13.0366 8.44619V7.46865C13.0366 7.38232 13.0702 7.29936 13.1303 7.23739C13.1904 7.17542 13.2723 7.13931 13.3586 7.13672H14.3378C14.4244 7.13669 14.5076 7.17052 14.5696 7.23099C14.6316 7.29145 14.6676 7.37376 14.6697 7.46035V8.43789C14.6697 8.52593 14.6348 8.61035 14.5725 8.6726C14.5103 8.73485 14.4258 8.76982 14.3378 8.76982L13.3686 8.77812Z" fill="#352B1C"/>
<path d="M14.3411 7.46895V8.44648H13.3636V7.46895H14.3411ZM14.3411 6.81836H13.3636C13.2782 6.81858 13.1937 6.83563 13.115 6.86855C13.0362 6.90147 12.9647 6.9496 12.9046 7.01018C12.8445 7.07077 12.7969 7.14263 12.7646 7.22164C12.7323 7.30064 12.7159 7.38525 12.7163 7.4706V8.44814C12.7176 8.61998 12.7867 8.78435 12.9085 8.90555C13.0303 9.02675 13.1951 9.09498 13.3669 9.09541H14.3444C14.5167 9.09453 14.6816 9.02537 14.8029 8.9031C14.9243 8.78083 14.9922 8.61543 14.9917 8.44317V7.46563C14.9904 7.29379 14.9213 7.12942 14.7995 7.00822C14.6777 6.88702 14.513 6.81879 14.3411 6.81836V6.81836Z" fill="#352B1C"/>
<path d="M13.372 9.75468C13.2854 9.75252 13.2031 9.71659 13.1426 9.65458C13.0821 9.59256 13.0483 9.50937 13.0483 9.42275V8.44521C13.0483 8.35718 13.0833 8.27275 13.1456 8.2105C13.2078 8.14825 13.2922 8.11328 13.3803 8.11328H14.3595C14.4461 8.11325 14.5293 8.14708 14.5913 8.20755C14.6533 8.26802 14.6892 8.35033 14.6914 8.43692V9.41445C14.693 9.45848 14.6856 9.50237 14.6695 9.54338C14.6533 9.58439 14.629 9.62163 14.5978 9.65279C14.5666 9.68394 14.5294 9.70833 14.4884 9.72444C14.4474 9.74054 14.4035 9.74801 14.3595 9.74639L13.372 9.75468Z" fill="#352B1C"/>
<path d="M14.3461 8.44942V9.42696H13.3685V8.44942H14.3461ZM14.3461 7.79883H13.3685C13.2818 7.79881 13.196 7.81611 13.1161 7.84974C13.0361 7.88336 12.9637 7.93263 12.9031 7.99463C12.8425 8.05663 12.7949 8.13013 12.7631 8.21079C12.7313 8.29146 12.716 8.37767 12.7179 8.46435V9.44189C12.7193 9.61344 12.7881 9.77757 12.9096 9.89872C13.031 10.0199 13.1953 10.0883 13.3669 10.0892V10.0892H14.3444C14.5167 10.0883 14.6815 10.0191 14.8029 9.89685C14.9242 9.77458 14.9921 9.60917 14.9917 9.43691V8.45937C14.9926 8.37372 14.9766 8.28873 14.9446 8.20926C14.9126 8.12979 14.8653 8.05739 14.8053 7.99621C14.7454 7.93503 14.674 7.88625 14.5952 7.85267C14.5164 7.81909 14.4317 7.80135 14.3461 7.80049V7.79883Z" fill="#352B1C"/>
<path d="M1.64795 10.7879C1.56195 10.7849 1.48047 10.7486 1.42071 10.6867C1.36096 10.6247 1.32758 10.542 1.32764 10.456V9.47842C1.32764 9.39038 1.36261 9.30595 1.42486 9.2437C1.48711 9.18146 1.57153 9.14648 1.65957 9.14648H2.63877C2.7268 9.14648 2.81123 9.18146 2.87348 9.2437C2.93573 9.30595 2.9707 9.39038 2.9707 9.47842V10.456C2.9707 10.544 2.93573 10.6284 2.87348 10.6907C2.81123 10.7529 2.7268 10.7879 2.63877 10.7879H1.64795Z" fill="#352B1C"/>
<path d="M2.62208 9.47569V10.4532L1.64786 10.4565V9.47901H2.6254L2.62208 9.47569ZM2.6254 8.83008H1.64786C1.562 8.82986 1.47695 8.84664 1.39761 8.87944C1.31827 8.91224 1.24621 8.96043 1.18557 9.02122C1.12494 9.082 1.07694 9.15419 1.04434 9.23361C1.01174 9.31304 0.995176 9.39813 0.995614 9.48399V10.4565C0.996489 10.6282 1.06519 10.7926 1.18675 10.9139C1.3083 11.0351 1.47286 11.1034 1.64454 11.1038H2.62208C2.70752 11.1043 2.7922 11.0879 2.8713 11.0556C2.9504 11.0233 3.02237 10.9757 3.08309 10.9156C3.14381 10.8555 3.1921 10.784 3.22519 10.7053C3.25829 10.6265 3.27555 10.542 3.27599 10.4565V9.47901C3.27555 9.30719 3.20698 9.14256 3.08533 9.02122C2.96368 8.89988 2.79888 8.83174 2.62706 8.83174L2.6254 8.83008Z" fill="#352B1C"/>
<path d="M10.6781 12.373L11.5809 12.3696L11.5759 11.3921L12.4788 11.3888L12.4738 10.4112L12.4705 9.4337L13.3733 9.42872L13.3684 8.45118L13.3634 7.47364L13.3601 6.49776L13.3551 5.52022L12.4539 5.52354L12.4489 4.546L12.4456 3.56846L11.5427 3.57178L11.5378 2.59424L10.6366 2.59922L9.73371 2.60254L9.73039 1.625L8.82753 1.62832L7.92634 1.6333L7.02348 1.63662L6.12063 1.63994L5.21943 1.64492L5.22275 2.62246L4.32156 2.62577L3.4187 2.62909L3.42368 3.60663L2.52083 3.61161L2.52581 4.58915L2.52912 5.56669L1.62793 5.57001L1.63125 6.54755L1.63623 7.52509L1.63955 8.50263L1.64453 9.48017L2.54572 9.47685L2.5507 10.4544L2.55402 11.4319L3.45687 11.4269L3.46185 12.4045L4.36305 12.4012L5.2659 12.3962L5.26922 13.3737L6.17208 13.3704L7.07493 13.3671L7.97613 13.3621L8.87898 13.3588L9.78018 13.3555L9.77686 12.3779L10.6781 12.373Z" fill="#FFDD52"/>
<path d="M7.47334 1.63457V1.63623L8.45088 1.63125L9.42842 1.62793L9.4251 0.650391L8.44756 0.65371L7.47168 0.658689V0.657029L6.49414 0.660349L5.5166 0.665328L5.51992 1.64287L6.49746 1.63789L7.47334 1.63457Z" fill="#F0BA15"/>
<path d="M7.52637 13.3657L6.54883 13.369L5.57129 13.374L5.57461 14.3516L6.55215 14.3466L7.52803 14.3433L8.50557 14.3399L9.4831 14.335L9.47978 13.3574L8.50225 13.3624L7.52637 13.3657Z" fill="#F0BA15"/>
<path d="M5.525 2.62012L5.52002 1.64258L4.54248 1.64756L3.56494 1.65088L3.56992 2.62842L4.54746 2.62344L5.525 2.62012Z" fill="#F0BA15"/>
<path d="M4.58887 12.3998L3.61133 12.4048L3.61631 13.3823L4.59385 13.3773L5.57139 13.374L5.56641 12.3965L4.58887 12.3998Z" fill="#F0BA15"/>
<path d="M3.56982 2.62855L2.59229 2.63281L2.59655 3.61034L3.57408 3.60608L3.56982 2.62855Z" fill="#F0BA15"/>
<path d="M3.6079 11.4254L2.63037 11.4297L2.63464 12.4072L3.61217 12.403L3.6079 11.4254Z" fill="#F0BA15"/>
<path d="M2.60049 4.58887L2.59551 3.61133L1.61963 3.61465L1.62295 4.59219L1.62793 5.56973L2.60547 5.56475L2.60049 4.58887Z" fill="#F0BA15"/>
<path d="M1.63623 7.52539L1.63125 6.54785L1.62793 5.57031L0.650391 5.57529L0.65371 6.55283L0.658689 7.53037L0.662008 8.50791L0.666987 9.48545L1.64453 9.48047L1.63955 8.50293L1.63623 7.52539Z" fill="#F0BA15"/>
<path d="M10.4112 2.6L11.3888 2.59502L11.3838 1.61914L10.4063 1.62246L9.42871 1.62744L9.43369 2.60498L10.4112 2.6Z" fill="#F0BA15"/>
<path d="M9.4751 12.3794L9.48008 13.3569L10.4576 13.3536L11.4352 13.3486L11.4302 12.3711L10.4526 12.3761L9.4751 12.3794Z" fill="#F0BA15"/>
<path d="M12.3657 2.59144L11.3882 2.5957L11.3924 3.57323L12.37 3.56897L12.3657 2.59144Z" fill="#F0BA15"/>
<path d="M12.4043 11.3883L11.4268 11.3926L11.431 12.3701L12.4086 12.3658L12.4043 11.3883Z" fill="#F0BA15"/>
<path d="M12.3779 5.52451L13.3555 5.51953L13.3521 4.54199L13.3472 3.56445L12.3696 3.56943L12.3746 4.54697L12.3779 5.52451Z" fill="#F0BA15"/>
<path d="M13.3769 10.4072L13.3735 9.42969L12.396 9.43467L12.3993 10.4122L12.4043 11.3897L13.3818 11.3848L13.3769 10.4072Z" fill="#F0BA15"/>
<path d="M13.3638 7.47598L13.3687 8.45351L13.3737 9.43105L14.3496 9.42773L14.3463 8.4502L14.3413 7.47266L14.338 6.49512L14.333 5.51758L13.3555 5.5209L13.3604 6.49844L13.3638 7.47598Z" fill="#F0BA15"/>
<path d="M2.62207 9.47461L1.64453 9.47959L1.64785 10.4571L1.65283 11.4347L2.63037 11.4297L2.62539 10.4521L2.62207 9.47461Z" fill="#F0BA15"/>
<path d="M10.8029 4.61133H4.1958V10.4583H10.8029V4.61133Z" fill="#AB9986"/>
<path d="M5.36088 9.48438H4.1958V9.87605H5.36088V9.48438Z" fill="#60554F"/>
<path d="M10.8047 9.48438H9.63965V9.87605H10.8047V9.48438Z" fill="#60554F"/>
<path d="M9.63944 10.0664H5.36084V10.4581H9.63944V10.0664Z" fill="#60554F"/>
<path d="M9.05688 4.61133H5.94336V5.18225H9.05688V4.61133Z" fill="#29241A"/>
<path d="M10.2222 6.37118H10.8048V4.61194V4.04102H10.2222H9.05713V4.61194H10.2222V6.37118Z" fill="#29241A"/>
<path d="M11.3872 6.37109H10.8047V9.87629H11.3872V6.37109Z" fill="#29241A"/>
<path d="M4.77834 4.61194H5.94342V4.04102H4.77834H4.1958V4.61194V6.37118H4.77834V4.61194Z" fill="#29241A"/>
<path d="M4.77834 9.87695H4.1958V10.4595H4.77834H5.36088V9.87695H4.77834Z" fill="#29241A"/>
<path d="M9.63944 10.459H5.36084V11.0415H9.63944V10.459Z" fill="#29241A"/>
<path d="M9.63965 9.87695V10.4595H10.2222H10.8047V9.87695H10.2222H9.63965Z" fill="#29241A"/>
<path d="M4.19582 6.37109H3.61328V9.87629H4.19582V6.37109Z" fill="#29241A"/>
<path d="M9.63959 4.81445H9.44873V5.20613H9.63959V5.39699H10.0313V5.20613V4.81445H9.63959Z" fill="#60554F"/>
<path d="M5.5635 4.81445H5.37264H4.98096V5.20613V5.39699H5.37264V5.20613H5.5635V4.81445Z" fill="#60554F"/>
<path d="M6.53752 7.3457H5.94336V7.93986H6.53752V7.3457Z" fill="#29241A"/>
<path d="M7.10701 7.92773H6.71533V8.31942H7.10701V7.92773Z" fill="#29241A"/>
<path d="M8.28328 7.92773H7.8916V8.31942H8.28328V7.92773Z" fill="#29241A"/>
<path d="M8.28496 9.09371H7.89162V8.90285H7.10826V9.09371H6.71492V8.32031H6.32324V9.67459H6.71492V9.87707H7.10826V10.0679H7.29746V10.2571H7.6908V10.0679H7.89162V9.87707H8.28496V9.67459H8.67664V8.32031H8.28496V9.09371Z" fill="#29241A"/>
<path d="M9.05705 7.3457H8.46289V7.93986H9.05705V7.3457Z" fill="#29241A"/>
</g>
<defs>
<clipPath id="clip0_2751_125101">
<rect width="15" height="15" fill="white"/>
</clipPath>
</defs>
</svg>
