<svg width="24" height="24" viewBox="0 0 24 24" fill="none" xmlns="http://www.w3.org/2000/svg">
<g clip-path="url(#clip0_982_37582)">
<g clip-path="url(#clip1_982_37582)">
<path d="M22.7034 7.66758H22.4564V5.92943C22.4564 5.21393 21.8747 4.6323 21.1593 4.6323H20.9123V4.38533C20.9123 3.66983 20.3306 3.0882 19.6152 3.0882H19.3682V2.84123C19.3682 2.12573 18.7865 1.5441 18.0711 1.5441H16.3329V1.29713C16.3329 0.581632 15.7513 0 15.0358 0H8.9647C8.24921 0 7.66758 0.581632 7.66758 1.29713V1.5441H5.92943C5.21393 1.5441 4.6323 2.12573 4.6323 2.84123V3.0882H4.38533C3.66983 3.0882 3.0882 3.66983 3.0882 4.38533V4.6323H2.84123C2.12573 4.6323 1.5441 5.21393 1.5441 5.92943V7.66758H1.29713C0.581632 7.66758 0 8.24921 0 8.9647V15.0358C0 15.7513 0.581632 16.3329 1.29713 16.3329H1.5441V18.0711C1.5441 18.7865 2.12573 19.3682 2.84123 19.3682H3.0882V19.6219C3.0882 20.3374 3.66983 20.919 4.38533 20.919H4.6323V21.166C4.6323 21.8815 5.21393 22.4631 5.92943 22.4631H7.66758V22.7034C7.66758 23.4188 8.24921 24.0005 8.9647 24.0005H15.0358C15.7513 24.0005 16.3329 23.4188 16.3329 22.7034V22.4631H18.0711C18.7865 22.4631 19.3682 21.8815 19.3682 21.166V20.919H19.6152C20.3306 20.919 20.9123 20.3374 20.9123 19.6219V19.3682H21.1593C21.8747 19.3682 22.4564 18.7865 22.4564 18.0711V16.3329H22.7034C23.4188 16.3329 24.0005 15.7513 24.0005 15.0358V8.9647C24.0005 8.24921 23.4188 7.66758 22.7034 7.66758Z" fill="#352B1C"/>
<path d="M22.7033 8.96469H21.1592V12H22.7033V8.96469Z" fill="#DFEDFB"/>
<path d="M22.7033 12H21.1592V15.0352H22.7033V12Z" fill="#DFEDFB"/>
<path d="M15.0358 2.8407V1.2966L12.0005 1.2966V2.8407H15.0358Z" fill="#DFEDFB"/>
<path d="M12 2.8407V1.2966L8.96472 1.2966V2.8407H12Z" fill="#DFEDFB"/>
<path d="M15.0352 22.7034V21.1593H11.9999V22.7034H15.0352Z" fill="#DFEDFB"/>
<path d="M12 22.7034V21.1593H8.96472V22.7034H12Z" fill="#DFEDFB"/>
<path d="M21.1593 5.92889H19.6152V8.96417H21.1593V5.92889Z" fill="#DFEDFB"/>
<path d="M21.1593 15.0358H19.6152V18.071H21.1593V15.0358Z" fill="#DFEDFB"/>
<path d="M18.071 21.166V19.6219H15.0358V21.166H18.071Z" fill="#DFEDFB"/>
<path d="M18.071 4.3848V2.8407H15.0358V4.3848H18.071Z" fill="#DFEDFB"/>
<path d="M19.6151 4.38483H18.071V5.92893H19.6151V4.38483Z" fill="#DFEDFB"/>
<path d="M19.6151 18.0778H18.071V19.6219H19.6151V18.0778Z" fill="#DFEDFB"/>
<path d="M1.2966 12H2.8407L2.8407 8.96469H1.2966L1.2966 12Z" fill="#DFEDFB"/>
<path d="M1.2966 15.0358H2.8407L2.8407 12.0005H1.2966L1.2966 15.0358Z" fill="#DFEDFB"/>
<path d="M2.84067 8.96469H4.38477V5.92941H2.84067L2.84067 8.96469Z" fill="#DFEDFB"/>
<path d="M2.84067 18.071H4.38477V15.0358H2.84067L2.84067 18.071Z" fill="#DFEDFB"/>
<path d="M8.96417 21.166V19.6219H5.9289V21.166H8.96417Z" fill="#DFEDFB"/>
<path d="M8.96472 4.3848V2.8407H5.92944V4.3848H8.96472Z" fill="#DFEDFB"/>
<path d="M4.38486 5.92889H5.92896V4.38479H4.38486V5.92889Z" fill="#DFEDFB"/>
<path d="M4.38486 19.6219H5.92896V18.0778H4.38486V19.6219Z" fill="#DFEDFB"/>
<path d="M8.96469 2.8407H15.0352V4.3848H18.071V5.9289H19.6151V8.96469H21.1592V15.0358H19.6151V18.0778H18.071V19.6219H15.0352V21.1592H8.96469V19.6219H5.9289V18.0778H4.3848V15.0358H2.8407V8.96469H4.3848V5.9289H5.9289V4.3848H8.96469V2.8407Z" fill="#A8D1FF"/>
<path d="M17.6092 7.02631H6.39117V16.953H17.6092V7.02631Z" fill="#B89F87"/>
<path d="M8.36851 15.2988H6.39117V15.9645H8.36851V15.2988Z" fill="#6D5C50"/>
<path d="M17.6093 15.2988H15.632V15.9645H17.6093V15.2988Z" fill="#6D5C50"/>
<path d="M15.6314 16.2872H8.36798V16.9529H15.6314V16.2872Z" fill="#6D5C50"/>
<path d="M14.643 7.02631H9.35693V7.995H14.643V7.02631Z" fill="#322A1C"/>
<path d="M16.6203 10.0128H17.6088V7.02628V6.05811H16.6203H14.643V7.02628H16.6203V10.0128Z" fill="#322A1C"/>
<path d="M18.5972 10.0128H17.6088V15.9646H18.5972V10.0128Z" fill="#322A1C"/>
<path d="M7.37959 7.02628H9.35693V6.05811H7.37959H6.39117V7.02628V10.0128H7.37959V7.02628Z" fill="#322A1C"/>
<path d="M7.37959 15.9645H6.39117V16.9535H7.37959H8.368V15.9645H7.37959Z" fill="#322A1C"/>
<path d="M15.6314 16.9535H8.36798V17.9419H15.6314V16.9535Z" fill="#322A1C"/>
<path d="M15.6319 15.9645V16.9535H16.6203H17.6087V15.9645H16.6203H15.6319Z" fill="#322A1C"/>
<path d="M6.39069 10.0128H5.40228V15.9646H6.39069V10.0128Z" fill="#322A1C"/>
<path d="M15.6319 7.36975H15.3087V8.03544H15.6319V8.35816H16.2976V8.03544V7.36975H15.6319Z" fill="#6D5C50"/>
<path d="M8.71152 7.36975H8.38828H7.7226V8.03544V8.35816H8.38828V8.03544H8.71152V7.36975Z" fill="#6D5C50"/>
<path d="M10.3656 11.6669H9.35699V12.6755H10.3656V11.6669Z" fill="#322A1C"/>
<path d="M11.3338 12.6559H10.6682V13.3215H11.3338V12.6559Z" fill="#322A1C"/>
<path d="M13.3314 12.6559H12.6657V13.3215H13.3314V12.6559Z" fill="#322A1C"/>
<path d="M13.3319 14.6332H12.6657V14.3099H11.3343V14.6332H10.6681V13.3215H10.0024V15.6216H10.6681V15.9646H11.3343V16.2873H11.6571V16.6105H12.3227V16.2873H12.6657V15.9646H13.3319V15.6216H13.9976V13.3215H13.3319V14.6332Z" fill="#322A1C"/>
<path d="M14.643 11.6669H13.6344V12.6755H14.643V11.6669Z" fill="#322A1C"/>
</g>
</g>
<defs>
<clipPath id="clip0_982_37582">
<rect width="24" height="24" fill="white" transform="matrix(-1 0 0 1 24 0)"/>
</clipPath>
<clipPath id="clip1_982_37582">
<rect width="24" height="24" fill="white"/>
</clipPath>
</defs>
</svg>
