<svg width="56" height="56" viewBox="0 0 56 56" fill="none" xmlns="http://www.w3.org/2000/svg">
    <g clip-path="url(#clip0_13_252810)">
        <g clip-path="url(#clip1_13_252810)">
            <path d="M52.9749 17.892H52.3981V13.8365C52.3981 12.1654 51.0429 10.8102 49.3718 10.8102H48.795V10.2334C48.795 8.5624 47.4398 7.2072 45.7688 7.2072H45.1909V6.62928C45.1909 4.95824 43.8357 3.60304 42.1646 3.60304H38.1091V3.02624C38.1091 1.3552 36.7539 0 35.0829 0H20.9182C19.2472 0 17.892 1.3552 17.892 3.02624V3.60304H13.8365C12.1654 3.60304 10.8102 4.95824 10.8102 6.62928V7.20608H10.2334C8.5624 7.20608 7.2072 8.56128 7.2072 10.2323V10.8102H6.62928C4.95824 10.8102 3.60304 12.1654 3.60304 13.8365V17.892H3.02624C1.3552 17.892 0 19.2472 0 20.9182V35.0829C0 36.7539 1.3552 38.1091 3.02624 38.1091H3.60304V42.1646C3.60304 43.8357 4.95824 45.1909 6.62928 45.1909H7.20608V45.7834C7.20608 47.4544 8.56128 48.8096 10.2323 48.8096H10.8102V49.3864C10.8102 51.0574 12.1654 52.4126 13.8365 52.4126H17.892V52.9726C17.892 54.6437 19.2472 55.9989 20.9182 55.9989H35.0829C36.7539 55.9989 38.1091 54.6437 38.1091 52.9726V52.4126H42.1646C43.8357 52.4126 45.1909 51.0574 45.1909 49.3864V48.8118H45.7677C47.4387 48.8118 48.7939 47.4566 48.7939 45.7856V45.192H49.3707C51.0418 45.192 52.397 43.8368 52.397 42.1658V38.1102H52.9738C54.6448 38.1102 56 36.755 56 35.084V20.9194C56 19.2483 54.6459 17.8931 52.9749 17.8931V17.892Z" fill="#352B1C"/>
            <path d="M3.02612 20.9184V35.0841H6.62916V42.1659H10.2322V45.7846H13.8352V49.3876H20.9181V52.975H35.0828V49.3876H42.1656V45.7846H45.7687V42.1816H49.3717V35.0841H52.9748V20.9184H49.3717V13.8355H45.7687V10.2324H42.1656V6.62941H35.0828V3.02637H20.9181V6.62941H13.8352V10.2324H10.2322V13.8355H6.62916V20.9172L3.02612 20.9184Z" fill="#F18918"/>
            <path d="M35.0829 3.02637H20.9182V6.62941H35.0829V3.02637Z" fill="#EE7916"/>
            <path d="M42.1656 6.62939H35.0828V10.2324H42.1656V6.62939Z" fill="#EE7916"/>
            <path d="M20.9183 6.62939H13.8354V10.2324H20.9183V6.62939Z" fill="#EE7916"/>
            <path d="M10.2324 13.8355H6.62939V20.9172H10.2324V13.8355H13.8355V10.2324H10.2324V13.8355Z" fill="#EE7916"/>
            <path d="M6.62916 20.917H3.02612V35.0839H6.62916V20.917Z" fill="#EE7916"/>
            <path d="M49.3718 13.8354H45.7688V20.9172H49.3718V13.8354Z" fill="#EE7916"/>
            <path d="M52.9749 20.917H49.3718V35.0839H52.9749V20.917Z" fill="#EE7916"/>
            <path d="M45.7688 10.2324H42.1658V13.8355H45.7688V10.2324Z" fill="#EE7916"/>
            <path d="M35.0829 49.3721H20.9182V52.9751H35.0829V49.3721Z" fill="#EE7916"/>
            <path d="M42.1656 45.7686H35.0828V49.3716H42.1656V45.7686Z" fill="#EE7916"/>
            <path d="M20.9183 45.7686H13.8354V49.3716H20.9183V45.7686Z" fill="#EE7916"/>
            <path d="M10.2324 42.1657V45.7688H13.8355V42.1657H10.2324V35.084H6.62939V42.1657H10.2324Z" fill="#EE7916"/>
            <path d="M49.3718 35.084H45.7688V42.1657H49.3718V35.084Z" fill="#EE7916"/>
            <path d="M45.7688 42.1655H42.1658V45.7686H45.7688V42.1655Z" fill="#EE7916"/>
            <path d="M46.5472 13.4055V13.3999H46.2661V13.4055H46.5472Z" fill="#EE7916"/>
            <path d="M38.9424 25.1462C39.4004 22.0863 37.0708 20.4411 33.8844 19.3446L34.9182 15.1995L32.3948 14.5711L31.3891 18.6065C30.726 18.4407 30.0451 18.2851 29.3675 18.1305L30.3811 14.0683L27.86 13.4399L26.8262 17.5839C26.2774 17.4585 25.7387 17.3353 25.2145 17.2054L25.2179 17.1919L21.738 16.3228L21.0672 19.0175C21.0672 19.0175 22.9387 19.4465 22.8995 19.4734C23.9209 19.7287 24.1057 20.4052 24.0755 20.9406L22.8984 25.6625C22.9689 25.6804 23.0596 25.7062 23.1604 25.7465C23.0764 25.7252 22.9868 25.7028 22.8939 25.6804L21.2441 32.2951C21.1187 32.6054 20.8017 33.0713 20.0883 32.8943C20.1129 32.9313 18.2548 32.4363 18.2548 32.4363L17.0027 35.3247L20.2865 36.1435C20.8969 36.2969 21.4961 36.4571 22.0852 36.6071L21.0414 40.7993L23.5614 41.4276L24.5952 37.2803C25.284 37.4673 25.9515 37.6398 26.6056 37.8022L25.5752 41.9305L28.0985 42.5588L29.1424 38.3745C33.4443 39.1887 36.68 38.8606 38.0419 34.9686C39.1395 31.8359 37.987 30.0283 35.7235 28.85C37.3721 28.4703 38.6142 27.3851 38.9446 25.1451L38.9424 25.1462ZM33.1777 33.2292C32.3982 36.3619 27.123 34.6684 25.4128 34.2439L26.7982 28.6899C28.5084 29.1166 33.9931 29.9622 33.1777 33.2292ZM33.9584 25.1003C33.2472 27.9507 28.8556 26.5025 27.4321 26.1475L28.6888 21.1097C30.1134 21.4647 34.6998 22.1278 33.9595 25.1003H33.9584Z" fill="white"/>
        </g>
    </g>
    <defs>
        <clipPath id="clip0_13_252810">
            <rect width="56" height="56" fill="white" transform="matrix(-1 0 0 1 56 0)"/>
        </clipPath>
        <clipPath id="clip1_13_252810">
            <rect width="56" height="56" fill="white"/>
        </clipPath>
    </defs>
</svg>
