<?xml version="1.0" encoding="UTF-8"?><svg id="Layer_2" xmlns="http://www.w3.org/2000/svg" viewBox="0 0 500 500"><defs><style>.cls-1{opacity:.5;}.cls-2{fill:#352b1c;}.cls-2,.cls-3,.cls-4,.cls-5{stroke-width:0px;}.cls-3{fill:#fff;}.cls-4{fill:#fefefe;}.cls-5{fill:#00b6f3;}</style></defs><g id="Token"><path class="cls-2" d="m472.99,159.75h-5.15v-36.21c0-14.92-12.1-27.02-27.02-27.02h-5.15v-5.15c0-14.92-12.1-27.02-27.02-27.02h-5.16v-5.16c0-14.92-12.1-27.02-27.02-27.02h-36.21v-5.15c0-14.92-12.1-27.02-27.02-27.02h-126.47c-14.92,0-27.02,12.1-27.02,27.02v5.15h-36.21c-14.92,0-27.02,12.1-27.02,27.02v5.15h-5.15c-14.92,0-27.02,12.1-27.02,27.02h0v5.16h-5.16c-14.92,0-27.02,12.1-27.02,27.02v36.21h-5.15c-14.92,0-27.02,12.1-27.02,27.02h0v126.47c0,14.92,12.1,27.02,27.02,27.02h5.15v36.21c0,14.92,12.1,27.02,27.02,27.02h5.15v5.29c0,14.92,12.1,27.02,27.02,27.02h5.16v5.15c0,14.92,12.1,27.02,27.02,27.02h36.21v5c0,14.92,12.1,27.02,27.02,27.02h126.47c14.92,0,27.02-12.1,27.02-27.02v-5h36.21c14.92,0,27.02-12.1,27.02-27.02v-5.13h5.15c14.92,0,27.02-12.1,27.02-27.02h0v-5.3h5.15c14.92,0,27.02-12.1,27.02-27.02h0v-36.21h5.15c14.92,0,27.02-12.1,27.02-27.02h0v-126.47c0-14.92-12.09-27.02-27.01-27.02Z"/></g><g id="BrandColor"><polygon class="cls-5" points="27.02 186.77 27.02 313.25 59.19 313.25 59.19 376.48 91.36 376.48 91.36 408.79 123.53 408.79 123.53 440.96 186.77 440.96 186.77 472.99 313.24 472.99 313.24 440.96 376.48 440.96 376.48 408.79 408.65 408.79 408.65 376.62 440.82 376.62 440.82 313.25 472.99 313.25 472.99 186.77 440.82 186.77 440.82 123.53 408.65 123.53 408.65 91.36 376.48 91.36 376.48 59.19 313.24 59.19 313.24 27.02 186.77 27.02 186.77 59.19 123.53 59.19 123.53 91.36 91.36 91.36 91.36 123.53 59.19 123.53 59.19 186.76 27.02 186.77"/></g><g id="DecoFrame"><g class="cls-1"><rect class="cls-3" x="186.77" y="27.02" width="126.47" height="32.17"/><rect class="cls-3" x="313.24" y="59.19" width="63.24" height="32.17"/><rect class="cls-3" x="123.53" y="59.19" width="63.24" height="32.17"/><polygon class="cls-3" points="91.36 123.53 59.19 123.53 59.19 186.76 91.36 186.76 91.36 123.53 123.53 123.53 123.53 91.36 91.36 91.36 91.36 123.53"/><rect class="cls-3" x="27.02" y="186.76" width="32.17" height="126.49"/><rect class="cls-3" x="408.65" y="123.53" width="32.17" height="63.23"/><rect class="cls-3" x="440.82" y="186.76" width="32.17" height="126.49"/><rect class="cls-3" x="376.48" y="91.36" width="32.17" height="32.17"/><rect class="cls-3" x="186.77" y="440.82" width="126.47" height="32.17"/><rect class="cls-3" x="313.24" y="408.65" width="63.24" height="32.17"/><rect class="cls-3" x="123.53" y="408.65" width="63.24" height="32.17"/><polygon class="cls-3" points="91.36 376.48 91.36 408.65 123.53 408.65 123.53 376.48 91.36 376.48 91.36 313.25 59.19 313.25 59.19 376.48 91.36 376.48"/><rect class="cls-3" x="408.65" y="313.25" width="32.17" height="63.23"/><rect class="cls-3" x="376.48" y="376.48" width="32.17" height="32.17"/><polygon class="cls-3" points="415.6 119.69 415.6 119.64 413.09 119.64 413.09 119.69 415.6 119.69"/><rect class="cls-3" x="54.34" y="315.08" width="0" height="0"/><rect class="cls-3" x="84.4" y="380.31" width="2.51" height="0"/></g></g><g id="Logo"><path class="cls-4" d="m268.36,169.26c-6.13,1.54-11.45,3.71-16.19,7.13-10.14,7.32-16.11,17.28-18.24,29.54-2.6,14.97.49,28.78,8.79,41.44,5.14,7.84,7.76,16.42,7.57,25.78-.1,4.66-.58,9.33-2.69,13.63-4.02,8.18-10.71,12.14-19.71,12.41-9.38.29-15.96-3.93-19.8-12.45-1.22-2.7-2.03-5.54-2.63-8.43-1.17-5.59-1.31-11.26-1.05-17.46-1.85,2.84-3.01,5.45-4.16,8.05-3.75,8.45-6.56,17.21-7.89,26.37-1.62,11.16-1.25,22.19,3.08,32.81,1.27,3.12,2.86,6.08,4.6,8.95,1.72,2.84,3.69,5.5,5.92,8.18-2.22,1.31-4.6,1.87-6.99,2.31-2.74.51-5.51.7-8.3.69-17.63-.03-35.26-.01-52.88-.01-2.14,0-4.23-.31-6.28-.98-6.14-2.01-8.73-6.82-7.08-13.05.93-3.49,2.89-6.46,4.63-9.53,19.38-34.19,38.79-68.36,58.2-102.54,16.98-29.91,33.96-59.83,50.94-89.74,1.5-2.64,3.17-5.14,5.78-6.86,4.45-2.92,8.68-2.61,12.65.96,1.83,1.64,3.26,3.58,4.46,5.71,9.37,16.63,19.05,33.1,28.03,49.93,5.85,10.96,5.52,22.42-.32,33.51-2.15,4.08-4.61,7.98-6.9,11.99-.5.87-.78,1.13-1.8.38-6.38-4.71-11.89-10.14-15.22-17.48-2.85-6.27-3.89-12.82-3.26-19.7.69-7.52,3.03-14.5,6.75-21.55Z"/><path class="cls-4" d="m300.39,348.28c1.83-1.68,3.37-3.02,4.83-4.46,7.72-7.6,13.63-16.35,16.43-26.92,1.91-7.22,2.13-14.6,1.42-22.02-1.06-11.02-4.61-21.16-10.62-30.44-.5-.77-.59-1.39-.06-2.24,1.24-2.03,2.62-3.96,4.38-5.55,4.66-4.24,10.15-4.08,14.77.27,2.46,2.32,4.02,5.24,5.66,8.12,12.1,21.26,24.2,42.53,36.3,63.8,1.29,2.27,2.44,4.63,2.55,7.29.27,6.63-2.85,10.44-9.47,11.82-1.88.39-3.76.35-5.66.35-19.41,0-38.82,0-58.23,0h-2.29Z"/><path class="cls-4" d="m286.58,307.44c3.99,12.3,5.23,24.57,1.18,37-1.32,4.07-1.37,4.25-5.55,3.78-5.38-.6-9.51-3.03-10.71-8.03-.81-3.37-.14-6.66,1.5-9.6,4.28-7.68,8.76-15.26,13.16-22.88.05-.09.19-.13.42-.28Z"/></g></svg>