<?xml version="1.0" encoding="UTF-8"?>
<svg id="Logo" xmlns="http://www.w3.org/2000/svg" viewBox="0 0 500 500">
  <defs>
    <style>
      .cls-1 {
        fill: #ff1229;
      }

      .cls-1, .cls-2, .cls-3, .cls-4 {
        stroke-width: 0px;
      }

      .cls-2 {
        fill: #fff;
      }

      .cls-3 {
        fill: #dd0020;
      }

      .cls-4 {
        fill: #352b1c;
      }
    </style>
  </defs>
  <path class="cls-4" d="M35.62,148.9c0-7.13.13-13.58-.03-20.03-.21-8.09.68-8.97,8.78-8.73,6.12.18,12.26.04,19.85.04,0-7.22.21-14.22-.07-21.2-.22-5.57,1.94-7.45,7.36-7.34,13.1.28,26.21.03,39.32,0,2.73,0,5.46,0,8.81,0,0-8.04.15-15.28-.05-22.52-.13-4.96,1.77-6.95,6.71-6.75,7.08.29,14.19.07,21.9.07,0-7.6.19-14.66-.06-21.7-.18-5.09,1.92-6.72,6.74-6.66,16.23.2,32.46.08,49.28.08,0-8.53.15-15.79-.06-23.03-.13-4.47,1.55-6.07,5.94-6.05,27.41.13,54.82.15,82.23-.02,4.86-.03,6.22,1.98,6.07,6.55-.23,7.05-.06,14.11-.06,22.6,16.13,0,31.75.07,47.37-.03,8.33-.05,8.61.13,8.57,8.86-.03,6.25,0,12.5,0,19.41,7.04,0,13.52.03,20.01,0,8.31-.04,8.6.25,8.57,8.97-.02,6.45,0,12.89,0,20.28,10.01,0,19.48,0,28.95,0,6.36,0,12.73.35,19.06-.06,5.89-.38,7.76,2.12,7.5,7.82-.31,6.66-.07,13.34-.07,20.66,7.59,0,14.26.08,20.92-.02,6.85-.11,7.87.98,7.74,8.04-.13,6.66-.03,13.32-.03,20.76,7.76,0,15.03.2,22.29-.07,4.32-.16,5.93,1.23,5.91,5.86-.17,53.6-.22,107.19-.15,160.79,0,5.13-1.95,6.76-6.77,6.51-5.34-.28-10.74.42-16.07.12-4.97-.29-5.39,2.47-5.39,6.38-.04,23.95-.19,47.91-.29,71.86-.03,8.04-.01,8.04-7.83,8.05-6.31,0-12.62,0-19.85,0,0,14.56,0,28.29,0,42.02,0,3.25-.04,6.5.16,9.74.29,4.81-2,6.52-6.46,6.43-7.11-.14-14.23-.04-22.12-.04,0,7.13-.24,13.99.08,20.82.25,5.44-1.56,7.59-7.13,7.59-101.3-.12-202.59-.12-303.89,0-5.45,0-7.51-1.9-7.25-7.46.33-6.83.08-13.7.08-21.11-6.41,0-12.12-.11-17.83.02-10.81.25-10.73.31-10.68-11,.06-13.6,0-27.2-.06-40.8,0-1.78-.22-3.55-.4-6.21-6.98,0-13.69-.28-20.36.09-5.12.29-6.92-1.31-6.87-6.8.18-23.34-.04-46.69-.21-70.03-.08-11.27.27-9.09-9.4-9.57-3.96-.2-7.97-.44-11.91-.11-5.27.45-6.93-1.72-6.91-6.98.14-28.42,0-56.84-.02-85.27-.02-24.77.09-49.54-.14-74.3-.05-5.03,1.39-6.88,6.41-6.61,6.92.37,13.87.09,21.85.09Z"/>
  <g>
    <rect class="cls-1" x="182.9" y="84.68" width="135.27" height="142.78"/>
    <rect class="cls-1" x="148.25" y="114.29" width="204.56" height="142.78"/>
    <rect class="cls-1" x="122.32" y="298.18" width="256.43" height="142.78"/>
    <rect class="cls-1" x="65.25" y="177.94" width="371.9" height="142.78"/>
    <rect class="cls-1" x="95.15" y="129.09" width="310.76" height="240.48"/>
  </g>
  <g>
    <polygon class="cls-1" points="65.25 169.92 34.01 169.92 34.01 289.54 65.25 289.54 65.25 204.54 96.48 204.54 96.48 144.73 65.25 144.73 65.25 169.92"/>
    <rect class="cls-1" x="65.25" y="291.26" width="31.23" height="78.31"/>
    <rect class="cls-1" x="96.48" y="369.57" width="31.24" height="71.03"/>
    <polygon class="cls-1" points="394.46 114.31 374.67 114.31 361.59 114.31 361.59 88.47 329.02 88.47 329.02 58.04 296.18 58.04 278.7 58.04 278.7 28.98 278.34 28.98 224.05 28.98 223.69 28.98 223.69 58.04 206.21 58.04 173.37 58.04 173.37 88.47 140.79 88.47 140.79 114.31 127.72 114.31 107.93 114.31 96.48 114.31 96.48 144.73 107.93 144.73 127.72 144.73 169.34 144.73 169.34 118.89 202.2 118.89 202.2 88.47 206.21 88.47 296.18 88.47 300.19 88.47 300.19 118.89 333.05 118.89 333.05 144.73 374.67 144.73 394.46 144.73 405.91 144.73 405.91 114.31 394.46 114.31"/>
    <polygon class="cls-1" points="437.14 169.92 437.14 144.73 405.91 144.73 405.91 204.54 437.14 204.54 437.14 289.54 468.38 289.54 468.38 169.92 437.14 169.92"/>
    <polygon class="cls-1" points="241.54 440.6 127.72 440.6 127.72 471.02 241.54 471.02 260.85 471.02 374.67 471.02 374.67 440.6 260.85 440.6 241.54 440.6"/>
    <rect class="cls-1" x="405.91" y="291.26" width="31.23" height="78.31"/>
    <rect class="cls-1" x="374.67" y="369.57" width="31.24" height="71.03"/>
  </g>
  <g>
    <polygon class="cls-3" points="65.25 169.92 34.01 169.92 34.01 289.54 65.25 289.54 65.25 204.54 96.48 204.54 96.48 144.73 65.25 144.73 65.25 169.92"/>
    <rect class="cls-3" x="65.25" y="291.26" width="31.23" height="78.31"/>
    <rect class="cls-3" x="96.48" y="369.57" width="31.24" height="71.39"/>
    <polygon class="cls-3" points="394.46 114.31 374.67 114.31 361.59 114.31 361.59 88.47 329.02 88.47 329.02 58.04 296.18 58.04 278.7 58.04 278.7 28.98 278.34 28.98 224.05 28.98 223.69 28.98 223.69 58.04 206.21 58.04 173.37 58.04 173.37 88.47 140.79 88.47 140.79 114.31 127.72 114.31 107.93 114.31 95.15 114.31 95.15 144.73 107.93 144.73 127.72 144.73 169.34 144.73 169.34 118.89 202.2 118.89 202.2 88.47 206.21 88.47 296.18 88.47 300.19 88.47 300.19 118.89 333.05 118.89 333.05 144.73 374.67 144.73 394.46 144.73 405.91 144.73 405.91 114.31 394.46 114.31"/>
    <polygon class="cls-3" points="437.14 169.92 437.14 144.73 405.91 144.73 405.91 204.54 437.14 204.54 437.14 289.54 468.38 289.54 468.38 169.92 437.14 169.92"/>
    <polygon class="cls-3" points="241.54 440.6 127.72 440.6 127.72 471.02 241.54 471.02 260.85 471.02 374.67 471.02 374.67 440.6 260.85 440.6 241.54 440.6"/>
    <rect class="cls-3" x="405.91" y="291.26" width="31.23" height="78.31"/>
    <rect class="cls-3" x="374.67" y="369.57" width="31.24" height="71.39"/>
  </g>
  <g>
    <path class="cls-2" d="M268.58,377.43l-36.98-.52c-4.43,0-8.07,3.35-8.07,7.73v18.3c-.26,14.44,11.2,26.29,25.78,26.55,14.58,0,26.56-11.34,26.82-25.78v-18.3c0-4.38-3.39-7.99-7.55-7.99Z"/>
    <path class="cls-2" d="M244.88,129.46c-51.56,2.58-93.75,44.08-96.87,94.86-1.82,30.67,10.16,58.77,30.73,78.36h.26l7.03,6.44,29.69,25.52c3.12,2.84,7.29,4.38,11.46,4.38h45.57c4.17,0,8.33-1.55,11.46-4.38l30.73-26.55,4.95-4.13c19.79-18.56,32.29-44.59,32.29-73.72,0-57.48-48.7-103.62-107.29-101.05v.26ZM249.83,183.07c26.3,0,47.65,21.14,47.65,47.17s-21.35,47.17-47.65,47.17-47.65-21.14-47.65-47.17,21.35-47.17,47.65-47.17Z"/>
  </g>
</svg>