<?xml version="1.0" encoding="UTF-8"?><svg id="Layer_2" xmlns="http://www.w3.org/2000/svg" viewBox="0 0 500 500"><defs><style>.cls-1{opacity:.5;}.cls-2{fill:#352b1c;}.cls-2,.cls-3,.cls-4{stroke-width:0px;}.cls-3{fill:#fff;}.cls-4{fill:#e84142;}</style></defs><g id="Token"><path class="cls-2" d="m472.99,159.75h-5.15v-36.21c0-14.92-12.1-27.02-27.02-27.02h-5.15v-5.15c0-14.92-12.1-27.02-27.02-27.02h-5.16v-5.16c0-14.92-12.1-27.02-27.02-27.02h-36.21v-5.15c0-14.92-12.1-27.02-27.02-27.02h-126.47c-14.92,0-27.02,12.1-27.02,27.02v5.15h-36.21c-14.92,0-27.02,12.1-27.02,27.02v5.15h-5.15c-14.92,0-27.02,12.1-27.02,27.02h0v5.16h-5.16c-14.92,0-27.02,12.1-27.02,27.02v36.21h-5.15c-14.92,0-27.02,12.1-27.02,27.02h0v126.47c0,14.92,12.1,27.02,27.02,27.02h5.15v36.21c0,14.92,12.1,27.02,27.02,27.02h5.15v5.29c0,14.92,12.1,27.02,27.02,27.02h5.16v5.15c0,14.92,12.1,27.02,27.02,27.02h36.21v5c0,14.92,12.1,27.02,27.02,27.02h126.47c14.92,0,27.02-12.1,27.02-27.02v-5h36.21c14.92,0,27.02-12.1,27.02-27.02v-5.13h5.15c14.92,0,27.02-12.1,27.02-27.02h0v-5.3h5.15c14.92,0,27.02-12.1,27.02-27.02h0v-36.21h5.15c14.92,0,27.02-12.1,27.02-27.02h0v-126.47c0-14.92-12.09-27.02-27.01-27.02Z"/></g><g id="BrandColor"><polygon class="cls-4" points="27.02 186.77 27.02 313.25 59.19 313.25 59.19 376.48 91.36 376.48 91.36 408.79 123.53 408.79 123.53 440.96 186.77 440.96 186.77 472.99 313.24 472.99 313.24 440.96 376.48 440.96 376.48 408.79 408.65 408.79 408.65 376.62 440.82 376.62 440.82 313.25 472.99 313.25 472.99 186.77 440.82 186.77 440.82 123.53 408.65 123.53 408.65 91.36 376.48 91.36 376.48 59.19 313.24 59.19 313.24 27.02 186.77 27.02 186.77 59.19 123.53 59.19 123.53 91.36 91.36 91.36 91.36 123.53 59.19 123.53 59.19 186.76 27.02 186.77"/></g><g id="DecoFrame"><g class="cls-1"><rect class="cls-3" x="186.77" y="27.02" width="126.47" height="32.17"/><rect class="cls-3" x="313.24" y="59.19" width="63.24" height="32.17"/><rect class="cls-3" x="123.53" y="59.19" width="63.24" height="32.17"/><polygon class="cls-3" points="91.36 123.53 59.19 123.53 59.19 186.76 91.36 186.76 91.36 123.53 123.53 123.53 123.53 91.36 91.36 91.36 91.36 123.53"/><rect class="cls-3" x="27.02" y="186.76" width="32.17" height="126.49"/><rect class="cls-3" x="408.65" y="123.53" width="32.17" height="63.23"/><rect class="cls-3" x="440.82" y="186.76" width="32.17" height="126.49"/><rect class="cls-3" x="376.48" y="91.36" width="32.17" height="32.17"/><rect class="cls-3" x="186.77" y="440.82" width="126.47" height="32.17"/><rect class="cls-3" x="313.24" y="408.65" width="63.24" height="32.17"/><rect class="cls-3" x="123.53" y="408.65" width="63.24" height="32.17"/><polygon class="cls-3" points="91.36 376.48 91.36 408.65 123.53 408.65 123.53 376.48 91.36 376.48 91.36 313.25 59.19 313.25 59.19 376.48 91.36 376.48"/><rect class="cls-3" x="408.65" y="313.25" width="32.17" height="63.23"/><rect class="cls-3" x="376.48" y="376.48" width="32.17" height="32.17"/><polygon class="cls-3" points="415.6 119.69 415.6 119.64 413.09 119.64 413.09 119.69 415.6 119.69"/><rect class="cls-3" x="54.34" y="315.08" width="0" height="0"/><rect class="cls-3" x="84.4" y="380.31" width="2.51" height="0"/></g></g><g id="Logo"><path class="cls-3" d="m293.96,207.88c1.18-4.89,1.18-10.06,0-14.95-1.07-4.48-3.51-8.75-8.33-17.18l-.11-.19-21.56-37.64c-4.46-7.85-6.72-11.78-9.57-13.23-3.07-1.56-6.72-1.56-9.79,0-2.85,1.45-5.11,5.38-9.57,13.23l-104.89,184.88c-4.41,7.74-6.61,11.62-6.45,14.79.22,3.44,1.99,6.56,4.89,8.44,2.69,1.72,7.1,1.72,16.02,1.72h42.48c10,0,15,0,19.47-1.24,4.89-1.45,9.36-4.03,13.07-7.58,3.41-3.25,5.87-7.55,10.72-16.04l.14-.25,55.1-97.39c4.89-8.55,7.31-12.85,8.39-17.37Z"/><path class="cls-3" d="m278.23,346.04c2.64,1.72,7.15,1.72,16.13,1.72h60.87c8.98,0,13.5,0,16.19-1.77,2.9-1.88,4.73-5.06,4.89-8.5.15-3.07-2-6.79-6.23-14.08-.15-.25-.29-.5-.44-.76l-30.49-52.16-.35-.59c-4.28-7.25-6.45-10.9-9.22-12.32-3.06-1.56-6.67-1.56-9.73,0-2.8,1.45-5.05,5.27-9.52,12.96l-30.38,52.16-.1.18c-4.45,7.68-6.67,11.51-6.51,14.66.22,3.44,1.99,6.61,4.89,8.5Z"/></g></svg>