<svg width="28" height="27" viewBox="0 0 28 27" fill="none" xmlns="http://www.w3.org/2000/svg">
<g clip-path="url(#clip0_13_1535)">
<path d="M10.3051 3.54032C10.1447 3.54048 9.99076 3.4793 9.87702 3.37019C9.76329 3.26109 9.69906 3.11296 9.6984 2.95826L9.69031 1.20011C9.68981 1.04499 9.75316 0.896019 9.86644 0.785884C9.97972 0.67575 10.1337 0.61345 10.2946 0.612656L13.9462 0.600055C13.9638 0.599144 13.9814 0.599144 13.9991 0.600055L17.5922 0.585054C17.7527 0.584735 17.9067 0.64586 18.0205 0.754999C18.1342 0.864138 18.1984 1.01236 18.1989 1.16711L18.207 2.92706C18.2075 3.08218 18.1442 3.23115 18.0309 3.34129C17.9176 3.45142 17.7636 3.51372 17.6028 3.51451L13.9511 3.52951C13.9333 3.53041 13.9155 3.53041 13.8976 3.52951L10.3051 3.54032Z" fill="#352B1C"/>
<path d="M17.5921 1.1701L17.6002 2.92946L15.7756 2.93666L13.951 2.94446L12.1296 2.95226L10.305 2.95946L10.2969 1.20011L12.1215 1.19291L13.9461 1.18511L15.7675 1.1773L17.5921 1.1701ZM17.5921 0H17.5865L15.7625 0.00780069L14.0201 0.0150013C13.9958 0.0150013 13.971 0.0150013 13.9461 0.0150013H13.9392L12.1165 0.0204018L10.2913 0.0282025C9.96994 0.0301071 9.66245 0.154885 9.43635 0.375154C9.21025 0.595423 9.08401 0.893189 9.08534 1.20311L9.09343 2.96246C9.09491 3.27175 9.22332 3.5679 9.4506 3.78615C9.67787 4.0044 9.98552 4.12701 10.3063 4.12717H10.3119L12.1346 4.11937L13.877 4.11217C13.9013 4.11217 13.9261 4.11217 13.951 4.11217H13.956L15.7806 4.10436L17.6051 4.09656C17.7645 4.09593 17.9222 4.06505 18.0691 4.00566C18.2161 3.94628 18.3495 3.85956 18.4617 3.75046C18.574 3.64136 18.6628 3.51201 18.7232 3.36981C18.7835 3.2276 18.8143 3.07532 18.8136 2.92166L18.8055 1.1623C18.8034 0.85343 18.6747 0.5579 18.4475 0.340164C18.2203 0.122429 17.913 0.000151536 17.5927 0L17.5921 0Z" fill="#352B1C"/>
<path d="M10.4078 26.4149C10.2473 26.4152 10.0933 26.3541 9.9795 26.245C9.86574 26.1358 9.80156 25.9876 9.80106 25.8329L9.79297 24.0729C9.79248 23.9178 9.85582 23.7688 9.9691 23.6587C10.0824 23.5486 10.2364 23.4863 10.3972 23.4855L14.0488 23.4705C14.0667 23.4696 14.0845 23.4696 14.1023 23.4705L17.6948 23.4555C17.8553 23.4552 18.0094 23.5163 18.1231 23.6254C18.2369 23.7346 18.3011 23.8828 18.3016 24.0375L18.3097 25.7975C18.3102 25.9526 18.2468 26.1016 18.1335 26.2117C18.0202 26.3218 17.8663 26.3841 17.7054 26.3849L14.0538 26.3999C14.0362 26.4008 14.0185 26.4008 14.0009 26.3999L10.4078 26.4149Z" fill="#352B1C"/>
<path d="M17.6948 24.0429L17.7029 25.8023L15.8783 25.8095L14.0538 25.8173L12.2323 25.8251L10.4078 25.8323L10.3997 24.0729L12.2242 24.0657L14.0488 24.0579L15.8684 24.0501L17.6929 24.0429H17.6948ZM17.6929 22.8728H17.688L15.8634 22.8806L14.121 22.8878C14.0961 22.8878 14.0718 22.8878 14.0463 22.8878H14.0413L12.2168 22.8956L10.3922 22.9034C10.2329 22.9041 10.0752 22.935 9.92822 22.9943C9.78124 23.0537 9.64784 23.1404 9.53562 23.2495C9.4234 23.3586 9.33457 23.488 9.27419 23.6302C9.21381 23.7724 9.18307 23.9247 9.18373 24.0783L9.19182 25.8377C9.1933 26.1475 9.32214 26.4441 9.55009 26.6624C9.77803 26.8808 10.0865 27.003 10.4078 27.0024H10.4128L12.2373 26.9946L13.9797 26.9874C14.0046 26.9874 14.0295 26.9874 14.0544 26.9874H14.0594L15.8839 26.9796L17.7091 26.9718C17.8685 26.9712 18.0261 26.9403 18.1731 26.8809C18.3201 26.8215 18.4535 26.7348 18.5657 26.6257C18.6779 26.5166 18.7668 26.3872 18.8271 26.245C18.8875 26.1028 18.9183 25.9506 18.9176 25.7969L18.9095 24.0375C18.908 23.7281 18.7795 23.4319 18.5521 23.2136C18.3247 22.9954 18.0169 22.8728 17.696 22.8728H17.6929Z" fill="#352B1C"/>
<path d="M6.66341 5.31708C6.50297 5.31693 6.34912 5.25556 6.23544 5.1464C6.12176 5.03723 6.0575 4.88913 6.05667 4.73443L6.04921 2.97507C6.04871 2.89825 6.06395 2.82209 6.09404 2.75095C6.12413 2.67982 6.16849 2.61511 6.22457 2.56054C6.28064 2.50596 6.34734 2.4626 6.42083 2.43292C6.49432 2.40325 6.57316 2.38786 6.65283 2.38762L10.3051 2.37262C10.4654 2.37262 10.6192 2.43386 10.7328 2.54295C10.8464 2.65204 10.9105 2.80008 10.9112 2.95467L10.9193 4.71403C10.9197 4.79085 10.9045 4.86701 10.8744 4.93815C10.8443 5.00928 10.8 5.07399 10.7439 5.12857C10.6878 5.18314 10.6211 5.22651 10.5476 5.25618C10.4741 5.28585 10.3953 5.30124 10.3156 5.30148L6.66341 5.31708Z" fill="#352B1C"/>
<path d="M10.3051 2.95707L10.3126 4.71703L8.48802 4.72423L6.66347 4.73203L6.65849 2.97267L8.48367 2.96487L10.3082 2.95707H10.3051ZM10.3082 1.78757H10.3026L8.47807 1.79477L6.6504 1.80017C6.49086 1.8008 6.33302 1.83177 6.18592 1.89131C6.03881 1.95085 5.90534 2.0378 5.79314 2.14716C5.68094 2.25652 5.59221 2.38616 5.53205 2.52864C5.47189 2.67111 5.44147 2.82364 5.44253 2.97747L5.45 4.73683C5.45115 5.04638 5.57953 5.34286 5.80699 5.56129C6.03445 5.77972 6.34245 5.90229 6.66347 5.90213H6.66845L8.49363 5.89433L10.3182 5.88653C10.6399 5.8851 10.9479 5.76053 11.1744 5.54021C11.4009 5.31989 11.5274 5.02185 11.5261 4.71163L11.518 2.95227C11.5168 2.64288 11.3885 2.34655 11.1612 2.12823C10.9338 1.90991 10.626 1.78741 10.3051 1.78757H10.3082Z" fill="#352B1C"/>
<path d="M6.75057 24.6706C6.5901 24.6709 6.43605 24.6098 6.32228 24.5007C6.20852 24.3915 6.14433 24.2433 6.14384 24.0885L6.13575 22.3292C6.13534 22.2523 6.15065 22.1762 6.18081 22.105C6.21097 22.0339 6.25539 21.9692 6.31151 21.9146C6.36764 21.86 6.43437 21.8167 6.5079 21.787C6.58142 21.7574 6.66029 21.742 6.74 21.7417L10.3916 21.7261C10.5521 21.7261 10.706 21.7874 10.8198 21.8966C10.9335 22.0058 10.9977 22.154 10.9983 22.3088L11.0064 24.0681C11.0068 24.145 10.9914 24.2211 10.9612 24.2922C10.931 24.3633 10.8866 24.428 10.8305 24.4825C10.7744 24.5371 10.7077 24.5805 10.6342 24.6101C10.5607 24.6398 10.4819 24.6553 10.4022 24.6556L6.75057 24.6706Z" fill="#352B1C"/>
<path d="M10.3923 22.3112L10.4004 24.0705L8.5758 24.0783L6.75124 24.0861L6.74315 22.3268L8.56771 22.319L10.3923 22.3112ZM10.3923 21.1411H10.3867L8.56211 21.1489L6.73755 21.1567C6.41577 21.1581 6.10774 21.2827 5.88114 21.503C5.65454 21.7233 5.5279 22.0213 5.52906 22.3316L5.5384 24.0909C5.53988 24.4003 5.66838 24.6966 5.89579 24.9148C6.12319 25.1331 6.431 25.2557 6.75186 25.2556H6.75684L8.5814 25.2484L10.406 25.2406C10.7277 25.2392 11.0358 25.1147 11.2624 24.8944C11.489 24.6741 11.6156 24.376 11.6144 24.0657L11.6064 22.3064C11.6049 21.9968 11.4763 21.7004 11.2488 21.4821C11.0213 21.2637 10.7133 21.1411 10.3923 21.1411Z" fill="#352B1C"/>
<path d="M4.84702 7.08423C4.68654 7.08423 4.53259 7.02292 4.41887 6.91372C4.30516 6.80452 4.24095 6.65633 4.24029 6.50158L4.23158 4.74042C4.23117 4.66357 4.24648 4.5874 4.27664 4.51626C4.3068 4.44512 4.35121 4.38042 4.40734 4.32585C4.46346 4.27129 4.5302 4.22793 4.60372 4.19826C4.67725 4.1686 4.75612 4.15321 4.83582 4.15297L6.66287 4.14517C6.82336 4.14517 6.97731 4.20648 7.09102 4.31568C7.20473 4.42488 7.26895 4.57307 7.26961 4.72782L7.2777 6.48718C7.27819 6.6423 7.21485 6.79127 7.10157 6.9014C6.98828 7.01154 6.83431 7.07384 6.67345 7.07463L4.84702 7.08423Z" fill="#352B1C"/>
<path d="M6.6634 4.73202L6.67149 6.49138L4.84693 6.49918L4.83884 4.74042L6.6634 4.73262V4.73202ZM6.6634 3.56252H6.65842L4.83324 3.57032C4.51162 3.57175 4.20375 3.69624 3.97727 3.91643C3.75078 4.13662 3.62422 4.4345 3.62537 4.74462L3.63346 6.50398C3.63494 6.81343 3.76342 7.10973 3.99082 7.32809C4.21821 7.54646 4.52601 7.66913 4.84693 7.66928H4.85378L6.67833 7.66148C6.99973 7.65958 7.30722 7.5348 7.53332 7.31453C7.75942 7.09426 7.88566 6.7965 7.88433 6.48658L7.87686 4.72722C7.87571 4.41768 7.74734 4.1212 7.51987 3.90276C7.29241 3.68433 6.98442 3.56176 6.6634 3.56192V3.56252Z" fill="#352B1C"/>
<path d="M4.9161 22.922C4.75566 22.9219 4.60181 22.8605 4.48813 22.7514C4.37445 22.6422 4.31018 22.4941 4.30936 22.3394L4.30127 20.58C4.30078 20.4249 4.36412 20.2759 4.4774 20.1658C4.59068 20.0557 4.74465 19.9934 4.90552 19.9926L6.73257 19.9854C6.893 19.9852 7.04695 20.0464 7.16068 20.1555C7.27441 20.2646 7.33864 20.4127 7.3393 20.5674L7.34926 22.322C7.34967 22.3988 7.33435 22.475 7.30419 22.5462C7.27403 22.6173 7.22962 22.682 7.17349 22.7366C7.11737 22.7911 7.05063 22.8345 6.97711 22.8642C6.90358 22.8938 6.82471 22.9092 6.74501 22.9094L4.9161 22.922Z" fill="#352B1C"/>
<path d="M6.73433 20.5668L6.74242 22.3268L4.91599 22.334L4.9079 20.5746L6.73246 20.5668H6.73433ZM6.73246 19.3973H6.72686L4.9023 19.4045C4.58058 19.4066 4.27287 19.5318 4.04683 19.7526C3.8208 19.9733 3.69494 20.2716 3.69692 20.5818L3.70439 22.3412C3.70636 22.65 3.83482 22.9455 4.06177 23.1633C4.28873 23.3811 4.59577 23.5036 4.91599 23.5041H4.92097L6.74553 23.4963C6.90499 23.4959 7.06281 23.4652 7.20996 23.406C7.35711 23.3467 7.4907 23.2601 7.60311 23.151C7.71552 23.042 7.80453 22.9126 7.86507 22.7704C7.9256 22.6281 7.95646 22.4758 7.95589 22.322L7.9478 20.5626C7.94632 20.2534 7.8179 19.9572 7.59063 19.739C7.36335 19.5207 7.05571 19.3981 6.73495 19.3979L6.73246 19.3973Z" fill="#352B1C"/>
<path d="M3.03795 10.6107C2.87752 10.6106 2.72366 10.5492 2.60998 10.4401C2.49631 10.3309 2.43204 10.1828 2.43122 10.0281L2.41566 6.50938C2.41517 6.43255 2.43041 6.35639 2.4605 6.28526C2.49059 6.21412 2.53494 6.14941 2.59102 6.09484C2.6471 6.04026 2.71379 5.9969 2.78728 5.96723C2.86077 5.93755 2.93961 5.92216 3.01928 5.92192L4.84695 5.91412C5.00733 5.91428 5.16112 5.97566 5.2747 6.08484C5.38828 6.19403 5.45241 6.34213 5.45307 6.49678L5.46925 10.0155C5.46974 10.1706 5.4064 10.3196 5.29312 10.4297C5.17983 10.5398 5.02587 10.6021 4.865 10.6029L3.03795 10.6107Z" fill="#352B1C"/>
<path d="M4.847 6.49918L4.85384 8.25853L4.86255 10.0209L3.038 10.0287L3.02991 8.26933L3.02182 6.50998L4.847 6.50218V6.49918ZM4.847 5.33207H4.8414L3.01684 5.33987C2.69511 5.3413 2.38715 5.46587 2.16064 5.68619C1.93414 5.90651 1.80765 6.20455 1.80897 6.51478L1.81644 8.27413L1.82453 10.0335C1.82601 10.3429 1.95449 10.6392 2.18188 10.8576C2.40927 11.076 2.71708 11.1986 3.038 11.1988H3.04297L4.86753 11.191C5.18931 11.1896 5.49735 11.065 5.72395 10.8447C5.95055 10.6244 6.07718 10.3264 6.07602 10.0161L6.06793 8.25673L6.05984 6.49678C6.05935 6.18692 5.93135 5.88991 5.70395 5.67097C5.47655 5.45204 5.16834 5.32907 4.847 5.32907V5.33207Z" fill="#352B1C"/>
<path d="M1.24455 17.656C1.16503 17.6561 1.08626 17.6412 1.01274 17.612C0.939217 17.5828 0.872376 17.5399 0.816036 17.4858C0.759695 17.4317 0.714958 17.3674 0.684378 17.2967C0.653798 17.2259 0.637975 17.15 0.637812 17.0733L0.606697 10.0359C0.606288 9.95904 0.621601 9.88287 0.651761 9.81173C0.681921 9.74059 0.726335 9.67589 0.782461 9.62132C0.838587 9.56676 0.905322 9.5234 0.978847 9.49373C1.05237 9.46407 1.13124 9.44868 1.21094 9.44844L3.03799 9.44064C3.198 9.44079 3.35148 9.50183 3.46509 9.61047C3.57869 9.71912 3.64325 9.86661 3.64472 10.0209L3.67584 17.0583C3.67633 17.1351 3.66109 17.2113 3.631 17.2824C3.60091 17.3536 3.55656 17.4183 3.50048 17.4729C3.4444 17.5274 3.37771 17.5708 3.30422 17.6005C3.23073 17.6301 3.15189 17.6455 3.07222 17.6458L1.24455 17.656Z" fill="#352B1C"/>
<path d="M3.03791 10.0257L3.04911 11.7851L3.05658 13.5444L3.06156 15.3014L3.06965 17.0607L1.24447 17.0709L1.237 15.3116L1.22891 13.5522L1.22082 11.7929L1.21336 10.0335L3.03791 10.0257ZM3.03791 8.85559H3.03231L1.20776 8.86339C0.886031 8.86482 0.578063 8.98939 0.351561 9.20971C0.12506 9.43003 -0.00143511 9.72807 -0.000111791 10.0383L0.00797799 11.7977L0.0154455 13.557L0.0235353 15.3164L0.0316251 17.0763C0.0329414 17.3857 0.161284 17.682 0.388576 17.9004C0.615869 18.1188 0.923607 18.2415 1.24447 18.2416H1.25007L3.07463 18.2338C3.23395 18.2332 3.39159 18.2023 3.53853 18.1429C3.68547 18.0835 3.81884 17.9968 3.93101 17.8877C4.04317 17.7786 4.13195 17.6492 4.19226 17.507C4.25257 17.3648 4.28323 17.2126 4.2825 17.0589L4.27503 15.3014L4.26694 13.542L4.25885 11.7827L4.25076 10.0209C4.24928 9.7116 4.12086 9.41546 3.89359 9.19721C3.66631 8.97895 3.35867 8.85635 3.03791 8.85619V8.85559Z" fill="#352B1C"/>
<path d="M17.6108 5.27387C17.4503 5.27387 17.2964 5.21256 17.1827 5.10336C17.0689 4.99416 17.0047 4.84597 17.0041 4.69122L16.996 2.93186C16.9955 2.77674 17.0588 2.62777 17.1721 2.51764C17.2854 2.4075 17.4394 2.3452 17.6002 2.34441L21.2518 2.32941C21.4123 2.32925 21.5662 2.39042 21.6799 2.49953C21.7937 2.60863 21.8579 2.75676 21.8586 2.91146L21.8666 4.67081C21.8671 4.74767 21.8517 4.82384 21.8216 4.89498C21.7914 4.96612 21.747 5.03082 21.6909 5.08539C21.6348 5.13996 21.568 5.18331 21.4945 5.21298C21.421 5.24264 21.3421 5.25803 21.2624 5.25827L17.6108 5.27387Z" fill="#352B1C"/>
<path d="M21.2493 2.91386L21.2574 4.67381L19.4328 4.68042L17.6108 4.68882L17.6027 2.92946L19.4272 2.92166L21.2518 2.91386H21.2493ZM21.2518 1.74435H21.2462L19.4216 1.75155L17.5971 1.75936C17.4376 1.75983 17.2798 1.7906 17.1326 1.8499C16.9855 1.90921 16.8519 1.9959 16.7395 2.105C16.6271 2.21411 16.5381 2.34351 16.4775 2.48579C16.417 2.62808 16.3862 2.78047 16.3867 2.93426L16.3948 4.69362C16.396 5.00358 16.5247 5.30042 16.7527 5.51893C16.9807 5.73743 17.2893 5.85972 17.6108 5.85892L19.4353 5.85112L21.2599 5.84332C21.4194 5.84293 21.5773 5.81221 21.7245 5.75294C21.8718 5.69367 22.0054 5.607 22.1179 5.49788C22.2304 5.38877 22.3194 5.25935 22.38 5.11702C22.4406 4.97469 22.4714 4.82225 22.4709 4.66841L22.4646 2.90906C22.4632 2.59977 22.3347 2.30362 22.1075 2.08537C21.8802 1.86712 21.5726 1.74451 21.2518 1.74435Z" fill="#352B1C"/>
<path d="M17.6948 24.6274C17.5344 24.6275 17.3805 24.5663 17.2669 24.4572C17.1533 24.3481 17.0892 24.2 17.0887 24.0453L17.0806 22.286C17.0801 22.2092 17.0953 22.133 17.1254 22.0619C17.1555 21.9907 17.1999 21.926 17.2559 21.8714C17.312 21.8169 17.3787 21.7735 17.4522 21.7438C17.5257 21.7142 17.6045 21.6988 17.6842 21.6985L21.3364 21.6829C21.4969 21.6829 21.6509 21.7442 21.7646 21.8534C21.8783 21.9626 21.9425 22.1108 21.9432 22.2656L21.9512 24.0249C21.9516 24.1018 21.9362 24.1779 21.906 24.249C21.8758 24.3201 21.8314 24.3848 21.7753 24.4393C21.7192 24.4939 21.6525 24.5372 21.579 24.5669C21.5055 24.5966 21.4267 24.6121 21.347 24.6124L17.6948 24.6274Z" fill="#352B1C"/>
<path d="M21.3365 22.268L21.3446 24.0273L19.52 24.0351L17.6948 24.0429L17.6874 22.283L19.5119 22.2758L21.3365 22.268ZM21.3365 21.0979H21.3315L19.5063 21.1057L17.6818 21.1135C17.5224 21.114 17.3647 21.1449 17.2178 21.2042C17.0708 21.2636 16.9374 21.3503 16.8252 21.4594C16.713 21.5686 16.6242 21.698 16.564 21.8402C16.5037 21.9824 16.4731 22.1347 16.4739 22.2884L16.482 24.0477C16.4835 24.357 16.6119 24.6532 16.8392 24.8714C17.0664 25.0897 17.3741 25.2123 17.6948 25.2124H17.7004L19.525 25.2052L21.3495 25.1974C21.5089 25.1968 21.6665 25.1659 21.8134 25.1065C21.9604 25.0471 22.0937 24.9604 22.2059 24.8513C22.3181 24.7422 22.4069 24.6128 22.4672 24.4706C22.5275 24.3284 22.5581 24.1762 22.5574 24.0225L22.5499 22.262C22.5488 21.9524 22.4204 21.656 22.1929 21.4375C21.9655 21.2191 21.6575 21.0965 21.3365 21.0967V21.0979Z" fill="#352B1C"/>
<path d="M21.2655 7.02061C21.105 7.02062 20.951 6.95931 20.8373 6.85011C20.7236 6.74091 20.6594 6.59271 20.6587 6.43796L20.6506 4.67861C20.6502 4.60175 20.6655 4.52558 20.6957 4.45444C20.7259 4.3833 20.7703 4.3186 20.8264 4.26403C20.8825 4.20947 20.9493 4.16611 21.0228 4.13644C21.0963 4.10678 21.1752 4.09139 21.2549 4.09115L23.0819 4.08035C23.2424 4.08035 23.3964 4.14166 23.5101 4.25086C23.6238 4.36006 23.688 4.50826 23.6887 4.663L23.6968 6.42056C23.6973 6.57568 23.6339 6.72465 23.5206 6.83478C23.4073 6.94492 23.2534 7.00722 23.0925 7.00801L21.2655 7.02061Z" fill="#352B1C"/>
<path d="M23.082 4.66602L23.0901 6.42537L21.2655 6.43317L21.2574 4.67382L23.082 4.66602ZM23.082 3.49591H23.077L21.2524 3.50371C21.093 3.50442 20.9352 3.53542 20.7881 3.59495C20.6411 3.65447 20.5076 3.74135 20.3954 3.85063C20.2831 3.95991 20.1943 4.08943 20.1341 4.23181C20.0738 4.37419 20.0431 4.52663 20.044 4.68042L20.0521 6.43977C20.0535 6.74917 20.182 7.0454 20.4094 7.26367C20.6369 7.48194 20.9447 7.60448 21.2655 7.60448H21.2705L23.0951 7.59728C23.2545 7.59657 23.4123 7.56557 23.5594 7.50604C23.7064 7.44652 23.8399 7.35963 23.9521 7.25036C24.0644 7.14108 24.1532 7.01156 24.2135 6.86918C24.2737 6.7268 24.3044 6.57436 24.3035 6.42057L24.2955 4.66061C24.294 4.35122 24.1655 4.05499 23.9381 3.83671C23.7107 3.61844 23.4029 3.49591 23.082 3.49591Z" fill="#352B1C"/>
<path d="M21.3365 22.853C21.1761 22.8529 21.0222 22.7915 20.9085 22.6823C20.7949 22.5732 20.7306 22.4251 20.7298 22.2704L20.7223 20.511C20.7219 20.4342 20.7372 20.3581 20.7673 20.287C20.7974 20.2159 20.8418 20.1512 20.8978 20.0967C20.9539 20.0421 21.0206 19.9987 21.094 19.969C21.1675 19.9393 21.2463 19.9239 21.3259 19.9236L23.1536 19.9158C23.314 19.9159 23.4678 19.9773 23.5813 20.0865C23.6949 20.1957 23.7591 20.3438 23.7597 20.4984L23.7678 22.2578C23.7681 22.3346 23.7528 22.4107 23.7226 22.4819C23.6924 22.553 23.648 22.6176 23.5919 22.6722C23.5357 22.7267 23.469 22.7701 23.3956 22.7998C23.3221 22.8295 23.2432 22.8449 23.1636 22.8452L21.3365 22.853Z" fill="#352B1C"/>
<path d="M23.1529 20.5008L23.161 22.2602L21.3364 22.268L21.3283 20.5086L23.1529 20.5008ZM23.1529 19.3313H23.1491L21.3246 19.3385C21.0029 19.34 20.6949 19.4645 20.4684 19.6848C20.2419 19.9052 20.1154 20.2032 20.1167 20.5134L20.1242 22.2734C20.1258 22.5827 20.2544 22.8789 20.4818 23.0971C20.7091 23.3154 21.0168 23.4379 21.3376 23.4381H21.3445L23.1697 23.4303C23.4914 23.4289 23.7994 23.3043 24.0259 23.084C24.2524 22.8637 24.3789 22.5656 24.3775 22.2554L24.3695 20.496C24.368 20.1867 24.2396 19.8906 24.0123 19.6723C23.785 19.4541 23.4774 19.3315 23.1566 19.3313H23.1529Z" fill="#352B1C"/>
<path d="M23.1056 10.5291C22.9451 10.5291 22.7911 10.4678 22.6774 10.3586C22.5637 10.2494 22.4995 10.1012 22.4988 9.9465L22.4833 6.42778C22.4828 6.27277 22.546 6.12389 22.6592 6.01377C22.7723 5.90365 22.9261 5.84128 23.0869 5.84033L24.914 5.83313C25.0743 5.83313 25.2282 5.89436 25.3419 6.00343C25.4556 6.1125 25.5199 6.26054 25.5207 6.41518L25.5362 9.9339C25.5367 10.0107 25.5215 10.0869 25.4914 10.158C25.4613 10.2291 25.417 10.2939 25.3609 10.3484C25.3048 10.403 25.2381 10.4464 25.1646 10.476C25.0911 10.5057 25.0123 10.5211 24.9326 10.5213L23.1056 10.5291Z" fill="#352B1C"/>
<path d="M24.9146 6.42058L24.9227 8.17994L24.9301 9.9399L23.1056 9.9471L23.0981 8.18774L23.09 6.42838L24.9146 6.42058ZM24.9146 5.25108H24.9096L23.0869 5.25528C22.7652 5.25671 22.4572 5.38128 22.2307 5.6016C22.0042 5.82192 21.8777 6.11995 21.879 6.43018L21.8871 8.19014L21.8952 9.9495C21.8967 10.2588 22.0251 10.5549 22.2524 10.7732C22.4797 10.9914 22.7873 11.114 23.1081 11.1142H23.1137L24.9382 11.1064C25.0976 11.1058 25.2552 11.075 25.4022 11.0156C25.5492 10.9563 25.6826 10.8696 25.7948 10.7604C25.907 10.6513 25.9957 10.5219 26.056 10.3797C26.1163 10.2375 26.1469 10.0851 26.1461 9.93149L26.1361 8.17214L26.1287 6.41278C26.1272 6.10339 25.9987 5.80715 25.7713 5.58888C25.5439 5.37061 25.2361 5.24807 24.9152 5.24808L24.9146 5.25108Z" fill="#352B1C"/>
<path d="M23.1529 21.0859C22.9925 21.086 22.8385 21.0247 22.7248 20.9155C22.6112 20.8062 22.5472 20.658 22.5468 20.5032L22.5306 16.9845C22.5301 16.8294 22.5935 16.6804 22.7068 16.5703C22.8201 16.4601 22.974 16.3978 23.1349 16.3971L24.9619 16.3893C25.1224 16.3893 25.2764 16.4506 25.3901 16.5598C25.5038 16.669 25.568 16.8172 25.5687 16.9719L25.5842 20.4906C25.5847 20.5674 25.5695 20.6436 25.5394 20.7147C25.5093 20.7859 25.465 20.8506 25.4089 20.9051C25.3528 20.9597 25.2861 21.0031 25.2126 21.0328C25.1391 21.0624 25.0603 21.0778 24.9806 21.0781L23.1529 21.0859Z" fill="#352B1C"/>
<path d="M24.9619 16.9743L24.97 18.7337L24.978 20.4936L23.1529 20.5008L23.1454 18.7415L23.1373 16.9815L24.9619 16.9737V16.9743ZM24.9619 15.8042H24.9569L23.1323 15.8114C22.8105 15.8128 22.5025 15.9374 22.2759 16.1577C22.0493 16.378 21.9227 16.676 21.9238 16.9863L21.9319 18.7463L21.94 20.5056C21.9412 20.815 22.0695 21.1113 22.2968 21.3297C22.5242 21.548 22.832 21.6705 23.1529 21.6703H23.1585L24.983 21.6625C25.1424 21.662 25.3 21.6311 25.447 21.5718C25.594 21.5124 25.7274 21.4257 25.8396 21.3166C25.9518 21.2074 26.0405 21.078 26.1008 20.9358C26.1611 20.7936 26.1917 20.6413 26.1909 20.4876L26.1834 18.7283L26.1753 16.9689C26.1739 16.6595 26.0454 16.3633 25.8179 16.145C25.5905 15.9267 25.2827 15.8042 24.9619 15.8042Z" fill="#352B1C"/>
<path d="M24.962 17.5594C24.8015 17.5592 24.6477 17.4978 24.534 17.3887C24.4203 17.2795 24.356 17.1314 24.3552 16.9767L24.3241 9.93928C24.3236 9.86245 24.3389 9.78629 24.3689 9.71516C24.399 9.64402 24.4434 9.57931 24.4995 9.52474C24.5555 9.47017 24.6222 9.4268 24.6957 9.39713C24.7692 9.36746 24.8481 9.35206 24.9277 9.35183L26.7554 9.34402C26.9158 9.34418 27.0696 9.40556 27.1831 9.51474C27.2967 9.62393 27.3609 9.77203 27.3615 9.92668L27.3932 16.9641C27.3937 17.0409 27.3785 17.1171 27.3484 17.1882C27.3183 17.2594 27.274 17.3241 27.2179 17.3786C27.1618 17.4332 27.0951 17.4766 27.0216 17.5063C26.9481 17.5359 26.8693 17.5513 26.7896 17.5516L24.962 17.5594Z" fill="#352B1C"/>
<path d="M26.7584 9.92908L26.7659 11.6884L26.774 13.4478L26.7821 15.2071L26.7896 16.9671L24.965 16.9743L24.9538 15.2149L24.9457 13.4556L24.9376 11.6962L24.9295 9.93688L26.7547 9.92908H26.7584ZM26.7547 8.75897H26.7491L24.9246 8.76677C24.6028 8.7682 24.2949 8.89277 24.0684 9.11309C23.8419 9.33341 23.7154 9.63145 23.7167 9.94168L23.7242 11.701L23.7322 13.4604L23.7403 15.2203L23.7484 16.9797C23.7496 17.2891 23.8779 17.5854 24.1052 17.8037C24.3326 18.0221 24.6404 18.1446 24.9613 18.1444H24.9669L26.7914 18.1366C26.9511 18.1365 27.1092 18.106 27.2566 18.0469C27.404 17.9877 27.5378 17.9011 27.6504 17.7919C27.763 17.6827 27.8521 17.5532 27.9126 17.4107C27.9731 17.2683 28.0038 17.1157 28.003 16.9617L27.9949 15.2023L27.9844 13.4412L27.9763 11.6818L27.9682 9.92188C27.9657 9.61373 27.8373 9.31896 27.6108 9.10156C27.3843 8.88417 27.078 8.76171 26.7584 8.76077L26.7547 8.75897Z" fill="#352B1C"/>
<path d="M3.08532 21.1675C2.92488 21.1673 2.77103 21.106 2.65735 20.9968C2.54367 20.8876 2.4794 20.7395 2.47858 20.5848L2.46302 17.0661C2.46253 16.9893 2.47777 16.9131 2.50786 16.842C2.53795 16.7709 2.58231 16.7061 2.63838 16.6516C2.69446 16.597 2.76115 16.5536 2.83464 16.524C2.90813 16.4943 2.98698 16.4789 3.06665 16.4787L4.89432 16.4709C5.0548 16.4709 5.20875 16.5322 5.32247 16.6414C5.43618 16.7506 5.50039 16.8988 5.50105 17.0535L5.51661 20.5722C5.51694 20.649 5.50157 20.7252 5.47138 20.7963C5.44119 20.8674 5.39677 20.9321 5.34066 20.9866C5.28455 21.0412 5.21785 21.0845 5.14436 21.1142C5.07088 21.1439 4.99204 21.1594 4.91236 21.1597L3.08532 21.1675Z" fill="#352B1C"/>
<path d="M4.89424 17.0559L4.90171 18.8153L4.9098 20.5746L3.08524 20.5818L3.07715 18.8225L3.06968 17.0625L4.89424 17.0553V17.0559ZM4.89424 15.8852H4.88864L3.06408 15.893C2.90476 15.8937 2.74712 15.9245 2.60018 15.9839C2.45324 16.0433 2.31987 16.1301 2.2077 16.2392C2.09554 16.3483 2.00676 16.4776 1.94645 16.6198C1.88614 16.762 1.85548 16.9143 1.85621 17.0679L1.86679 18.8279L1.87426 20.5872C1.87574 20.8966 2.00424 21.1929 2.23165 21.4111C2.45906 21.6294 2.76686 21.7519 3.08773 21.7519H3.09271L4.91602 21.7447C5.23764 21.7432 5.54544 21.6185 5.77181 21.3982C5.99818 21.1779 6.12459 20.88 6.12327 20.5698L6.11518 18.8099L6.10709 17.0505C6.10561 16.7412 5.97719 16.4451 5.74992 16.2268C5.52264 16.0086 5.215 15.886 4.89424 15.8858V15.8852Z" fill="#352B1C"/>
<path d="M19.9338 22.2716L21.6177 22.2644L21.6096 20.505L23.2935 20.4978L23.2861 18.7385L23.278 16.9791L24.9619 16.9719L24.9538 15.2125L24.9464 13.4532L24.9383 11.6938L24.9302 9.93447L23.2463 9.94107L23.2388 8.18172L23.2307 6.42236L21.5468 6.42956L21.5387 4.67021L19.8548 4.67681L18.1708 4.68401L18.1628 2.92465L16.4788 2.93125L14.7943 2.93845L13.1104 2.94565L11.4264 2.95285L9.74253 2.95946L9.75062 4.71881L8.06608 4.72601L6.38216 4.73321L6.39025 6.49257L4.70633 6.49977L4.71379 8.25912L4.72188 10.0185L3.03796 10.0257L3.04605 11.785L3.05352 13.5444L3.06161 15.3037L3.0697 17.0637L4.75362 17.0565L4.76171 18.8159L4.76918 20.5752L6.4531 20.568L6.46119 22.328L8.14511 22.3208L9.82965 22.3136L9.83712 24.0729L11.521 24.0657L13.2056 24.0591L14.8895 24.0519L16.5734 24.0447L18.2573 24.0381L18.2493 22.2782L19.9338 22.2716Z" fill="#1D72B9"/>
<path d="M13.9511 2.94206V2.94446L15.7757 2.93726L17.6002 2.92946L17.5921 1.1701L15.7676 1.17731L13.9461 1.18511V1.18271L12.1216 1.19051L10.297 1.19771L10.3051 2.95706L12.1296 2.94986L13.9511 2.94206Z" fill="#215881"/>
<path d="M14.0488 24.0579V24.0555L12.2242 24.0633L10.3997 24.0705L10.4077 25.8299L12.2323 25.8227L14.0538 25.8149V25.8173L15.8783 25.8095L17.7029 25.8023L17.6948 24.0429L15.8702 24.0501L14.0488 24.0579Z" fill="#215881"/>
<path d="M10.3126 4.71702L10.3051 2.95706L8.48058 2.96486L6.6554 2.97266L6.66349 4.73202L8.48804 4.72422L10.3126 4.71702Z" fill="#215881"/>
<path d="M8.56699 22.319L6.74243 22.3262L6.75052 24.0861L8.57508 24.0783L10.3996 24.0705L10.3915 22.3112L8.56699 22.319Z" fill="#215881"/>
<path d="M6.66365 4.73152L4.83911 4.7392L4.84707 6.49854L6.67161 6.49086L6.66365 4.73152Z" fill="#215881"/>
<path d="M6.73531 20.5671L4.91077 20.5748L4.91873 22.3341L6.74327 22.3264L6.73531 20.5671Z" fill="#215881"/>
<path d="M4.8545 8.25853L4.84703 6.49918L3.02185 6.50698L3.02994 8.26633L3.03803 10.0257L4.86259 10.0179L4.8545 8.25853Z" fill="#215881"/>
<path d="M3.0535 13.5444L3.04603 11.7851L3.03794 10.0257L1.21338 10.0335L1.22085 11.7929L1.22894 13.5522L1.23703 15.3116L1.24449 17.0709L3.06968 17.0631L3.06159 15.3038L3.0535 13.5444Z" fill="#215881"/>
<path d="M19.4329 4.68101L21.2574 4.6738L21.2493 2.91385L19.4248 2.92165L17.6002 2.92945L17.6083 4.68881L19.4329 4.68101Z" fill="#215881"/>
<path d="M17.6874 22.283L17.6948 24.0429L19.52 24.0351L21.3446 24.0273L21.3365 22.268L19.5119 22.2758L17.6874 22.283Z" fill="#215881"/>
<path d="M23.0818 4.66484L21.2572 4.67252L21.2652 6.43185L23.0897 6.42418L23.0818 4.66484Z" fill="#215881"/>
<path d="M23.154 20.5004L21.3295 20.5081L21.3374 22.2674L23.162 22.2598L23.154 20.5004Z" fill="#215881"/>
<path d="M23.1056 9.94409L24.9302 9.93689L24.9227 8.17753L24.9146 6.41757L23.0901 6.42537L23.0982 8.18473L23.1056 9.94409Z" fill="#215881"/>
<path d="M23.1454 18.7415L23.1529 20.5008L24.9781 20.493L24.97 18.7337L24.9619 16.9743L23.1373 16.9821L23.1454 18.7415Z" fill="#215881"/>
<path d="M26.779 15.2071L26.7709 13.4478L26.7628 11.6884L26.7547 9.92908L24.9302 9.93688L24.9383 11.6962L24.9464 13.4556L24.9538 15.2149L24.9619 16.9743L26.7865 16.9665L26.779 15.2071Z" fill="#215881"/>
<path d="M4.89426 17.0559L3.0697 17.0631L3.07717 18.8231L3.08526 20.5824L4.90982 20.5746L4.90235 18.8153L4.89426 17.0559Z" fill="#215881"/>
<path d="M12.2193 20.004C12.2227 20.0511 12.2137 20.0982 12.193 20.141C12.1723 20.1838 12.1407 20.2208 12.1012 20.2486C12.0616 20.2764 12.0154 20.294 11.9668 20.2998C11.9182 20.3056 11.8689 20.2994 11.8235 20.2818C10.3427 19.8254 9.05069 18.927 8.13394 17.7164C7.21719 16.5058 6.72314 15.0455 6.72314 13.5465C6.72314 12.0475 7.21719 10.5872 8.13394 9.37661C9.05069 8.16599 10.3427 7.26761 11.8235 6.8112C12.045 6.74459 12.2205 6.8712 12.2205 7.09082V7.64287C12.2173 7.72146 12.1913 7.79761 12.1454 7.86264C12.0995 7.92767 12.0356 7.97897 11.961 8.0107C10.7841 8.42426 9.76749 9.17686 9.04918 10.1664C8.33088 11.156 7.9456 12.3347 7.9456 13.5426C7.9456 14.7505 8.33088 15.9292 9.04918 16.9188C9.76749 17.9083 10.7841 18.6609 11.961 19.0745C12.0357 19.1063 12.0997 19.1577 12.1456 19.2228C12.1915 19.288 12.2174 19.3642 12.2205 19.4429L12.2193 20.004Z" fill="white"/>
<path d="M14.6617 17.965C14.6615 18.043 14.6294 18.1177 14.5722 18.1729C14.5151 18.2281 14.4376 18.2593 14.3568 18.2596H13.7457C13.6648 18.2593 13.5873 18.2281 13.5302 18.1729C13.4731 18.1177 13.4409 18.043 13.4408 17.965V17.0373C12.1047 16.8609 11.4556 16.1468 11.2802 15.1603C11.2733 15.121 11.2755 15.0808 11.2866 15.0424C11.2977 15.004 11.3174 14.9685 11.3444 14.9383C11.3714 14.9081 11.4049 14.884 11.4427 14.8677C11.4804 14.8514 11.5214 14.8434 11.5627 14.8441H12.259C12.3289 14.8454 12.3963 14.8692 12.4503 14.9119C12.5044 14.9546 12.542 15.0135 12.5571 15.0793C12.6865 15.6608 13.0375 16.1102 14.1066 16.1102C14.8926 16.1102 15.4576 15.683 15.4576 15.0499C15.4576 14.4169 15.1297 14.1738 13.9691 13.9902C12.259 13.7694 11.45 13.2684 11.45 11.9807C11.45 10.9864 12.236 10.2063 13.4414 10.0443V9.1316C13.4415 9.05361 13.4737 8.97886 13.5308 8.92365C13.588 8.86845 13.6654 8.83729 13.7463 8.83698H14.3574C14.4383 8.83729 14.5157 8.86845 14.5729 8.92365C14.63 8.97886 14.6621 9.05361 14.6623 9.1316V10.0665C15.6474 10.2357 16.2734 10.7733 16.4794 11.671C16.4877 11.7109 16.4867 11.7521 16.4762 11.7915C16.4658 11.8309 16.4463 11.8675 16.4191 11.8987C16.392 11.9298 16.3579 11.9546 16.3194 11.9713C16.2809 11.988 16.2391 11.9961 16.1969 11.9951H15.5572C15.4913 11.9949 15.4273 11.9739 15.3749 11.9353C15.3225 11.8967 15.2847 11.8427 15.2672 11.7814C15.0911 11.215 14.6716 10.9648 13.9386 10.9648C13.1296 10.9648 12.7096 11.3398 12.7096 11.8702C12.7096 12.4295 12.946 12.7103 14.1906 12.8783C15.8683 13.0992 16.7395 13.5612 16.7395 14.9413C16.7395 15.9866 15.9305 16.8333 14.671 17.0247V17.9668L14.6617 17.965Z" fill="white"/>
<path d="M16.2804 20.2818C16.0588 20.3484 15.8833 20.2218 15.8833 20.0022V19.4501C15.8816 19.3704 15.9056 19.2921 15.9521 19.2262C15.9986 19.1603 16.0653 19.11 16.1428 19.0823C17.3206 18.6705 18.3382 17.9189 19.0574 16.9298C19.7766 15.9407 20.1624 14.762 20.1624 13.554C20.1624 12.346 19.7766 11.1673 19.0574 10.1782C18.3382 9.18906 17.3206 8.43751 16.1428 8.02571C16.0682 7.99397 16.0043 7.94267 15.9584 7.87764C15.9126 7.81261 15.8865 7.73646 15.8833 7.65787V7.10522C15.8795 7.05785 15.8882 7.0103 15.9088 6.96712C15.9294 6.92394 15.9611 6.88655 16.0009 6.85852C16.0407 6.83049 16.0873 6.81275 16.1362 6.80699C16.1851 6.80122 16.2347 6.80763 16.2804 6.8256C17.7606 7.28043 19.0525 8.17743 19.9693 9.38689C20.886 10.5964 21.3801 12.0556 21.3801 13.5537C21.3801 15.0518 20.886 16.511 19.9693 17.7205C19.0525 18.93 17.7606 19.827 16.2804 20.2818Z" fill="white"/>
</g>
<defs>
<clipPath id="clip0_13_1535">
<rect width="28" height="27" fill="white"/>
</clipPath>
</defs>
</svg>
