<?xml version="1.0" encoding="UTF-8"?><svg id="Layer_2" xmlns="http://www.w3.org/2000/svg" viewBox="0 0 500 499.99"><defs><style>.cls-1{opacity:.3;}.cls-2{fill:#352b1c;}.cls-2,.cls-3,.cls-4,.cls-5{stroke-width:0px;}.cls-3{fill:#0a1621;}.cls-4{fill:#161e53;}.cls-5{fill:#ffbb51;}</style></defs><g id="Token"><g id="Token-2"><path class="cls-2" d="m472.99,159.75h-5.15v-36.21c0-14.92-12.1-27.02-27.02-27.02h-5.15v-5.15c0-14.92-12.1-27.02-27.02-27.02h-5.16v-5.16c0-14.92-12.1-27.02-27.02-27.02h-36.21v-5.15c0-14.92-12.1-27.02-27.02-27.02h-126.47c-14.92,0-27.02,12.1-27.02,27.02v5.15h-36.21c-14.92,0-27.02,12.1-27.02,27.02v5.15h-5.15c-14.92,0-27.02,12.1-27.02,27.02h0v5.16h-5.16c-14.92,0-27.02,12.1-27.02,27.02v36.21h-5.15c-14.92,0-27.02,12.1-27.02,27.02h0v126.47c0,14.92,12.1,27.02,27.02,27.02h5.15v36.21c0,14.92,12.1,27.02,27.02,27.02h5.15v5.29c0,14.92,12.1,27.02,27.02,27.02h5.16v5.15c0,14.92,12.1,27.02,27.02,27.02h36.21v5c0,14.92,12.1,27.02,27.02,27.02h126.47c14.92,0,27.02-12.1,27.02-27.02v-5h36.21c14.92,0,27.02-12.1,27.02-27.02v-5.13h5.15c14.92,0,27.02-12.1,27.02-27.02h0v-5.3h5.15c14.92,0,27.02-12.1,27.02-27.02h0v-36.21h5.15c14.92,0,27.02-12.1,27.02-27.02h0v-126.47c0-14.92-12.09-27.02-27.01-27.02h0Z"/></g></g><g id="BrandColor"><g id="BrandColor-2"><polygon class="cls-4" points="27.01 186.76 27.01 313.24 59.18 313.24 59.18 376.47 91.35 376.47 91.35 408.78 123.52 408.78 123.52 440.95 186.76 440.95 186.76 472.98 313.23 472.98 313.23 440.95 376.47 440.95 376.47 408.78 408.64 408.78 408.64 376.61 440.81 376.61 440.81 313.24 472.98 313.24 472.98 186.76 440.81 186.76 440.81 123.52 408.64 123.52 408.64 91.35 376.47 91.35 376.47 59.18 313.23 59.18 313.23 27.01 186.76 27.01 186.76 59.18 123.52 59.18 123.52 91.35 91.35 91.35 91.35 123.52 59.18 123.52 59.18 186.75 27.01 186.76"/></g></g><g id="DecoFrame"><g id="DecoFrame-2"><g class="cls-1"><rect class="cls-3" x="186.76" y="27.01" width="126.47" height="32.17"/><rect class="cls-3" x="313.23" y="59.18" width="63.24" height="32.17"/><rect class="cls-3" x="123.52" y="59.18" width="63.24" height="32.17"/><polygon class="cls-3" points="91.35 123.52 59.18 123.52 59.18 186.75 91.35 186.75 91.35 123.52 123.52 123.52 123.52 91.35 91.35 91.35 91.35 123.52"/><rect class="cls-3" x="27.01" y="186.75" width="32.17" height="126.49"/><rect class="cls-3" x="408.64" y="123.52" width="32.17" height="63.23"/><rect class="cls-3" x="440.81" y="186.75" width="32.17" height="126.49"/><rect class="cls-3" x="376.47" y="91.35" width="32.17" height="32.17"/><rect class="cls-3" x="186.76" y="440.81" width="126.47" height="32.17"/><rect class="cls-3" x="313.23" y="408.64" width="63.24" height="32.17"/><rect class="cls-3" x="123.52" y="408.64" width="63.24" height="32.17"/><polygon class="cls-3" points="91.35 376.47 91.35 408.64 123.52 408.64 123.52 376.47 91.35 376.47 91.35 313.24 59.18 313.24 59.18 376.47 91.35 376.47"/><rect class="cls-3" x="408.64" y="313.24" width="32.17" height="63.23"/><rect class="cls-3" x="376.47" y="376.47" width="32.17" height="32.17"/><polygon class="cls-3" points="415.59 119.68 415.59 119.63 413.08 119.63 413.08 119.68 415.59 119.68"/></g></g></g><g id="Logo"><path class="cls-5" d="m326.46,172.81l15.62-41.57h-25.66l-10.31,27.33c-5.65-2.96-11.57-5.35-17.7-7.11l7.63-20.23h-25.66l-6.23,16.52c-.82,0-1.63-.05-2.46-.05h-29.81c-3.96-.5-7.86-1.38-11.64-2.66-1.32-.43-2.6-.92-3.86-1.43l-8.46,22.45h0l-65.56,173.97h49.38l-9.97,26.46h25.66l9.99-26.46h20.38l-9.97,26.46h25.66l9.97-26.48c53.07-.9,95.35-44.66,94.45-97.73-.45-26.49-11.82-51.62-31.42-69.46h-.02Zm-149.42,143.2l54.39-144.26c2.45.23,4.9.33,7.34.33s5.01-.12,7.46-.35h8.93l-54.39,144.28s-23.73,0-23.73,0Zm49.38,0l53.56-141.96c6.18,1.63,12.11,4.06,17.65,7.24l-50.82,134.7h-20.38v.02Zm86.33-21.15c-10.81,10.87-24.81,18-39.97,20.3l44.31-117.52c23.96,28.64,22.06,70.82-4.35,97.22h0Z"/></g></svg>