<?xml version="1.0" encoding="UTF-8"?>
<svg id="a" data-name="Layer 1" xmlns="http://www.w3.org/2000/svg" viewBox="0 0 500 500">
    <defs>
        <style>
            .e {
            fill: #4f473b;
            }

            .e, .f, .g, .h {
            stroke-width: 0px;
            }

            .f {
            fill: #d3d3d3;
            }

            .g {
            fill: #352b1c;
            }

            .h {
            fill: #f7f7f7;
            }
        </style>
    </defs>
    <g>
        <g id="b" data-name="a">
            <path class="g"
                  d="M472.99,159.75h-5.15v-36.21c0-14.92-12.1-27.02-27.02-27.02h-5.15v-5.15c0-14.92-12.1-27.02-27.02-27.02h-5.16v-5.16c0-14.92-12.1-27.02-27.02-27.02h-36.21v-5.15C340.26,12.1,328.16,0,313.24,0h-126.47C171.85,0,159.75,12.1,159.75,27.02v5.15h-36.21c-14.92,0-27.02,12.1-27.02,27.02v5.15h-5.15c-14.92,0-27.02,12.1-27.02,27.02h0v5.16h-5.16c-14.92,0-27.02,12.1-27.02,27.02v36.21h-5.15C12.1,159.75,0,171.85,0,186.77h0v126.47c0,14.92,12.1,27.02,27.02,27.02h5.15v36.21c0,14.92,12.1,27.02,27.02,27.02h5.15v5.29c0,14.92,12.1,27.02,27.02,27.02h5.16v5.15c0,14.92,12.1,27.02,27.02,27.02h36.21v5c0,14.92,12.1,27.02,27.02,27.02h126.47c14.92,0,27.02-12.1,27.02-27.02v-5h36.21c14.92,0,27.02-12.1,27.02-27.02v-5.13h5.15c14.92,0,27.02-12.1,27.02-27.02h0v-5.3h5.15c14.92,0,27.02-12.1,27.02-27.02h0v-36.21h5.15c14.92,0,27.02-12.1,27.02-27.02h0v-126.47c0-14.92-12.09-27.02-27.01-27.02h0Z"/>
        </g>
        <g id="c" data-name="b">
            <polygon class="h"
                     points="27.02 186.77 27.02 313.25 59.19 313.25 59.19 376.48 91.36 376.48 91.36 408.79 123.53 408.79 123.53 440.96 186.77 440.96 186.77 472.99 313.24 472.99 313.24 440.96 376.48 440.96 376.48 408.79 408.65 408.79 408.65 376.62 440.82 376.62 440.82 313.25 472.99 313.25 472.99 186.77 440.82 186.77 440.82 123.53 408.65 123.53 408.65 91.36 376.48 91.36 376.48 59.19 313.24 59.19 313.24 27.02 186.77 27.02 186.77 59.19 123.53 59.19 123.53 91.36 91.36 91.36 91.36 123.53 59.19 123.53 59.19 186.76 27.02 186.77"/>
        </g>
        <g id="d" data-name="c">
            <g>
                <rect class="f" x="186.77" y="27.02" width="126.47" height="32.17"/>
                <rect class="f" x="313.24" y="59.19" width="63.24" height="32.17"/>
                <rect class="f" x="123.53" y="59.19" width="63.24" height="32.17"/>
                <polygon class="f"
                         points="91.36 123.53 59.19 123.53 59.19 186.76 91.36 186.76 91.36 123.53 123.53 123.53 123.53 91.36 91.36 91.36 91.36 123.53"/>
                <rect class="f" x="27.02" y="186.76" width="32.17" height="126.49"/>
                <rect class="f" x="408.65" y="123.53" width="32.17" height="63.23"/>
                <rect class="f" x="440.82" y="186.76" width="32.17" height="126.49"/>
                <rect class="f" x="376.48" y="91.36" width="32.17" height="32.17"/>
                <rect class="f" x="186.77" y="440.82" width="126.47" height="32.17"/>
                <rect class="f" x="313.24" y="408.65" width="63.24" height="32.17"/>
                <rect class="f" x="123.53" y="408.65" width="63.24" height="32.17"/>
                <polygon class="f"
                         points="91.36 376.48 91.36 408.65 123.53 408.65 123.53 376.48 91.36 376.48 91.36 313.25 59.19 313.25 59.19 376.48 91.36 376.48"/>
                <rect class="f" x="408.65" y="313.25" width="32.17" height="63.23"/>
                <rect class="f" x="376.48" y="376.48" width="32.17" height="32.17"/>
                <polygon class="f" points="415.6 119.69 415.6 119.64 413.09 119.64 413.09 119.69 415.6 119.69"/>
            </g>
        </g>
    </g>
    <g>
        <path class="e" d="M257.04,249.26l101.53,100.79c53.36-56.6,53.36-144.98,0-201.58"/>
        <path class="e" d="M249.63,255.93l-100.05,99.3,100.05,41.5,100.05-41.5"/>
        <path class="e" d="M245.93,245.56l103.76-103.02-95.62-39.27-94.86,229.01,86.72-86.72Z"/>
        <path class="e" d="M101.41,249.26c-.07,37.49,14.25,73.57,40.02,100.79l99.3-239.38"/>
    </g>
</svg>
