<?xml version="1.0" encoding="UTF-8"?>
<svg id="a" xmlns="http://www.w3.org/2000/svg" viewBox="0 0 500 500">
  <defs>
    <style>
      .e {
        fill: #6f61ff;
      }

      .f {
        fill: #fefdff;
      }

      .g {
        fill: #352b1c;
      }

      .h {
        fill: #5350ef;
      }
    </style>
  </defs>
  <g>
    <g id="b">
      <path class="g" d="M472.99,159.75h-5.15v-36.21c0-14.92-12.1-27.02-27.02-27.02h-5.15v-5.15c0-14.92-12.1-27.02-27.02-27.02h-5.16v-5.16c0-14.92-12.1-27.02-27.02-27.02h-36.21v-5.15C340.26,12.1,328.16,0,313.24,0h-126.47C171.85,0,159.75,12.1,159.75,27.02v5.15h-36.21c-14.92,0-27.02,12.1-27.02,27.02v5.15h-5.15c-14.92,0-27.02,12.1-27.02,27.02h0v5.16h-5.16c-14.92,0-27.02,12.1-27.02,27.02v36.21h-5.15C12.1,159.75,0,171.85,0,186.77H0v126.47C0,328.16,12.1,340.26,27.02,340.26h5.15v36.21c0,14.92,12.1,27.02,27.02,27.02h5.15v5.29c0,14.92,12.1,27.02,27.02,27.02h5.16v5.15c0,14.92,12.1,27.02,27.02,27.02h36.21v5c0,14.92,12.1,27.02,27.02,27.02h126.47c14.92,0,27.02-12.1,27.02-27.02v-5h36.21c14.92,0,27.02-12.1,27.02-27.02v-5.13h5.15c14.92,0,27.02-12.1,27.02-27.02h0v-5.3h5.15c14.92,0,27.02-12.1,27.02-27.02h0v-36.21h5.15c14.92,0,27.02-12.1,27.02-27.02h0v-126.47c0-14.92-12.09-27.02-27.01-27.02h0Z"/>
    </g>
    <g id="c">
      <polygon class="e" points="27.02 186.77 27.02 313.25 59.19 313.25 59.19 376.48 91.36 376.48 91.36 408.79 123.53 408.79 123.53 440.96 186.77 440.96 186.77 472.99 313.24 472.99 313.24 440.96 376.48 440.96 376.48 408.79 408.65 408.79 408.65 376.62 440.82 376.62 440.82 313.25 472.99 313.25 472.99 186.77 440.82 186.77 440.82 123.53 408.65 123.53 408.65 91.36 376.48 91.36 376.48 59.19 313.24 59.19 313.24 27.02 186.77 27.02 186.77 59.19 123.53 59.19 123.53 91.36 91.36 91.36 91.36 123.53 59.19 123.53 59.19 186.76 27.02 186.77"/>
    </g>
  </g>
  <g id="d" data-name="e">
    <g>
      <rect class="h" x="186.77" y="27.02" width="126.47" height="32.17"/>
      <rect class="h" x="313.24" y="59.19" width="63.24" height="32.17"/>
      <rect class="h" x="123.53" y="59.19" width="63.24" height="32.17"/>
      <polygon class="h" points="91.36 123.53 59.19 123.53 59.19 186.76 91.36 186.76 91.36 123.53 123.53 123.53 123.53 91.36 91.36 91.36 91.36 123.53"/>
      <rect class="h" x="27.02" y="186.76" width="32.17" height="126.49"/>
      <rect class="h" x="408.65" y="123.53" width="32.17" height="63.23"/>
      <rect class="h" x="440.82" y="186.76" width="32.17" height="126.49"/>
      <rect class="h" x="376.48" y="91.36" width="32.17" height="32.17"/>
      <rect class="h" x="186.77" y="440.82" width="126.47" height="32.17"/>
      <rect class="h" x="313.24" y="408.65" width="63.24" height="32.17"/>
      <rect class="h" x="123.53" y="408.65" width="63.24" height="32.17"/>
      <polygon class="h" points="91.36 376.48 91.36 408.65 123.53 408.65 123.53 376.48 91.36 376.48 91.36 313.25 59.19 313.25 59.19 376.48 91.36 376.48"/>
      <rect class="h" x="408.65" y="313.25" width="32.17" height="63.23"/>
      <rect class="h" x="376.48" y="376.48" width="32.17" height="32.17"/>
      <polygon class="h" points="415.6 119.69 415.6 119.64 413.09 119.64 413.09 119.69 415.6 119.69"/>
    </g>
  </g>
  <path class="f" d="M283.76,341.57c-9.06,3.6-17.85,8.84-27.28,10.52-40.24,7.18-74.56-21.73-75.89-63.34-.99-31.04,10.93-55.12,39.49-69.4-13.9-40.11,12.16-81.06,73.54-70.89v35.21c-8.68,0-17.3-.26-25.89.08-7.12.28-12.26,3.88-14.44,10.93-2.03,6.55.22,12.14,5.53,15.71,3.05,2.05,7.4,2.88,11.19,2.97,14.2.33,28.42.13,42.64.14,2.46,0,4.92,0,7.95,0v136.67h-36.03c-.29-3.11-.59-6.42-.79-8.6ZM284.99,250.25c-13.56,0-26.27-.98-38.77.23-18.12,1.76-30.74,17.91-29.65,35.92,1.08,17.92,15.89,31.84,34.03,31.98,18.03.14,33.14-13.38,34.25-31.64.73-11.88.14-23.83.14-36.49Z"/>
</svg>