<svg width="29" height="27" viewBox="0 0 29 27" fill="none" xmlns="http://www.w3.org/2000/svg">
<g clip-path="url(#clip0_13_1539)">
<path d="M11.8498 24.6345C11.6852 24.6343 11.5273 24.5693 11.411 24.4539C11.2946 24.3384 11.2293 24.1818 11.2293 24.0186V22.8816H10.0825C9.9179 22.8816 9.76 22.8168 9.64353 22.7015C9.52706 22.5861 9.46154 22.4296 9.46137 22.2664V19.3728H6.54481C6.38084 19.3725 6.22365 19.3079 6.10753 19.1931C5.99141 19.0783 5.92577 18.9227 5.92493 18.7601V15.8684H4.77818C4.61344 15.8684 4.45545 15.8035 4.33896 15.688C4.22247 15.5725 4.15702 15.4159 4.15702 15.2525V14.1155H1.24237C1.07763 14.1155 0.919638 14.0507 0.803148 13.9352C0.686659 13.8197 0.621216 13.663 0.621216 13.4997V9.99401C0.621132 9.91311 0.637142 9.83299 0.668328 9.75823C0.699514 9.68348 0.745265 9.61555 0.802961 9.55835C0.860658 9.50114 0.929167 9.45578 1.00457 9.42486C1.07997 9.39394 1.16078 9.37807 1.24237 9.37815H2.38912V6.48897C2.3892 6.40818 2.40534 6.32819 2.4366 6.25358C2.46786 6.17897 2.51364 6.11119 2.57132 6.05412C2.629 5.99705 2.69745 5.9518 2.77276 5.92096C2.84808 5.89012 2.92879 5.87429 3.01028 5.87437H4.15702V2.9833C4.15702 2.81996 4.22247 2.66331 4.33896 2.54782C4.45545 2.43232 4.61344 2.36744 4.77818 2.36744H24.2226C24.3044 2.3671 24.3854 2.38279 24.4611 2.41359C24.5367 2.44439 24.6055 2.4897 24.6634 2.54692C24.7214 2.60414 24.7674 2.67215 24.7988 2.74703C24.8301 2.82192 24.8463 2.90221 24.8463 2.9833V5.87437H25.993C26.1576 5.87437 26.3154 5.93919 26.4318 6.05457C26.5482 6.16995 26.6135 6.32643 26.6135 6.4896V15.2525C26.6135 15.4157 26.5482 15.5723 26.4318 15.6878C26.3155 15.8033 26.1577 15.8682 25.993 15.8684H23.0765V18.7601C23.0763 18.9233 23.0108 19.0798 22.8943 19.1952C22.7778 19.3105 22.6199 19.3753 22.4553 19.3753H21.3086V20.5123C21.3084 20.6755 21.2429 20.832 21.1264 20.9474C21.0099 21.0627 20.852 21.1275 20.6874 21.1275H19.5407V22.2645C19.5402 22.4272 19.4747 22.5831 19.3587 22.6981C19.2427 22.8131 19.0855 22.878 18.9214 22.8785H17.7747V24.0154C17.7745 24.1787 17.709 24.3353 17.5925 24.4507C17.4761 24.5662 17.3182 24.6311 17.1535 24.6313L11.8498 24.6345Z" fill="#352B1C"/>
<path d="M24.2225 2.98331V6.48898H25.993V9.99402V13.4997V15.2525H22.4552V17.0054V18.7601H20.6873V20.5129H18.9214V22.2658H17.1515V20.5104V22.2632V24.0161H11.8497V22.2632H10.0806V20.5104V18.7601H6.54475V17.0054V15.2525H4.77812V13.4997H1.24231V9.99402H3.01022V6.48898H4.77812V2.98331H6.54475V6.48898V2.98331H22.4552V6.48898V2.98331H24.2225ZM24.2225 1.75159H4.77812C4.44864 1.75159 4.13265 1.88136 3.89967 2.11235C3.66669 2.34334 3.53581 2.65664 3.53581 2.98331V5.25726H3.01022C2.68084 5.25726 2.36495 5.38694 2.13199 5.6178C1.89903 5.84866 1.76807 6.16179 1.7679 6.48835V8.7623H1.24231C1.07917 8.7623 0.917623 8.79416 0.766899 8.85606C0.616175 8.91796 0.479224 9.00869 0.363864 9.12306C0.248505 9.23744 0.156997 9.37322 0.0945653 9.52266C0.0321333 9.6721 0 9.83227 0 9.99402L0 13.4997C0 13.8264 0.130886 14.1397 0.363864 14.3707C0.596843 14.6016 0.91283 14.7314 1.24231 14.7314H3.53581V15.2525C3.53556 15.4144 3.5675 15.5748 3.62982 15.7245C3.69214 15.8741 3.78361 16.0101 3.899 16.1247C4.01438 16.2393 4.15142 16.3302 4.30227 16.3922C4.45311 16.4542 4.61482 16.4861 4.77812 16.4861H5.30307V18.7601C5.30324 19.0866 5.43412 19.3996 5.66694 19.6304C5.89976 19.8613 6.21549 19.991 6.54475 19.9912H8.83825V22.2651C8.83816 22.4269 8.87023 22.5872 8.93263 22.7367C8.99502 22.8862 9.08652 23.0221 9.20189 23.1365C9.31725 23.2509 9.45423 23.3417 9.605 23.4037C9.75576 23.4656 9.91736 23.4975 10.0806 23.4975H10.6068V24.0192C10.6078 24.3454 10.7392 24.6578 10.9722 24.888C11.2052 25.1182 11.5208 25.2473 11.8497 25.2472H17.1528C17.4822 25.2472 17.7981 25.1175 18.031 24.8866C18.264 24.6558 18.395 24.3426 18.3951 24.0161V23.4975H18.9214C19.2507 23.4975 19.5666 23.3678 19.7996 23.137C20.0325 22.9061 20.1635 22.593 20.1637 22.2664V21.7415H20.6893C21.0186 21.7415 21.3345 21.6118 21.5675 21.381C21.8004 21.1501 21.9314 20.837 21.9316 20.5104V19.9887H22.4572C22.7861 19.9887 23.1016 19.8593 23.3345 19.629C23.5674 19.3987 23.6986 19.0862 23.6995 18.7601V16.4861H25.993C26.3223 16.486 26.6382 16.3561 26.871 16.1252C27.1038 15.8942 27.2346 15.581 27.2346 15.2544V6.48898C27.2345 6.16253 27.1036 5.84949 26.8708 5.61865C26.638 5.38782 26.3222 5.25806 25.993 5.25789H25.4642V2.98394C25.4642 2.65738 25.3334 2.34418 25.1005 2.11321C24.8677 1.88223 24.5519 1.75239 24.2225 1.75222V1.75159Z" fill="#352B1C"/>
<path d="M27.7583 9.37814H25.9904C25.6474 9.37814 25.3693 9.65387 25.3693 9.994V13.4997C25.3693 13.8398 25.6474 14.1155 25.9904 14.1155H27.7583C28.1014 14.1155 28.3795 13.8398 28.3795 13.4997V9.994C28.3795 9.65387 28.1014 9.37814 27.7583 9.37814Z" fill="#352B1C"/>
<path d="M27.7583 9.99402V13.4997H25.9929V9.99402H27.7608H27.7583ZM27.7608 8.7623H25.9929C25.6634 8.7623 25.3475 8.89207 25.1145 9.12306C24.8815 9.35405 24.7506 9.66735 24.7506 9.99402V13.4997C24.7506 13.8264 24.8815 14.1397 25.1145 14.3706C25.3475 14.6016 25.6634 14.7314 25.9929 14.7314H27.7608C28.0902 14.7312 28.406 14.6014 28.6389 14.3704C28.8717 14.1395 29.0025 13.8263 29.0025 13.4997V9.99402C29.0025 9.66746 28.8717 9.35426 28.6389 9.12328C28.406 8.89231 28.0902 8.76247 27.7608 8.7623Z" fill="#352B1C"/>
<path d="M24.2219 14.6367H22.4553C22.1122 14.6367 21.8341 14.9124 21.8341 15.2525V17.0054C21.8341 17.3455 22.1122 17.6212 22.4553 17.6212H24.2219C24.5649 17.6212 24.843 17.3455 24.843 17.0054V15.2525C24.843 14.9124 24.5649 14.6367 24.2219 14.6367Z" fill="#352B1C"/>
<path d="M24.2225 15.2525V17.0053H22.4552V15.2525H24.2225ZM24.2225 14.0208H22.4552C22.1257 14.0208 21.8097 14.1506 21.5768 14.3815C21.3438 14.6125 21.2129 14.9258 21.2129 15.2525V17.0053C21.2129 17.332 21.3438 17.6453 21.5768 17.8763C21.8097 18.1073 22.1257 18.2371 22.4552 18.2371H24.2225C24.5518 18.2369 24.8677 18.1071 25.1005 17.8761C25.3333 17.6451 25.4641 17.3319 25.4641 17.0053V15.2525C25.4636 14.9263 25.3326 14.6136 25.0998 14.383C24.867 14.1524 24.5515 14.0228 24.2225 14.0227V14.0208Z" fill="#352B1C"/>
<path d="M15.3836 23.4002H13.617C13.274 23.4002 12.9958 23.6759 12.9958 24.0161V25.7689C12.9958 26.109 13.274 26.3848 13.617 26.3848H15.3836C15.7267 26.3848 16.0048 26.109 16.0048 25.7689V24.0161C16.0048 23.6759 15.7267 23.4002 15.3836 23.4002Z" fill="#352B1C"/>
<path d="M15.3836 24.0161V25.7714H13.6163V24.0161H15.3836ZM15.3836 22.7844H13.6163C13.2869 22.7845 12.9711 22.9144 12.7383 23.1453C12.5054 23.3763 12.3746 23.6895 12.3746 24.0161V25.7714C12.3748 26.0979 12.5057 26.4109 12.7385 26.6418C12.9713 26.8726 13.287 27.0024 13.6163 27.0025H15.3836C15.5468 27.0028 15.7085 26.9711 15.8594 26.9094C16.0103 26.8476 16.1475 26.757 16.263 26.6427C16.3786 26.5283 16.4703 26.3925 16.5329 26.243C16.5955 26.0936 16.6277 25.9333 16.6278 25.7714V24.0161C16.6278 23.6894 16.4969 23.3761 16.2639 23.1451C16.031 22.9141 15.715 22.7844 15.3855 22.7844H15.3836Z" fill="#352B1C"/>
<path d="M10.0806 18.1417H8.31268C7.96963 18.1417 7.69153 18.4174 7.69153 18.7576V20.5104C7.69153 20.8505 7.96963 21.1263 8.31268 21.1263H10.0806C10.4236 21.1263 10.7017 20.8505 10.7017 20.5104V18.7576C10.7017 18.4174 10.4236 18.1417 10.0806 18.1417Z" fill="#352B1C"/>
<path d="M10.0806 18.7601V20.5129H8.31269V18.7601H10.0806ZM10.0806 17.5284H8.31269C7.98343 17.5287 7.66777 17.6586 7.43507 17.8896C7.20237 18.1205 7.07166 18.4336 7.07166 18.7601V20.5129C7.07182 20.8394 7.2027 21.1524 7.43552 21.3833C7.66834 21.6141 7.98407 21.7439 8.31333 21.744H10.0812C10.4106 21.744 10.7265 21.6143 10.9595 21.3835C11.1924 21.1526 11.3234 20.8395 11.3235 20.5129V18.7601C11.3235 18.4334 11.1927 18.1201 10.9597 17.8891C10.7267 17.6582 10.4107 17.5284 10.0812 17.5284H10.0806Z" fill="#352B1C"/>
<path d="M22.4552 0.615875H6.54474C6.20168 0.615875 5.92358 0.891606 5.92358 1.23174V2.98331C5.92358 3.32344 6.20168 3.59917 6.54474 3.59917H22.4552C22.7983 3.59917 23.0764 3.32344 23.0764 2.98331V1.23174C23.0764 0.891606 22.7983 0.615875 22.4552 0.615875Z" fill="#352B1C"/>
<path d="M22.4553 1.23172V2.9833H6.54478V1.23172H22.4553ZM22.4553 1.45779e-06H6.54478C6.38166 1.43651e-06 6.22015 0.0318655 6.06946 0.0937731C5.91877 0.155681 5.78186 0.246419 5.66655 0.360803C5.55125 0.475187 5.4598 0.610976 5.39743 0.760412C5.33507 0.909848 5.30302 1.07 5.3031 1.23172V2.9833C5.30302 3.14502 5.33507 3.30517 5.39743 3.45461C5.4598 3.60405 5.55125 3.73983 5.66655 3.85422C5.78186 3.9686 5.91877 4.05934 6.06946 4.12125C6.22015 4.18316 6.38166 4.21502 6.54478 4.21502H22.4553C22.6186 4.21527 22.7803 4.18359 22.9313 4.12181C23.0822 4.06002 23.2194 3.96933 23.335 3.85493C23.4505 3.74053 23.5422 3.60466 23.6048 3.4551C23.6673 3.30553 23.6995 3.14521 23.6995 2.9833V1.23172C23.6995 1.06981 23.6673 0.90949 23.6048 0.759926C23.5422 0.610363 23.4505 0.474495 23.335 0.360094C23.2194 0.245693 23.0822 0.155005 22.9313 0.0932163C22.7803 0.031428 22.6186 -0.000247637 22.4553 1.45779e-06Z" fill="#352B1C"/>
<path d="M6.54477 14.6367H4.77814C4.43508 14.6367 4.15698 14.9124 4.15698 15.2525V17.0054C4.15698 17.3455 4.43508 17.6212 4.77814 17.6212H6.54477C6.88782 17.6212 7.16592 17.3455 7.16592 17.0054V15.2525C7.16592 14.9124 6.88782 14.6367 6.54477 14.6367Z" fill="#352B1C"/>
<path d="M6.5447 15.2525V17.0053H4.77808V15.2525H6.5447ZM6.5447 14.0208H4.77808C4.4486 14.0208 4.13261 14.1506 3.89963 14.3815C3.66665 14.6125 3.53577 14.9258 3.53577 15.2525V17.0053C3.53577 17.332 3.66665 17.6453 3.89963 17.8763C4.13261 18.1073 4.4486 18.2371 4.77808 18.2371H6.5447C6.87419 18.2371 7.19017 18.1073 7.42315 17.8763C7.65613 17.6453 7.78701 17.332 7.78701 17.0053V15.2525C7.78701 14.9258 7.65613 14.6125 7.42315 14.3815C7.19017 14.1506 6.87419 14.0208 6.5447 14.0208Z" fill="#352B1C"/>
<path d="M4.7781 12.8838H3.01019C2.66714 12.8838 2.38904 13.1596 2.38904 13.4997V15.2525C2.38904 15.5926 2.66714 15.8684 3.01019 15.8684H4.7781C5.12115 15.8684 5.39925 15.5926 5.39925 15.2525V13.4997C5.39925 13.1596 5.12115 12.8838 4.7781 12.8838Z" fill="#352B1C"/>
<path d="M4.77816 13.4997V15.2525H3.01026V13.4997H4.77816ZM4.77816 12.268H3.01026C2.68078 12.268 2.36479 12.3977 2.13181 12.6287C1.89883 12.8597 1.76795 13.173 1.76795 13.4997V15.2525C1.76769 15.4144 1.79964 15.5748 1.86196 15.7245C1.92428 15.8741 2.01575 16.0101 2.13113 16.1247C2.24652 16.2393 2.38355 16.3302 2.5344 16.3922C2.68525 16.4542 2.84695 16.4862 3.01026 16.4862H4.77816C5.10753 16.486 5.42336 16.3561 5.6562 16.1252C5.88904 15.8942 6.01983 15.581 6.01983 15.2544V13.4997C6.01983 13.1731 5.88904 12.8599 5.6562 12.629C5.42336 12.398 5.10753 12.2681 4.77816 12.268Z" fill="#352B1C"/>
<path d="M24.2219 9.99402V8.24182V6.48898H22.4553V4.73614V2.98331H20.6874H18.9195H17.1516H15.3837H13.6164H11.8485H10.0806H8.31269H6.54479V4.73614V6.48898H4.77816V8.24182V9.99402H3.01025V11.7469V13.4997H4.77816V15.2525H6.54479V17.0054H8.31269V18.7569H10.0806V20.5098H11.8485V22.2632H13.6164V24.0161H15.3837V22.2632H17.1516V20.5098H18.9195V18.7569H20.6874V17.0054H22.4553V15.2525H24.2219V13.4997H25.9905V11.7469V9.99402H24.2219Z" fill="#22B093"/>
<path d="M25.9905 9.99402V11.7469V13.4997H27.7584V11.7469V9.99402H25.9905Z" fill="#009061"/>
<path d="M25.9904 13.4997H24.2225V15.2525H25.9904V13.4997Z" fill="#009061"/>
<path d="M24.2219 9.99402H25.9905V8.24182V6.48898H24.2219V8.24182V9.99402Z" fill="#009061"/>
<path d="M24.2218 15.2525H22.4552V17.0054H24.2218V15.2525Z" fill="#009061"/>
<path d="M22.4552 6.48898H24.2218V4.73614V2.98331H22.4552V4.73614V6.48898Z" fill="#009061"/>
<path d="M22.4553 17.0054H20.6874V18.7576H22.4553V17.0054Z" fill="#009061"/>
<path d="M20.6873 18.7576H18.9194V20.5104H20.6873V18.7576Z" fill="#009061"/>
<path d="M18.9194 20.5104H17.1515V22.2632H18.9194V20.5104Z" fill="#009061"/>
<path d="M17.1516 22.2632H15.3837V24.0161H17.1516V22.2632Z" fill="#009061"/>
<path d="M15.383 24.0161H13.6163V25.7689H15.383V24.0161Z" fill="#009061"/>
<path d="M13.6164 22.2632H11.8485V24.0161H13.6164V22.2632Z" fill="#009061"/>
<path d="M11.8485 20.5104H10.0806V22.2632H11.8485V20.5104Z" fill="#009061"/>
<path d="M10.0805 18.7576H8.31262V20.5104H10.0805V18.7576Z" fill="#009061"/>
<path d="M10.0806 2.98329H11.8485H13.6164H15.3837H17.1516H18.9195H20.6874H22.4553V1.23172H20.6874H18.9195H17.1516H15.3837H13.6164H11.8485H10.0806H8.3127H6.5448V2.98329H8.3127H10.0806Z" fill="#009061"/>
<path d="M8.3127 17.0054H6.5448V18.7576H8.3127V17.0054Z" fill="#009061"/>
<path d="M6.54471 15.2525H4.77808V17.0054H6.54471V15.2525Z" fill="#009061"/>
<path d="M6.54471 4.73614V2.98331H4.77808V4.73614V6.48898H6.54471V4.73614Z" fill="#009061"/>
<path d="M4.77816 13.4997H3.01025V15.2525H4.77816V13.4997Z" fill="#009061"/>
<path d="M4.77816 8.24182V6.48898H3.01025V8.24182V9.99402H4.77816V8.24182Z" fill="#009061"/>
<path d="M3.01021 9.99402H1.24231V11.7469V13.4997H3.01021V11.7469V9.99402Z" fill="#009061"/>
<path fill-rule="evenodd" clip-rule="evenodd" d="M15.8321 13.1769C15.7576 13.182 15.3734 13.2047 14.5159 13.2047C13.8336 13.2047 13.3494 13.1845 13.178 13.1769C10.5424 13.0619 8.57508 12.6084 8.57508 12.062C8.57508 11.5157 10.5424 11.0634 13.178 10.9465V12.7234C13.35 12.736 13.8438 12.7651 14.5254 12.7651C15.3441 12.7651 15.7537 12.731 15.8276 12.724V10.9478C18.4575 11.064 20.4204 11.5163 20.4204 12.062C20.4204 12.6078 18.4581 13.0607 15.8276 13.1763L15.8321 13.1769ZM15.8321 10.764V9.17348H19.5023V6.74857H9.50968V9.17348H13.1793V10.7634C10.1965 10.8992 7.9552 11.4853 7.9552 12.1871C7.9552 12.8889 10.1984 13.4744 13.1793 13.6108V18.7064H15.8315V13.6089C18.8073 13.4731 21.0466 12.8876 21.0466 12.1865C21.0466 11.4853 18.8092 10.8998 15.8315 10.7634L15.8321 10.764Z" fill="white"/>
</g>
<defs>
<clipPath id="clip0_13_1539">
<rect width="29" height="27" fill="white"/>
</clipPath>
</defs>
</svg>
