<?xml version="1.0" encoding="UTF-8"?>
<svg id="Logo" xmlns="http://www.w3.org/2000/svg" viewBox="0 0 500 500">
  <defs>
    <style>
      .cls-1 {
        fill: #2dd4bf;
      }

      .cls-2 {
        fill: #9cfd3a;
      }

      .cls-3 {
        fill: #352b1c;
      }

      .cls-4 {
        fill: #1a1a1a;
      }

      .cls-5 {
        fill: #fefefe;
      }
    </style>
  </defs>
  <g id="Logo-2">
    <path class="cls-3" d="M472.95,159.81h-5.15v-36.2c0-14.91-12.09-27-27-27h-5.15v-5.16c0-14.91-12.09-27-27-27h-5.15v-5.17c0-14.91-12.09-27-27-27h-36.2v-5.17c0-14.91-12.09-27-27-27h-126.48c-14.91,0-27,12.09-27,27v5.15h-36.22c-14.91,0-27,12.09-27,27v5.15h-5.16c-14.91,0-27,12.09-27,27h0v5.16h-5.17c-14.91,0-27,12.09-27,27v36.2h-5.17C12.19,159.77.1,171.86.1,186.77H.1v126.49c0,14.91,12.09,27,27,27h5.15v36.2c0,14.91,12.09,27,27,27h5.15v5.28c0,14.91,12.09,27,27,27h5.16v5.15c0,14.91,12.09,27,27,27h36.2v5c0,14.91,12.09,27,27,27h126.49c14.91,0,27-12.09,27-27h0v-5h36.2c14.91,0,27-12.09,27-27v-5.13h5.14c14.91,0,27-12.09,27-27h0v-5.29h5.15c14.91,0,27-12.09,27-27h0v-36.2h5.15c14.91,0,27-12.09,27-27h0v-126.44c.01-14.9-12.04-26.99-26.94-27.02Z"/>
    <polygon points="27.12 186.83 27.12 313.27 59.27 313.27 59.27 376.48 91.43 376.48 91.43 408.78 123.59 408.78 123.59 440.94 186.82 440.94 186.82 472.96 313.25 472.96 313.25 440.94 376.47 440.94 376.47 408.78 408.63 408.78 408.63 376.62 440.79 376.62 440.79 313.27 472.95 313.27 472.95 186.83 440.79 186.83 440.79 123.6 408.63 123.6 408.63 91.44 376.47 91.44 376.47 59.28 313.25 59.28 313.25 27.13 186.82 27.13 186.82 59.28 123.59 59.28 123.59 91.44 91.43 91.44 91.43 123.6 59.27 123.6 59.27 186.82 27.12 186.83"/>
    <rect class="cls-4" x="186.82" y="27.12" width="126.43" height="32.16"/>
    <rect class="cls-4" x="313.25" y="59.28" width="63.23" height="32.16"/>
    <rect class="cls-4" x="123.59" y="59.28" width="63.23" height="32.16"/>
    <polygon class="cls-4" points="91.43 123.6 59.27 123.6 59.27 186.82 91.43 186.82 91.43 123.6 123.59 123.6 123.59 91.44 91.43 91.44 91.43 123.6"/>
    <rect class="cls-4" x="27.11" y="186.82" width="32.16" height="126.45"/>
    <rect class="cls-4" x="408.63" y="123.6" width="32.16" height="63.22"/>
    <rect class="cls-4" x="440.79" y="186.82" width="32.16" height="126.45"/>
    <rect class="cls-4" x="376.47" y="91.44" width="32.16" height="32.16"/>
    <rect class="cls-4" x="186.82" y="440.8" width="126.43" height="32.16"/>
    <rect class="cls-4" x="313.25" y="408.64" width="63.23" height="32.16"/>
    <rect class="cls-4" x="123.59" y="408.64" width="63.23" height="32.16"/>
    <polygon class="cls-4" points="91.43 376.48 91.43 408.64 123.59 408.64 123.59 376.48 91.43 376.48 91.43 313.27 59.27 313.27 59.27 376.48 91.43 376.48"/>
    <rect class="cls-4" x="408.63" y="313.27" width="32.16" height="63.22"/>
    <rect class="cls-4" x="376.47" y="376.48" width="32.16" height="32.16"/>
    <polygon class="cls-4" points="415.59 119.76 415.59 119.72 413.07 119.72 413.07 119.76 415.59 119.76"/>
  </g>
  <g>
    <path class="cls-1" d="M198.85,323.62c-2.65-2.59-4.84-5.54-6.8-8.67-5.29-8.46-8.31-17.7-9.26-27.62-1.12-11.68.5-22.95,5.29-33.69,5.76-12.88,15.1-22.26,27.95-28.12.8-.36.9-.66.59-1.49-6.23-16.74-3.85-32.13,7.76-45.77,7.23-8.5,16.69-13.14,27.77-14.46,1.42-.17,2.86-.23,4.29-.24,7.34-.02,14.68,0,22.02-.02.8,0,1.03.19,1.02,1.01-.03,9.66-.03,19.31,0,28.97,0,.84-.17,1.09-1.06,1.09-7.24-.04-14.48-.03-21.73,0-7.16.02-12.92,6.11-12.59,13.28.31,6.86,5.93,12.23,12.79,12.23,14.91,0,29.82,0,44.72.02.36,0,.85-.28,1.11.26-.52.04-.77.46-1.08.77-9.99,9.95-19.97,19.91-29.95,29.87-.36.02-.71.06-1.07.06-9.2,0-18.39-.04-27.59,0-9.47.04-17.29,3.69-23.28,11.04-7.48,9.18-8.57,22.3-2.87,32.69,1.24,2.27,2.85,4.26,4.46,6.26-.18.22-.35.47-.55.67-5.12,5.12-10.23,10.24-15.36,15.35-2.19,2.18-4.4,4.35-6.6,6.52Z"/>
    <path class="cls-5" d="M198.85,323.62c2.2-2.17,4.41-4.34,6.6-6.52,5.13-5.11,10.24-10.23,15.36-15.35.2-.2.37-.45.55-.67.32.06.48.32.69.52,7.1,6.79,15.54,9.57,25.24,8.09,13.81-2.11,24.4-14.38,24.54-28.37.1-9.81.03-19.63.03-29.44,0-.29.05-.59-.15-.85,9.98-9.96,19.96-19.92,29.95-29.87.31-.31.56-.74,1.08-.77,0,16.05.02,32.1.02,48.14,0,22.61-.01,45.21.02,67.82,0,1-.25,1.22-1.22,1.21-9.79-.04-19.57-.03-29.36,0-.84,0-1.1-.16-1.08-1.05.06-3.08.02-6.17.02-9.48-1.96,1.94-3.87,3.59-5.98,4.99-6.32,4.19-13.26,6.64-20.77,7.52-9.84,1.16-19.37-.05-28.5-3.96-6.32-2.71-11.89-6.57-16.7-11.49-.13-.13-.23-.31-.34-.46Z"/>
    <path class="cls-2" d="M124.64,255.22c3.14,1.31,6.07,2.78,8.8,4.61,8.15,5.44,13,13.16,15.51,22.48,1.1,4.08,1.58,8.25,1.59,12.47,0,7.14-.1,14.29.05,21.43.15,7.22.94,14.37,3.45,21.22,1.63,4.43,3.99,8.38,7.42,11.69,3.51,3.38,7.75,4.94,12.52,5.23.78.05.88.25.74.97-.72,3.77-1.41,7.55-2.07,11.34-.13.73-.38.94-1.13.9-14.52-.78-25.49-7.52-33.14-19.77-5.16-8.27-7.86-17.39-8.83-27.05-.34-3.35-.35-6.71-.35-10.06,0-5.94.05-11.87-.03-17.81-.06-4.32-.68-8.56-2.08-12.68-2.45-7.19-7.34-11.92-14.42-14.47-4.65-1.67-9.49-2.28-14.4-2.34-.78,0-.97-.22-.96-.98.03-4.93.03-9.85,0-14.78,0-.74.19-.91.92-.92,4.77-.08,9.48-.59,14.05-2.1,8.03-2.66,13.1-8.1,15.35-16.21,1.12-4.05,1.57-8.18,1.58-12.37.02-7.27-.12-14.55.05-21.82.28-11.93,2.93-23.27,9.42-33.43,6.15-9.64,15-15.47,26.27-17.56,2.18-.4,4.4-.54,6.6-.75.79-.07.98.25,1.1.93.65,3.72,1.33,7.44,2.01,11.15.21,1.13.21,1.11-.97,1.18-3.48.19-6.87.83-9.94,2.55-5.01,2.81-8.15,7.17-10.11,12.48-1.76,4.76-2.37,9.72-2.71,14.74-.67,9.97-.28,19.95-.38,29.93-.07,6.79-1.29,13.33-4.05,19.56-3.65,8.25-9.69,14.16-17.65,18.23-1.35.69-2.74,1.31-4.21,2.01Z"/>
    <path class="cls-2" d="M375.38,255.22c-1.56-.76-3.06-1.44-4.53-2.2-6.54-3.39-11.88-8.08-15.55-14.55-3.32-5.85-5.14-12.17-5.52-18.86-.48-8.44-.09-16.89-.21-25.34-.09-5.94-.39-11.87-1.58-17.7-1.03-5.06-2.83-9.81-6.23-13.83-3.41-4.03-7.79-6.21-12.99-6.82-.97-.11-1.95-.18-2.92-.23-.43-.02-.57-.15-.49-.59.71-4.04,1.42-8.09,2.1-12.13.08-.5.35-.53.75-.51,6.53.27,12.75,1.71,18.58,4.77,7.58,3.98,12.95,10.07,16.86,17.55,3.76,7.19,5.82,14.88,6.71,22.92.37,3.35.45,6.7.47,10.06.04,7.01-.15,14.03.1,21.04.18,4.92,1.08,9.71,3.2,14.2,3.02,6.39,8.28,10.04,14.89,11.98,4.13,1.22,8.36,1.65,12.65,1.72.78.01,1.05.15,1.04,1-.04,4.89-.04,9.79,0,14.68,0,.83-.25,1-1.04,1.01-4.98.07-9.87.72-14.58,2.45-8.12,3-12.97,8.85-14.99,17.18-.89,3.66-1.26,7.38-1.27,11.14-.02,6.62.01,13.24,0,19.87-.02,8.05-1.27,15.91-4.06,23.47-3.82,10.35-9.98,18.9-19.52,24.76-5.82,3.58-12.21,5.09-18.97,5.31-.49.02-.74-.08-.84-.65-.68-3.88-1.41-7.75-2.11-11.63-.07-.36-.39-.88.47-.92,7.89-.34,13.4-4.49,17.32-11.05,2.83-4.73,4.4-9.9,5.29-15.32.85-5.16,1.22-10.35,1.18-15.58-.05-6.16-.07-12.33.02-18.49.14-9.77,2.69-18.79,8.79-26.59,4.18-5.34,9.66-8.96,15.83-11.61.35-.15.71-.31,1.15-.5Z"/>
  </g>
</svg>