<?xml version="1.0" encoding="UTF-8"?>
<svg width="500px" height="500px" viewBox="0 0 500 500" version="1.1" xmlns="http://www.w3.org/2000/svg" xmlns:xlink="http://www.w3.org/1999/xlink">
    <title>stKAIA备份 6</title>
    <defs>
        <radialGradient cx="71.8632984%" cy="50.0010323%" fx="71.8632984%" fy="50.0010323%" r="117.525657%" gradientTransform="translate(0.718633,0.500010),scale(1.000000,0.686192),rotate(90.000000),translate(-0.718633,-0.500010)" id="radialGradient-1">
            <stop stop-color="#FF6BB2" offset="0.980558%"></stop>
            <stop stop-color="#F68CBF" offset="7.88209%"></stop>
            <stop stop-color="#FFAE65" offset="23.5%"></stop>
            <stop stop-color="#EDFF7C" offset="45%"></stop>
            <stop stop-color="#8EFF8C" offset="62.5%"></stop>
            <stop stop-color="#89D6F7" offset="81%"></stop>
            <stop stop-color="#C78FFF" offset="99.4041%"></stop>
        </radialGradient>
    </defs>
    <g id="页面-1" stroke="none" stroke-width="1" fill="none" fill-rule="evenodd">
        <g id="stKAIA备份-6" fill-rule="nonzero">
            <g id="stKAIA备份-5">
                <g id="编组">
                    <g id="b" fill="#352B1C">
                        <path d="M472.99,159.75 L467.84,159.75 L467.84,123.54 C467.84,108.62 455.74,96.52 440.82,96.52 L435.67,96.52 L435.67,91.37 C435.67,76.45 423.57,64.35 408.65,64.35 L403.49,64.35 L403.49,59.19 C403.49,44.27 391.39,32.17 376.47,32.17 L340.26,32.17 L340.26,27.02 C340.26,12.1 328.16,0 313.24,0 L186.77,0 C171.85,0 159.75,12.1 159.75,27.02 L159.75,32.17 L123.54,32.17 C108.62,32.17 96.52,44.27 96.52,59.19 L96.52,64.34 L91.37,64.34 C76.45,64.34 64.35,76.44 64.35,91.36 L64.35,91.36 L64.35,96.52 L59.19,96.52 C44.27,96.52 32.17,108.62 32.17,123.54 L32.17,159.75 L27.02,159.75 C12.1,159.75 0,171.85 0,186.77 L0,186.77 L0,313.24 C0,328.16 12.1,340.26 27.02,340.26 L32.17,340.26 L32.17,376.47 C32.17,391.39 44.27,403.49 59.19,403.49 L64.34,403.49 L64.34,408.78 C64.34,423.7 76.44,435.8 91.36,435.8 L96.52,435.8 L96.52,440.95 C96.52,455.87 108.62,467.97 123.54,467.97 L159.75,467.97 L159.75,472.97 C159.75,487.89 171.85,499.99 186.77,499.99 L313.24,499.99 C328.16,499.99 340.26,487.89 340.26,472.97 L340.26,467.97 L376.47,467.97 C391.39,467.97 403.49,455.87 403.49,440.95 L403.49,435.82 L408.64,435.82 C423.56,435.82 435.66,423.72 435.66,408.8 L435.66,408.8 L435.66,403.5 L440.81,403.5 C455.73,403.5 467.83,391.4 467.83,376.48 L467.83,376.48 L467.83,340.27 L472.98,340.27 C487.9,340.27 500,328.17 500,313.25 L500,313.25 L500,186.78 C500,171.86 487.91,159.76 472.99,159.76 L472.99,159.76 L472.99,159.75 Z" id="路径"></path>
                    </g>
                    <g id="c" transform="translate(27.020000, 27.020000)">
                        <polygon id="路径" fill="#17181A" points="0 159.75 0 286.23 32.17 286.23 32.17 349.46 64.34 349.46 64.34 381.77 96.51 381.77 96.51 413.94 159.75 413.94 159.75 445.97 286.22 445.97 286.22 413.94 349.46 413.94 349.46 381.77 381.63 381.77 381.63 349.6 413.8 349.6 413.8 286.23 445.97 286.23 445.97 159.75 413.8 159.75 413.8 96.51 381.63 96.51 381.63 64.34 349.46 64.34 349.46 32.17 286.22 32.17 286.22 0 159.75 0 159.75 32.17 96.51 32.17 96.51 64.34 64.34 64.34 64.34 96.51 32.17 96.51 32.17 159.74"></polygon>
                        <path d="M225.133289,162.330566 C225.133289,152.80666 232.888329,145.047857 242.406961,145.047857 L273.318279,145.047857 L273.318279,103 L242.406961,103 C209.658922,103 183.103691,129.567303 183.103691,162.330566 C183.103691,170.880054 184.922384,179.006665 188.174399,186.341742 C162.741438,197.097566 145.852797,219.951269 141.920005,248.872779 C137.325654,280.624231 150.0429,314.875892 177.737407,331.423836 C202.454898,346.996172 241.100849,345.966175 261.979934,324.363425 L261.979934,338.705204 L305,338.705204 L305,179.612426 L242.425668,179.612426 C232.907036,179.612426 225.150295,171.854642 225.150295,162.330566 L225.133289,162.330566 Z M263,221 L263,261 C263,283.100021 245.081565,301 222.997955,301 C200.919457,301 183,283.081294 183,261 C183,238.918706 200.919457,221 222.997955,221 L263,221 Z" id="形状" fill="url(#radialGradient-1)"></path>
                    </g>
                </g>
                <g id="编组" transform="translate(27.000000, 27.000000)">
                    <rect id="矩形" fill="#B8FF85" x="159.75" y="0" width="126.47" height="32.17"></rect>
                    <rect id="矩形" fill="#B8FF85" x="286.22" y="32.17" width="63.24" height="32.17"></rect>
                    <rect id="矩形" fill="#B8FF85" x="96.51" y="32.17" width="63.24" height="32.17"></rect>
                    <polygon id="路径" fill="#B8FF85" points="64.34 96.51 32.17 96.51 32.17 159.74 64.34 159.74 64.34 96.51 96.51 96.51 96.51 64.34 64.34 64.34"></polygon>
                    <rect id="矩形" fill="#B8FF85" x="0" y="159.74" width="32.17" height="126.49"></rect>
                    <rect id="矩形" fill="#B8FF85" x="381.63" y="96.51" width="32.17" height="63.23"></rect>
                    <rect id="矩形" fill="#B8FF85" x="413.8" y="159.74" width="32.17" height="126.49"></rect>
                    <rect id="矩形" fill="#B8FF85" x="349.46" y="64.34" width="32.17" height="32.17"></rect>
                    <rect id="矩形" fill="#B8FF85" x="159.75" y="413.8" width="126.47" height="32.17"></rect>
                    <rect id="矩形" fill="#B8FF85" x="286.22" y="381.63" width="63.24" height="32.17"></rect>
                    <rect id="矩形" fill="#B8FF85" x="96.51" y="381.63" width="63.24" height="32.17"></rect>
                    <polygon id="路径" fill="#B8FF85" points="64.34 349.46 64.34 381.63 96.51 381.63 96.51 349.46 64.34 349.46 64.34 286.23 32.17 286.23 32.17 349.46"></polygon>
                    <rect id="矩形" fill="#B8FF85" x="381.63" y="286.23" width="32.17" height="63.23"></rect>
                    <rect id="矩形" fill="#B8FF85" x="349.46" y="349.46" width="32.17" height="32.17"></rect>
                    <polygon id="路径" fill="#5350EF" points="388.58 92.67 388.58 92.62 386.07 92.62 386.07 92.67"></polygon>
                </g>
            </g>
        </g>
    </g>
</svg>